<svg width="37" height="36" viewBox="0 0 37 36" fill="none" xmlns="http://www.w3.org/2000/svg">
<ellipse cx="18.3214" cy="18" rx="18.3214" ry="18" fill="#456573"/>
<path d="M24.2833 8.22852C24.6088 8.36316 24.9628 8.45293 25.2483 8.64368C25.8879 9.07007 26.1677 9.69843 26.1677 10.4558C26.1677 13.059 26.1677 15.6622 26.1677 18.271C26.1677 19.8027 26.162 21.3287 26.1734 22.8603C26.1734 23.1352 26.0878 23.3484 25.8879 23.5448C24.289 25.1044 22.69 26.6753 21.1025 28.2462C20.9255 28.4202 20.737 28.4875 20.4915 28.4875C17.9217 28.4819 15.3463 28.4875 12.7765 28.4875C11.406 28.4875 10.4809 27.5786 10.4752 26.2265C10.4752 23.4887 10.4752 20.7564 10.4752 18.0186C10.4752 15.5107 10.4866 13.0085 10.4695 10.5007C10.4581 9.3057 11.3089 8.40244 12.3083 8.26218C12.3254 8.26218 12.3425 8.24535 12.3597 8.23413C16.3285 8.22852 20.303 8.22852 24.2833 8.22852ZM25.1227 22.5517C25.1227 22.4564 25.1227 22.389 25.1227 22.3161C25.1227 19.4099 25.1227 16.4982 25.1227 13.592C25.1227 12.5429 25.1227 11.4937 25.1227 10.4446C25.1227 9.72648 24.6487 9.26082 23.9178 9.24399C23.7236 9.23838 23.5295 9.24399 23.3353 9.24399C19.8176 9.24399 16.2942 9.24399 12.7765 9.24399C11.9713 9.24399 11.5088 9.69843 11.5088 10.4783C11.5088 15.7183 11.5088 20.964 11.5088 26.2041C11.5088 27.0064 11.9656 27.4608 12.7765 27.4608C15.1464 27.4608 17.5163 27.4608 19.8919 27.4608C19.9604 27.4608 20.0346 27.4552 20.1203 27.4496C20.1203 26.8324 20.1146 26.2321 20.1203 25.6318C20.126 25.1998 20.0917 24.7566 20.1545 24.3302C20.3144 23.2867 21.2224 22.5517 22.296 22.5461C23.2268 22.5461 24.1633 22.5517 25.1227 22.5517ZM21.1482 26.6641C22.2046 25.6318 23.2554 24.5939 24.2947 23.5784C23.598 23.5784 22.867 23.5616 22.1361 23.584C21.6678 23.6009 21.2395 24.0216 21.1767 24.4873C21.1482 24.6949 21.1482 24.9081 21.1482 25.1157C21.1425 25.643 21.1482 26.1704 21.1482 26.6641Z" fill="white"/>
<path d="M18.3271 11.8249C18.5213 11.8249 18.7154 11.8249 18.9096 11.8249C19.1437 11.8306 19.2351 11.9203 19.2408 12.1503C19.2465 12.4589 19.2408 12.7675 19.2408 13.0817C19.2408 13.3958 19.3093 13.4632 19.6348 13.4632C19.9318 13.4632 20.223 13.4632 20.52 13.4632C20.8226 13.4632 20.9026 13.5473 20.9083 13.8335C20.9083 14.2037 20.914 14.574 20.9083 14.9387C20.9083 15.1855 20.8169 15.2697 20.5657 15.2697C20.2459 15.2697 19.9204 15.2641 19.6006 15.2697C19.3322 15.2697 19.2408 15.3651 19.2408 15.6288C19.2408 15.9429 19.2465 16.2627 19.2408 16.5769C19.2408 16.8182 19.1437 16.9135 18.8982 16.9191C18.5099 16.9248 18.1216 16.9248 17.7275 16.9191C17.482 16.9135 17.3906 16.8182 17.3849 16.5769C17.3792 16.2627 17.3849 15.9429 17.3849 15.6288C17.3849 15.3651 17.2935 15.2753 17.0194 15.2697C16.6996 15.2641 16.3741 15.2697 16.0543 15.2697C15.8145 15.2697 15.7174 15.1855 15.7174 14.9555C15.7117 14.5628 15.7117 14.1645 15.7174 13.7717C15.7231 13.5585 15.8145 13.4632 16.0429 13.4632C16.3627 13.4576 16.6882 13.4632 17.008 13.4632C17.3049 13.4632 17.3792 13.3846 17.3792 13.0985C17.3792 12.7899 17.3792 12.4814 17.3792 12.1672C17.3792 11.9147 17.4706 11.8249 17.7332 11.8193C17.836 11.8193 17.9331 11.8193 18.0359 11.8193C18.1387 11.8249 18.2358 11.8249 18.3271 11.8249Z" fill="white"/>
<path d="M18.3385 19.472C19.8918 19.472 21.4393 19.472 22.9926 19.472C23.3181 19.472 23.5522 19.6347 23.5979 19.8871C23.655 20.2069 23.4209 20.4875 23.0725 20.4931C22.6785 20.4987 22.2788 20.4931 21.8847 20.4931C19.138 20.4931 16.3912 20.4931 13.6444 20.4931C13.3075 20.4931 13.0791 20.3304 13.0391 20.0611C12.9877 19.7301 13.239 19.472 13.6273 19.472C14.5124 19.4664 15.4033 19.472 16.2884 19.472C16.968 19.4664 17.6532 19.4664 18.3385 19.472Z" fill="white"/>
<path d="M16.1743 22.9901C15.3006 22.9901 14.4269 22.9901 13.5532 22.9901C13.319 22.9901 13.1534 22.8723 13.0621 22.6703C12.9764 22.4852 13.0221 22.3056 13.1534 22.1541C13.2734 22.0139 13.439 21.9746 13.6217 21.9746C14.7809 21.9746 15.9459 21.9746 17.1051 21.9746C17.6305 21.9746 18.1502 21.9746 18.6755 21.9746C18.864 21.9746 19.041 22.0027 19.1666 22.1485C19.3037 22.3056 19.3551 22.4852 19.258 22.6815C19.1609 22.8779 18.9953 22.9901 18.7612 22.9901C17.9103 22.9901 17.0423 22.9901 16.1743 22.9901Z" fill="white"/>
<path d="M16.1801 24.4814C17.0481 24.4814 17.9103 24.4814 18.7783 24.4814C19.0467 24.4814 19.2466 24.6385 19.3037 24.8854C19.3551 25.1042 19.2409 25.3398 19.0182 25.4352C18.9154 25.4801 18.7955 25.4913 18.687 25.4913C16.9967 25.4969 15.3006 25.4969 13.6103 25.4913C13.2563 25.4913 13.0278 25.2725 13.0336 24.9695C13.0393 24.6778 13.2734 24.4814 13.6217 24.4814C14.4726 24.4814 15.3235 24.4871 16.1801 24.4814Z" fill="white"/>
</svg>
