<svg width="13" height="18" viewBox="0 0 13 18" fill="none" xmlns="http://www.w3.org/2000/svg">
<path d="M11.4353 0.680664C11.7047 0.792127 11.9978 0.866436 12.2342 1.02434C12.7636 1.37731 12.9953 1.89747 12.9953 2.52445C12.9953 4.67941 12.9953 6.83437 12.9953 8.99397C12.9953 10.2619 12.9905 11.5251 13 12.793C13 13.0206 12.9291 13.1971 12.7636 13.3596C11.44 14.6507 10.1164 15.9511 8.80221 17.2515C8.65567 17.3955 8.49967 17.4512 8.2964 17.4512C6.16914 17.4466 4.03716 17.4512 1.9099 17.4512C0.775361 17.4512 0.0095485 16.6989 0.00482126 15.5796C0.00482126 13.3132 0.00482126 11.0514 0.00482126 8.78498C0.00482126 6.70897 0.0142758 4.63761 9.4091e-05 2.56161C-0.00936039 1.57237 0.694998 0.824637 1.52227 0.70853C1.53645 0.70853 1.55063 0.694597 1.56481 0.685308C4.85024 0.680664 8.1404 0.680664 11.4353 0.680664ZM12.1302 12.5376C12.1302 12.4586 12.1302 12.4029 12.1302 12.3425C12.1302 9.93676 12.1302 7.52637 12.1302 5.12062C12.1302 4.25213 12.1302 3.38365 12.1302 2.51516C12.1302 1.92069 11.7378 1.53522 11.1327 1.52128C10.972 1.51664 10.8113 1.52128 10.6506 1.52128C7.73858 1.52128 4.82188 1.52128 1.9099 1.52128C1.24336 1.52128 0.860452 1.89747 0.860452 2.54303C0.860452 6.88081 0.860452 11.2232 0.860452 15.561C0.860452 16.2252 1.23863 16.6013 1.9099 16.6013C3.8717 16.6013 5.83351 16.6013 7.80004 16.6013C7.85677 16.6013 7.91822 16.5967 7.98913 16.5921C7.98913 16.0812 7.9844 15.5842 7.98913 15.0873C7.99386 14.7297 7.96549 14.3628 8.01749 14.0098C8.14985 13.146 8.90149 12.5376 9.79021 12.5329C10.5607 12.5329 11.336 12.5376 12.1302 12.5376ZM8.84003 15.9418C9.71457 15.0873 10.5844 14.2281 11.4447 13.3875C10.868 13.3875 10.2629 13.3735 9.65784 13.3921C9.27021 13.4061 8.91567 13.7544 8.86367 14.1399C8.84003 14.3117 8.84003 14.4882 8.84003 14.66C8.8353 15.0966 8.84003 15.5331 8.84003 15.9418Z" fill="#456573"/>
<path d="M6.50471 3.65796C6.66544 3.65796 6.82617 3.65796 6.98689 3.65796C7.18071 3.66261 7.25635 3.73692 7.26107 3.92733C7.2658 4.18277 7.26107 4.43821 7.26107 4.69829C7.26107 4.95837 7.3178 5.0141 7.58725 5.0141C7.83307 5.0141 8.07416 5.0141 8.31997 5.0141C8.57052 5.0141 8.6367 5.08377 8.64143 5.32063C8.64143 5.62715 8.64615 5.93367 8.64143 6.23555C8.64143 6.4399 8.56579 6.50957 8.35779 6.50957C8.09307 6.50957 7.82361 6.50492 7.55889 6.50957C7.33671 6.50957 7.26107 6.58852 7.26107 6.8068C7.26107 7.06688 7.2658 7.33161 7.26107 7.59169C7.26107 7.7914 7.18071 7.87035 6.97744 7.87499C6.65599 7.87964 6.33453 7.87964 6.00835 7.87499C5.80508 7.87035 5.72945 7.7914 5.72472 7.59169C5.71999 7.33161 5.72472 7.06688 5.72472 6.8068C5.72472 6.58852 5.64908 6.51421 5.42218 6.50957C5.15745 6.50492 4.888 6.50957 4.62327 6.50957C4.42473 6.50957 4.34437 6.4399 4.34437 6.24949C4.33964 5.92439 4.33964 5.59464 4.34437 5.26954C4.34909 5.09306 4.42473 5.0141 4.61382 5.0141C4.87854 5.00946 5.148 5.0141 5.41272 5.0141C5.65854 5.0141 5.71999 4.94908 5.71999 4.71222C5.71999 4.45679 5.71999 4.20135 5.71999 3.94127C5.71999 3.73227 5.79563 3.65796 6.01308 3.65332C6.09817 3.65332 6.17853 3.65332 6.26363 3.65332C6.34872 3.65796 6.42908 3.65796 6.50471 3.65796Z" fill="#456573"/>
<path d="M6.51421 9.98786C7.80002 9.98786 9.0811 9.98786 10.3669 9.98786C10.6364 9.98786 10.8302 10.1225 10.868 10.3315C10.9153 10.5963 10.7215 10.8285 10.4331 10.8331C10.1069 10.8378 9.776 10.8331 9.44982 10.8331C7.17602 10.8331 4.90222 10.8331 2.62842 10.8331C2.34951 10.8331 2.16042 10.6984 2.12733 10.4755C2.08479 10.2015 2.29278 9.98786 2.61424 9.98786C3.34696 9.98321 4.08441 9.98786 4.81713 9.98786C5.37967 9.98321 5.94694 9.98321 6.51421 9.98786Z" fill="#456573"/>
<path d="M4.72257 12.9002C3.99931 12.9002 3.27604 12.9002 2.55277 12.9002C2.35895 12.9002 2.22186 12.8027 2.14623 12.6355C2.07532 12.4822 2.11314 12.3336 2.22186 12.2082C2.32114 12.0921 2.45823 12.0596 2.6095 12.0596C3.56913 12.0596 4.53348 12.0596 5.49311 12.0596C5.92802 12.0596 6.3582 12.0596 6.7931 12.0596C6.9491 12.0596 7.09565 12.0828 7.19965 12.2035C7.3131 12.3336 7.35564 12.4822 7.27528 12.6448C7.19492 12.8073 7.05783 12.9002 6.86401 12.9002C6.15965 12.9002 5.44111 12.9002 4.72257 12.9002Z" fill="#456573"/>
<path d="M4.72735 14.1348C5.44589 14.1348 6.15971 14.1348 6.87825 14.1348C7.10043 14.1348 7.26588 14.2648 7.31315 14.4692C7.3557 14.6503 7.26115 14.8453 7.07679 14.9243C6.9917 14.9615 6.89243 14.9707 6.80261 14.9707C5.40335 14.9754 3.99936 14.9754 2.6001 14.9707C2.30701 14.9707 2.11792 14.7896 2.12265 14.5388C2.12737 14.2973 2.32119 14.1348 2.60955 14.1348C3.31391 14.1348 4.01827 14.1394 4.72735 14.1348Z" fill="#456573"/>
</svg>
