<svg width="18" height="19" viewBox="0 0 18 19" fill="none" xmlns="http://www.w3.org/2000/svg">
<path fill-rule="evenodd" clip-rule="evenodd" d="M14 13.0022L10 9.00218V5.82218C11.35 5.33218 12.26 3.93218 11.93 2.36218C11.68 1.18218 10.7 0.242183 9.51 0.0421831C7.63 -0.267817 6 1.17218 6 3.00218C6 4.30218 6.84 5.40218 8 5.82218V9.00218L4 13.0022H1C0.45 13.0022 0 13.4522 0 14.0022V17.0022C0 17.5522 0.45 18.0022 1 18.0022H4C4.55 18.0022 5 17.5522 5 17.0022V14.9522L9 10.7522L13 14.9522V17.0022C13 17.5522 13.45 18.0022 14 18.0022H17C17.55 18.0022 18 17.5522 18 17.0022V14.0022C18 13.4522 17.55 13.0022 17 13.0022H14Z" fill="#44C0C2"/>
</svg>
