<svg width="10" height="10" viewBox="0 0 10 10" fill="none" xmlns="http://www.w3.org/2000/svg">
<path d="M7.51903 4.40136C7.73395 4.40136 7.90818 4.23019 7.90818 4.01904C7.90818 3.80789 7.73395 3.63672 7.51903 3.63672C7.30411 3.63672 7.12988 3.80789 7.12988 4.01904C7.12988 4.23019 7.30411 4.40136 7.51903 4.40136Z" fill="#456573"/>
<path d="M9.975 2.29657C9.97254 2.19494 9.96515 1.65291 9.51935 1.21494C9.44546 1.14234 9.04893 0.767281 8.41841 0.767281H7.90858V0.392219C7.90858 0.18412 7.74356 0.00747818 7.5342 0.000218914C7.31254 -0.00704035 7.13028 0.167182 7.13028 0.38254V0.764861H5.35695V0.392219C5.35695 0.18412 5.19193 0.00747818 4.98257 0.000218914C4.76091 -0.00704035 4.57865 0.167182 4.57865 0.38254V0.764861H2.82502V0.392219C2.82502 0.18412 2.66 0.00747818 2.45065 0.000218914C2.22898 -0.00704035 2.04672 0.167182 2.04672 0.38254V0.764861H1.55906C0.699481 0.764861 0 1.44965 0 2.29657V8.2661C0 8.36773 0.00985184 8.90975 0.455648 9.34773C0.807852 9.69375 1.26596 9.76392 1.55659 9.79538C2.86196 9.79538 4.6353 9.79296 8.38146 9.79538C8.45043 9.7978 9.22626 9.81474 9.65974 9.27272C9.97008 8.88555 9.99224 8.35321 9.99471 8.30239C9.99471 8.2782 9.99471 8.25884 9.99471 8.24674C10.0046 6.24318 10.0021 4.31222 9.975 2.29657ZM0.780759 8.26852V2.29657C0.780759 1.87311 1.1305 1.53192 1.55906 1.53192H2.04672V1.90457C2.04672 2.11266 2.21174 2.28931 2.42109 2.29657C2.64276 2.30382 2.82502 2.1296 2.82502 1.91424V1.53192H4.57865V1.90457C4.57865 2.11266 4.74367 2.28931 4.95302 2.29657C5.17469 2.30382 5.35695 2.1296 5.35695 1.91424V1.53192H7.13028V1.90457C7.13028 2.11266 7.2953 2.28931 7.50465 2.29657C7.72632 2.30382 7.90858 2.1296 7.90858 1.91424V1.53192H8.41595C8.84696 1.53192 9.19424 1.87553 9.19424 2.29657V8.28546C9.19424 8.69681 8.85435 9.03074 8.43565 9.03074H1.56152C1.1305 9.03316 0.780759 8.68955 0.780759 8.26852Z" fill="#456573"/>
<path d="M5.82469 4.40136C6.03962 4.40136 6.21384 4.23019 6.21384 4.01904C6.21384 3.80789 6.03962 3.63672 5.82469 3.63672C5.60977 3.63672 5.43555 3.80789 5.43555 4.01904C5.43555 4.23019 5.60977 4.40136 5.82469 4.40136Z" fill="#456573"/>
<path d="M4.13036 6.0664C4.34528 6.0664 4.51951 5.89523 4.51951 5.68408C4.51951 5.47293 4.34528 5.30176 4.13036 5.30176C3.91544 5.30176 3.74121 5.47293 3.74121 5.68408C3.74121 5.89523 3.91544 6.0664 4.13036 6.0664Z" fill="#456573"/>
<path d="M2.43578 4.40136C2.6507 4.40136 2.82493 4.23019 2.82493 4.01904C2.82493 3.80789 2.6507 3.63672 2.43578 3.63672C2.22086 3.63672 2.04663 3.80789 2.04663 4.01904C2.04663 4.23019 2.22086 4.40136 2.43578 4.40136Z" fill="#456573"/>
<path d="M2.43578 6.0664C2.6507 6.0664 2.82493 5.89523 2.82493 5.68408C2.82493 5.47293 2.6507 5.30176 2.43578 5.30176C2.22086 5.30176 2.04663 5.47293 2.04663 5.68408C2.04663 5.89523 2.22086 6.0664 2.43578 6.0664Z" fill="#456573"/>
<path d="M2.43578 7.73144C2.6507 7.73144 2.82493 7.56027 2.82493 7.34912C2.82493 7.13797 2.6507 6.9668 2.43578 6.9668C2.22086 6.9668 2.04663 7.13797 2.04663 7.34912C2.04663 7.56027 2.22086 7.73144 2.43578 7.73144Z" fill="#456573"/>
<path d="M4.13036 7.73144C4.34528 7.73144 4.51951 7.56027 4.51951 7.34912C4.51951 7.13797 4.34528 6.9668 4.13036 6.9668C3.91544 6.9668 3.74121 7.13797 3.74121 7.34912C3.74121 7.56027 3.91544 7.73144 4.13036 7.73144Z" fill="#456573"/>
<path d="M4.13036 4.40136C4.34528 4.40136 4.51951 4.23019 4.51951 4.01904C4.51951 3.80789 4.34528 3.63672 4.13036 3.63672C3.91544 3.63672 3.74121 3.80789 3.74121 4.01904C3.74121 4.23019 3.91544 4.40136 4.13036 4.40136Z" fill="#456573"/>
<path d="M7.51903 6.0664C7.73395 6.0664 7.90818 5.89523 7.90818 5.68408C7.90818 5.47293 7.73395 5.30176 7.51903 5.30176C7.30411 5.30176 7.12988 5.47293 7.12988 5.68408C7.12988 5.89523 7.30411 6.0664 7.51903 6.0664Z" fill="#456573"/>
<path d="M5.82469 6.0664C6.03962 6.0664 6.21384 5.89523 6.21384 5.68408C6.21384 5.47293 6.03962 5.30176 5.82469 5.30176C5.60977 5.30176 5.43555 5.47293 5.43555 5.68408C5.43555 5.89523 5.60977 6.0664 5.82469 6.0664Z" fill="#456573"/>
<path d="M5.82469 7.73144C6.03962 7.73144 6.21384 7.56027 6.21384 7.34912C6.21384 7.13797 6.03962 6.9668 5.82469 6.9668C5.60977 6.9668 5.43555 7.13797 5.43555 7.34912C5.43555 7.56027 5.60977 7.73144 5.82469 7.73144Z" fill="#456573"/>
<path d="M7.51903 7.73144C7.73395 7.73144 7.90818 7.56027 7.90818 7.34912C7.90818 7.13797 7.73395 6.9668 7.51903 6.9668C7.30411 6.9668 7.12988 7.13797 7.12988 7.34912C7.12988 7.56027 7.30411 7.73144 7.51903 7.73144Z" fill="#456573"/>
</svg>
