<svg width="35" height="35" viewBox="0 0 35 35" fill="none" xmlns="http://www.w3.org/2000/svg">
<circle cx="17.5" cy="17.5" r="17.1" stroke="#456573" stroke-width="0.8"/>
<path d="M19.7159 13.0876C18.2422 13.0876 16.7685 13.0876 15.2948 13.0876C14.8328 13.0876 14.5287 12.8186 14.517 12.4092C14.5054 11.9882 14.8153 11.6841 15.2773 11.6841C18.248 11.6782 21.2188 11.6782 24.1837 11.6841C24.6047 11.6841 24.903 11.9355 24.9439 12.2923C24.9849 12.6431 24.7802 12.9648 24.4351 13.0583C24.3533 13.0817 24.2656 13.0817 24.1778 13.0817C22.6925 13.0876 21.2012 13.0876 19.7159 13.0876Z" fill="#456573"/>
<path d="M19.7159 24.298C18.2247 24.298 16.7393 24.298 15.2481 24.298C14.827 24.298 14.5229 24.0173 14.5112 23.6255C14.4995 23.222 14.7978 22.9179 15.2247 22.9004C15.289 22.9004 15.3533 22.9004 15.4235 22.9004C18.2773 22.9004 21.1311 22.9004 23.979 22.9004C24.0609 22.9004 24.1369 22.9004 24.2188 22.9004C24.6457 22.9121 24.9498 23.2103 24.9439 23.6138C24.9381 24.0173 24.634 24.298 24.1954 24.298C22.71 24.298 21.213 24.298 19.7159 24.298Z" fill="#456573"/>
<path d="M19.7159 17.2861C21.1954 17.2861 22.6749 17.2861 24.1603 17.2861C24.593 17.2861 24.8854 17.5376 24.9147 17.9177C24.9439 18.2978 24.71 18.6019 24.3357 18.6662C24.2422 18.6838 24.1486 18.6838 24.055 18.6838C21.1661 18.6838 18.2773 18.6838 15.3884 18.6838C15.3065 18.6838 15.2246 18.6838 15.1486 18.6721C14.7568 18.6195 14.5053 18.3212 14.5229 17.9352C14.5404 17.5668 14.827 17.2861 15.2129 17.2861C16.2831 17.2803 17.3591 17.2861 18.4293 17.2803C18.8562 17.2861 19.289 17.2861 19.7159 17.2861Z" fill="#456573"/>
<path d="M11.646 13.7895C10.874 13.7895 10.2366 13.1696 10.2366 12.4152C10.2366 11.6375 10.8623 11 11.6343 11C12.4062 10.9942 13.0378 11.6258 13.0378 12.4035C13.0436 13.1638 12.4179 13.7895 11.646 13.7895Z" fill="#456573"/>
<path d="M13.0375 23.6144C13.0375 24.3747 12.4001 25.0004 11.634 25.0004C10.8738 25.0004 10.2305 24.3571 10.2364 23.6086C10.2422 22.8249 10.8738 22.1992 11.6399 22.1992C12.4176 22.1992 13.0434 22.8308 13.0375 23.6144Z" fill="#456573"/>
<path d="M11.6691 16.5785C12.4586 16.596 13.0609 17.2393 13.0375 18.0346C13.0141 18.7832 12.365 19.3855 11.6106 19.368C10.8504 19.3504 10.2247 18.713 10.2364 17.9761C10.2539 17.1808 10.8913 16.5609 11.6691 16.5785Z" fill="#456573"/>
</svg>
