<svg width="24" height="24" viewBox="0 0 24 24" fill="none" xmlns="http://www.w3.org/2000/svg">
<path d="M14.4866 21.54H14.3566C9.91665 21.54 7.7766 19.79 7.4066 15.87C7.3666 15.46 7.6666 15.09 8.0866 15.05C8.4866 15.01 8.8666 15.32 8.9066 15.73C9.1966 18.87 10.6766 20.04 14.3666 20.04H14.4966C18.5666 20.04 20.0066 18.6 20.0066 14.53V8.01C20.0066 3.94 18.5666 2.5 14.4966 2.5H14.3666C10.6566 2.5 9.1766 3.69 8.9066 6.89C8.8566 7.3 8.5066 7.61 8.0866 7.57C7.6666 7.54 7.3666 7.17 7.3966 6.76C7.7366 2.78 9.88665 1 14.3566 1H14.4866C19.3966 1 21.4966 3.1 21.4966 8.01V14.53C21.4966 19.44 19.3966 21.54 14.4866 21.54Z" fill="#969696"/>
<path d="M14.2471 12.02H2.86719C2.45719 12.02 2.11719 11.68 2.11719 11.27C2.11719 10.86 2.45719 10.52 2.86719 10.52H14.2471C14.6571 10.52 14.9971 10.86 14.9971 11.27C14.9971 11.68 14.6571 12.02 14.2471 12.02Z" fill="#969696"/>
<path d="M5.0975 15.3698C4.9075 15.3698 4.7175 15.2998 4.5675 15.1498L1.2175 11.7998C0.9275 11.5098 0.9275 11.0298 1.2175 10.7398L4.5675 7.38986C4.8575 7.09986 5.3375 7.09986 5.6275 7.38986C5.9175 7.67986 5.9175 8.15986 5.6275 8.44986L2.8075 11.2698L5.6275 14.0898C5.9175 14.3798 5.9175 14.8598 5.6275 15.1498C5.4875 15.2998 5.2875 15.3698 5.0975 15.3698Z" fill="#969696"/>
</svg>
