<svg width="20" height="21" viewBox="0 0 20 21" fill="none" xmlns="http://www.w3.org/2000/svg">
<path fill-rule="evenodd" clip-rule="evenodd" d="M17.43 10.9822C17.47 10.6622 17.5 10.3422 17.5 10.0022C17.5 9.6622 17.47 9.3422 17.43 9.0222L19.54 7.3722C19.73 7.2222 19.78 6.9522 19.66 6.7322L17.66 3.2722C17.54 3.0522 17.27 2.9722 17.05 3.0522L14.56 4.0522C14.04 3.6522 13.48 3.3222 12.87 3.0722L12.49 0.422197C12.46 0.182197 12.25 0.00219727 12 0.00219727H7.99996C7.74996 0.00219727 7.53996 0.182197 7.50996 0.422197L7.12996 3.0722C6.51996 3.3222 5.95996 3.6622 5.43996 4.0522L2.94996 3.0522C2.71996 2.9622 2.45996 3.0522 2.33996 3.2722L0.339961 6.7322C0.209961 6.9522 0.269961 7.2222 0.459961 7.3722L2.56996 9.0222C2.52996 9.3422 2.49996 9.6722 2.49996 10.0022C2.49996 10.3322 2.52996 10.6622 2.56996 10.9822L0.459961 12.6322C0.269961 12.7822 0.219961 13.0522 0.339961 13.2722L2.33996 16.7322C2.45996 16.9522 2.72996 17.0322 2.94996 16.9522L5.43996 15.9522C5.95996 16.3522 6.51996 16.6822 7.12996 16.9322L7.50996 19.5822C7.53996 19.8222 7.74996 20.0022 7.99996 20.0022H12C12.25 20.0022 12.46 19.8222 12.49 19.5822L12.87 16.9322C13.48 16.6822 14.04 16.3422 14.56 15.9522L17.05 16.9522C17.28 17.0422 17.54 16.9522 17.66 16.7322L19.66 13.2722C19.78 13.0522 19.73 12.7822 19.54 12.6322L17.43 10.9822ZM9.99996 13.5022C8.06996 13.5022 6.49996 11.9322 6.49996 10.0022C6.49996 8.0722 8.06996 6.5022 9.99996 6.5022C11.93 6.5022 13.5 8.0722 13.5 10.0022C13.5 11.9322 11.93 13.5022 9.99996 13.5022Z" fill="#44C0C2"/>
</svg>
