<svg width="37" height="36" viewBox="0 0 37 36" fill="none" xmlns="http://www.w3.org/2000/svg">
<path d="M36.2429 18C36.2429 27.7136 28.2259 35.6 18.3214 35.6C8.41699 35.6 0.4 27.7136 0.4 18C0.4 8.28643 8.41699 0.4 18.3214 0.4C28.2259 0.4 36.2429 8.28643 36.2429 18Z" stroke="#FF6760" stroke-width="0.8"/>
<path d="M14.0095 24.3248C14.0255 24.7024 14.3359 25 14.7135 25H21.2911C21.6687 25 21.9807 24.7024 21.9951 24.3248L22.4655 14.408H13.5391L14.0095 24.3248ZM19.4895 16.872C19.4895 16.7136 19.6175 16.5856 19.7759 16.5856H20.2335C20.3919 16.5856 20.5199 16.7152 20.5199 16.872V22.5376C20.5199 22.696 20.3903 22.824 20.2335 22.824H19.7759C19.6175 22.824 19.4895 22.696 19.4895 22.5376V16.872ZM17.4879 16.872C17.4879 16.7136 17.6159 16.5856 17.7743 16.5856H18.2319C18.3903 16.5856 18.5183 16.7152 18.5183 16.872V22.5376C18.5183 22.696 18.3903 22.824 18.2319 22.824H17.7743C17.6159 22.824 17.4879 22.696 17.4879 22.5376V16.872ZM15.4847 16.872C15.4847 16.7136 15.6127 16.5856 15.7695 16.5856H16.2271C16.3855 16.5856 16.5135 16.7152 16.5135 16.872V22.5376C16.5135 22.696 16.3839 22.824 16.2271 22.824H15.7695C15.6111 22.824 15.4847 22.696 15.4847 22.5376V16.872ZM22.7775 11.7216H19.7439V11.1472C19.7439 11.0656 19.6783 11 19.5967 11H16.4095C16.3279 11 16.2623 11.0656 16.2623 11.1472V11.7216H13.2271C12.9839 11.7216 12.7855 11.9184 12.7855 12.1632V13.552H23.2191V12.1632C23.2191 11.92 23.0223 11.7216 22.7775 11.7216Z" fill="#FF6760"/>
</svg>
