<svg width="46" height="95" viewBox="0 0 46 95" fill="none" xmlns="http://www.w3.org/2000/svg">
<path d="M45.8865 15.0414C45.7132 17.2953 45.5398 19.2025 45.0196 20.9363C44.8463 21.6298 44.6729 22.1499 44.4995 22.8434C42.4189 31.8592 41.2053 41.2217 40.6851 50.5842C40.6851 51.2777 40.6851 51.9713 40.5117 52.4914C40.3384 55.7856 40.165 59.0798 39.6449 62.374C38.778 66.8819 37.0442 71.3898 34.2701 76.0711C32.0162 80.0588 29.2421 83.8732 26.1212 87.3408C25.4277 88.0343 24.7342 88.9011 23.6939 89.2479C22.827 89.5947 21.6134 89.7681 20.5731 89.0746C18.1458 93.2357 16.0652 95.1428 14.158 94.7961C12.2508 94.4493 11.0372 92.1954 10.1703 87.6875C9.9969 87.6875 9.99691 87.6875 9.82353 87.5141C9.65015 87.5141 9.65017 87.5141 9.65017 87.5141C9.30341 87.3407 9.13003 87.1674 8.78327 86.994C8.26313 86.4738 7.91636 85.9537 7.39622 85.2602C6.7027 84.0465 5.83581 82.8328 5.31567 81.4458C1.6747 72.9502 2.02144 63.5877 2.88834 55.4389C3.06172 53.5317 3.23511 51.7979 3.58187 49.8907C4.44877 43.3023 5.31565 36.5405 4.62214 29.7786C3.58186 28.7384 2.88833 27.6981 2.36819 26.311C1.67467 24.5772 0.98117 22.8434 0.461031 20.9363C-0.752628 16.255 0.634406 11.4004 4.27538 8.27956C9.3034 3.77168 13.9847 2.90478 18.3192 5.67886C19.8796 6.71914 21.7867 6.37237 23.0004 5.15871C25.4277 2.38464 29.0687 0.824219 32.7097 0.824219C34.4435 0.824219 36.1773 1.17096 37.9111 1.86448C43.2858 3.94504 46.4067 8.97306 45.8865 15.0414ZM14.5048 93.409C15.0249 93.5824 16.5854 93.0623 19.5328 87.8609C19.3594 87.5141 19.3594 87.1673 19.1861 86.8206C18.6659 84.2199 19.7062 81.6192 20.5731 79.1919L20.9199 78.4984C24.2141 69.3092 25.081 59.2532 23.5205 49.5439C21.6134 52.318 20.2263 55.4389 19.1861 58.9065C18.1458 62.5474 17.4522 66.3618 17.1055 71.2164C16.9321 72.4301 16.9321 73.8171 16.9321 75.0308C16.9321 75.8977 16.9321 76.7646 16.7587 77.8049C16.5853 79.3653 16.5854 81.0991 16.5854 82.8329V83.0063C16.5854 84.0465 16.7587 85.2602 16.0652 86.3005C15.7185 86.994 15.0249 87.5141 14.158 87.8609C13.4645 88.0343 12.9444 88.2077 12.2509 88.2077H12.0775C12.9444 92.5422 13.9846 93.2357 14.5048 93.409ZM4.62214 55.4389C3.75524 63.4143 3.40848 72.6034 6.87608 80.7523C7.39622 82.1393 8.08975 83.353 8.78327 84.3933C9.13003 84.9134 9.65016 85.4335 9.99692 85.9537C10.1703 86.1271 10.1703 86.1271 10.3437 86.1271H10.5171C10.8638 86.3005 11.0372 86.3005 11.384 86.4739C11.9041 86.6472 12.771 86.6472 13.4645 86.3005C13.9847 86.1271 14.3314 85.7803 14.5048 85.4336C14.8515 84.74 14.8516 83.8732 14.8516 83.0063V82.8329C14.8516 81.0991 14.8515 79.3653 15.0249 77.6315C15.0249 76.7646 15.1983 75.8977 15.1983 75.0308C15.1983 73.6437 15.3717 72.4301 15.3717 71.043C15.7184 66.1884 16.412 62.0273 17.4523 58.3863C18.8393 53.8784 20.5731 50.0641 23.1738 46.9432L24.2141 45.5562L24.5608 47.29C26.6414 57.8662 25.7745 68.6157 22.1335 78.8451L21.7868 79.5387C20.9199 81.7926 20.0529 84.2199 20.5731 86.4739C20.7465 86.994 20.9198 87.5141 21.0932 87.6875C21.6134 88.0342 22.3069 88.0343 22.827 87.8609C23.5205 87.5141 24.0407 86.994 24.7342 86.3005C27.855 83.0063 30.4557 79.3652 32.7097 75.3775C35.3104 70.8696 37.0442 66.3618 37.9111 62.2007C38.4312 59.0798 38.6046 55.7856 38.778 52.4914C38.778 51.7979 38.778 51.1044 38.9513 50.5842C39.2981 42.7821 40.3384 34.98 41.7254 27.3513C41.3787 27.6981 41.0319 28.2182 40.6851 28.565C38.9513 30.4722 36.8708 31.6858 34.6168 32.5527C34.2701 32.7261 33.9233 32.7261 33.4032 32.8995C32.3629 33.2462 31.3226 33.4196 30.109 33.4196C29.4154 33.4196 28.5486 33.4196 27.855 33.4196C26.9881 33.4196 26.2946 33.4196 25.4277 33.593C24.3874 33.7664 23.5205 33.7664 22.4803 33.9397C17.4522 34.98 13.1177 34.6333 9.30339 32.8995C8.95663 32.7261 8.60988 32.5527 8.26312 32.3793C8.08974 32.206 7.91636 32.206 7.74298 32.0326C7.22284 31.8592 6.87608 31.5124 6.52932 31.1657C6.87608 37.4074 6.18257 43.8224 5.31567 49.8907C4.96891 51.7979 4.79552 53.5317 4.62214 55.4389ZM37.3909 3.25153C32.7097 1.34435 27.5083 2.55802 24.3874 6.02561C23.3472 7.06589 21.9601 7.75941 20.5731 7.75941C19.5328 7.75941 18.4925 7.41265 17.6256 6.89251C13.9846 4.46519 9.99691 5.33208 5.48903 9.31982C2.3682 12.0939 0.98117 16.4284 2.19483 20.5895C2.71497 22.3233 3.23511 24.0571 3.92863 25.6175C4.62215 27.178 5.66242 28.3916 6.87608 29.4319C7.5696 29.952 8.43649 30.4722 9.30339 30.9923C9.65014 31.1657 9.99691 31.3391 10.3437 31.5124C12.5976 32.5527 14.8515 32.8995 17.2789 32.8995C18.8393 32.8995 20.5731 32.5527 22.3069 32.3793H22.4803C22.827 32.3793 23.1738 32.2059 23.5205 32.2059C24.7342 31.8592 25.9479 31.8592 27.1615 31.8592C27.5083 31.8592 27.855 31.8592 28.2018 31.8592C28.3752 31.8592 28.3752 31.8592 28.5486 31.8592C30.2824 31.8592 31.8428 31.6858 33.4032 31.339C35.8305 30.6455 37.9111 29.4319 39.8182 27.6981C41.3787 26.1377 42.5923 24.4039 43.4592 22.1499C43.6326 21.6298 43.806 21.1096 43.9793 20.5895C44.3261 19.0291 44.6729 17.1219 44.8462 14.868C44.6729 9.49319 42.0722 5.1587 37.3909 3.25153Z" fill="black"/>
</svg>
