<svg width="47" height="101" viewBox="0 0 47 101" fill="none" xmlns="http://www.w3.org/2000/svg">
<path d="M1.90944 77.8548C2.08282 76.9879 2.25613 76.121 2.60289 75.2541C2.77627 74.3872 3.12303 73.5203 3.46979 72.6534V71.7865C4.33669 61.9039 4.33669 50.9809 3.46979 38.4976C4.16331 24.6272 8.15107 15.0913 15.0863 10.41C17.687 7.98273 19.5942 7.11583 20.9812 7.80935C22.1949 8.32948 22.715 9.88991 22.715 12.4906C22.715 12.664 22.715 12.664 22.715 12.8374C27.2229 4.16837 30.8639 0.00725411 33.4646 0.874153C35.8919 1.56767 37.1055 6.07555 36.7587 14.3978C36.9321 13.7043 37.2789 13.0107 37.4523 12.1438C37.9724 10.7568 38.4925 9.36977 39.3594 8.32949C40.5731 6.76907 41.7868 6.07556 42.827 6.42232C44.2141 6.76907 45.2544 8.50287 46.1213 11.7971C47.8551 18.0388 46.9881 27.0545 43.6939 40.7515C41.2666 50.114 40.5731 60.3434 41.6134 70.9196C42.1335 71.7865 42.6537 72.6534 43.0005 73.6937C46.2947 82.8828 46.9881 89.1245 45.0809 93.459C44.0407 95.8863 42.1335 97.7935 39.3594 98.8338C36.2386 100.047 32.771 101.434 28.9566 99.874C27.3962 99.3539 26.0092 98.3136 24.6221 96.9266C24.2754 96.5798 23.9286 96.2331 23.7553 95.8863C23.7553 95.7129 23.5818 95.5395 23.4085 95.3662C23.4085 95.1928 23.2351 95.1928 23.2351 95.0194C22.8884 95.1928 22.3682 95.7129 22.0215 96.0597C21.6747 96.2331 21.5014 96.5798 21.328 96.5798C19.5942 97.7935 17.3402 99.3539 15.0863 100.047C13.8726 100.394 12.8324 100.568 11.7921 100.568C10.7518 100.568 9.88486 100.394 9.01797 100.047C7.97769 99.7007 6.93739 99.3539 6.07049 98.8338C4.16331 97.7935 2.77633 96.5798 1.90944 95.1928C1.04254 93.9791 0.522355 92.2453 0.348975 90.5115C0.175595 86.177 1.04254 81.6692 1.90944 77.8548ZM33.2911 2.43457C31.5573 1.91443 27.743 5.72879 22.1949 17.8654C19.0741 30.3487 19.5942 40.2314 23.5819 47.8601C27.3963 40.7515 31.384 31.5624 35.3717 19.7726C36.412 4.68851 33.9847 2.78133 33.2911 2.43457ZM42.6537 40.4048C45.9479 27.2279 46.6414 18.2121 45.0809 12.3172C44.214 8.84962 43.3472 8.15611 42.827 8.15611C42.3069 7.98273 41.6134 8.50286 40.7465 9.54314C40.0529 10.41 39.5328 11.6237 39.0127 12.8374C38.1458 15.4381 37.4523 17.8654 36.5854 20.2927L34.6782 25.8408V25.6675C31.0372 35.7235 27.5697 43.699 23.9287 49.9406L23.2351 50.9809L22.5416 49.9406C18.5538 43.0055 17.3402 34.3365 19.074 23.7603L18.5539 24.974L20.4611 17.3452C20.4611 16.9985 20.6344 16.8251 20.6344 16.4783C20.9812 15.0913 21.1546 13.8776 21.1546 12.4906C21.1546 10.5834 20.8078 9.54315 20.2877 9.19639C19.9409 9.02301 18.7272 8.84963 15.9532 11.6237H15.7798C9.19139 15.9582 5.55043 24.974 4.85691 38.4976C5.72381 50.114 5.72377 60.3434 5.03025 69.8793C5.20363 69.7059 5.20365 69.5326 5.37703 69.3592C5.55041 69.0124 5.89717 68.839 6.24393 68.4923C6.41731 68.3189 6.59071 68.3189 6.59071 68.1455C6.93747 67.7988 7.28419 67.452 7.63095 67.2786C8.67123 66.4117 9.71155 65.8916 10.9252 65.3715C11.272 65.1981 11.6187 65.0247 11.9654 65.0247C13.0057 64.6779 14.2194 64.5046 15.2597 64.5046C15.7798 64.5046 16.1266 64.5046 16.6467 64.5046C17.3402 64.6779 18.0338 64.6779 18.7273 65.0247C19.4208 65.1981 20.1143 65.5448 20.8078 65.8916C21.5013 66.2383 22.3683 66.4117 23.0618 66.2384C29.1301 65.1981 34.1581 65.7182 38.3192 67.9722C38.666 68.1455 39.0127 68.3189 39.1861 68.4923C39.3595 68.6657 39.3595 68.6657 39.5329 68.8391C39.7063 69.0124 39.7062 69.0124 39.8796 69.1858C39.5328 59.1298 40.2264 49.4205 42.6537 40.4048ZM2.08277 90.1648C2.25615 91.7252 2.77627 93.1122 3.46979 94.3259C4.16331 95.5395 5.37703 96.5798 7.11083 97.4467C7.97773 97.7935 8.84463 98.3136 9.71153 98.6604C11.4453 99.1805 13.0057 99.1805 14.9129 98.487C17.1669 97.7935 19.2474 96.4064 20.8078 95.1928C20.9812 95.0194 21.1546 94.846 21.328 94.6726C22.3683 93.8057 23.0618 93.2856 23.5819 93.2856C23.7553 93.2856 23.7553 93.2856 23.9287 93.2856C24.2755 93.459 24.6222 93.8057 24.9689 94.4993C24.9689 94.6726 25.1423 94.6726 25.1423 94.846C25.489 95.1928 25.6624 95.5395 26.0092 95.7129C27.2228 96.9266 28.4365 97.7935 29.8235 98.3136C32.9444 99.5273 35.7185 98.6604 39.1861 97.2733C41.6134 96.4064 43.1738 94.846 44.0407 92.7655C45.6011 88.9511 44.9076 82.8828 41.9601 74.2138C41.6134 73.3469 41.2667 72.6534 40.9199 71.9599L40.7465 71.6131C40.5731 71.2664 40.3997 71.093 40.2263 70.9196C40.053 70.7462 40.0529 70.7462 39.8796 70.5728C39.3594 70.0527 38.6659 69.5326 38.1458 69.1858C34.3314 67.1052 29.6502 66.5851 23.7553 67.6254C22.715 67.7988 21.6747 67.6254 20.6344 67.1053C16.2999 65.0247 11.9655 65.7182 7.97773 69.3592C7.45759 69.7059 7.11081 70.2261 6.76405 70.7462C6.24391 71.2664 5.89713 71.9599 5.55037 72.6534C5.03023 73.5203 4.68345 74.5606 4.33669 75.6009C4.16331 76.4678 3.98999 77.1613 3.64323 78.0282C2.42958 82.0159 1.73601 86.177 2.08277 90.1648Z" fill="black"/>
</svg>
