<svg width="35" height="101" viewBox="0 0 35 101" fill="none" xmlns="http://www.w3.org/2000/svg">
<path d="M34.4859 16.5573C33.619 22.4522 31.8852 27.1335 29.8046 30.7744C30.3248 51.9268 27.3773 74.2928 21.6558 92.1509C19.5752 97.0055 16.8012 99.953 13.3336 100.646C10.9062 101.167 8.47893 100.3 6.39837 98.2192C3.10416 95.0983 3.6243 91.284 3.97106 87.1229V86.4294C5.3581 72.2122 4.49118 54.0073 3.62428 36.496C3.4509 34.4154 3.45094 32.3349 3.27756 30.4277C2.0639 27.827 1.19699 24.8795 0.503469 21.5853V21.4119C0.330089 20.7184 0.330078 20.0249 0.330078 19.3314C0.330078 13.6098 1.19696 10.3156 3.45089 8.23507C6.39835 5.46099 10.0393 3.03369 13.8537 1.47327H14.0271C15.2407 1.12651 16.6278 0.953125 17.8414 0.953125C19.5752 0.953125 21.309 1.29988 22.8695 2.16678C26.1637 3.55382 29.1111 5.46098 31.7118 8.06168C33.619 10.3156 34.4859 13.2631 34.4859 16.5573ZM5.18469 33.5485C5.18469 34.5888 5.35808 35.4557 5.35808 36.496C6.22498 54.1807 7.0919 72.3856 5.70486 86.6028V87.2963C5.3581 91.1106 5.01131 94.5782 7.78539 97.1789C9.51919 98.9127 11.4264 99.4328 13.3336 99.0861C16.1076 98.5659 18.7083 95.9653 20.4421 91.6308C25.8169 74.6396 28.7643 53.4872 28.591 33.2018C26.1636 36.3226 23.3896 38.5766 20.2688 39.6168C19.922 39.7902 19.7486 39.7902 19.4019 39.9636C19.2285 39.9636 19.0551 40.1369 18.7083 40.1369H18.535C18.3616 40.1369 18.1882 40.1369 18.0148 40.1369C17.4947 40.1369 17.1479 40.3103 16.6278 40.3103C16.4544 40.3103 16.281 40.3103 16.1077 40.3103C15.9343 40.3103 15.7609 40.3103 15.5875 40.3103C15.4141 40.3103 15.4141 40.3103 15.2408 40.3103C14.0271 40.137 12.8134 39.7902 11.5998 39.27C11.0796 39.0967 10.7329 38.7499 10.2127 38.5765C10.0394 38.4032 9.86595 38.2298 9.51919 38.2298C9.34581 38.0564 9.17246 38.0564 9.17246 37.883C8.99908 37.7097 8.82568 37.7096 8.82568 37.5363C8.6523 37.3629 8.47894 37.1895 8.30556 37.0161C8.13218 36.8428 7.95877 36.6694 7.78539 36.496C7.61201 36.3226 7.43865 36.1492 7.26527 35.9758C6.22499 35.1089 5.70483 34.4154 5.18469 33.5485ZM30.3248 8.75522C27.8974 6.3279 25.1234 4.59411 22.0026 3.20707C19.7486 1.99341 17.1479 1.82002 14.3739 2.68692C10.7329 4.24734 7.26526 6.50127 4.49118 9.10197C2.584 10.8358 1.89049 13.9566 1.89049 19.158C1.89049 19.8515 2.06388 20.3716 2.06388 21.0652V21.2386C2.93078 26.44 4.66457 30.7745 7.26527 33.8953C7.43865 34.0687 7.61201 34.2421 7.78539 34.4154C7.95877 34.5888 8.13218 34.7622 8.30556 34.9356C8.47894 35.1089 8.82569 35.4557 8.99907 35.6291C9.17245 35.8025 9.5192 35.9759 9.69258 36.1492C9.86596 36.3226 9.86598 36.3226 10.0394 36.496C10.7329 37.0161 11.4264 37.3629 12.2933 37.7096C12.4667 37.883 12.8134 37.883 12.9868 38.0564C13.6803 38.4032 14.5472 38.5765 15.4141 38.5765C15.5875 38.5765 15.7609 38.5765 15.7609 38.5765C16.1076 38.5765 16.281 38.5765 16.6278 38.5765C16.8011 38.5765 17.1479 38.5765 17.3213 38.5765H17.4947C17.668 38.5765 17.8415 38.5765 18.0148 38.4031C18.1882 38.4031 18.3616 38.4032 18.535 38.2298C18.7083 38.2298 18.8817 38.0564 19.2285 38.0564C21.1356 37.3629 23.0428 36.1492 24.7766 34.4154C25.1234 34.0687 25.4701 33.5485 25.9903 33.2018L26.1637 33.0284C26.337 32.855 26.3371 32.6816 26.5104 32.5082C27.0306 31.8147 27.5507 31.1212 28.0708 30.2543L28.2442 30.0809C30.3248 26.6133 31.8852 22.1055 32.7521 16.3839C32.9255 13.4365 32.0586 11.0092 30.3248 8.75522Z" fill="black"/>
</svg>
