<svg width="32" height="101" viewBox="0 0 32 101" fill="none" xmlns="http://www.w3.org/2000/svg">
<path d="M0.273831 16.5573C1.14073 22.4522 2.70115 27.1335 4.60833 30.7744C4.08819 51.9268 6.86224 74.2928 12.0636 92.1509C13.9708 97.0055 16.5716 99.953 19.6924 100.646C21.9463 101.167 24.2002 100.3 26.1074 98.2192C29.0548 95.0983 28.7081 91.284 28.3614 87.1229V86.4294C27.1477 72.2122 27.8412 54.0073 28.7081 36.496C28.8814 34.4154 28.8815 32.3349 28.8815 30.4277C30.0952 27.827 30.7886 24.8795 31.3088 21.5853V21.4119C31.4821 20.7184 31.4822 20.0249 31.4822 19.3314C31.4822 13.6098 30.6153 10.3156 28.5347 8.23507C25.934 5.46099 22.4664 3.03369 18.9988 1.47327H18.8255C17.6118 1.12651 16.3982 0.953125 15.3579 0.953125C13.6241 0.953125 12.0637 1.29988 10.6766 2.16678C7.55578 3.55382 4.78168 5.46098 2.52775 8.06168C0.967329 10.3156 0.100451 13.2631 0.273831 16.5573ZM27.4945 33.5485C27.4945 34.5888 27.4944 35.4557 27.321 36.496C26.6275 54.1807 25.7606 72.3856 26.9743 86.6028V87.2963C27.321 91.1106 27.6678 94.5782 25.0671 97.1789C23.5067 98.9127 21.7729 99.4328 19.8657 99.0861C17.265 98.5659 15.0111 95.9653 13.2773 91.6308C8.2493 74.6396 5.47525 53.4872 5.82201 33.2018C8.07594 36.3226 10.6766 38.5766 13.4507 39.6168C13.7974 39.7902 13.9708 39.7902 14.3176 39.9636C14.4909 39.9636 14.6643 40.1369 14.8377 40.1369H15.0111C15.1845 40.1369 15.3579 40.1369 15.5312 40.1369C15.878 40.1369 16.3982 40.3103 16.7449 40.3103C16.9183 40.3103 17.0917 40.3103 17.265 40.3103C17.4384 40.3103 17.6118 40.3103 17.6118 40.3103C17.7852 40.3103 17.7852 40.3103 17.9586 40.3103C19.1723 40.137 20.2125 39.7902 21.2527 39.27C21.7729 39.0967 22.1197 38.7499 22.4664 38.5765C22.6398 38.4032 22.8132 38.2298 22.9865 38.2298C23.1599 38.0564 23.3333 38.0564 23.3333 37.883C23.5067 37.7097 23.5067 37.7096 23.6801 37.5363C23.8535 37.3629 24.0268 37.1895 24.2002 37.0161C24.3736 36.8428 24.547 36.6694 24.7203 36.496C24.8937 36.3226 25.0671 36.1492 25.2405 35.9758C26.4541 35.1089 26.9743 34.4154 27.4945 33.5485ZM4.08821 8.75522C6.34215 6.3279 8.7694 4.59411 11.7169 3.20707C13.7974 1.99341 16.2248 1.82002 18.8255 2.68692C22.1197 4.24734 25.4139 6.50127 28.0146 9.10197C29.7484 10.8358 30.4419 13.9566 30.4419 19.158C30.4419 19.8515 30.2685 20.3716 30.2685 21.0652V21.2386C29.4016 26.44 27.8412 30.7745 25.5872 33.8953C25.4139 34.0687 25.2405 34.2421 25.2405 34.4154C25.0671 34.5888 24.8937 34.7622 24.7203 34.9356C24.547 35.1089 24.3736 35.4557 24.0269 35.6291C23.8535 35.8025 23.6801 35.9759 23.3333 36.1492C23.1599 36.3226 23.1599 36.3226 22.9865 36.496C22.293 37.0161 21.5995 37.3629 20.906 37.7096C20.7326 37.883 20.3859 37.883 20.2125 38.0564C19.519 38.4032 18.8255 38.5765 17.9586 38.5765C17.7852 38.5765 17.7852 38.5765 17.6118 38.5765C17.4384 38.5765 17.0916 38.5765 16.9183 38.5765C16.7449 38.5765 16.5716 38.5765 16.2248 38.5765H16.0514C15.878 38.5765 15.7046 38.5765 15.5312 38.4031C15.3579 38.4031 15.1845 38.4032 15.0111 38.2298C14.8377 38.2298 14.6644 38.0564 14.491 38.0564C12.7572 37.3629 11.0234 36.1492 9.2896 34.4154C8.94284 34.0687 8.59602 33.5485 8.24926 33.2018L8.07592 33.0284C7.90254 32.855 7.90252 32.6816 7.72914 32.5082C7.209 31.8147 6.68888 31.1212 6.34212 30.2543L6.16868 30.0809C4.2615 26.6133 2.87453 22.1055 2.00763 16.3839C1.66087 13.4365 2.35441 11.0092 4.08821 8.75522Z" fill="black"/>
</svg>
