<svg width="31" height="104" viewBox="0 0 31 104" fill="none" xmlns="http://www.w3.org/2000/svg">
<path d="M1.78691 20.3308C2.48043 23.1049 3.52079 26.0523 4.90783 29.5199C5.08121 29.8667 5.25457 30.3868 5.42795 30.7336C7.50851 57.2607 10.6293 77.026 15.1372 92.8036C16.5242 96.9647 19.125 103.9 22.2458 103.38C24.4997 103.033 25.5399 99.0452 25.1932 92.2834C23.9795 71.6512 24.6731 51.1924 27.2738 31.4271C27.4471 31.2537 27.4472 31.0804 27.6205 30.907C28.3141 29.3466 29.0076 27.6127 29.3543 25.5322C29.8745 23.7984 30.2212 21.7179 30.3946 19.8107C30.9147 16.5165 31.2615 13.3956 30.2212 10.1014C29.0076 6.28704 26.5803 3.85972 22.7659 2.64606C22.0724 2.47268 21.3788 2.12593 20.8587 1.95255C18.6048 1.08565 16.3508 0.21875 13.9235 0.21875C13.7501 0.21875 13.4034 0.21875 13.23 0.21875C10.456 0.39213 8.20196 2.12593 6.1214 3.68635C5.77465 4.03311 5.42797 4.20649 4.90783 4.55325C4.04093 5.07338 3.34733 5.76689 2.65381 6.46041C1.44015 7.84745 0.746715 10.1014 0.573336 12.3553C0.399956 14.956 1.09339 17.5567 1.78691 20.3308ZM23.6328 92.2834C23.9796 99.5654 22.5926 101.646 21.899 101.819C21.0321 101.993 18.9515 100.259 16.5242 92.4568C12.1897 77.3728 9.24231 58.6478 7.16175 33.6811C7.33513 33.8544 7.50849 34.0278 7.68187 34.2012C7.85525 34.3746 8.0286 34.5479 8.20198 34.7213C8.20198 34.7213 8.20198 34.7213 8.20198 34.8947C8.37536 35.0681 8.37539 35.0681 8.54877 35.2415C8.72214 35.4148 9.06895 35.7616 9.24233 35.935C11.6696 38.1889 14.2703 39.4026 16.871 39.4026C18.4314 39.4026 19.8184 39.0558 21.2055 38.1889C21.3788 38.0155 21.5522 38.0155 21.7256 37.8422C22.0723 37.6688 22.2457 37.4954 22.5925 37.1487C22.7659 36.9753 22.9393 36.9753 23.1127 36.8019C23.2861 36.6285 23.4594 36.6285 23.4594 36.4551C23.6328 36.2817 23.6328 36.2817 23.8062 36.1084C24.1529 35.7616 24.4997 35.2415 24.8465 34.8947L25.0198 34.7213L25.1932 34.548C23.1126 53.273 22.4192 72.6915 23.6328 92.2834ZM3.52071 7.5007C4.04085 6.80718 4.90777 6.28704 5.60129 5.7669C5.94805 5.42014 6.29483 5.24676 6.81497 4.9C8.89552 3.33958 10.8027 1.95254 13.23 1.77916C15.6574 1.60578 18.0846 2.47269 20.3386 3.33959C21.0321 3.51297 21.7256 3.85972 22.4191 4.0331C25.8867 5.07338 27.7939 7.15393 28.8342 10.4481C29.7011 13.569 29.3543 16.3431 29.0076 19.4639C28.6608 21.3711 28.3141 23.2783 27.9673 25.0121C27.4472 26.9192 26.927 28.653 26.2335 30.0401C26.2335 30.0401 26.2335 30.2135 26.0601 30.2135L25.8867 30.7336C25.54 31.4271 25.1933 32.1206 24.8465 32.6408C24.6731 32.9875 24.4997 33.3343 24.1529 33.5077C23.9796 33.681 23.9795 33.8544 23.8062 33.8544C23.6328 34.0278 23.6328 34.2012 23.4594 34.2012C23.286 34.3746 23.2861 34.548 23.1127 34.548C22.9393 34.7213 22.9393 34.7213 22.7659 34.8947C22.5926 35.0681 22.5925 35.0681 22.4191 35.2415C22.2458 35.4148 22.0724 35.4148 22.0724 35.5882C21.7256 35.935 21.2054 36.2817 20.8587 36.4551C18.0846 38.1889 15.4839 37.6688 13.4034 36.4551C13.0566 36.2817 12.8832 36.1084 12.5365 35.935C12.3631 35.935 12.3631 35.7616 12.1897 35.7616C12.0163 35.5882 11.6696 35.4148 11.4962 35.2415C11.1495 34.8947 10.8027 34.7213 10.6293 34.3746C10.2826 34.0278 10.1092 33.8544 9.76244 33.5077C9.58907 33.3343 9.58904 33.1609 9.41566 33.1609C9.24228 32.9875 9.06893 32.8141 8.89555 32.6408C8.72217 32.4674 8.72214 32.294 8.54877 32.1206C8.20201 31.7739 8.02863 31.2537 7.68187 30.907C7.50849 30.7336 7.50846 30.5602 7.33508 30.3868C7.1617 30.2134 7.16168 30.0401 6.9883 29.8667C6.81492 29.5199 6.64157 28.9998 6.46819 28.653C5.08115 25.1854 4.04089 22.238 3.34737 19.6373C2.65385 17.0366 2.13369 14.6093 2.13369 12.1819C1.96031 10.4481 2.48043 8.54098 3.52071 7.5007Z" fill="black"/>
</svg>
