<svg width="58" height="56" viewBox="0 0 58 56" fill="none" xmlns="http://www.w3.org/2000/svg">
<path d="M38.118 55.0298H37.9446C36.2108 53.9895 33.2633 52.7759 29.449 52.6025C25.6346 52.6025 22.5138 53.8162 20.78 55.0298H20.6066H20.4332C15.2318 55.0298 10.3772 53.1226 6.73621 49.4817C6.56283 49.3083 6.38947 49.1349 6.21609 48.9615L5.69595 48.4414C1.18807 43.5867 0.841309 37.6918 0.841309 36.1314V35.958V35.7846C1.88159 34.2242 3.61539 30.93 3.44201 26.5955C3.26863 23.3013 1.88159 20.7006 0.841309 19.1402V18.9668V18.7934C0.841309 16.8863 1.18807 14.9791 1.70821 13.2453C2.22835 11.5115 3.61539 8.21727 6.56285 5.61657C11.4175 1.1087 17.8325 0.761944 20.2598 0.935323H20.4332C22.167 1.9756 25.808 3.53603 30.3159 3.18927C32.9166 3.01589 35.3439 2.14898 37.5978 0.935323H37.7712C38.6381 0.761944 46.4402 -0.625105 52.5085 5.09643L52.8552 5.44318C58.4034 10.9913 57.3631 18.0999 57.1897 18.9668V19.1402C56.1495 21.0474 54.9358 24.1682 55.1092 27.9826C55.2825 30.5833 55.9761 33.3573 57.1897 35.7846V35.958C57.1897 40.4659 55.4559 44.9738 52.3351 48.4414L51.9884 48.7881L51.815 48.9615C51.6416 49.1349 51.6416 49.1349 51.4682 49.3083C46.6136 54.6831 40.0251 55.0298 38.118 55.0298ZM7.25636 48.7881L7.42975 48.9615C10.8973 52.2557 15.4052 54.1629 20.4332 54.1629C22.3404 53.1226 25.4612 51.7356 29.2756 51.7356C29.2756 51.7356 29.2756 51.7356 29.449 51.7356C33.2633 51.7356 36.3842 53.1226 38.2914 54.1629C40.1985 54.1629 46.2668 53.6428 51.2948 48.9615L51.4682 48.7881L36.3842 35.2645C34.477 36.9983 32.0497 37.8652 29.6224 37.8652C26.8483 37.8652 24.421 36.8249 22.6872 35.0911L7.25636 48.7881ZM36.9043 34.571L51.9884 48.0946C54.9358 44.8004 56.6696 40.6393 56.6696 36.3048C55.2826 33.8775 54.589 31.1034 54.589 28.3293C54.4157 24.3416 55.6293 21.0474 56.6696 18.9668C56.843 17.9265 57.5365 11.5115 52.5085 6.31008L36.7309 21.2208C38.4647 22.9546 39.505 25.2085 39.505 27.8092C39.505 30.5833 38.4647 32.8372 36.9043 34.571ZM2.05496 36.4782C2.05496 38.212 2.57511 43.5867 6.56285 48.0946L21.8203 34.3976C20.2599 32.6638 19.3929 30.4099 19.3929 27.9826C19.3929 25.5552 20.2599 23.3013 21.8203 21.5675L6.73621 7.17698C4.48227 9.6043 3.442 12.3784 2.92186 13.7654C2.40172 15.4992 2.05496 17.233 2.05496 18.9668C3.09524 20.7006 4.48228 23.3013 4.65566 26.7689C5.00242 31.2768 3.26862 34.7444 2.05496 36.4782ZM29.449 19.3136C24.421 19.3136 20.2598 23.3013 20.2598 28.1559C20.2598 33.0106 24.421 36.9983 29.449 36.9983C31.8763 36.9983 34.1302 36.1314 35.864 34.3976C37.5978 32.6638 38.4647 30.5833 38.4647 28.1559C38.6381 23.1279 34.477 19.3136 29.449 19.3136ZM7.42975 6.65686L22.5138 21.0474C24.2476 19.3136 26.8483 18.2733 29.449 18.2733C32.0497 18.2733 34.3036 19.1402 36.2108 20.7006L51.9884 5.78996C46.4402 0.761949 39.505 1.80221 38.2914 1.97559C36.0374 3.36262 33.4367 4.05615 30.836 4.22953C26.1548 4.57629 22.3404 3.01587 20.4332 1.97559C18.0059 2.14897 12.111 2.32237 7.42975 6.65686Z" fill="black"/>
<path d="M29.4496 37.8717C23.9014 37.8717 19.3936 33.5372 19.3936 28.1624C19.3936 22.7876 23.9014 18.4531 29.4496 18.4531C34.9977 18.4531 39.5056 22.7876 39.5056 28.1624C39.5056 30.5897 38.6387 32.8437 36.9049 34.7508L36.5582 35.0976L36.2114 35.4444C34.4776 36.8314 32.0503 37.8717 29.4496 37.8717ZM29.4496 19.32C24.4216 19.32 20.2605 23.3078 20.2605 28.1624C20.2605 33.017 24.4216 37.0048 29.4496 37.0048C31.8769 37.0048 34.1308 36.1379 35.8646 34.4041C37.5984 32.6703 38.4653 30.5897 38.4653 28.1624C38.6387 23.1344 34.4776 19.32 29.4496 19.32Z" fill="black"/>
</svg>
