<svg width="33" height="104" viewBox="0 0 33 104" fill="none" xmlns="http://www.w3.org/2000/svg">
<path d="M31.3604 20.3308C30.4935 23.1049 29.4532 26.0523 28.0661 29.5199C27.8928 29.8667 27.7194 30.3868 27.546 30.7336C25.292 57.2607 21.9978 77.026 17.1432 92.8036C15.7562 96.9647 12.8087 103.9 9.5145 103.38C7.08718 103.033 6.0469 99.0452 6.39366 92.2834C7.60731 71.6512 6.91379 51.1924 4.13971 31.4271C3.96633 31.2537 3.96634 31.0804 3.79296 30.907C3.09944 29.3466 2.40594 27.6127 1.8858 25.5322C1.36566 23.7984 1.01888 21.7179 0.672117 19.8107C0.151978 16.5165 -0.194771 13.3956 0.845507 10.1014C2.05917 6.28704 4.65987 3.85972 8.82099 2.64606C9.51451 2.47268 10.208 2.12593 10.9015 1.95255C13.3289 1.08565 15.7562 0.21875 18.3569 0.21875C18.7036 0.21875 18.877 0.21875 19.2238 0.21875C22.1712 0.39213 24.5985 2.12593 26.8525 3.68635C27.1992 4.03311 27.7194 4.20649 28.0661 4.55325C28.933 5.07338 29.7999 5.76689 30.4935 6.46041C31.8805 7.84745 32.574 10.1014 32.574 12.3553C32.9208 14.956 32.2273 17.5567 31.3604 20.3308ZM7.7807 92.2834C7.43394 99.5654 8.82099 101.646 9.68789 101.819C10.5548 101.993 12.8087 100.259 15.5828 92.4568C20.264 77.3728 23.3849 58.6478 25.6388 33.6811C25.4654 33.8544 25.2921 34.0278 25.1187 34.2012C24.9453 34.3746 24.7719 34.5479 24.5985 34.7213C24.5985 34.7213 24.5986 34.7213 24.4252 34.8947C24.2518 35.0681 24.2518 35.0681 24.0784 35.2415C23.905 35.4148 23.5583 35.7616 23.2115 35.935C20.6108 38.1889 17.8367 39.4026 15.0626 39.4026C13.5022 39.4026 11.9418 39.0558 10.3814 38.1889C10.208 38.0155 10.0346 38.0155 9.68789 37.8422C9.34113 37.6688 8.99437 37.4954 8.82099 37.1487C8.64761 36.9753 8.47422 36.9753 8.30084 36.8019C8.12746 36.6285 7.95408 36.6285 7.7807 36.4551C7.60732 36.2817 7.60732 36.2817 7.43394 36.1084C7.08719 35.7616 6.56705 35.2415 6.22029 34.8947L6.0469 34.7213L5.87351 34.548C8.47421 53.273 8.99436 72.6915 7.7807 92.2834ZM29.4532 7.5007C28.7597 6.80718 28.0661 6.28704 27.1992 5.7669C26.8525 5.42014 26.3323 5.24676 25.9856 4.9C23.905 3.33958 21.6511 1.95254 19.0504 1.77916C16.4497 1.60578 13.849 2.47269 11.4217 3.33959C10.7282 3.51297 10.0346 3.85972 9.16774 4.0331C5.52677 5.07338 3.27283 7.15393 2.23255 10.4481C1.19227 13.569 1.53902 16.3431 2.05916 19.4639C2.40592 21.3711 2.75267 23.2783 3.27281 25.0121C3.79295 26.9192 4.3131 28.653 5.18 30.0401C5.18 30.0401 5.18001 30.2135 5.35339 30.2135L5.52676 30.7336C5.87352 31.4271 6.39365 32.1206 6.74041 32.6408C6.91379 32.9875 7.26057 33.3343 7.43394 33.5077C7.60732 33.681 7.60732 33.8544 7.7807 33.8544C7.95408 34.0278 7.95407 34.2012 8.12745 34.2012C8.30083 34.3746 8.47421 34.548 8.47421 34.548C8.64759 34.7213 8.82099 34.7213 8.82099 34.8947C8.99437 35.0681 9.16774 35.0681 9.16774 35.2415C9.34112 35.4148 9.51451 35.4148 9.68789 35.5882C10.208 35.935 10.5548 36.2817 11.0749 36.4551C14.0224 38.1889 16.7964 37.6688 19.0504 36.4551C19.3971 36.2817 19.5705 36.1084 19.9173 35.935C20.0907 35.935 20.264 35.7616 20.264 35.7616C20.6108 35.5882 20.7842 35.4148 20.9576 35.2415C21.3043 34.8947 21.6511 34.7213 21.9978 34.3746C22.3446 34.0278 22.518 33.8544 22.8647 33.5077C23.0381 33.3343 23.2115 33.1609 23.2115 33.1609C23.3849 32.9875 23.5583 32.8141 23.7316 32.6408C23.905 32.4674 24.0784 32.294 24.0784 32.1206C24.4251 31.7739 24.5985 31.2537 24.9453 30.907C25.1187 30.7336 25.1187 30.5602 25.2921 30.3868C25.4654 30.2134 25.4654 30.0401 25.6388 29.8667C25.8122 29.5199 25.9856 28.9998 26.159 28.653C27.7194 25.1854 28.7597 22.238 29.4532 19.6373C30.1467 17.0366 30.8402 14.6093 30.8402 12.1819C31.187 10.4481 30.4935 8.54098 29.4532 7.5007Z" fill="black"/>
</svg>
