<svg width="32" height="109" viewBox="0 0 32 109" fill="none" xmlns="http://www.w3.org/2000/svg">
<path d="M31.2025 98.5505C30.8557 91.2686 29.6421 83.9866 27.2147 77.0514C27.0414 76.7047 27.0414 76.3579 26.5212 75.6644V74.9709C23.7472 43.2424 19.7594 12.7275 9.70337 4.4053C6.23577 0.937708 4.15521 -0.275942 2.59479 0.417577C1.03437 0.937716 0.860979 3.01826 0.687599 4.57868C0.514219 6.83262 0.860979 9.08656 1.5545 11.1671C6.06237 25.0375 4.50199 48.9639 2.94157 71.8501L2.76818 75.3177C2.42142 76.3579 2.07466 77.3982 1.90128 78.6119C0.861 84.6802 0.34086 91.9621 0.16748 99.7642C0.16748 102.885 2.24803 105.312 6.06238 107.046C7.96956 107.913 10.2235 108.433 12.4775 108.607H24.0939C24.2673 108.607 24.2673 108.607 24.4407 108.607C25.8277 108.607 27.0414 108.086 28.0816 107.22C30.509 105.139 31.5492 102.192 31.2025 98.5505ZM4.67537 72.0234C6.23578 48.7905 7.79621 24.8641 3.11496 10.647C2.42144 8.7398 2.24806 6.65924 2.24806 4.57868C2.42144 2.49812 2.94158 1.97798 3.11496 1.97798C3.46172 1.8046 4.67533 1.97799 8.48969 5.79235C17.8522 13.5944 21.84 43.5891 24.614 72.717L24.4407 72.5436C24.0939 72.0234 23.7471 71.5033 23.4004 71.1565C23.227 70.9832 23.0536 70.6364 22.8802 70.463C22.8802 70.463 22.8802 70.2896 22.7069 70.2896C22.3601 69.9429 22.0133 69.4227 21.6666 69.076C21.4932 68.9026 21.1464 68.5558 20.9731 68.3825C20.7997 68.2091 20.6263 68.0357 20.4529 67.8623C20.2796 67.6889 20.1061 67.5156 19.9328 67.5156C19.7594 67.3422 19.4126 67.1688 19.2393 66.9954C19.0659 66.822 18.8925 66.822 18.5458 66.6487C18.5458 66.6487 18.5457 66.6487 18.3724 66.6487C18.199 66.4753 18.0256 66.4753 17.8522 66.3019C17.6789 66.3019 17.5055 66.1285 17.3321 66.1285H17.1587C16.9853 66.1285 16.8119 65.9551 16.6386 65.9551C16.4652 65.9551 16.2918 65.7818 16.1184 65.7818H15.9451C15.7717 65.7818 15.5983 65.7818 15.4249 65.7818C15.2515 65.7818 15.0781 65.7818 14.7314 65.7818C14.558 65.7818 14.558 65.7818 14.3846 65.7818C12.3041 65.7818 10.3969 66.6487 8.31635 68.2091C7.96959 68.5558 7.44943 68.9026 7.10267 69.2494C6.23577 69.9429 5.54227 70.9832 4.67537 72.0234C4.84875 71.8501 4.84875 71.8501 4.67537 72.0234ZM27.0414 106.179C26.3478 106.873 25.3075 107.22 24.2673 107.046H12.6508C10.5703 106.873 8.48969 106.526 6.75589 105.659C3.46168 104.272 1.90128 102.365 1.90128 99.9376C1.90128 92.1355 2.42141 84.8535 3.46169 78.9586C3.63507 77.9183 3.98183 76.8781 4.32859 75.8378C4.32859 75.6644 4.50198 75.491 4.50198 75.491C4.50198 75.3176 4.67537 75.1443 4.67537 75.1443C4.67537 74.9709 4.84876 74.9709 4.84876 74.7975C5.02214 74.6241 5.0221 74.4508 5.19548 74.2774C5.54224 73.7572 5.88901 73.2371 6.23577 72.8903C6.40915 72.717 6.58251 72.3702 6.75589 72.1968C7.10265 71.85 7.44942 71.3299 7.79618 70.9832C7.96956 70.8098 8.14297 70.6364 8.31635 70.463C10.5703 68.2091 12.6508 67.1688 14.7314 67.3422C14.9048 67.3422 15.0782 67.3422 15.2515 67.3422C15.2515 67.3422 15.2515 67.3422 15.4249 67.3422C15.5983 67.3422 15.7717 67.3422 15.7717 67.5156H15.9451C16.1184 67.5156 16.1184 67.5156 16.2918 67.6889C16.4652 67.6889 16.4652 67.6889 16.6386 67.8623C16.9853 68.0357 17.5055 68.2091 17.8522 68.3825C18.0256 68.3825 18.199 68.5558 18.3724 68.7292C18.7191 68.9026 18.8925 69.076 19.2393 69.2494C19.4126 69.4227 19.586 69.4227 19.7594 69.5961C19.9328 69.7695 20.1062 69.9429 20.4529 70.1163C20.6263 70.2896 20.7997 70.463 21.1464 70.8098C21.3198 70.9832 21.4932 71.3299 21.84 71.5033C22.0133 71.6767 22.1867 72.0234 22.5335 72.1968C22.7068 72.5436 22.8802 72.7169 23.227 73.0637L23.7471 73.7572C24.2673 74.4507 24.614 75.1443 25.1342 75.8378L25.3076 76.1846C25.6543 76.7047 26.0011 77.2248 26.1745 77.9183C28.4284 84.6802 29.8154 91.6154 30.1622 98.8973C29.9888 101.845 29.1219 104.272 27.0414 106.179Z" fill="black"/>
</svg>
