<svg width="31" height="107" viewBox="0 0 31 107" fill="none" xmlns="http://www.w3.org/2000/svg">
<path d="M1.78789 85.7602C2.48141 82.8128 3.52177 79.8653 4.90881 76.2243C5.08219 75.8776 5.25555 75.3574 5.42893 75.0107C7.50948 47.6167 10.6303 27.3312 15.1382 11.2069C16.5252 6.87241 19.126 -0.236155 22.2468 0.457364C24.5007 0.804124 25.5409 4.96524 25.1942 11.9004C23.9805 33.2261 24.674 54.3785 27.2747 74.4905C27.4481 74.6639 27.4481 74.8373 27.6215 75.0107C28.315 76.5711 29.0086 78.4783 29.3553 80.5588C29.8755 82.466 30.2222 84.3732 30.3956 86.4537C30.9157 89.9213 31.2625 93.0422 30.2222 96.5098C29.0086 100.324 26.5813 102.925 22.7669 104.138C22.0734 104.312 21.3798 104.659 20.8597 104.832C18.6057 105.699 16.3518 106.566 13.9245 106.566C13.7511 106.566 13.4044 106.566 13.231 106.566C10.4569 106.392 8.20294 104.659 6.12238 102.925C5.77562 102.578 5.42895 102.405 4.90881 102.058C4.04191 101.538 3.3483 100.844 2.65479 99.9774C1.44113 98.417 0.747692 96.3364 0.574312 93.9091C0.400932 91.3084 1.09437 88.5343 1.78789 85.7602ZM23.6338 11.5537C23.9806 4.09834 22.5935 1.84439 21.9 1.84439C21.0331 1.67101 18.9525 3.5782 16.5252 11.5537C12.1907 26.9845 9.24328 46.403 7.16272 72.0632C7.3361 71.8898 7.50946 71.7165 7.68284 71.5431C7.85622 71.3697 8.02958 71.1963 8.20296 71.0229C8.20296 71.0229 8.20296 71.0229 8.20296 70.8496C8.37634 70.6762 8.37636 70.6762 8.54974 70.5028C8.72312 70.3294 9.06992 69.9827 9.2433 69.8093C11.6706 67.382 14.2713 66.1683 16.872 66.1683C18.4324 66.1683 19.8194 66.6884 21.2064 67.5553C21.3798 67.7287 21.5532 67.7287 21.7266 67.9021C22.0733 68.0755 22.2467 68.2489 22.5935 68.5956C22.7668 68.769 22.9403 68.769 23.1137 68.9424C23.2871 69.1158 23.4604 69.2891 23.4604 69.2891C23.6337 69.4625 23.6338 69.4625 23.8071 69.6359C24.1539 69.9827 24.5007 70.5028 24.8475 70.8496L25.0208 71.0229L25.1942 71.1963C23.1136 51.9512 22.4201 31.8391 23.6338 11.5537ZM3.52168 99.1105C4.04182 99.804 4.90874 100.324 5.60226 100.844C5.94902 101.191 6.2958 101.364 6.81594 101.711C8.8965 103.272 10.8037 104.832 13.231 105.005C15.6583 105.179 18.0856 104.312 20.3395 103.445C21.0331 103.098 21.7266 102.925 22.4201 102.751C25.8877 101.538 27.7949 99.4572 28.8352 96.163C29.7021 93.0422 29.3553 90.0947 29.0085 86.8005C28.6618 84.7199 28.3151 82.8128 27.9683 81.079C27.4482 79.1718 26.928 77.438 26.2345 75.8776C26.2345 75.8776 26.2344 75.7042 26.0611 75.7042L25.8877 75.1841C25.541 74.4905 25.1942 73.797 24.8475 73.1035C24.6741 72.7567 24.5007 72.41 24.1539 72.0632C23.9805 71.8898 23.9805 71.7165 23.8071 71.5431C23.6338 71.3697 23.6337 71.1963 23.4604 71.1963C23.287 71.0229 23.2871 70.8496 23.1137 70.8496C22.9403 70.6762 22.9403 70.6762 22.7669 70.5028C22.5935 70.3294 22.5935 70.3294 22.4201 70.156C22.2467 69.9827 22.0733 69.9827 22.0733 69.8093C21.7266 69.4625 21.2064 69.1158 20.8597 68.9424C18.0856 67.2086 15.4849 67.7287 13.4044 68.9424C13.0576 69.1158 12.8842 69.2891 12.5375 69.4625C12.3641 69.6359 12.3641 69.6359 12.1907 69.8093C12.0173 69.9827 11.6706 70.156 11.4972 70.3294C11.1505 70.6762 10.8037 70.8496 10.6303 71.1963C10.2836 71.5431 10.1102 71.7165 9.76342 72.0632C9.59004 72.2366 9.59002 72.41 9.41664 72.5834C9.24326 72.7567 9.0699 72.9301 8.89652 73.1035C8.72314 73.2769 8.72312 73.4503 8.54974 73.6236C8.20298 73.9704 8.0296 74.4905 7.68284 74.8373C7.50946 75.0107 7.50944 75.1841 7.33606 75.3574C7.16268 75.5308 7.16266 75.7042 6.98928 75.8776C6.8159 76.2243 6.64254 76.7445 6.46916 77.0912C5.08212 80.7322 4.04187 83.6797 3.34835 86.4537C2.65483 89.0544 2.13467 91.6551 2.13467 94.2558C1.96129 95.9896 2.48141 97.8968 3.52168 99.1105Z" fill="black"/>
</svg>
