<svg width="45" height="93" viewBox="0 0 45 93" fill="none" xmlns="http://www.w3.org/2000/svg">
<path d="M3.29485 68.8289C3.64161 59.4664 4.33509 49.4104 6.06889 39.5277C7.28254 32.5925 9.01634 27.0444 11.2703 22.3631C12.6573 19.5891 14.2177 16.9884 16.1249 14.7344L16.2983 14.3877C19.9393 9.87979 22.0198 8.14598 23.5802 8.8395C24.1003 9.01288 24.4472 9.53303 24.6205 9.87979C24.9673 10.5733 25.1406 11.0934 25.314 11.787C27.2212 8.31937 29.3018 5.37192 31.9025 3.11798C34.3298 1.03742 36.0636 0.343893 37.1039 1.03741C38.1442 1.73093 38.4909 3.29135 38.1442 6.23881C39.7046 5.37191 40.9182 5.02516 41.7851 5.5453C42.652 5.89206 43.1722 6.93233 43.3455 8.31937C43.6923 11.0934 42.9988 13.8675 42.1319 16.6416C41.7851 18.0286 41.265 19.2423 41.0916 20.456C40.0514 26.0041 39.5312 31.0321 39.3578 35.8868C39.1845 40.9148 39.1845 45.9428 39.7046 50.9708C39.878 52.5312 41.0916 62.934 41.7851 64.8412C42.652 66.0548 43.3456 67.2685 43.6923 68.6555C43.8657 69.1757 44.0391 69.6958 44.0391 70.216C44.0391 70.3893 44.2124 70.7361 44.2124 70.9095C45.4261 78.5382 42.9988 87.0338 35.3701 90.6748C32.9428 91.7151 30.8622 91.5417 28.955 89.9813C28.6083 89.6345 27.7414 88.7676 27.568 88.2475C26.181 86.5137 23.7536 86.1669 22.0198 87.7273C18.5523 90.6748 14.9113 92.2352 11.6171 92.2352C10.4034 92.2352 9.18968 92.0618 7.97602 91.5417C5.37532 90.5014 2.25455 87.5539 1.21427 80.4454V80.272C0.520753 76.2843 1.38767 72.8167 3.29485 68.8289ZM36.0636 2.59783C36.0636 2.59783 35.1967 2.25107 32.596 4.50501C28.4349 8.31936 25.1406 14.0409 22.7133 21.843C22.1932 24.0969 21.6731 26.3509 21.4997 28.4314C21.153 32.2458 21.1529 35.8868 21.6731 39.5277V39.3544C21.8464 37.2738 22.1932 35.1932 22.54 33.2861C23.2335 29.4717 24.2737 26.0041 25.6608 22.5365C27.7413 17.6819 29.9953 13.8675 32.596 10.5733C32.9427 10.2265 33.4629 9.70641 34.1564 9.01289L35.7168 7.62585C36.7571 3.29136 36.0636 2.77121 36.0636 2.59783ZM37.7974 51.3176C37.4506 48.0233 37.2773 44.7291 37.2773 41.4349C37.2773 39.7011 37.2772 37.7939 37.4506 36.0601C37.624 31.2055 38.3176 26.0041 39.3578 20.2826C39.5312 18.8955 40.0513 17.5085 40.3981 16.1215C41.0916 13.6941 41.9585 11.0934 41.6117 8.66613C41.6117 8.14599 41.4383 7.45248 40.9182 7.2791C40.398 7.10572 39.3578 7.45248 38.1442 8.14599L37.4506 8.66613L35.1967 10.5733C34.5032 11.2668 34.1564 11.787 33.8097 12.1337C31.3823 15.2546 29.1284 18.8955 27.2212 23.5768C25.8342 26.6976 24.7939 30.1652 24.1004 33.9796C23.7537 35.8868 23.4069 37.7939 23.2335 39.8745C23.2335 40.2213 23.0601 40.7414 23.0601 41.2615C22.8867 42.4752 22.54 44.3824 22.8867 45.2493L21.3263 45.7694C19.7659 40.2213 19.2458 34.3263 19.7659 28.4314C19.9393 26.1775 20.4594 23.7502 20.9795 21.4962C21.1529 20.6293 21.4997 19.7624 21.6731 18.8955C21.8464 18.3754 22.0198 17.6819 22.1932 17.1617C22.8867 14.9078 23.5802 13.0006 22.7133 11.0934C22.5399 10.7467 22.54 10.7467 22.54 10.7467C22.3666 10.7467 21.3264 10.7467 17.1652 15.7747L16.9918 16.1215C15.258 18.202 13.6976 20.6293 12.3105 23.4034C10.0566 27.9113 8.49622 33.4594 7.28257 40.2213C5.72215 48.8902 5.20201 57.7326 4.68187 66.0548C4.85525 65.7081 5.20194 65.3613 5.37532 65.1879C5.37532 65.1879 5.37532 65.1879 5.37532 65.0146C5.37532 65.0146 5.37539 64.8412 5.54877 64.8412C5.89553 64.4944 6.06891 64.1477 6.41567 63.8009C7.45595 62.5872 8.84301 61.547 10.23 60.3333C10.4034 60.1599 10.5768 59.9865 10.7502 59.9865C10.9235 59.9865 10.9236 59.8132 11.0969 59.8132C11.2703 59.6398 11.6171 59.4664 11.9638 59.293C12.8307 58.7729 13.6976 58.2528 14.5645 57.7326C17.1652 56.519 19.9393 55.8254 22.54 55.8254C23.0601 55.8254 23.4068 55.8254 23.927 55.8254C24.2737 55.8254 24.4471 55.8254 24.7939 55.9988C25.1406 55.9988 25.314 55.9988 25.6608 56.1722C26.5277 56.3456 27.568 56.519 28.4349 56.8657C28.6083 56.8657 28.955 57.0391 29.1284 57.2125C29.6485 57.3858 30.342 57.7326 30.8622 57.906C31.0356 57.906 31.2089 58.0794 31.3823 58.0794C32.9427 58.7729 34.5032 59.6398 35.8902 60.6801C36.0636 60.8534 36.4103 61.0268 36.5837 61.2002L36.7571 61.3736C36.9305 61.547 37.2772 61.7203 37.4506 62.0671C37.624 62.2405 37.9708 62.4139 38.1442 62.7606C38.1442 62.7606 38.1441 62.7606 38.3175 62.934C38.4909 58.2528 37.7974 51.8377 37.7974 51.3176ZM7.97602 90.1546C11.4436 91.5417 16.1249 90.328 20.4594 86.5137C21.4997 85.6468 22.7133 85.1266 23.927 85.1266C25.4874 85.1266 27.0478 85.8201 28.2615 87.2072C28.955 88.0741 29.3018 88.4208 29.4752 88.5942C30.8622 89.6345 32.4226 89.8079 34.3298 88.941C41.7851 85.4734 43.8656 76.2843 41.7851 69.0023C41.6117 68.1354 41.0916 67.2685 40.3981 66.0548L40.2247 65.8815L40.0513 65.7081C36.5837 61.0268 29.3018 57.5592 24.6205 57.2125C20.9796 56.8657 17.1652 57.906 13.5242 60.3333C9.53646 62.934 6.58907 66.0548 5.02865 69.3491C3.29485 73.1634 2.42795 76.4576 2.42795 80.272C2.94809 85.4734 4.85518 88.7676 7.97602 90.1546Z" fill="black"/>
</svg>
