<svg width="33" height="107" viewBox="0 0 33 107" fill="none" xmlns="http://www.w3.org/2000/svg">
<path d="M31.3604 85.7602C30.4935 82.8128 29.4532 79.8653 28.0661 76.2243C27.8928 75.8776 27.7194 75.3574 27.546 75.0107C25.292 47.6167 21.9978 27.3312 17.1432 11.2069C15.7562 6.87241 12.8087 -0.236155 9.5145 0.457364C7.08718 0.804124 6.0469 4.96524 6.39366 11.9004C7.60731 33.2261 6.91379 54.3785 4.13971 74.4905C3.96633 74.6639 3.96634 74.8373 3.79296 75.0107C3.09944 76.5711 2.40594 78.4783 1.8858 80.5588C1.36566 82.466 1.01888 84.3732 0.672117 86.4537C0.151978 89.9213 -0.194771 93.0422 0.845507 96.5098C2.05917 100.324 4.65987 102.925 8.82099 104.138C9.51451 104.312 10.208 104.659 10.9015 104.832C13.3289 105.699 15.7562 106.566 18.3569 106.566C18.7036 106.566 18.877 106.566 19.2238 106.566C22.1712 106.392 24.5985 104.659 26.8525 102.925C27.1992 102.578 27.7194 102.405 28.0661 102.058C28.933 101.538 29.7999 100.844 30.4935 99.9774C31.8805 98.417 32.574 96.3364 32.574 93.9091C32.9208 91.3084 32.2273 88.5343 31.3604 85.7602ZM7.7807 11.5537C7.43394 4.09834 8.82099 1.84439 9.68789 1.84439C10.5548 1.67101 12.8087 3.5782 15.5828 11.5537C20.264 26.9845 23.3849 46.403 25.6388 72.0632C25.4654 71.8898 25.2921 71.7165 25.1187 71.5431C24.9453 71.3697 24.7719 71.1963 24.5985 71.0229C24.5985 71.0229 24.5986 71.0229 24.4252 70.8496C24.2518 70.6762 24.2518 70.6762 24.0784 70.5028C23.905 70.3294 23.5583 69.9827 23.2115 69.8093C20.6108 67.382 17.8367 66.1683 15.0626 66.1683C13.5022 66.1683 11.9418 66.6884 10.3814 67.5553C10.208 67.7287 10.0346 67.7287 9.68789 67.9021C9.34113 68.0755 8.99437 68.2489 8.82099 68.5956C8.64761 68.769 8.47422 68.769 8.30084 68.9424C8.12746 69.1158 7.95408 69.2891 7.7807 69.2891C7.60732 69.4625 7.60732 69.4625 7.43394 69.6359C7.08719 69.9827 6.56705 70.5028 6.22029 70.8496L6.0469 71.0229L5.87351 71.1963C8.47421 51.9512 8.99436 31.8391 7.7807 11.5537ZM29.4532 99.1105C28.7597 99.804 28.0661 100.324 27.1992 100.844C26.8525 101.191 26.3323 101.364 25.9856 101.711C23.905 103.272 21.6511 104.832 19.0504 105.005C16.4497 105.179 13.849 104.312 11.4217 103.445C10.7282 103.098 10.0346 102.925 9.16774 102.751C5.52677 101.538 3.27283 99.4572 2.23255 96.163C1.19227 93.0422 1.53902 90.0947 2.05916 86.8005C2.40592 84.7199 2.75267 82.8128 3.27281 81.079C3.79295 79.1718 4.3131 77.438 5.18 75.8776C5.18 75.8776 5.18001 75.7042 5.35339 75.7042L5.52676 75.1841C5.87352 74.4905 6.39365 73.797 6.74041 73.1035C6.91379 72.7567 7.26057 72.41 7.43394 72.0632C7.60732 71.8898 7.60732 71.7165 7.7807 71.5431C7.95408 71.3697 7.95407 71.1963 8.12745 71.1963C8.30083 71.0229 8.47421 70.8496 8.47421 70.8496C8.64759 70.6762 8.82099 70.6762 8.82099 70.5028C8.99437 70.3294 9.16774 70.3294 9.16774 70.156C9.34112 69.9827 9.51451 69.9827 9.68789 69.8093C10.208 69.4625 10.5548 69.1158 11.0749 68.9424C14.0224 67.2086 16.7964 67.7287 19.0504 68.9424C19.3971 69.1158 19.5705 69.2891 19.9173 69.4625C20.0907 69.6359 20.264 69.6359 20.264 69.8093C20.6108 69.9827 20.7842 70.156 20.9576 70.3294C21.3043 70.6762 21.6511 70.8496 21.9978 71.1963C22.3446 71.5431 22.518 71.7165 22.8647 72.0632C23.0381 72.2366 23.2115 72.41 23.2115 72.5834C23.3849 72.7567 23.5583 72.9301 23.7316 73.1035C23.905 73.2769 24.0784 73.4503 24.0784 73.6236C24.4251 73.9704 24.5985 74.4905 24.9453 74.8373C25.1187 75.0107 25.1187 75.1841 25.2921 75.3574C25.4654 75.5308 25.4654 75.7042 25.6388 75.8776C25.8122 76.2243 25.9856 76.7445 26.159 77.0912C27.7194 80.7322 28.7597 83.6797 29.4532 86.4537C30.1467 89.0544 30.8402 91.6551 30.8402 94.2558C31.187 95.9896 30.4935 97.8968 29.4532 99.1105Z" fill="black"/>
</svg>
