<svg width="45" height="90" viewBox="0 0 45 90" fill="none" xmlns="http://www.w3.org/2000/svg">
<path d="M3.29485 23.9072C3.64161 33.0963 4.33509 42.8056 6.06889 52.3415C7.28254 58.9299 9.01634 64.4781 11.2703 68.9859C12.6573 71.76 14.2177 74.1873 16.1249 76.4412L16.2983 76.788C19.9393 81.2959 22.0198 82.6829 23.5802 82.1628C24.1003 81.9894 24.4472 81.4693 24.6205 81.1225C24.9673 80.429 25.1406 79.9088 25.314 79.2153C27.2212 82.6829 29.3018 85.457 31.9025 87.7109C34.3298 89.7915 36.0636 90.485 37.1039 89.6181C38.1442 88.9246 38.4909 87.3642 38.1442 84.5901C39.7046 85.457 40.9182 85.8038 41.7851 85.2836C42.652 84.9369 43.1722 84.07 43.3455 82.6829C43.6923 79.9088 42.9988 77.3081 42.1319 74.7074C41.7851 73.3204 41.265 72.1068 41.0916 70.8931C40.0514 65.5183 39.5312 60.4903 39.3578 55.8091C39.1845 50.9544 39.1845 46.0998 39.7046 41.2452C39.878 39.8581 41.0916 29.6287 41.7851 27.8949C42.652 26.6813 43.3456 25.4676 43.6923 24.2539C43.8657 23.7338 44.0391 23.2137 44.0391 22.6935C44.0391 22.5201 44.2124 22.1734 44.2124 22C45.4261 14.718 42.9988 6.22244 35.3701 2.75484C32.9428 1.71457 30.8622 1.88795 28.955 3.27499C28.6083 3.62175 27.7414 4.48864 27.568 4.8354C26.181 6.5692 23.7536 6.74258 22.0198 5.35554C18.5523 2.40809 14.9113 0.847656 11.6171 0.847656C10.4034 0.847656 9.18968 1.02105 7.97602 1.54119C5.37532 2.58147 2.25455 5.35554 1.21427 12.2907V12.4641C0.520753 16.6252 1.38767 20.0928 3.29485 23.9072ZM36.0636 88.2311C36.0636 88.2311 35.1967 88.5778 32.596 86.3239C28.4349 82.5096 25.1406 76.9614 22.7133 69.506C22.1932 67.2521 21.6731 65.1716 21.4997 63.091C21.153 59.45 21.1529 55.8091 21.6731 52.1681V52.3415C21.8464 54.422 22.1932 56.3292 22.54 58.2364C23.2335 61.8774 24.2737 65.3449 25.6608 68.6391C27.7413 73.3204 29.9953 77.1348 32.596 80.2556C32.9427 80.6024 33.4629 81.1225 34.1564 81.816L35.7168 83.2031C36.7571 87.5376 36.0636 88.0577 36.0636 88.2311ZM37.7974 41.0718C37.4506 44.1926 37.2773 47.4868 37.2773 50.781C37.2773 52.5148 37.2772 54.2486 37.4506 55.9824C37.624 60.6637 38.3176 65.6917 39.3578 71.2398C39.5312 72.6269 40.0513 73.8406 40.3981 75.2276C41.0916 77.6549 41.9585 80.0822 41.6117 82.5095C41.6117 83.0297 41.4383 83.7232 40.9182 83.8966C40.398 84.07 39.3578 83.7232 38.1442 83.0297L37.4506 82.5095L35.1967 80.6024C34.5032 80.0823 34.1564 79.3887 33.8097 79.2153C31.3823 76.2679 29.1284 72.6269 27.2212 68.119C25.8342 64.9982 24.7939 61.704 24.1004 58.063C23.7537 56.1558 23.4069 54.2486 23.2335 52.3415C23.2335 51.9947 23.0601 51.4746 23.0601 50.9544C22.8867 49.7408 22.54 48.007 22.8867 47.1401L21.3263 46.6199C19.7659 51.9947 19.2458 57.7162 19.7659 63.4378C19.9393 65.6917 20.4594 67.9457 20.9795 70.1996C21.1529 71.0665 21.4997 71.9334 21.6731 72.8003C21.8464 73.3204 22.0198 74.014 22.1932 74.5341C22.8867 76.6147 23.5802 78.5218 22.7133 80.429C22.5399 80.7758 22.54 80.7757 22.54 80.7757C22.3666 80.7757 21.3264 80.7758 17.1652 75.9211L16.9918 75.5743C15.258 73.4938 13.6976 71.0665 12.3105 68.4658C10.0566 63.9579 8.49622 58.7565 7.28257 52.1681C5.72215 43.8459 5.20201 35.1769 4.68187 27.028C4.85525 27.3748 5.20194 27.7215 5.37532 27.8949C5.37532 27.8949 5.37532 27.8949 5.37532 28.0683C5.37532 28.0683 5.37539 28.2417 5.54877 28.2417C5.89553 28.5884 6.06891 28.9352 6.41567 29.282C7.45595 30.4956 8.84301 31.5359 10.23 32.5762C10.4034 32.7495 10.5768 32.9229 10.7502 32.9229C10.9235 32.9229 10.9236 33.0963 11.0969 33.0963C11.2703 33.2697 11.6171 33.4431 11.9638 33.6165C12.8307 34.1366 13.6976 34.6567 14.5645 35.0035C17.1652 36.2171 19.9393 36.9107 22.54 36.9107C23.0601 36.9107 23.4068 36.9107 23.927 36.9107C24.2737 36.9107 24.4471 36.9107 24.7939 36.7373C25.1406 36.7373 25.314 36.7373 25.6608 36.5639C26.5277 36.3905 27.568 36.2171 28.4349 35.8704C28.6083 35.8704 28.955 35.697 29.1284 35.5236C29.6485 35.3502 30.342 35.0035 30.8622 34.8301C31.0356 34.8301 31.2089 34.6567 31.3823 34.6567C32.9427 33.9632 34.5032 33.0963 35.8902 32.056C36.0636 31.8826 36.4103 31.7093 36.5837 31.5359L36.7571 31.3625C36.9305 31.1891 37.2772 31.0157 37.4506 30.8424C37.624 30.669 37.9708 30.4956 38.1442 30.3222C38.1442 30.3222 38.1441 30.3222 38.3175 30.1489C38.4909 34.1366 37.7974 40.3782 37.7974 41.0718ZM7.97602 3.27499C11.4436 1.88795 16.1249 3.10161 20.4594 6.74259C21.4997 7.60948 22.7133 7.95624 23.927 7.95624C25.4874 7.95624 27.0478 7.26273 28.2615 5.87569C28.955 5.00879 29.3018 4.66202 29.4752 4.48864C30.8622 3.44836 32.4226 3.27499 34.3298 4.14189C41.7851 7.60948 43.8656 16.4519 41.7851 23.5604C41.6117 24.4273 41.0916 25.2942 40.3981 26.5079L40.2247 26.6813L40.0513 26.8546C36.5837 31.3625 29.3018 34.6567 24.6205 35.1769C20.9796 35.5236 17.1652 34.4833 13.5242 32.056C9.53646 29.4553 6.58907 26.5079 5.02865 23.2137C3.29485 19.5727 2.42795 16.2785 2.42795 12.4641C2.94809 7.78284 4.85518 4.48865 7.97602 3.27499Z" fill="#456573"/>
</svg>
