<svg width="43" height="95" viewBox="0 0 43 95" fill="none" xmlns="http://www.w3.org/2000/svg">
<path d="M0.208796 15.0414C0.382176 17.2953 0.555492 19.2025 0.902252 20.9363C1.07563 21.6298 1.24899 22.1499 1.42237 22.8434C3.32955 31.8592 4.36983 41.2217 4.88997 50.5842C4.88997 51.2777 4.89003 51.9713 5.06341 52.4914C5.23679 55.7856 5.41017 59.0798 5.93031 62.374C6.79721 66.8819 8.35756 71.3898 10.9583 76.0711C13.0388 80.0588 15.6396 83.8732 18.587 87.3408C19.2805 88.0343 19.974 88.9011 20.8409 89.2479C21.7078 89.5947 22.7481 89.7681 23.7884 89.0746C26.0423 93.2357 27.9496 95.1428 29.6834 94.7961C31.4172 94.4493 32.6308 92.1954 33.3243 87.6875C33.4977 87.6875 33.4976 87.6875 33.4976 87.5141C33.671 87.5141 33.6711 87.5141 33.6711 87.5141C34.0178 87.3407 34.1912 87.1674 34.3645 86.994C34.8847 86.4738 35.2315 85.9537 35.5782 85.2602C36.2717 84.0465 36.9653 82.8328 37.4855 81.4458C40.9531 72.9502 40.6063 63.5877 39.7394 55.4389C39.566 53.5317 39.3926 51.7979 39.0458 49.8907C38.3523 43.3023 37.4854 36.5405 38.1789 29.7786C39.0458 28.7384 39.7394 27.6981 40.2595 26.311C40.953 24.5772 41.4731 22.8434 41.9933 20.9363C43.2069 16.255 41.8199 11.4004 38.5257 8.27956C33.8444 3.77168 29.5099 2.90478 25.5222 5.67886C24.1352 6.71914 22.228 6.37237 21.1877 5.15871C18.9338 2.38464 15.6395 0.824219 12.1719 0.824219C10.6115 0.824219 8.87774 1.17096 7.31733 1.86448C2.63607 3.94504 -0.137964 8.97306 0.208796 15.0414ZM29.3366 93.409C28.8164 93.5824 27.4294 93.0623 24.6553 87.8609C24.8287 87.5141 24.8287 87.1673 25.0021 86.8206C25.5222 84.2199 24.6553 81.6192 23.7884 79.1919L23.6151 78.4984C20.4942 69.3092 19.6273 59.2532 21.1877 49.5439C22.9215 52.318 24.3085 55.4389 25.1754 58.9065C26.2157 62.5474 26.7359 66.3618 27.0827 71.2164C27.256 72.4301 27.256 73.8171 27.256 75.0308C27.256 75.8977 27.256 76.7646 27.4293 77.8049C27.6027 79.3653 27.6028 81.0991 27.6028 82.8329V83.0063C27.6028 84.0465 27.4294 85.2602 28.1229 86.3005C28.4697 86.994 29.1632 87.5141 29.8567 87.8609C30.3768 88.0343 31.0704 88.2077 31.5905 88.2077H31.7638C30.7236 92.5422 29.6833 93.2357 29.3366 93.409ZM38.5257 55.4389C39.3926 63.4143 39.7393 72.6034 36.4451 80.7523C35.925 82.1393 35.2315 83.353 34.538 84.3933C34.1912 84.9134 33.8444 85.4335 33.3243 85.9537C33.1509 86.1271 33.1509 86.1271 32.9775 86.1271H32.8042C32.4574 86.3005 32.284 86.3005 32.1106 86.4739C31.5905 86.6472 30.897 86.6472 30.2035 86.3005C29.6833 86.1271 29.3365 85.7803 29.1631 85.4336C28.8164 84.74 28.8165 83.8732 28.8165 83.0063V82.8329C28.8165 81.0991 28.8164 79.3653 28.643 77.6315C28.643 76.7646 28.4697 75.8977 28.4697 75.0308C28.4697 73.6437 28.2962 72.4301 28.2962 71.043C27.9495 66.1884 27.256 62.0273 26.2158 58.3863C25.0021 53.8784 23.2683 50.0641 21.0144 46.9432L19.974 45.5562L19.6272 47.29C17.7201 57.8662 18.4137 68.6157 21.8813 78.8451L22.0546 79.5387C22.7481 81.7926 23.615 84.2199 23.2683 86.4739C23.0949 86.994 23.0949 87.5141 22.7482 87.6875C22.4014 88.0342 21.5345 88.0343 21.1877 87.8609C20.4942 87.5141 19.9741 86.994 19.4539 86.3005C16.6798 83.0063 14.0792 79.3652 11.9986 75.3775C9.57129 70.8696 8.01089 66.3618 7.14399 62.2007C6.62385 59.0798 6.45047 55.7856 6.27709 52.4914C6.27709 51.7979 6.27703 51.1044 6.10365 50.5842C5.75689 42.7821 4.88999 34.98 3.50295 27.3513C3.84971 27.6981 4.19653 28.2182 4.54329 28.565C6.10371 30.4722 8.18425 31.6858 10.2648 32.5527C10.6116 32.7261 10.9583 32.7261 11.305 32.8995C12.3453 33.2462 13.2122 33.4196 14.2525 33.4196C14.946 33.4196 15.6395 33.4196 16.5064 33.4196C17.2 33.4196 18.0668 33.4196 18.7604 33.593C19.6272 33.7664 20.6676 33.7664 21.5345 33.9397C26.2157 34.98 30.2034 34.6333 33.8444 32.8995C34.1912 32.7261 34.538 32.5527 34.8848 32.3793C35.0581 32.206 35.2315 32.206 35.4049 32.0326C35.7516 31.8592 36.2718 31.5124 36.6186 31.1657C36.2718 37.4074 36.9653 43.8224 37.6588 49.8907C38.0056 51.7979 38.3523 53.5317 38.5257 55.4389ZM8.18423 3.25153C12.5187 1.34435 17.3734 2.55802 20.3208 6.02561C21.1877 7.06589 22.5747 7.75941 23.9617 7.75941C24.8286 7.75941 25.869 7.41265 26.7359 6.89251C30.2035 4.46519 33.8445 5.33208 38.0056 9.31982C40.953 12.0939 42.1667 16.4284 41.1264 20.5895C40.6062 22.3233 40.0861 24.0571 39.5659 25.6175C39.0458 27.178 38.0056 28.3916 36.7919 29.4319C36.0984 29.952 35.4049 30.4722 34.538 30.9923C34.1912 31.1657 33.8445 31.3391 33.6711 31.5124C31.5905 32.5527 29.3366 32.8995 27.256 32.8995C25.6956 32.8995 24.3086 32.5527 22.7482 32.3793H22.5747C22.228 32.3793 21.8812 32.2059 21.7078 32.2059C20.6675 31.8592 19.454 31.8592 18.4137 31.8592C18.0669 31.8592 17.8935 31.8592 17.5468 31.8592C17.3734 31.8592 17.3734 31.8592 17.2 31.8592C15.6396 31.8592 14.0791 31.6858 12.6921 31.339C10.4381 30.6455 8.53101 29.4319 6.79721 27.6981C5.41017 26.1377 4.36985 24.4039 3.50295 22.1499C3.32957 21.6298 3.15617 21.1096 3.15617 20.5895C2.80941 19.0291 2.63609 17.1219 2.46271 14.868C1.24905 9.49319 3.67635 5.1587 8.18423 3.25153Z" fill="black"/>
</svg>
