<svg width="39" height="107" viewBox="0 0 39 107" fill="none" xmlns="http://www.w3.org/2000/svg">
<path d="M38.0224 10.8106C37.849 11.5041 37.849 12.1976 37.6756 12.7177C37.3289 15.4918 36.8087 18.786 36.2886 22.0802C36.1152 22.6004 36.1152 23.2939 35.9418 23.814C35.2483 27.2816 34.5548 30.7492 33.3411 34.2168L32.821 39.2448C30.2203 64.3849 27.7929 90.2185 18.0837 101.835C17.7369 102.182 17.5636 102.528 17.3902 102.875C15.3096 105.649 13.4025 106.863 11.6687 106.863C10.2816 106.863 9.06796 105.823 8.20106 104.262C6.9874 102.355 6.46723 100.101 6.81399 97.6739C8.37441 80.856 7.50753 61.0907 4.56008 36.9909V36.8175C3.69318 35.0837 2.99964 33.0032 2.4795 30.7492C1.43922 26.068 1.09247 21.3867 0.919088 16.8788V15.8386C0.745708 13.5846 0.919109 11.3307 1.26587 9.25012C1.61263 7.34294 2.30614 4.74225 4.56008 2.83507C7.16077 0.581135 10.455 0.581129 13.5758 0.581129L32.6476 0.234375H32.821C35.7684 0.234375 37.849 1.62142 38.5425 3.87536C38.8893 5.78254 38.3691 8.38324 38.0224 10.8106ZM8.20106 97.6739C8.02768 99.7544 8.37441 101.662 9.41469 103.222C10.1082 104.436 10.8018 104.956 11.6687 105.129C12.8823 105.129 14.4427 104.089 16.0032 101.835C16.3499 101.488 16.5233 101.141 16.8701 100.795C26.2326 89.525 28.8332 63.8648 31.2606 38.8981V38.2045C31.0872 38.3779 30.9138 38.7247 30.7404 38.8981C30.5671 39.0715 30.567 39.2448 30.3937 39.4182C30.2203 39.5916 30.2203 39.765 30.0469 39.9383C29.8735 40.1117 29.7001 40.4585 29.5268 40.6319C29.3534 40.8053 29.18 41.152 29.0066 41.3254C29.0066 41.3254 29.0066 41.4988 28.8332 41.4988C28.6599 41.6722 28.6598 41.6722 28.4865 41.8455L28.3131 42.0189C28.1397 42.1923 27.9663 42.3657 27.793 42.539C26.7527 43.5793 25.539 44.6196 24.152 45.3131C23.9786 45.3131 23.8052 45.4865 23.8052 45.4865C23.6319 45.4865 23.4585 45.6599 23.2851 45.6599C23.1117 45.8333 22.7649 45.8333 22.5916 46.0066C22.4182 46.18 22.0714 46.18 21.8981 46.3534C20.1643 47.0469 18.4304 47.2203 16.5233 46.8735C16.1765 46.8735 15.8297 46.7002 15.483 46.7002C15.3096 46.7002 15.1362 46.5268 14.9629 46.5268C14.6161 46.3534 14.2693 46.3534 13.9226 46.18C13.5758 46.0066 13.229 45.8333 12.8823 45.6599C12.3621 45.3131 11.842 45.1397 11.3219 44.793C10.8017 44.4462 10.2816 44.0995 9.76147 43.5793C9.58809 43.4059 9.24134 43.2326 9.06796 43.0592L8.89457 42.8858C8.02767 42.1923 7.33412 41.3254 6.6406 40.4585C6.46722 40.2851 6.46725 40.1117 6.29387 39.9383C9.06795 62.6511 9.5881 81.5495 8.20106 97.6739ZM36.6353 3.87536C35.9418 1.62142 33.3411 1.44803 32.3008 1.44803L13.2291 1.79478C10.2816 1.79478 7.33414 1.79479 5.25358 3.70197C3.86655 4.91563 2.99964 6.64942 2.4795 9.25012C2.13274 11.1573 1.95939 13.2379 2.13277 15.4918V16.5321C2.47953 21.0399 2.6529 25.7212 3.69318 30.2291C4.21332 32.483 4.9068 34.5636 5.7737 36.4707C5.94708 36.8175 6.12049 36.9909 6.29387 37.3376C6.46725 37.6844 6.64061 37.8578 6.81399 38.2045C6.98737 38.3779 7.16078 38.7247 7.33416 38.8981L7.5075 39.0714C7.68088 39.2448 7.85428 39.4182 7.85428 39.5916L8.02767 39.765L8.3744 40.2851L8.54779 40.6319L9.06796 41.152L9.2413 41.3254C9.41468 41.4988 9.58809 41.6722 9.76147 41.8455L10.6284 42.7124C10.8017 42.8858 10.9751 43.0592 11.3219 43.2326C11.4953 43.406 11.4953 43.4059 11.6687 43.5793C12.3622 44.0995 13.4025 44.6196 14.2694 45.1397C14.9629 45.4865 15.6564 45.6599 16.3499 45.8333C16.6966 45.8333 17.0434 46.0066 17.5636 46.0066C17.7369 46.0066 17.9103 46.0066 18.0837 46.0066C19.124 46.0066 19.9909 45.8333 21.0312 45.4865C25.7124 43.7527 29.7001 38.5513 31.2606 34.5636C31.4339 34.0434 31.6073 33.6967 31.7807 33.1765C32.821 30.2291 33.3411 26.9349 34.0346 23.814C34.208 23.2939 34.208 22.6004 34.3814 22.0802C35.0749 18.9594 35.4217 15.6652 35.7684 12.8911C35.7684 12.1976 35.9418 11.6774 36.1152 10.9839C36.8087 8.20984 37.1555 5.95592 36.6353 3.87536Z" fill="black"/>
</svg>
