<svg width="30" height="106" viewBox="0 0 30 106" fill="none" xmlns="http://www.w3.org/2000/svg">
<path d="M0.771416 9.88897C0.944796 16.9975 2.33179 23.9327 4.41235 30.6945C4.58573 31.0413 4.58577 31.3881 5.10591 32.0816V32.6017C7.70661 63.4633 11.3476 92.9379 20.7101 101.087C23.8309 104.381 25.9115 105.595 27.2985 105.074C28.6855 104.554 29.0323 102.474 29.0323 101.087C29.2057 99.0062 28.8589 96.7523 28.1654 94.6717C23.8309 81.1481 25.3913 58.0885 26.9517 35.7225L27.1251 32.255C27.4719 31.2147 27.8186 30.1744 27.992 29.1341C29.0323 23.2392 29.5524 16.1306 29.5524 8.50192C29.5524 5.55447 27.6453 3.12715 24.1777 1.56673C22.4439 0.699832 20.3633 0.179688 18.1094 0.179688H7.35983C7.18645 0.179688 7.18643 0.179688 7.01305 0.179688C5.79939 0.179688 4.58574 0.699822 3.71884 1.39334C1.4649 3.4739 0.424657 6.24799 0.771416 9.88897ZM25.3913 35.5492C24.0043 58.0886 22.4439 81.3214 26.7784 95.1918C27.2985 97.099 27.6453 99.0062 27.4719 101.087C27.2985 103.167 26.9518 103.514 26.7784 103.687C26.4316 103.861 25.2179 103.687 21.7503 100.046C13.0813 92.4177 9.26703 63.2899 6.83971 35.029L7.01305 35.2024C7.35981 35.7225 7.70658 36.0693 8.05334 36.5894C8.22672 36.7628 8.40013 37.1096 8.57351 37.283C8.57351 37.283 8.57346 37.283 8.74684 37.4563C9.0936 37.8031 9.44037 38.1499 9.78713 38.4966C9.96051 38.67 10.3073 39.0168 10.4806 39.1901C10.654 39.3635 10.8274 39.5369 11.0008 39.7103C11.1742 39.8837 11.3476 39.8837 11.5209 40.057C11.6943 40.2304 12.0411 40.4038 12.2144 40.5772C12.3878 40.7506 12.5612 40.7506 12.7346 40.9239C12.908 41.0973 13.0814 41.0973 13.2547 41.0973C13.4281 41.0973 13.6015 41.2707 13.7749 41.2707H13.9482C14.1216 41.2707 14.295 41.4441 14.4684 41.4441C14.6418 41.4441 14.8151 41.6175 14.9885 41.6175C14.9885 41.6175 14.9885 41.6175 15.1619 41.6175C15.3353 41.6175 15.5087 41.6175 15.682 41.6175C15.8554 41.6175 16.0288 41.6175 16.2022 41.6175C16.3756 41.6175 16.3756 41.6175 16.5489 41.6175C18.4561 41.6175 20.1899 40.7506 22.0971 39.1901C22.4439 38.8434 22.7906 38.4966 23.1374 38.1499C23.8309 37.4564 24.5244 36.5895 25.3913 35.5492C25.3913 35.7226 25.2179 35.8959 25.3913 35.5492ZM4.75913 2.60702C5.45265 1.9135 6.31955 1.56674 7.35983 1.74012H18.1094C20.0166 1.9135 21.9237 2.26024 23.4841 3.12714C26.4316 4.51418 27.992 6.42138 27.992 8.67531C27.992 16.304 27.4719 23.2392 26.4316 28.9607C26.2582 30.001 25.9115 31.0413 25.5647 32.0816C25.5647 32.255 25.3913 32.4283 25.3913 32.4283C25.3913 32.6017 25.2179 32.7751 25.2179 32.7751C25.2179 32.9485 25.218 32.9485 25.0446 33.1219C25.0446 33.2952 24.8712 33.4686 24.8712 33.642C24.5244 34.1621 24.3511 34.5089 24.0043 35.029C23.8309 35.2024 23.6575 35.5492 23.4841 35.7225C23.1374 36.0693 22.7907 36.5894 22.4439 36.9362C22.2705 37.1096 22.0971 37.283 21.9237 37.4563C19.8432 39.5369 17.936 40.5772 16.0288 40.4038C15.8554 40.4038 15.6821 40.4038 15.5087 40.4038C15.5087 40.4038 15.5087 40.4038 15.3353 40.4038C15.1619 40.4038 14.9885 40.4038 14.9885 40.4038H14.8151C14.6418 40.4038 14.6418 40.4038 14.4684 40.4038C14.295 40.4038 14.295 40.4038 14.1216 40.2304C13.7749 40.0571 13.2548 39.8837 12.908 39.7103C12.7346 39.7103 12.5612 39.5369 12.5612 39.5369C12.3878 39.3635 12.0411 39.1902 11.8677 39.0168C11.6943 38.8434 11.5209 38.8434 11.3475 38.67C11.1742 38.4966 11.0008 38.3233 10.8274 38.1499C10.654 37.9765 10.4807 37.8031 10.3073 37.6297C10.1339 37.4564 9.96051 37.283 9.78713 36.9362C9.61375 36.7628 9.4404 36.4161 9.26702 36.2427C9.09364 36.0693 8.92022 35.7226 8.74684 35.3758L8.22673 34.6823C7.87997 33.9888 7.35981 33.4686 7.01305 32.6017L6.83971 32.255C6.49295 31.7348 6.31953 31.2147 6.14615 30.6945C4.06559 24.1061 2.85197 17.3443 2.50521 10.4091C1.98507 6.59476 2.85195 4.34082 4.75913 2.60702Z" fill="black"/>
</svg>
