<svg width="47" height="98" viewBox="0 0 47 98" fill="none" xmlns="http://www.w3.org/2000/svg">
<path d="M1.90944 23.0598C2.08282 23.9267 2.25613 24.6202 2.60289 25.4871C2.77627 26.354 3.12303 27.2209 3.46979 28.0878V28.9547C4.33669 38.664 4.33669 49.2401 3.46979 61.2033C4.16331 74.727 8.15107 83.9161 15.0863 88.424C17.687 90.8513 19.5942 91.5448 20.9812 90.8513C22.1949 90.3312 22.715 88.7707 22.715 86.3434C22.715 86.17 22.715 86.1701 22.715 85.9967C27.2229 94.4923 30.8639 98.3066 33.4646 97.6131C35.8919 96.9196 37.1055 92.5851 36.7587 84.4362C36.9321 85.1297 37.2789 85.8233 37.4523 86.5168C37.9724 87.9038 38.4925 89.1175 39.3594 90.1578C40.5731 91.7182 41.7868 92.2384 42.827 92.065C44.2141 91.7182 45.2544 90.1578 46.1213 86.8636C47.8551 80.7953 46.9881 72.1263 43.6939 58.776C41.2666 49.7603 40.5731 39.8776 41.6134 29.4749C42.1335 28.608 42.6537 27.7411 43.0005 26.8742C46.2947 18.0318 46.9881 11.9635 45.0809 7.80238C44.0407 5.37506 42.1335 3.64126 39.3594 2.60099C36.2386 1.38733 32.771 0.173658 28.9566 1.5607C27.3962 2.08084 26.0092 3.12112 24.6221 4.33478C24.2754 4.68154 23.9286 5.02829 23.7553 5.37505C23.7553 5.37505 23.5818 5.54843 23.4085 5.89519C23.4085 6.06857 23.2351 6.06857 23.2351 6.24195C22.8884 6.06857 22.3682 5.54844 22.0215 5.20168C21.6747 5.0283 21.5014 4.68154 21.328 4.68154C19.5942 3.46788 17.3402 2.08082 15.0863 1.38731C13.8726 1.04055 12.8324 0.867188 11.7921 0.867188C10.7518 0.867188 9.88486 1.04055 9.01797 1.38731C7.97769 1.73407 6.93739 2.08085 6.07049 2.60099C4.16331 3.64126 2.77633 4.85491 1.90944 6.24195C1.04254 7.4556 0.522355 9.01602 0.348975 10.9232C0.175595 15.0843 1.04254 19.4188 1.90944 23.0598ZM33.2911 96.2261C31.5573 96.7462 27.743 93.1052 22.1949 81.3154C19.0741 69.1788 19.5942 59.6429 23.5819 52.1876C27.3963 59.1228 31.384 67.9652 35.3717 79.4082C36.412 94.1455 33.9847 96.0527 33.2911 96.2261ZM42.6537 59.4695C45.9479 72.2996 46.6414 80.9687 45.0809 86.6902C44.214 90.1578 43.3472 90.6779 42.827 90.6779C42.3069 90.8513 41.6134 90.3312 40.7465 89.2909C40.0529 88.424 39.5328 87.3837 39.0127 86.17C38.1458 83.7427 37.4523 81.3154 36.5854 78.8881L34.6782 73.5133V73.6867C31.0372 63.9774 27.5697 56.1753 23.9287 50.107L23.2351 49.0668L22.5416 50.107C18.5538 56.8689 17.3402 65.1911 19.074 75.5939L18.5539 74.3802L20.4611 81.6622C20.4611 81.8356 20.6344 82.1823 20.6344 82.3557C20.9812 83.5694 21.1546 84.9564 21.1546 86.17C21.1546 87.9038 20.8078 89.1175 20.2877 89.2909C19.9409 89.4643 18.7272 89.6376 15.9532 87.0369H15.7798C9.19139 82.7024 5.55043 74.0335 4.85691 61.03C5.72381 49.7603 5.72377 39.7042 5.03025 30.5151C5.20363 30.6885 5.20365 30.8619 5.37703 30.8619C5.55041 31.2086 5.89717 31.382 6.24393 31.7288C6.41731 31.9022 6.59071 31.9022 6.59071 32.0756C6.93747 32.4223 7.28419 32.5957 7.63095 32.9425C8.67123 33.8094 9.71155 34.3295 10.9252 34.8496C11.272 35.023 11.6187 35.1964 11.9654 35.1964C13.0057 35.5431 14.2194 35.7165 15.2597 35.7165C15.7798 35.7165 16.1266 35.7165 16.6467 35.7165C17.3402 35.7165 18.0338 35.5431 18.7273 35.3698C19.4208 35.1964 20.1143 34.8496 20.8078 34.5029C21.5013 34.1561 22.3683 33.9827 23.0618 34.1561C29.1301 35.1964 34.1581 34.6762 38.3192 32.4223C38.666 32.2489 39.0127 32.0755 39.1861 31.9022C39.3595 31.9022 39.3595 31.7288 39.5329 31.5554C39.7063 31.382 39.7062 31.382 39.8796 31.2087C39.5328 41.4381 40.2264 50.8005 42.6537 59.4695ZM2.08277 11.0966C2.25615 9.53617 2.77627 8.14912 3.46979 7.10884C4.16331 5.89519 5.37703 4.85491 7.11083 4.16139C7.97773 3.81463 8.84463 3.29448 9.71153 3.1211C11.4453 2.60096 13.0057 2.60097 14.9129 3.29449C17.1669 3.98801 19.2474 5.37506 20.8078 6.41534C20.9812 6.41534 21.1546 6.58872 21.328 6.93548C22.3683 7.80238 23.0618 8.3225 23.5819 8.3225C23.7553 8.3225 23.7553 8.3225 23.9287 8.3225C24.2755 8.14912 24.6222 7.80237 24.9689 7.28223C24.9689 7.10886 25.1423 7.10886 25.1423 6.93548C25.489 6.58872 25.6624 6.24196 26.0092 6.06858C27.2228 4.85492 28.4365 3.98802 29.8235 3.46788C32.9444 2.25423 35.7185 3.12111 39.1861 4.50815C41.6134 5.37505 43.1738 6.76208 44.0407 8.84264C45.6011 12.4836 44.9076 18.3785 41.9601 26.8742C41.6134 27.5677 41.2667 28.2612 40.9199 28.9547L40.7465 29.3015C40.5731 29.4748 40.3997 29.8216 40.2263 29.995C40.053 30.1684 40.0529 30.1684 39.8796 30.3418C39.3594 30.8619 38.6659 31.382 38.1458 31.7288C34.3314 33.8093 29.6502 34.3295 23.7553 33.2892C22.715 33.1158 21.6747 33.2892 20.6344 33.8094C16.2999 35.8899 11.9655 35.1964 7.97773 31.7288C7.45759 31.382 7.11081 30.8619 6.76405 30.5151C6.24391 29.995 5.89713 29.3015 5.55037 28.7813C5.03023 27.9144 4.68345 26.8741 4.33669 25.8339C4.16331 24.967 3.98999 24.2735 3.64323 23.4066C2.42958 19.2454 1.73601 15.0843 2.08277 11.0966Z" fill="black"/>
</svg>
