<svg width="37" height="118" viewBox="0 0 37 118" fill="none" xmlns="http://www.w3.org/2000/svg">
<path d="M35.4919 20.2932C34.4516 26.1882 33.0646 30.696 31.5042 34.1636C31.3308 34.5104 31.1574 35.0305 31.1574 35.3773C30.8106 38.1514 30.4639 40.9254 30.2905 43.6995C27.1696 72.8273 23.8754 103.169 13.4726 113.745C10.6985 116.866 8.61801 117.906 7.05759 117.386C5.67055 116.866 4.97701 115.479 4.97701 112.705C4.80363 110.971 4.97704 109.237 5.49718 107.33C7.75112 97.6206 6.71081 75.2547 5.84391 53.7556C5.67053 48.034 5.32378 42.1391 5.1504 36.5909C4.45688 35.2039 3.93675 33.6435 3.58999 32.0831C1.16267 21.6803 -0.571113 13.5314 2.89648 9.37031L3.06982 9.19692C6.53742 6.59622 10.5252 3.99554 15.3798 1.22147C16.4201 0.701326 17.6337 0.181176 18.674 0.181176C19.1941 0.181176 19.7143 0.0078125 20.4078 0.0078125C22.6617 0.0078125 24.9157 0.527941 26.9963 1.56822C27.343 1.7416 27.8631 1.91497 28.2099 2.26173C30.984 4.51567 32.8911 6.94301 34.2782 9.5437C35.4918 11.971 36.1854 14.5717 36.3588 17.3458C36.012 18.2127 35.8386 19.253 35.4919 20.2932ZM7.05759 53.5822C7.92449 75.2546 8.96474 97.794 6.71081 107.677C6.36405 109.41 6.19069 110.971 6.19069 112.531C6.36407 115.305 7.05756 115.826 7.40432 115.999C7.75108 116.172 9.13815 116.172 12.259 112.705C22.1416 102.475 25.4358 72.4806 28.5567 43.5261C28.7301 41.7923 28.9034 40.2319 29.0768 38.4981L28.9035 38.6715C28.7301 38.8449 28.5567 39.0183 28.3833 39.365C28.2099 39.5384 28.0365 39.8852 27.8632 40.0585C27.6898 40.2319 27.5164 40.4053 27.343 40.7521L27.1697 40.9254C26.9963 41.0988 26.8229 41.2722 26.6495 41.4456C26.4761 41.619 26.3027 41.7923 26.1294 41.9657C25.956 42.1391 25.7826 42.3125 25.4359 42.4859C25.2625 42.6592 24.9157 42.8326 24.7423 43.006C24.7423 43.006 24.7423 43.006 24.569 43.1794C24.3956 43.3528 24.2222 43.5261 24.0488 43.5261C23.5286 43.8729 23.0085 44.2197 22.6618 44.5664C22.4884 44.5664 22.4884 44.7398 22.315 44.7398C22.1416 44.9132 21.9683 44.9132 21.7949 45.0866C21.2747 45.2599 20.9279 45.6067 20.4078 45.7801C20.2344 45.7801 20.0611 45.9535 19.8877 45.9535C19.3675 46.1268 18.8474 46.3002 18.1539 46.3002C17.9805 46.3002 17.6338 46.3002 17.4604 46.3002C17.287 46.3002 17.1136 46.3002 16.9402 46.3002C16.2467 46.3002 15.5532 46.1268 14.8597 45.9535C14.5129 45.9535 14.1661 45.7801 13.8194 45.6067C13.4726 45.4333 13.1259 45.2599 12.7791 45.0866C12.259 44.7398 11.7388 44.5664 11.2187 44.2197C10.6986 43.8729 10.1784 43.5261 9.65828 43.006C9.31153 42.6592 8.96476 42.3125 8.618 41.9657C8.44462 41.7923 8.27126 41.619 8.09788 41.4456C8.09788 41.4456 8.09788 41.4456 8.09788 41.2722C7.9245 40.9254 7.5777 40.752 7.40432 40.4053C7.23094 40.2319 7.05758 40.0585 6.8842 39.7118C6.8842 39.7118 6.8842 39.7118 6.8842 39.5384C6.71082 39.365 6.53746 39.0183 6.36408 38.8449C6.71084 44.0463 6.88421 48.9009 7.05759 53.5822ZM32.5444 10.0638C31.3307 7.6365 29.4236 5.38258 26.9963 3.30202C26.8229 3.12864 26.4761 2.95525 26.1294 2.78187C23.702 1.74159 21.1013 1.22146 18.674 1.56822C17.8071 1.7416 16.7669 1.91498 15.9 2.43512C11.0453 5.03582 7.0576 7.63651 3.76338 10.2372C0.815926 13.7048 2.54968 22.027 4.80362 31.5629C5.15038 32.95 5.67055 34.337 6.19069 35.5507L6.36408 35.8974C6.36408 35.8974 6.36408 35.8974 6.36408 36.0708C6.53746 36.4176 6.71082 36.7643 6.8842 37.1111L7.57771 38.1514C7.75109 38.3248 7.9245 38.6715 8.09788 38.8449C8.27126 39.0183 8.44462 39.1916 8.618 39.5384C8.79138 39.7118 8.96473 39.8852 9.13811 40.2319C9.31149 40.4053 9.4849 40.5787 9.65828 40.7521C9.83166 40.9254 10.005 41.0988 10.1784 41.2722C10.3518 41.4456 10.5252 41.619 10.6986 41.7923C11.0453 42.1391 11.2187 42.3125 11.5655 42.6592C13.646 44.393 15.8999 45.2599 17.9805 45.0866C21.2747 44.9132 24.7423 42.3125 28.3833 37.4578C28.5567 37.2845 28.5567 37.1111 28.7301 37.1111C28.7301 36.9377 28.9035 36.9377 28.9035 36.7643C29.0768 36.5909 29.0768 36.4176 29.2502 36.2442C29.4236 36.0708 29.4236 35.8974 29.597 35.5507C29.7703 35.3773 29.7703 35.0305 29.9437 34.8571L30.1171 34.6838C30.2905 34.337 30.2905 33.9902 30.4639 33.6435V33.4701C32.0243 30.0025 33.4113 25.668 34.4516 19.7731C34.625 18.9062 34.7984 18.0393 34.7984 17.1724C34.2782 14.7451 33.758 12.3178 32.5444 10.0638Z" fill="black"/>
</svg>
