<svg width="41" height="115" viewBox="0 0 41 115" fill="none" xmlns="http://www.w3.org/2000/svg">
<path d="M40.0549 97.6008V96.5606C39.7082 91.7059 39.5348 86.6779 38.4945 81.6499C37.9744 79.2226 37.2808 77.142 36.4139 75.0615V74.8881C33.2931 49.0545 32.4262 27.9021 33.9866 10.044C34.16 7.61671 33.6399 5.18939 32.4262 3.10884C31.386 1.37504 30.1723 0.334761 28.7852 0.334761C26.8781 0.161381 24.9709 1.54842 22.717 4.49588C22.5436 4.84264 22.1968 5.1894 21.8501 5.53616C11.794 17.8461 9.1933 45.5869 6.5926 72.4608L6.07248 77.8355C4.85882 81.3031 4.1653 85.1175 3.47178 88.7585C3.2984 89.452 3.29838 89.9721 3.125 90.6656C2.43148 94.1332 1.91136 97.6008 1.5646 100.548C1.5646 101.242 1.39125 101.935 1.21787 102.629C0.871109 105.056 0.350959 108.004 1.04448 110.431C1.738 112.858 3.99192 114.245 6.93938 114.245H7.11277L26.8781 113.899C29.9989 113.899 33.6399 113.725 36.2406 111.471C38.4945 109.564 39.188 106.617 39.5348 104.709C40.0549 102.455 40.2283 100.202 40.0549 97.6008ZM8.3264 72.6342C10.9271 46.107 13.5278 18.713 23.2371 6.57643C23.5838 6.22967 23.7572 5.88291 24.104 5.53616C25.8378 3.28222 27.3982 2.06856 28.6119 2.06856C28.6119 2.06856 28.6119 2.06856 28.7852 2.06856C29.6521 2.06856 30.3456 2.76208 31.0392 3.97573C32.0794 5.70953 32.4262 7.79009 32.2528 10.044C30.6924 27.2086 31.386 47.3207 34.16 71.5939C33.9867 71.4205 33.9866 71.2471 33.8133 71.0737L31.5593 68.473L31.3859 68.2997L30.6924 67.6061C26.5313 64.1385 22.0234 62.9249 18.0357 64.4853C17.8623 64.6587 17.5156 64.6587 17.3422 64.8321C17.1688 65.0054 16.822 65.0054 16.6487 65.1788C16.4753 65.3522 16.1285 65.3522 15.9552 65.5256L15.7818 65.699C14.3947 66.5659 13.1811 67.6061 12.1408 68.6464C11.9674 68.8198 11.794 68.9932 11.6207 69.1666C11.4473 69.3399 11.2739 69.6867 10.9271 69.8601C10.7537 70.0334 10.5804 70.3802 10.407 70.5536C10.2336 70.727 10.0602 71.0737 9.88686 71.4205C9.71348 71.5939 9.54008 71.7673 9.54008 71.9406C9.3667 72.114 9.1933 72.2874 9.1933 72.4608C9.01992 72.6341 8.84656 72.9809 8.67318 73.1543L8.3264 72.6342ZM38.1477 104.363C37.6276 107.137 36.7607 109.044 35.3737 110.258C33.2931 112.165 30.1723 112.165 27.0515 112.338L7.28616 112.685C6.0725 112.685 3.4718 112.511 2.77828 110.084C2.25814 108.004 2.60491 105.403 2.95167 102.976C3.12505 102.282 3.12501 101.589 3.29839 100.895C3.64515 97.9476 4.16528 94.48 4.8588 91.0124C5.03218 90.3189 5.0322 89.7988 5.20558 89.1052C5.8991 85.811 6.41922 82.5168 7.4595 79.2226L7.80628 78.1823V78.0089C7.80628 77.8355 7.80629 77.8355 7.97967 77.6622C9.54009 73.501 13.7012 67.9529 18.5559 66.0457C19.5961 65.699 20.6364 65.5256 21.6767 65.5256C21.85 65.5256 22.0234 65.5256 22.3702 65.5256C22.7169 65.5256 23.2371 65.5256 23.5839 65.699C24.4508 65.8723 25.1443 66.0457 25.8378 66.3925C26.0112 66.3925 26.1846 66.5659 26.3579 66.5659L28.6119 67.9529C28.7852 68.1263 28.7853 68.1263 28.9586 68.2997L29.6521 68.8198C29.9989 69.1666 30.3457 69.3399 30.519 69.6867C30.6924 69.8601 30.8658 70.0335 31.0392 70.2068L31.2126 70.3802C31.3859 70.5536 31.5593 70.727 31.7327 70.9004C31.7327 71.0737 31.9061 71.0737 31.9061 71.2471C32.0794 71.4205 32.2528 71.5939 32.2528 71.7673L32.4262 71.9406C32.5996 72.114 32.773 72.2874 32.773 72.4608C32.773 72.6341 32.9464 72.6342 32.9464 72.8075C33.1197 73.1543 33.2931 73.3277 33.4665 73.6744C33.6399 74.0212 33.8133 74.1946 33.9866 74.5413C34.16 74.8881 34.3334 75.2348 34.5068 75.4082C35.3737 77.3154 36.2406 79.5693 36.7607 81.9967C37.801 86.8513 38.1478 91.8793 38.3211 96.5606V97.6008C38.6679 100.028 38.4945 102.282 38.1477 104.363Z" fill="black"/>
</svg>
