<svg width="34" height="122" viewBox="0 0 34 122" fill="none" xmlns="http://www.w3.org/2000/svg">
<path d="M0.53483 100.801C1.57511 94.7328 2.78874 90.0516 4.34915 86.584C4.52253 86.2372 4.52256 85.7171 4.69594 85.3703C5.0427 82.5963 5.21608 79.6488 5.56283 76.7013C8.51029 46.7066 11.4577 15.4983 21.167 4.57534C23.7677 1.4545 25.6749 0.240844 27.062 0.760984C28.2756 1.28112 28.9692 2.84154 29.1426 5.61562C29.1426 7.34942 29.1425 9.08322 28.6223 10.9904C26.5418 21.0464 27.5821 43.9326 28.449 66.2986C28.6224 72.1935 28.9692 78.2618 29.1426 83.9833C29.8361 85.5437 30.3562 87.1041 30.7029 88.6645C32.9568 99.4141 34.5172 107.91 31.223 112.071L31.0497 112.244C27.9289 115.018 24.1145 117.619 19.6067 120.393C18.5664 121.087 17.526 121.433 16.4857 121.433C15.9656 121.433 15.4455 121.607 14.9254 121.607C12.8448 121.607 10.7643 121.087 8.85709 120.046C8.51033 119.873 8.16351 119.526 7.81675 119.353C5.21605 117.099 3.48229 114.672 2.26863 111.897C1.22835 109.47 0.53482 106.696 0.36144 103.749C0.18806 102.882 0.188071 101.841 0.53483 100.801ZM26.8885 66.4719C26.0216 44.1059 25.1548 21.0464 27.2353 10.817C27.5821 8.90984 27.7554 7.34942 27.7554 5.789C27.5821 3.01492 26.8886 2.3214 26.7152 2.3214C26.3684 2.14803 25.1548 2.14802 22.2074 5.61562C13.0182 16.1918 9.89737 47.0534 7.1233 76.8747C6.94992 78.6085 6.77656 80.3423 6.60318 81.9027L6.77651 81.7294C6.94989 81.556 7.12325 81.2092 7.29663 81.0358C7.47001 80.8625 7.64337 80.5157 7.81675 80.3423C7.99013 80.1689 8.1636 79.8222 8.33698 79.6488L8.51031 79.4754C8.68369 79.302 8.85705 79.1287 9.03043 78.9553C9.20381 78.7819 9.37717 78.6085 9.55055 78.4351C9.72393 78.2618 9.89739 78.0884 10.0708 77.915C10.2442 77.7416 10.4175 77.5682 10.7642 77.2215C10.7642 77.2215 10.7643 77.2215 10.9377 77.0481C11.1111 76.8747 11.2843 76.7013 11.2843 76.7013C11.8045 76.3546 12.1513 76.0078 12.6715 75.6611C12.8449 75.6611 12.8448 75.4877 13.0181 75.4877C13.1915 75.3143 13.365 75.3143 13.5384 75.1409C13.8851 74.9675 14.4052 74.6208 14.7519 74.4474C14.9253 74.4474 15.0987 74.274 15.0987 74.274C15.6189 74.1006 16.139 73.9273 16.6592 73.9273C16.8326 73.9273 17.1793 73.9273 17.3526 73.9273C17.526 73.9273 17.6995 73.9273 17.8729 73.9273C18.5664 73.9273 19.2599 74.1006 19.78 74.274C20.1268 74.274 20.4735 74.4474 20.8202 74.6208C21.167 74.7942 21.5138 74.9675 21.8606 75.1409C22.3807 75.4877 22.9008 75.6611 23.2476 76.0078C23.7677 76.3546 24.2879 76.7013 24.6346 77.2215C24.9814 77.5682 25.3281 77.915 25.5015 78.2618C25.6749 78.4351 25.8483 78.6085 26.0216 78.9553C26.0216 78.9553 26.0216 78.9553 26.0216 79.1287C26.195 79.4754 26.5418 79.6488 26.7152 79.9956C26.8886 80.1689 27.0619 80.5157 27.2353 80.6891C27.2353 80.6891 27.2353 80.6891 27.2353 80.8625C27.4087 81.0358 27.5821 81.3826 27.7554 81.556C27.2353 76.3546 27.0619 71.3266 26.8885 66.4719ZM3.30892 111.204C4.52258 113.631 6.083 115.885 8.51031 118.139C8.68369 118.312 9.0305 118.486 9.20387 118.659C11.4578 119.873 13.8851 120.22 16.1391 119.873C17.006 119.7 17.8729 119.526 18.7398 119.006C23.2476 116.232 26.8886 113.631 30.0095 111.031C32.7835 107.39 31.2231 98.894 29.1426 89.0113C28.7958 87.6243 28.449 86.2372 27.9289 84.8502L27.7554 84.5034C27.7554 84.5034 27.7554 84.5034 27.7554 84.33C27.5821 83.9833 27.4087 83.6365 27.2353 83.2898L26.5419 82.0761C26.3685 81.9027 26.1951 81.556 26.1951 81.3826C26.0217 81.2092 25.8483 80.8625 25.675 80.6891C25.5016 80.5157 25.3281 80.3423 25.1547 79.9956C24.9814 79.8222 24.808 79.6488 24.6346 79.302C24.4612 79.1287 24.2879 78.9553 24.1145 78.7819C23.9411 78.6085 23.7677 78.4351 23.7677 78.2618C23.421 77.915 23.2476 77.7416 22.9008 77.3949C20.9936 75.6611 18.9131 74.7942 17.006 74.9675C13.8851 75.1409 10.7643 77.7416 7.47008 82.7696C7.2967 82.943 7.29668 83.1164 7.1233 83.2898C7.1233 83.4632 6.94985 83.4632 6.94985 83.6365C6.94985 83.8099 6.77651 83.9833 6.77651 84.1567C6.60313 84.3301 6.60311 84.5034 6.42973 84.8502C6.25635 85.0236 6.25633 85.3703 6.08295 85.5437V85.7171C5.90957 86.0639 5.90966 86.4106 5.73628 86.7574V86.9307C4.17586 90.3983 3.13552 94.9062 2.09524 100.975C1.92186 101.841 1.74851 102.708 1.74851 103.575C1.74851 106.523 2.26864 108.95 3.30892 111.204Z" fill="black"/>
</svg>
