<svg width="32" height="104" viewBox="0 0 32 104" fill="none" xmlns="http://www.w3.org/2000/svg">
<path d="M0.273831 87.7124C1.14073 81.6441 2.70115 76.7894 4.60833 72.9751C4.08819 51.1292 6.86224 28.0697 12.0636 9.69145C13.9708 4.83681 16.5716 1.71597 19.6924 1.02245C21.9463 0.502314 24.2002 1.3692 26.1074 3.44976C29.0548 6.74398 28.7081 10.7317 28.3614 14.8928V15.5863C27.1477 30.3236 27.8412 49.0487 28.7081 67.0802C28.8814 69.1607 28.8815 71.2413 28.8815 73.3218C30.0952 75.9225 30.7886 79.0434 31.3088 82.511V82.6843C31.4821 83.3779 31.4822 84.0714 31.4822 84.9383C31.4822 90.8332 30.6153 94.3008 28.5347 96.3814C25.934 99.1554 22.4664 101.756 18.9988 103.317H18.8255C17.6118 103.663 16.3982 103.837 15.3579 103.837C13.6241 103.837 12.0637 103.49 10.6766 102.623C7.55578 101.236 4.78168 99.1554 2.52775 96.5547C0.967329 94.1274 0.100451 91.0066 0.273831 87.7124ZM27.4945 70.0276C27.4945 68.9873 27.4944 67.9471 27.321 67.0802C26.6275 48.8753 25.7606 30.1503 26.9743 15.413V14.7194C27.321 10.7317 27.6678 7.26413 25.0671 4.49005C23.5067 2.75625 21.7729 2.06272 19.8657 2.40948C17.265 2.92962 15.0111 5.7037 13.2773 10.0382C8.2493 27.5496 5.47525 49.3954 5.82201 70.3744C8.07594 67.0802 10.6766 64.8262 13.4507 63.7859C13.7974 63.6126 13.9708 63.6126 14.3176 63.4392C14.4909 63.4392 14.6643 63.2658 14.8377 63.2658H15.0111C15.1845 63.2658 15.3579 63.2658 15.5312 63.2658C15.878 63.2658 16.3982 63.0924 16.7449 63.0924C16.9183 63.0924 17.0917 63.0924 17.265 63.0924C17.4384 63.0924 17.6118 63.0924 17.6118 63.0924C17.7852 63.0924 17.7852 63.0924 17.9586 63.0924C19.1723 63.2658 20.2125 63.6126 21.2527 64.1327C21.7729 64.3061 22.1197 64.6528 22.4664 64.8262C22.6398 64.9996 22.8132 65.173 22.9865 65.173C23.1599 65.3464 23.3333 65.3464 23.3333 65.5197C23.5067 65.6931 23.5067 65.6931 23.6801 65.8665C23.8535 66.0399 24.0268 66.2133 24.2002 66.3866C24.3736 66.56 24.547 66.7334 24.7203 66.9068C24.8937 67.0802 25.0671 67.2535 25.2405 67.4269C26.4541 68.4672 26.9743 69.3341 27.4945 70.0276ZM4.08821 95.6878C6.34215 98.1152 8.7694 100.022 11.7169 101.409C13.7974 102.623 16.2248 102.796 18.8255 102.103C22.1197 100.542 25.4139 98.1151 28.0146 95.3411C29.7484 93.4339 30.4419 90.4864 30.4419 85.1117C30.4419 84.4181 30.2685 83.7246 30.2685 83.2045V83.0311C29.4016 77.6563 27.8412 73.1485 25.5872 70.0276C25.4139 69.8542 25.2405 69.6809 25.2405 69.5075C25.0671 69.3341 24.8937 69.1607 24.7203 68.9873C24.547 68.814 24.3736 68.4672 24.0269 68.2938C23.8535 68.1204 23.6801 67.9471 23.3333 67.7737C23.1599 67.6003 23.1599 67.6003 22.9865 67.4269C22.293 66.9068 21.5995 66.3866 20.906 66.0399C20.7326 65.8665 20.3859 65.8665 20.2125 65.6931C19.519 65.3464 18.8255 65.173 17.9586 65.173C17.7852 65.173 17.7852 65.173 17.6118 65.173C17.4384 65.173 17.0916 65.173 16.9183 65.173C16.7449 65.173 16.5716 65.173 16.2248 65.173H16.0514C15.878 65.173 15.7046 65.173 15.5312 65.3464C15.3579 65.3464 15.1845 65.3464 15.0111 65.5197C14.8377 65.5197 14.6644 65.6931 14.491 65.6931C12.7572 66.3866 11.0234 67.6003 9.2896 69.3341C8.94284 69.6809 8.59602 70.201 8.24926 70.7211L8.07592 70.8945C7.90254 71.0679 7.90252 71.2413 7.72914 71.4147C7.209 72.1082 6.68888 72.9751 6.34212 73.842L6.16868 74.0154C4.2615 77.6563 2.87453 82.1642 2.00763 88.0591C1.66087 90.8332 2.35441 93.4339 4.08821 95.6878Z" fill="black"/>
</svg>
