<svg width="35" height="104" viewBox="0 0 35 104" fill="none" xmlns="http://www.w3.org/2000/svg">
<path d="M34.4859 87.7124C33.619 81.6441 31.8852 76.7894 29.8046 72.9751C30.3248 51.1292 27.3773 28.0697 21.6558 9.69145C19.5752 4.83681 16.8012 1.71597 13.3336 1.02245C10.9062 0.502314 8.47893 1.3692 6.39837 3.44976C3.10416 6.74398 3.6243 10.7317 3.97106 14.8928V15.5863C5.3581 30.3236 4.49118 49.0487 3.62428 67.0802C3.4509 69.1607 3.45094 71.2413 3.27756 73.3218C2.0639 75.9225 1.19699 79.0434 0.503469 82.511V82.6843C0.330089 83.3779 0.330078 84.0714 0.330078 84.9383C0.330078 90.8332 1.19696 94.3008 3.45089 96.3814C6.39835 99.1554 10.0393 101.756 13.8537 103.317H14.0271C15.2407 103.663 16.6278 103.837 17.8414 103.837C19.5752 103.837 21.309 103.49 22.8695 102.623C26.1637 101.236 29.1111 99.1554 31.7118 96.5547C33.619 94.1274 34.4859 91.0066 34.4859 87.7124ZM5.18469 70.0276C5.18469 68.9873 5.35808 67.9471 5.35808 67.0802C6.22498 48.8753 7.0919 30.1503 5.70486 15.413V14.7194C5.3581 10.7317 5.01131 7.26413 7.78539 4.49005C9.51919 2.75625 11.4264 2.06272 13.3336 2.40948C16.1076 2.92962 18.7083 5.7037 20.4421 10.0382C25.8169 27.5496 28.7643 49.3954 28.591 70.3744C26.1636 67.0802 23.3896 64.8262 20.2688 63.7859C19.922 63.6126 19.7486 63.6126 19.4019 63.4392C19.2285 63.4392 19.0551 63.2658 18.7083 63.2658H18.535C18.3616 63.2658 18.1882 63.2658 18.0148 63.2658C17.4947 63.2658 17.1479 63.0924 16.6278 63.0924C16.4544 63.0924 16.281 63.0924 16.1077 63.0924C15.9343 63.0924 15.7609 63.0924 15.5875 63.0924C15.4141 63.0924 15.4141 63.0924 15.2408 63.0924C14.0271 63.2658 12.8134 63.6126 11.5998 64.1327C11.0796 64.3061 10.7329 64.6528 10.2127 64.8262C10.0394 64.9996 9.86595 65.173 9.51919 65.173C9.34581 65.3464 9.17246 65.3464 9.17246 65.5197C8.99908 65.6931 8.82568 65.6931 8.82568 65.8665C8.6523 66.0399 8.47894 66.2133 8.30556 66.3866C8.13218 66.56 7.95877 66.7334 7.78539 66.9068C7.61201 67.0802 7.43865 67.2535 7.26527 67.4269C6.22499 68.4672 5.70483 69.3341 5.18469 70.0276ZM30.3248 95.6878C27.8974 98.1152 25.1234 100.022 22.0026 101.409C19.7486 102.623 17.1479 102.796 14.3739 102.103C10.7329 100.542 7.26526 98.1151 4.49118 95.3411C2.584 93.4339 1.89049 90.4864 1.89049 85.1117C1.89049 84.4181 2.06388 83.7246 2.06388 83.2045V83.0311C2.93078 77.6563 4.66457 73.1485 7.26527 70.0276C7.43865 69.8542 7.61201 69.6809 7.78539 69.5075C7.95877 69.3341 8.13218 69.1607 8.30556 68.9873C8.47894 68.814 8.82569 68.4672 8.99907 68.2938C9.17245 68.1204 9.5192 67.9471 9.69258 67.7737C9.86596 67.6003 9.86598 67.6003 10.0394 67.4269C10.7329 66.9068 11.4264 66.3866 12.2933 66.0399C12.4667 65.8665 12.8134 65.8665 12.9868 65.6931C13.6803 65.3464 14.5472 65.173 15.4141 65.173C15.5875 65.173 15.7609 65.173 15.7609 65.173C16.1076 65.173 16.281 65.173 16.6278 65.173C16.8011 65.173 17.1479 65.173 17.3213 65.173H17.4947C17.668 65.173 17.8415 65.173 18.0148 65.3464C18.1882 65.3464 18.3616 65.3464 18.535 65.5197C18.7083 65.5197 18.8817 65.6931 19.2285 65.6931C21.1356 66.3866 23.0428 67.6003 24.7766 69.3341C25.1234 69.6809 25.4701 70.201 25.9903 70.7211L26.1637 70.8945C26.337 71.0679 26.3371 71.2413 26.5104 71.4147C27.0306 72.1082 27.5507 72.9751 28.0708 73.842L28.2442 74.0154C30.3248 77.6563 31.8852 82.1642 32.7521 88.0591C32.9255 90.8332 32.0586 93.4339 30.3248 95.6878Z" fill="black"/>
</svg>
