<svg width="30" height="109" viewBox="0 0 30 109" fill="none" xmlns="http://www.w3.org/2000/svg">
<path d="M0.772393 98.5505C0.945773 91.2686 2.33277 83.9866 4.41333 77.0514C4.58671 76.7047 4.58675 76.3579 5.10689 75.6644V74.9709C7.70758 43.2424 11.3486 12.7275 20.7111 4.4053C23.8319 0.937708 25.9124 -0.275942 27.2995 0.417577C28.6865 0.937716 29.0333 3.01826 29.0333 4.57868C29.2067 6.83262 28.8599 9.08656 28.1664 11.1671C23.8319 25.0375 25.3923 48.9639 26.9527 71.8501L27.1261 75.3177C27.4729 76.3579 27.8196 77.3982 27.993 78.6119C29.0333 84.6802 29.5534 91.9621 29.5534 99.7642C29.5534 102.885 27.6463 105.312 24.1787 107.046C22.4449 107.913 20.3643 108.433 18.1104 108.607H7.3608C7.18742 108.607 7.1874 108.607 7.01402 108.607C5.80036 108.607 4.58672 108.086 3.71982 107.22C1.46588 105.139 0.425633 102.192 0.772393 98.5505ZM25.3923 72.0234C24.0053 48.7905 22.4449 24.8641 26.7794 10.647C27.2995 8.7398 27.6463 6.65924 27.4729 4.57868C27.2995 2.49812 26.9527 1.97798 26.7794 1.97798C26.4326 1.8046 25.2189 1.97799 21.7513 5.79235C13.0823 13.5944 9.268 43.5891 6.84069 72.717L7.01402 72.5436C7.36078 72.0234 7.70755 71.5033 8.05431 71.1565C8.22769 70.9832 8.4011 70.6364 8.57448 70.463C8.57448 70.463 8.57444 70.2896 8.74782 70.2896C9.09458 69.9429 9.44135 69.4227 9.78811 69.076C9.96149 68.9026 10.3082 68.5558 10.4816 68.3825C10.655 68.2091 10.8284 68.0357 11.0018 67.8623C11.1752 67.6889 11.3485 67.5156 11.5219 67.5156C11.6953 67.3422 12.042 67.1688 12.2154 66.9954C12.3888 66.822 12.5622 66.822 12.7356 66.6487C12.909 66.4753 13.0823 66.4753 13.2557 66.3019C13.4291 66.3019 13.6025 66.1285 13.7759 66.1285H13.9492C14.1226 66.1285 14.296 65.9551 14.4694 65.9551C14.6428 65.9551 14.8161 65.7818 14.9895 65.7818C14.9895 65.7818 14.9895 65.7818 15.1629 65.7818C15.3363 65.7818 15.5096 65.7818 15.683 65.7818C15.8564 65.7818 16.0298 65.7818 16.2032 65.7818C16.3766 65.7818 16.3765 65.7818 16.5499 65.7818C18.4571 65.7818 20.1909 66.6487 22.0981 68.2091C22.4448 68.5558 22.7916 68.9026 23.1384 69.2494C23.8319 69.9429 24.5254 70.9832 25.3923 72.0234C25.3923 71.8501 25.2189 71.8501 25.3923 72.0234ZM4.76011 106.179C5.45363 106.873 6.32053 107.22 7.3608 107.046H18.1104C20.0176 106.873 21.9247 106.526 23.4851 105.659C26.4326 104.272 27.993 102.365 27.993 99.9376C27.993 92.1355 27.4729 84.8535 26.4326 78.9586C26.2592 77.9183 25.9124 76.8781 25.5657 75.8378C25.5657 75.6644 25.3923 75.491 25.3923 75.491C25.3923 75.3176 25.2189 75.1443 25.2189 75.1443C25.2189 74.9709 25.2189 74.9709 25.0456 74.7975C25.0456 74.6241 24.8722 74.4508 24.8722 74.2774C24.5254 73.7572 24.352 73.2371 24.0053 72.8903C23.8319 72.717 23.6585 72.3702 23.4851 72.1968C23.1383 71.85 22.7916 71.3299 22.4449 70.9832C22.2715 70.8098 22.0981 70.6364 21.9247 70.463C19.8441 68.2091 17.937 67.1688 16.0298 67.3422C15.8564 67.3422 15.6831 67.3422 15.5097 67.3422C15.5097 67.3422 15.5097 67.3422 15.3363 67.3422C15.1629 67.3422 14.9895 67.3422 14.9895 67.5156H14.8161C14.6427 67.5156 14.6428 67.5156 14.4694 67.6889C14.296 67.6889 14.296 67.6889 14.1226 67.8623C13.7758 68.0357 13.2557 68.2091 12.909 68.3825C12.7356 68.3825 12.5622 68.5558 12.5622 68.7292C12.3888 68.9026 12.0421 69.076 11.8687 69.2494C11.6953 69.4227 11.5219 69.4227 11.3485 69.5961C11.1751 69.7695 11.0018 69.9429 10.8284 70.1163C10.655 70.2896 10.4817 70.463 10.3083 70.8098C10.1349 70.9832 9.96149 71.3299 9.78811 71.5033C9.61473 71.6767 9.44137 72.0234 9.26799 72.1968C9.09461 72.5436 8.9212 72.7169 8.74782 73.0637L8.2277 73.7572C7.88094 74.4507 7.36078 75.1443 7.01402 75.8378L6.84069 76.1846C6.49393 76.7047 6.3205 77.2248 6.14712 77.9183C4.06657 84.6802 2.85295 91.6154 2.50619 98.8973C1.98605 101.845 2.85293 104.272 4.76011 106.179Z" fill="black"/>
</svg>
