<svg width="51" height="101" viewBox="0 0 51 101" fill="none" xmlns="http://www.w3.org/2000/svg">
<path d="M49.0644 77.8548C48.891 76.9879 48.7177 76.121 48.3709 75.2541C48.1975 74.3872 47.8508 73.5203 47.3306 72.6534L47.1573 71.7865C46.117 61.9039 46.117 50.9809 47.1573 38.4976C46.2904 24.6272 42.1293 15.0913 34.6739 10.41C31.8998 7.98273 29.8193 7.11583 28.2589 7.80935C27.0452 8.32948 26.3517 9.88991 26.3517 12.4906C26.3517 12.664 26.3517 12.664 26.3517 12.8374C21.4971 4.16837 17.6827 0.00725411 14.7352 0.874153C12.1345 1.56767 10.9209 6.07555 11.0943 14.3978C10.9209 13.7043 10.5741 13.0107 10.4008 12.1438C9.88061 10.7568 9.18707 9.36977 8.32017 8.32949C6.93313 6.76907 5.71948 6.07556 4.50582 6.42232C2.9454 6.76907 1.90513 8.50287 1.03823 11.7971C-0.695572 18.0388 -0.00205243 27.0545 3.63892 40.7515C6.23962 50.114 6.93314 60.3434 5.89287 70.9196C5.19935 71.7865 4.67922 72.6534 4.33246 73.6937C0.864862 82.8828 0.171338 89.1245 2.07852 93.459C3.29217 95.8863 5.19935 97.7935 8.14681 98.8338C11.441 100.047 15.2554 101.434 19.4165 99.874C21.1503 99.3539 22.7107 98.3136 24.0977 96.9266C24.4445 96.5798 24.7913 96.2331 25.138 95.8863C25.138 95.7129 25.3114 95.5395 25.4848 95.3662C25.4848 95.1928 25.6582 95.1928 25.8315 95.0194C26.1783 95.1928 26.8718 95.7129 27.2186 96.0597C27.5653 96.2331 27.7387 96.5798 27.9121 96.5798C29.8193 97.7935 32.2466 99.3539 34.6739 100.047C35.8876 100.394 37.1012 100.568 38.3149 100.568C39.3552 100.568 40.3954 100.394 41.4357 100.047C42.6494 99.7007 43.6897 99.3539 44.5566 98.8338C46.6371 97.7935 48.1975 96.5798 49.0644 95.1928C49.9313 93.9791 50.4515 92.2453 50.7982 90.5115C50.7982 86.177 49.9313 81.6692 49.0644 77.8548ZM15.2554 2.43457C16.9892 1.91443 21.1503 5.72879 27.2186 17.8654C30.5128 30.3487 29.9926 40.2314 25.6582 47.8601C21.497 40.7515 17.3359 31.5624 13.0014 19.7726C11.7878 4.68851 14.3885 2.78133 15.2554 2.43457ZM5.19936 40.4048C1.73176 27.2279 0.864862 18.2121 2.59866 12.3172C3.46556 8.84962 4.50583 8.15611 5.02597 8.15611C5.54611 7.98273 6.41301 8.50286 7.27991 9.54314C7.97343 10.41 8.66695 11.6237 9.01371 12.8374C9.88061 15.4381 10.7475 17.8654 11.6144 20.2927L13.695 25.8408V25.6675C17.5093 35.7235 21.3237 43.699 25.138 49.9406L25.8315 50.9809L26.5251 49.9406C30.8595 43.0055 32.2466 34.3365 30.3394 23.7603L30.8595 24.974L28.779 17.3452C28.779 16.9985 28.6056 16.8251 28.6056 16.4783C28.2589 15.0913 28.0855 13.8776 28.0855 12.4906C28.0855 10.5834 28.4322 9.54315 29.1257 9.19639C29.4725 9.02301 30.6862 8.84963 33.807 11.6237H33.9804C41.089 15.9582 44.9033 24.974 45.7702 38.4976C44.9033 50.114 44.7299 60.3434 45.5968 69.8793C45.4235 69.7059 45.2501 69.5326 45.2501 69.3592C44.9033 69.0124 44.7299 68.839 44.3832 68.4923C44.2098 68.3189 44.0364 68.3189 43.863 68.1455C43.5163 67.7988 43.1695 67.452 42.6494 67.2786C41.4357 66.4117 40.3954 65.8916 39.1818 65.3715C38.835 65.1981 38.3149 65.0247 37.9681 65.0247C36.7545 64.6779 35.5408 64.5046 34.3271 64.5046C33.807 64.5046 33.2869 64.5046 32.9401 64.5046C32.2466 64.6779 31.5531 64.6779 30.6862 65.0247C29.9927 65.1981 29.1258 65.5448 28.4322 65.8916C27.5653 66.2383 26.6985 66.4117 26.0049 66.2384C19.4165 65.1981 14.0417 65.7182 9.53385 67.9722C9.18709 68.1455 8.84032 68.3189 8.49356 68.4923C8.32018 68.6657 8.14681 68.6657 8.14681 68.8391C7.97343 69.0124 7.80005 69.0124 7.80005 69.1858C8.49357 59.1298 7.62667 49.4205 5.19936 40.4048ZM48.7177 90.1648C48.5443 91.7252 48.0241 93.1122 47.3306 94.3259C46.6371 95.5395 45.2501 96.5798 43.5163 97.4467C42.6494 97.7935 41.6091 98.3136 40.5688 98.6604C38.835 99.1805 36.9278 99.1805 34.8473 98.487C32.5934 97.7935 30.166 96.4064 28.4322 95.1928C28.2589 95.0194 28.0855 94.846 27.9121 94.6726C26.8718 93.8057 26.0049 93.2856 25.4848 93.2856C25.3114 93.2856 25.3114 93.2856 25.138 93.2856C24.7913 93.459 24.4445 93.8057 23.9244 94.4993C23.9244 94.6726 23.751 94.6726 23.751 94.846C23.4042 95.1928 23.2309 95.5395 22.8841 95.7129C21.6704 96.9266 20.2834 97.7935 18.723 98.3136C15.4287 99.5273 12.3079 98.6604 8.49356 97.2733C5.89287 96.4064 4.33245 94.846 3.29217 92.7655C1.55837 88.9511 2.2519 82.8828 5.54611 74.2138C5.89287 73.3469 6.23963 72.6534 6.75977 71.9599L6.93316 71.6131C7.10654 71.2664 7.2799 71.093 7.62666 70.9196C7.80004 70.7462 7.80004 70.7462 7.97342 70.5728C8.49356 70.0527 9.18709 69.5326 9.88061 69.1858C14.0417 67.1052 19.0697 66.5851 25.3114 67.6254C26.3517 67.7988 27.5654 67.6254 28.6056 67.1053C33.2869 65.0247 37.7948 65.7182 42.3026 69.3592C42.8228 69.7059 43.3429 70.2261 43.6897 70.7462C44.2098 71.2664 44.73 71.9599 45.0767 72.6534C45.5969 73.5203 46.117 74.5606 46.2904 75.6009C46.4637 76.4678 46.8105 77.1613 46.9839 78.0282C48.3709 82.0159 49.2378 86.177 48.7177 90.1648Z" fill="black"/>
</svg>
