<svg width="39" height="111" viewBox="0 0 39 111" fill="none" xmlns="http://www.w3.org/2000/svg">
<path d="M38.0224 98.627C37.849 97.9335 37.849 97.24 37.6756 96.7198C37.3289 93.9458 36.8087 90.4782 36.2886 87.184C36.1152 86.6638 36.1152 85.9703 35.9418 85.4502C35.2483 81.9826 34.5548 78.1682 33.3411 74.874L32.821 69.6726C30.2203 43.839 27.7929 17.1385 18.0837 5.17529C17.7369 4.82854 17.5636 4.48178 17.3902 4.13502C15.3096 1.36094 13.4025 -0.0260891 11.6687 0.147291C10.2816 0.147291 9.06796 1.18757 8.20106 2.92137C6.9874 5.00192 6.46723 7.25586 6.81399 9.68318C8.37441 26.8478 7.50753 47.3066 4.56008 72.2733V72.4467C3.69318 74.3538 2.99964 76.4344 2.4795 78.6883C1.43922 83.3696 1.09247 88.3976 0.919088 93.0789V94.1191C0.745708 96.5465 0.919109 98.8004 1.26587 100.881C1.61263 102.788 2.30614 105.562 4.56008 107.469C7.16077 109.723 10.455 109.723 13.5758 109.897L32.6476 110.243H32.821C35.7684 110.243 37.849 108.856 38.5425 106.602C38.8893 103.828 38.3691 101.054 38.0224 98.627ZM8.20106 9.16304C8.02768 7.08248 8.37441 5.00191 9.41469 3.4415C10.1082 2.22784 10.8018 1.53432 11.6687 1.53432C12.8823 1.53432 14.4427 2.5746 16.0032 5.00192C16.3499 5.34868 16.5233 5.69543 16.8701 6.04219C26.2326 17.6586 28.8332 44.1858 31.2606 69.6726V70.3661C31.0872 70.1927 30.9138 69.846 30.7404 69.6726C30.5671 69.4992 30.567 69.3258 30.3937 69.1524C30.2203 68.9791 30.2203 68.8057 30.0469 68.6323C29.8735 68.4589 29.7001 68.1122 29.5268 67.9388C29.3534 67.7654 29.18 67.4187 29.0066 67.2453C29.0066 67.2453 29.0066 67.0719 28.8332 67.0719C28.6599 66.8985 28.6598 66.8985 28.4865 66.7251L28.3131 66.5518C28.1397 66.3784 27.9663 66.205 27.793 66.0316C26.7527 64.9913 25.539 63.9511 24.152 63.0842C23.9786 62.9108 23.8052 62.9108 23.8052 62.9108C23.6319 62.7374 23.4585 62.7374 23.2851 62.564C23.1117 62.3906 22.7649 62.3906 22.5916 62.2173C22.4182 62.0439 22.0714 62.0439 21.8981 61.8705C20.1643 61.177 18.4304 61.0036 16.5233 61.3504C16.1765 61.3504 15.8297 61.5237 15.483 61.5237C15.3096 61.5237 15.1362 61.6971 14.9629 61.6971C14.6161 61.8705 14.2693 61.8705 13.9226 62.0439C13.5758 62.2173 13.229 62.3906 12.8823 62.564C12.3621 62.9108 11.842 63.2575 11.3219 63.6043C10.8017 63.9511 10.2816 64.2978 9.76147 64.818C9.58809 64.9913 9.24134 65.1647 9.06796 65.5115L8.89457 65.6849C8.02767 66.3784 7.33412 67.2453 6.6406 68.1122C6.46722 68.2856 6.46725 68.4589 6.29387 68.6323C9.06795 45.226 9.5881 25.8075 8.20106 9.16304ZM36.6353 105.736C35.9418 107.99 33.3411 108.336 32.3008 108.163L13.2291 107.816C10.2816 107.816 7.33414 107.816 5.25358 105.909C3.86655 104.695 2.99964 102.962 2.4795 100.187C2.13274 98.2803 1.95939 96.0263 2.13277 93.7724V92.7321C2.47953 88.0508 2.6529 83.1962 3.69318 78.515C4.21332 76.0876 4.9068 74.0071 5.7737 72.0999C5.94708 71.7532 6.12049 71.4064 6.29387 71.233C6.46725 70.8863 6.64061 70.7129 6.81399 70.3661C6.98737 70.0194 7.16078 69.846 7.33416 69.6726L7.5075 69.4992C7.68088 69.3258 7.85428 69.1525 7.85428 68.9791L8.02767 68.8057L8.3744 68.2855L8.54779 67.9388L9.06796 67.4187L9.2413 67.2453C9.41468 67.0719 9.58809 66.8985 9.76147 66.7251L10.6284 65.8582C10.8017 65.6848 10.9751 65.5115 11.3219 65.3381C11.4953 65.1647 11.4953 65.1647 11.6687 64.9913C12.3622 64.4712 13.4025 63.9511 14.2694 63.4309C14.9629 63.0842 15.6564 62.9108 16.3499 62.7374C16.6966 62.7374 17.0434 62.564 17.5636 62.564C17.7369 62.564 17.9103 62.564 18.0837 62.564C19.124 62.564 19.9909 62.7374 21.0312 63.0842C25.7124 64.818 29.7001 70.1927 31.2606 74.3538C31.4339 74.874 31.6073 75.2207 31.7807 75.7409C32.821 78.8617 33.3411 82.1559 34.0346 85.4502C34.208 86.1437 34.208 86.6638 34.3814 87.3573C35.0749 90.6515 35.4217 93.9458 35.7684 96.8932C35.7684 97.5867 35.9418 98.2803 36.1152 98.9738C36.8087 101.228 37.1555 103.828 36.6353 105.736Z" fill="black"/>
</svg>
