<svg width="51" height="98" viewBox="0 0 51 98" fill="none" xmlns="http://www.w3.org/2000/svg">
<path d="M49.0644 23.0598C48.891 23.9267 48.7177 24.6202 48.3709 25.4871C48.1975 26.354 47.8508 27.2209 47.3306 28.0878L47.1573 28.9547C46.117 38.664 46.117 49.2401 47.1573 61.2033C46.2904 74.727 42.1293 83.9161 34.6739 88.424C31.8998 90.8513 29.8193 91.5448 28.2589 90.8513C27.0452 90.3312 26.3517 88.7707 26.3517 86.3434C26.3517 86.17 26.3517 86.1701 26.3517 85.9967C21.4971 94.4923 17.6827 98.3066 14.7352 97.6131C12.1345 96.9196 10.9209 92.5851 11.0943 84.4362C10.9209 85.1297 10.5741 85.8233 10.4008 86.5168C9.88061 87.9038 9.18707 89.1175 8.32017 90.1578C6.93313 91.7182 5.71948 92.2384 4.50582 92.065C2.9454 91.7182 1.90513 90.1578 1.03823 86.8636C-0.695572 80.7953 -0.00205243 72.1263 3.63892 58.776C6.23962 49.7603 6.93314 39.8776 5.89287 29.4749C5.19935 28.608 4.67922 27.7411 4.33246 26.8742C0.864862 18.0318 0.171338 11.9635 2.07852 7.80238C3.29217 5.37506 5.19935 3.64126 8.14681 2.60099C11.441 1.38733 15.2554 0.173658 19.4165 1.5607C21.1503 2.08084 22.7107 3.12112 24.0977 4.33478C24.4445 4.68154 24.7913 5.02829 25.138 5.37505C25.138 5.37505 25.3114 5.54843 25.4848 5.89519C25.4848 6.06857 25.6582 6.06857 25.8315 6.24195C26.1783 6.06857 26.8718 5.54844 27.2186 5.20168C27.5653 5.0283 27.7387 4.68154 27.9121 4.68154C29.8193 3.46788 32.2466 2.08082 34.6739 1.38731C35.8876 1.04055 37.1012 0.867188 38.3149 0.867188C39.3552 0.867188 40.3954 1.04055 41.4357 1.38731C42.6494 1.73407 43.6897 2.08085 44.5566 2.60099C46.6371 3.64126 48.1975 4.85491 49.0644 6.24195C49.9313 7.4556 50.4515 9.01602 50.7982 10.9232C50.7982 15.0843 49.9313 19.4188 49.0644 23.0598ZM15.2554 96.2261C16.9892 96.7462 21.1503 93.1052 27.2186 81.3154C30.5128 69.1788 29.9926 59.6429 25.6582 52.1876C21.497 59.1228 17.3359 67.9652 13.0014 79.4082C11.7878 94.1455 14.3885 96.0527 15.2554 96.2261ZM5.19936 59.4695C1.73176 72.2996 0.864862 80.9687 2.59866 86.6902C3.46556 90.1578 4.50583 90.6779 5.02597 90.6779C5.54611 90.8513 6.41301 90.3312 7.27991 89.2909C7.97343 88.424 8.66695 87.3837 9.01371 86.17C9.88061 83.7427 10.7475 81.3154 11.6144 78.8881L13.695 73.5133V73.6867C17.5093 63.9774 21.3237 56.1753 25.138 50.107L25.8315 49.0668L26.5251 50.107C30.8595 56.8689 32.2466 65.1911 30.3394 75.5939L30.8595 74.3802L28.779 81.6622C28.779 81.8356 28.6056 82.1823 28.6056 82.3557C28.2589 83.5694 28.0855 84.9564 28.0855 86.17C28.0855 87.9038 28.4322 89.1175 29.1257 89.2909C29.4725 89.4643 30.6862 89.6376 33.807 87.0369H33.9804C41.089 82.7024 44.9033 74.0335 45.7702 61.03C44.9033 49.7603 44.7299 39.7042 45.5968 30.5151C45.4235 30.6885 45.2501 30.8619 45.2501 30.8619C44.9033 31.2086 44.7299 31.382 44.3832 31.7288C44.2098 31.9022 44.0364 31.9022 43.863 32.0756C43.5163 32.4223 43.1695 32.5957 42.6494 32.9425C41.4357 33.8094 40.3954 34.3295 39.1818 34.8496C38.835 35.023 38.3149 35.1964 37.9681 35.1964C36.7545 35.5431 35.5408 35.7165 34.3271 35.7165C33.807 35.7165 33.2869 35.7165 32.9401 35.7165C32.2466 35.7165 31.5531 35.5431 30.6862 35.3698C29.9927 35.1964 29.1258 34.8496 28.4322 34.5029C27.5653 34.1561 26.6985 33.9827 26.0049 34.1561C19.4165 35.1964 14.0417 34.6762 9.53385 32.4223C9.18709 32.2489 8.84032 32.0755 8.49356 31.9022C8.32018 31.9022 8.14681 31.7288 8.14681 31.5554C7.97343 31.382 7.80005 31.382 7.80005 31.2087C8.49357 41.4381 7.62667 50.8005 5.19936 59.4695ZM48.7177 11.0966C48.5443 9.53617 48.0241 8.14912 47.3306 7.10884C46.6371 5.89519 45.2501 4.85491 43.5163 4.16139C42.6494 3.81463 41.6091 3.29448 40.5688 3.1211C38.835 2.60096 36.9278 2.60097 34.8473 3.29449C32.5934 3.98801 30.166 5.37506 28.4322 6.41534C28.2589 6.41534 28.0855 6.58872 27.9121 6.93548C26.8718 7.80238 26.0049 8.3225 25.4848 8.3225C25.3114 8.3225 25.3114 8.3225 25.138 8.3225C24.7913 8.14912 24.4445 7.80237 23.9244 7.28223C23.9244 7.10886 23.751 7.10886 23.751 6.93548C23.4042 6.58872 23.2309 6.24196 22.8841 6.06858C21.6704 4.85492 20.2834 3.98802 18.723 3.46788C15.4287 2.25423 12.3079 3.12111 8.49356 4.50815C5.89287 5.37505 4.33245 6.76208 3.29217 8.84264C1.55837 12.4836 2.2519 18.3785 5.54611 26.8742C5.89287 27.5677 6.23963 28.2612 6.75977 28.9547L6.93316 29.3015C7.10654 29.4748 7.2799 29.8216 7.62666 29.995C7.80004 30.1684 7.80004 30.1684 7.97342 30.3418C8.49356 30.8619 9.18709 31.382 9.88061 31.7288C14.0417 33.8093 19.0697 34.3295 25.3114 33.2892C26.3517 33.1158 27.5654 33.2892 28.6056 33.8094C33.2869 35.8899 37.7948 35.1964 42.3026 31.7288C42.8228 31.382 43.3429 30.8619 43.6897 30.5151C44.2098 29.995 44.73 29.3015 45.0767 28.7813C45.5969 27.9144 46.117 26.8741 46.2904 25.8339C46.4637 24.967 46.8105 24.2735 46.9839 23.4066C48.3709 19.2454 49.2378 15.0843 48.7177 11.0966Z" fill="black"/>
</svg>
