<svg width="58" height="56" viewBox="0 0 58 56" fill="none" xmlns="http://www.w3.org/2000/svg">
<path d="M37.6755 55.0306H37.502C35.7682 53.9903 32.8208 52.7767 29.0065 52.6033C25.1921 52.6033 22.0713 53.817 20.3375 55.0306H20.164H19.9907C14.7893 55.0306 9.93463 53.1234 6.29366 49.4825C6.12028 49.3091 5.94692 49.1357 5.77354 48.9623L5.42676 48.4422L19.2971 36.6523H38.7157L52.2393 48.6156L51.7192 49.1357C51.7192 49.3091 51.5458 49.3091 51.3724 49.4825C46.171 54.6839 39.5826 55.0306 37.6755 55.0306ZM6.81383 48.7889L6.98722 48.9623C10.4548 52.2565 14.9627 54.1637 19.9907 54.1637C21.8979 53.1234 25.0187 51.7364 29.0065 51.7364C32.8208 51.7364 35.9416 53.1234 37.8488 54.1637C39.756 54.1637 45.8243 53.6436 50.8523 48.9623L51.0256 48.7889L38.3689 37.6926H19.6439L6.81383 48.7889Z" fill="black"/>
<path d="M6.1199 49.3068L5.77312 48.96C1.09187 43.932 0.745117 38.0371 0.745117 36.3033V36.1299V35.9565C1.7854 34.3961 3.51919 31.1019 3.34581 26.7674C3.17243 23.4732 1.7854 20.8725 0.745117 19.3121V19.1387V18.9653C0.745117 17.0581 1.09188 15.151 1.61202 13.4172C2.13216 11.6834 3.51917 8.38916 6.46663 5.78847C11.3213 1.28059 17.7363 0.933811 20.1636 1.10719H20.3371C22.0709 2.14747 25.7118 3.70789 30.2196 3.36113C32.8203 3.18775 35.2477 2.32085 37.5016 1.10719H37.675C38.5419 0.933811 46.344 -0.453211 52.4123 5.26832L52.759 5.61508L52.5857 5.96183L38.7153 19.1387H20.1636C20.1636 22.0862 19.9903 25.0336 19.9903 27.9811C19.9903 30.9285 19.9902 34.0494 20.1636 37.1702V37.3436L19.9903 37.5169L6.1199 49.3068ZM1.61202 36.4767C1.61202 38.2105 2.13217 43.5853 6.1199 48.0931L18.9499 36.9968C18.9499 34.0494 18.7766 30.9285 18.7766 27.9811C18.7766 25.207 18.7766 22.2595 18.9499 19.3121L6.29324 7.17548C4.0393 9.6028 2.99905 12.3769 2.47892 13.7639C1.95878 15.4977 1.61202 17.2315 1.61202 18.9653C2.6523 20.6991 4.03933 23.2998 4.21271 26.7674C4.55947 31.2753 2.82567 34.7429 1.61202 36.4767ZM6.9868 6.65537L19.2967 18.4452H19.4702H38.1952L51.5454 5.96183C45.9973 0.933816 39.062 1.9741 37.8484 2.14748C35.5944 3.53452 32.9938 4.22804 30.3931 4.40142C25.7118 4.74818 21.8975 3.18776 19.9903 2.14748C17.563 2.14748 11.6681 2.32087 6.9868 6.65537Z" fill="black"/>
<path d="M51.5459 49.3134L38.0222 37.3502V19.1453H37.1553L52.066 5.10156L52.4128 5.44832C58.1343 10.9965 57.094 18.2784 57.094 19.1453V19.3187C56.0537 21.2259 54.8401 24.3467 55.0135 28.1611C55.0135 30.7618 55.8803 33.5359 57.094 35.9632V36.1366C57.094 40.8178 55.1868 45.3257 51.8926 48.7933L51.5459 49.3134ZM38.8891 37.1768L51.5459 48.2732C54.4933 44.9789 56.2271 40.8178 56.2271 36.4833C54.84 34.056 54.1466 31.2819 54.1466 28.5078C53.9732 24.5201 55.1868 21.2259 56.2271 19.1453C56.4004 18.1051 57.094 11.69 52.066 6.48861L38.8891 18.9719V37.1768Z" fill="black"/>
<path d="M38.8888 37.6905H19.1235V18.4453H19.4703H39.409L38.8888 18.9655V37.6905ZM19.9904 36.8236H38.0219V19.3122H19.9904V36.8236Z" fill="black"/>
<path d="M38.0215 37.347V18.9688H38.8884V37.347H38.0215Z" fill="black"/>
</svg>
