<svg width="32" height="106" viewBox="0 0 32 106" fill="none" xmlns="http://www.w3.org/2000/svg">
<path d="M31.2025 9.88897C30.8557 16.9975 29.6421 23.9327 27.2147 30.6945C27.0414 31.0413 27.0414 31.3881 26.5212 32.0816V32.6017C23.7472 63.4633 19.7594 92.9379 9.70337 101.087C6.23577 104.381 4.15521 105.595 2.59479 105.074C1.03437 104.554 0.860979 102.474 0.687599 101.087C0.514219 99.0062 0.860979 96.7523 1.5545 94.6717C6.06237 81.1481 4.50199 58.0885 2.94157 35.7225L2.76818 32.255C2.42142 31.2147 2.07466 30.1744 1.90128 29.1341C0.861 23.2392 0.34086 16.1306 0.16748 8.50192C0.16748 5.55447 2.24803 3.12715 6.06238 1.56673C7.96956 0.699832 10.2235 0.179688 12.4775 0.179688H24.0939C24.2673 0.179688 24.2673 0.179688 24.4407 0.179688C25.8277 0.179688 27.0414 0.699822 28.0816 1.39334C30.509 3.4739 31.5492 6.24799 31.2025 9.88897ZM4.67537 35.5492C6.23578 58.0886 7.79621 81.3214 3.11496 95.1918C2.42144 97.099 2.24806 99.0062 2.24806 101.087C2.42144 103.167 2.94158 103.514 3.11496 103.687C3.46172 103.861 4.67533 103.687 8.48969 100.046C17.8522 92.4177 21.84 63.2899 24.614 35.029L24.4407 35.2024C24.0939 35.7225 23.7471 36.0693 23.4004 36.5894C23.227 36.7628 23.0536 37.1096 22.8802 37.283C22.8802 37.283 22.8802 37.283 22.7069 37.4563C22.3601 37.8031 22.0133 38.1499 21.6666 38.4966C21.4932 38.67 21.1464 39.0168 20.9731 39.1901C20.7997 39.3635 20.6263 39.5369 20.4529 39.7103C20.2796 39.8837 20.1061 39.8837 19.9328 40.057C19.7594 40.2304 19.4126 40.4038 19.2393 40.5772C19.0659 40.7506 18.8925 40.7506 18.5458 40.9239C18.5458 40.9239 18.5457 40.9239 18.3724 40.9239C18.199 41.0973 18.0256 41.0973 17.8522 41.0973C17.6789 41.0973 17.5055 41.2707 17.3321 41.2707H17.1587C16.9853 41.2707 16.8119 41.4441 16.6386 41.4441C16.4652 41.4441 16.2918 41.6175 16.1184 41.6175H15.9451C15.7717 41.6175 15.5983 41.6175 15.4249 41.6175C15.2515 41.6175 15.0781 41.6175 14.7314 41.6175C14.558 41.6175 14.558 41.6175 14.3846 41.6175C12.3041 41.6175 10.3969 40.7506 8.31635 39.1901C7.96959 38.8434 7.44943 38.4966 7.10267 38.1499C6.23577 37.4564 5.54227 36.5895 4.67537 35.5492C4.84875 35.7226 4.84875 35.8959 4.67537 35.5492ZM27.0414 2.60702C26.3478 1.9135 25.3075 1.56674 24.2673 1.74012H12.6508C10.5703 1.9135 8.48969 2.26024 6.75589 3.12714C3.46168 4.51418 1.90128 6.42138 1.90128 8.67531C1.90128 16.304 2.42141 23.2392 3.46169 28.9607C3.63507 30.001 3.98183 31.0413 4.32859 32.0816C4.32859 32.255 4.50198 32.4283 4.50198 32.4283C4.50198 32.6017 4.67537 32.7751 4.67537 32.7751C4.67537 32.9485 4.84876 32.9485 4.84876 33.1219C5.02214 33.2952 5.0221 33.4686 5.19548 33.642C5.54224 34.1621 5.88901 34.5089 6.23577 35.029C6.40915 35.2024 6.58251 35.5492 6.75589 35.7225C7.10265 36.0693 7.44942 36.5894 7.79618 36.9362C7.96956 37.1096 8.14297 37.283 8.31635 37.4563C10.5703 39.5369 12.6508 40.5772 14.7314 40.4038C14.9048 40.4038 15.0782 40.4038 15.2515 40.4038C15.2515 40.4038 15.2515 40.4038 15.4249 40.4038C15.5983 40.4038 15.7717 40.4038 15.7717 40.4038H15.9451C16.1184 40.4038 16.1184 40.4038 16.2918 40.4038C16.4652 40.4038 16.4652 40.4038 16.6386 40.2304C16.9853 40.0571 17.5055 39.8837 17.8522 39.7103C18.0256 39.7103 18.199 39.5369 18.3724 39.5369C18.7191 39.3635 18.8925 39.1902 19.2393 39.0168C19.4126 38.8434 19.586 38.8434 19.7594 38.67C19.9328 38.4966 20.1062 38.3233 20.4529 38.1499C20.6263 37.9765 20.7997 37.8031 21.1464 37.6297C21.4932 37.4564 21.4932 37.283 21.84 36.9362C22.0133 36.7628 22.1867 36.4161 22.5335 36.2427C22.7068 36.0693 22.8802 35.7226 23.227 35.3758L23.7471 34.6823C24.2673 33.9888 24.614 33.4686 25.1342 32.6017L25.3076 32.255C25.6543 31.7348 26.0011 31.2147 26.1745 30.6945C28.4284 24.1061 29.8154 17.3443 30.1622 10.4091C29.9888 6.59476 29.1219 4.34082 27.0414 2.60702Z" fill="black"/>
</svg>
