<svg width="43" height="98" viewBox="0 0 43 98" fill="none" xmlns="http://www.w3.org/2000/svg">
<path d="M0.208796 82.2298C0.382176 79.8025 0.555492 77.8953 0.902252 76.1615C1.07563 75.468 1.24899 74.7745 1.42237 74.2543C3.32955 64.8918 4.36983 55.3559 4.88997 45.82C4.88997 45.1265 4.89003 44.433 5.06341 43.7395C5.23679 40.4452 5.41017 36.9776 5.93031 33.5101C6.79721 29.0022 8.35756 24.1475 10.9583 19.2929C13.0388 15.1318 15.6396 11.3174 18.587 7.67646C19.2805 6.98294 19.974 6.11604 20.8409 5.76928C21.7078 5.42252 22.7481 5.24914 23.7884 5.94266C26.0423 1.60817 27.9496 -0.299015 29.6834 0.0477446C31.4172 0.394504 32.6308 2.64845 33.3243 7.3297C33.4977 7.3297 33.4976 7.3297 33.4976 7.50308C33.671 7.50308 33.6711 7.50308 33.6711 7.67646C34.0178 7.84984 34.1912 8.02322 34.3645 8.36998C34.8847 8.89012 35.2315 9.41026 35.5782 10.1038C36.2717 11.3174 36.9653 12.5311 37.4855 14.0915C40.9531 22.7605 40.6063 32.6432 39.7394 40.9654C39.566 42.8726 39.3926 44.7797 39.0458 46.6869C38.3523 53.4487 37.4854 60.5573 38.1789 67.3191C39.0458 68.3594 39.7394 69.5731 40.2595 70.9601C40.953 72.6939 41.4731 74.6011 41.9933 76.5083C43.2069 81.3629 41.8199 86.3909 38.5257 89.6851C33.8444 94.193 29.5099 95.0599 25.5222 92.2858C24.1352 91.2455 22.228 91.5923 21.1877 92.8059C18.9338 95.7534 15.6395 97.1404 12.1719 97.1404C10.6115 97.1404 8.87774 96.7937 7.31733 96.1002C2.63607 93.6728 -0.137964 88.4715 0.208796 82.2298ZM29.3366 1.43479C28.8164 1.26141 27.4294 1.78154 24.6553 6.98294C24.8287 7.3297 24.8287 7.67647 25.0021 8.02323C25.5222 10.7973 24.6553 13.398 23.7884 15.9987L23.6151 16.6922C20.4942 26.2281 19.6273 36.4575 21.1877 46.5135C22.9215 43.7395 24.3085 40.4452 25.1754 36.8043C26.2157 33.1633 26.7359 29.0022 27.0827 24.1475C27.256 22.7605 27.256 21.5469 27.256 20.1598C27.256 19.2929 27.256 18.2526 27.4293 17.3857C27.6027 15.6519 27.6028 13.9181 27.6028 12.1843V12.011C27.6028 10.9707 27.4294 9.58364 28.1229 8.54336C28.4697 7.84984 29.1632 7.3297 29.8567 6.98294C30.3768 6.80956 31.0704 6.63618 31.5905 6.63618H31.7638C30.7236 2.12831 29.6833 1.60817 29.3366 1.43479ZM38.5257 40.4452C39.3926 32.2964 39.7393 22.7605 36.4451 14.4383C35.925 13.0512 35.2315 11.8376 34.538 10.7973C34.1912 10.1038 33.8444 9.58364 33.3243 9.23688C33.1509 9.0635 33.1509 9.0635 32.9775 9.0635H32.8042C32.4574 8.89012 32.284 8.89012 32.1106 8.71674C31.5905 8.54336 30.897 8.54337 30.2035 8.89013C29.6833 9.06351 29.3365 9.41027 29.1631 9.75703C28.8164 10.4505 28.8165 11.3174 28.8165 12.3577V12.5311C28.8165 14.2649 28.8164 16.1721 28.643 17.9059C28.643 18.7728 28.4697 19.813 28.4697 20.6799C28.4697 22.067 28.2962 23.454 28.2962 24.8411C27.9495 29.8691 27.256 34.0302 26.2158 37.8445C25.0021 42.3524 23.2683 46.3402 21.0144 49.6344L19.974 51.0214L19.6272 49.2876C17.7201 38.5381 18.4137 27.2684 21.8813 16.8656L22.0546 16.1721C22.7481 13.9181 23.615 11.4908 23.2683 9.0635C23.0949 8.54336 23.0949 8.02322 22.7482 7.84984C22.4014 7.50308 21.5345 7.50308 21.1877 7.67646C20.4942 8.02322 19.9741 8.54336 19.4539 9.23688C16.6798 12.7045 14.0792 16.5188 11.9986 20.5066C9.57129 25.1878 8.01089 29.6957 7.14399 34.2036C6.62385 37.4978 6.45047 40.9654 6.27709 44.2596C6.27709 44.9531 6.27703 45.6466 6.10365 46.3402C5.75689 54.3156 4.88999 62.2911 3.50295 70.2666C3.84971 69.7464 4.19653 69.3997 4.54329 69.0529C6.10371 67.1457 8.18425 65.7587 10.2648 65.0652C10.6116 64.8918 10.9583 64.8918 11.305 64.7184C12.3453 64.3717 13.2122 64.1983 14.2525 64.1983C14.946 64.1983 15.6395 64.1983 16.5064 64.1983C17.2 64.1983 18.0668 64.1983 18.7604 64.0249C19.6272 63.8515 20.6676 63.8515 21.5345 63.6781C26.2157 62.6379 30.2034 62.9846 33.8444 64.7184C34.1912 64.8918 34.538 65.0652 34.8848 65.2386C35.0581 65.4119 35.2315 65.4119 35.4049 65.5853C35.7516 65.7587 36.2718 66.1055 36.6186 66.4522C36.2718 60.0372 36.9653 53.4487 37.6588 47.0337C38.0056 44.2596 38.3523 42.3524 38.5257 40.4452ZM8.18423 94.3664C12.5187 96.2735 17.3734 95.0599 20.3208 91.4189C21.1877 90.2053 22.5747 89.6851 23.9617 89.6851C24.8286 89.6851 25.869 90.0319 26.7359 90.552C30.2035 92.9793 33.8445 92.2858 38.0056 88.1247C40.953 85.1772 42.1667 80.8428 41.1264 76.5083C40.6062 74.7745 40.0861 72.8673 39.5659 71.3069C39.0458 69.7464 38.0056 68.3594 36.7919 67.3191C36.0984 66.799 35.4049 66.1055 34.538 65.7587C34.1912 65.5853 33.8445 65.4119 33.6711 65.2386C31.5905 64.1983 29.3366 63.6781 27.256 63.8515C25.6956 63.8515 24.3086 64.1983 22.7482 64.3717H22.5747C22.228 64.3717 21.8812 64.545 21.7078 64.545C20.6675 64.8918 19.454 65.0652 18.4137 64.8918C18.0669 64.8918 17.8935 64.8918 17.5468 64.8918C17.3734 64.8918 17.3734 64.8918 17.2 64.8918C15.6396 65.0652 14.0791 65.0652 12.6921 65.4119C10.4381 66.1055 8.53101 67.3191 6.79721 69.0529C5.41017 70.6133 4.36985 72.5205 3.50295 74.7745C3.32957 75.2946 3.15617 75.8147 3.15617 76.3349C2.80941 78.0687 2.63609 79.9758 2.46271 82.2298C1.24905 87.9513 3.67635 92.4592 8.18423 94.3664Z" fill="black"/>
</svg>
