<svg width="37" height="122" viewBox="0 0 37 122" fill="none" xmlns="http://www.w3.org/2000/svg">
<path d="M35.4914 100.801C34.4511 94.7328 33.0641 90.0516 31.5037 86.584C31.3303 86.2372 31.1569 85.7171 31.1569 85.3703C30.8101 82.5963 30.4634 79.6488 30.29 76.7013C27.1691 46.7066 23.8749 15.4983 13.4721 4.57534C10.698 1.4545 8.61752 0.240844 7.0571 0.760984C5.67006 1.28112 4.97652 2.84154 4.97652 5.61562C4.80314 7.34942 4.97655 9.08322 5.49669 10.9904C7.75063 21.0464 6.71032 43.9326 5.84342 66.2986C5.67004 72.1935 5.32329 78.2618 5.14991 83.9833C4.45639 85.5437 3.93626 87.1041 3.5895 88.6645C1.16219 99.4141 -0.571601 107.91 2.896 112.071L3.06933 112.244C6.53693 115.018 10.5247 117.619 15.3793 120.393C16.4196 121.087 17.6332 121.433 18.6735 121.433C19.1937 121.433 19.7138 121.607 20.4073 121.607C22.6612 121.607 24.9152 121.087 26.9958 120.046C27.3425 119.873 27.8626 119.526 28.2094 119.353C30.9835 117.099 32.8907 114.672 34.2777 111.897C35.4914 109.47 36.1849 106.696 36.3583 103.749C36.0115 102.882 35.8381 101.841 35.4914 100.801ZM7.0571 66.4719C7.924 44.1059 8.96426 21.0464 6.71032 10.817C6.36356 8.90984 6.1902 7.34942 6.1902 5.789C6.36358 3.01492 7.05707 2.3214 7.40383 2.3214C7.75059 2.14803 9.13766 2.14802 12.2585 5.61562C22.1411 16.1918 25.4353 47.0534 28.5562 76.8747C28.7296 78.6085 28.9029 80.3423 29.0763 81.9027L28.903 81.7294C28.7296 81.556 28.5562 81.2092 28.3828 81.0358C28.2094 80.8625 28.0361 80.5157 27.8627 80.3423C27.6893 80.1689 27.5159 79.8222 27.3425 79.6488L27.1692 79.4754C26.9958 79.302 26.8224 79.1287 26.649 78.9553C26.4756 78.7819 26.3023 78.6085 26.1289 78.4351C25.9555 78.2618 25.7821 78.0884 25.4354 77.915C25.262 77.7416 24.9152 77.5682 24.7418 77.2215C24.7418 77.2215 24.7418 77.2215 24.5685 77.0481C24.3951 76.8747 24.2217 76.7013 24.0483 76.7013C23.5282 76.3546 23.008 76.0078 22.6613 75.6611C22.4879 75.6611 22.4879 75.4877 22.3145 75.4877C22.1411 75.3143 21.9678 75.3143 21.7944 75.1409C21.2742 74.9675 20.9275 74.6208 20.4073 74.4474C20.2339 74.4474 20.0606 74.274 19.8872 74.274C19.3671 74.1006 18.8469 73.9273 18.1534 73.9273C17.98 73.9273 17.6333 73.9273 17.4599 73.9273C17.2865 73.9273 17.1131 73.9273 16.9397 73.9273C16.2462 73.9273 15.5527 74.1006 14.8592 74.274C14.5124 74.274 14.1657 74.4474 13.8189 74.6208C13.4721 74.7942 13.1254 74.9675 12.7786 75.1409C12.2585 75.4877 11.7383 75.6611 11.2182 76.0078C10.6981 76.3546 10.1779 76.7013 9.6578 77.2215C9.31104 77.5682 8.96427 77.915 8.61751 78.2618C8.44413 78.4351 8.27077 78.6085 8.09739 78.9553C8.09739 78.9553 8.09739 78.9553 8.09739 79.1287C7.92401 79.4754 7.57721 79.6488 7.40383 79.9956C7.23045 80.1689 7.05709 80.5157 6.88371 80.6891C6.88371 80.6891 6.88371 80.6891 6.88371 80.8625C6.71033 81.0358 6.53697 81.3826 6.36359 81.556C6.71035 76.3546 6.88372 71.3266 7.0571 66.4719ZM32.5439 111.204C31.3302 113.631 29.4231 115.885 26.9958 118.139C26.8224 118.312 26.4756 118.486 26.1289 118.659C23.7016 119.873 21.1008 120.22 18.6735 119.873C17.8066 119.7 16.7664 119.526 15.8995 119.006C11.0448 116.232 7.05711 113.631 3.76289 111.031C0.815437 107.39 2.54919 98.894 4.80313 89.0113C5.14989 87.6243 5.67006 86.2372 6.1902 84.8502L6.36359 84.5034C6.36359 84.5034 6.36359 84.5034 6.36359 84.33C6.53697 83.9833 6.71033 83.6365 6.88371 83.2898L7.57722 82.0761C7.7506 81.9027 7.92401 81.556 8.09739 81.3826C8.27077 81.2092 8.44413 80.8625 8.61751 80.6891C8.79089 80.5157 8.96425 80.3423 9.13763 79.9956C9.31101 79.8222 9.48442 79.6488 9.6578 79.302C9.83118 79.1287 10.0045 78.9553 10.1779 78.7819C10.3513 78.6085 10.5247 78.4351 10.6981 78.2618C11.0448 77.915 11.2182 77.7416 11.565 77.3949C13.6455 75.6611 15.8994 74.7942 17.98 74.9675C21.2742 75.1409 24.7418 77.7416 28.3828 82.7696C28.5562 82.943 28.5562 83.1164 28.7296 83.2898C28.7296 83.4632 28.903 83.4632 28.903 83.6365C29.0763 83.8099 29.0763 83.9833 29.2497 84.1567C29.4231 84.3301 29.4231 84.5034 29.5965 84.8502C29.7699 85.0236 29.7698 85.3703 29.9432 85.5437L30.1166 85.7171C30.29 86.0639 30.29 86.4106 30.4634 86.7574V86.9307C32.0238 90.3983 33.4108 94.9062 34.4511 100.975C34.6245 101.841 34.7979 102.708 34.7979 103.575C34.2777 106.523 33.7576 108.95 32.5439 111.204Z" fill="black"/>
</svg>
