<svg width="34" height="118" viewBox="0 0 34 118" fill="none" xmlns="http://www.w3.org/2000/svg">
<path d="M0.535319 20.2932C1.5756 26.1882 2.78922 30.696 4.34964 34.1636C4.52302 34.5104 4.52304 35.0305 4.69642 35.3773C5.04318 38.1514 5.21656 40.9254 5.56332 43.6995C8.51078 72.8273 11.4582 103.169 21.1675 113.745C23.7682 116.866 25.6754 117.906 27.0625 117.386C28.2761 116.866 28.9697 115.479 29.143 112.705C29.143 110.971 29.143 109.237 28.6228 107.33C26.5423 97.6206 27.5826 75.2547 28.4495 53.7556C28.6229 48.034 28.9697 42.1391 29.143 36.5909C29.8366 35.2039 30.3566 33.6435 30.7034 32.0831C32.9573 21.6803 34.5177 13.5314 31.2235 9.37031L31.0502 9.19692C27.9293 6.59622 24.115 3.99554 19.6072 1.22147C18.5669 0.701326 17.5265 0.181176 16.4862 0.181176C15.9661 0.181176 15.446 0.0078125 14.9259 0.0078125C12.8453 0.0078125 10.7648 0.527941 8.85758 1.56822C8.51082 1.7416 8.164 1.91497 7.81724 2.26173C5.21654 4.51567 3.48278 6.94301 2.26912 9.5437C1.22884 11.971 0.535308 14.5717 0.361928 17.3458C0.188548 18.2127 0.188559 19.253 0.535319 20.2932ZM26.889 53.5822C26.0221 75.2546 25.1552 97.794 27.2358 107.677C27.5826 109.41 27.7559 110.971 27.7559 112.531C27.5825 115.305 26.8891 115.826 26.7157 115.999C26.3689 116.172 25.1553 116.172 22.2079 112.705C13.0187 102.475 9.89786 72.4806 7.12378 43.5261C6.9504 41.7923 6.77705 40.2319 6.60367 38.4981L6.777 38.6715C6.95038 38.8449 7.12374 39.0183 7.29712 39.365C7.4705 39.5384 7.64386 39.8852 7.81724 40.0585C7.99062 40.2319 8.16408 40.4053 8.33746 40.7521L8.5108 40.9254C8.68418 41.0988 8.85754 41.2722 9.03092 41.4456C9.2043 41.619 9.37766 41.7923 9.55104 41.9657C9.72442 42.1391 9.89788 42.3125 10.0713 42.4859C10.2446 42.6592 10.418 42.8326 10.7647 43.006C10.7647 43.006 10.7648 43.006 10.9382 43.1794C11.1115 43.3528 11.2848 43.5261 11.2848 43.5261C11.805 43.8729 12.1518 44.2197 12.672 44.5664C12.8453 44.5664 12.8453 44.7398 13.0186 44.7398C13.192 44.9132 13.3655 44.9132 13.5389 45.0866C13.8856 45.2599 14.4057 45.6067 14.7524 45.7801C14.9258 45.7801 15.0992 45.9535 15.0992 45.9535C15.6194 46.1268 16.1395 46.3002 16.6597 46.3002C16.8331 46.3002 17.1798 46.3002 17.3531 46.3002C17.5265 46.3002 17.7 46.3002 17.8734 46.3002C18.5669 46.3002 19.2604 46.1268 19.7805 45.9535C20.1272 45.9535 20.474 45.7801 20.8207 45.6067C21.1675 45.4333 21.5143 45.2599 21.8611 45.0866C22.3812 44.7398 22.9013 44.5664 23.2481 44.2197C23.7682 43.8729 24.2883 43.5261 24.6351 43.006C24.9819 42.6592 25.3286 42.3125 25.502 41.9657C25.6754 41.7923 25.8487 41.619 26.0221 41.4456C26.0221 41.4456 26.0221 41.4456 26.0221 41.2722C26.1955 40.9254 26.5423 40.752 26.7157 40.4053C26.8891 40.2319 27.0624 40.0585 27.2358 39.7118C27.2358 39.7118 27.2358 39.7118 27.2358 39.5384C27.4092 39.365 27.5825 39.0183 27.7559 38.8449C27.2358 44.0463 27.0624 48.9009 26.889 53.5822ZM3.30941 10.0638C4.52307 7.6365 6.08348 5.38258 8.5108 3.30202C8.68418 3.12864 9.03098 2.95525 9.20436 2.78187C11.4583 1.74159 13.8856 1.22146 16.1396 1.56822C17.0065 1.7416 17.8734 1.91498 18.7403 2.43512C23.2481 5.03582 26.8891 7.63651 30.0099 10.2372C32.784 13.7048 31.2236 22.027 29.143 31.5629C28.7963 32.95 28.4495 34.337 27.9294 35.5507L27.7559 35.8974C27.7559 35.8974 27.7559 35.8974 27.7559 36.0708C27.5825 36.4176 27.4092 36.7643 27.2358 37.1111L26.5423 38.1514C26.369 38.3248 26.1956 38.6715 26.1956 38.8449C26.0222 39.0183 25.8488 39.1916 25.6754 39.5384C25.5021 39.7118 25.3286 39.8852 25.1552 40.2319C24.9818 40.4053 24.8085 40.5787 24.6351 40.7521C24.4617 40.9254 24.2884 41.0988 24.115 41.2722C23.9416 41.4456 23.7682 41.619 23.7682 41.7923C23.4214 42.1391 23.2481 42.3125 22.9013 42.6592C20.9941 44.393 18.9136 45.2599 17.0065 45.0866C13.8856 44.9132 10.7648 42.3125 7.47056 37.4578C7.29719 37.2845 7.29716 37.1111 7.12378 37.1111C7.12378 36.9377 6.95034 36.9377 6.95034 36.7643C6.95034 36.5909 6.777 36.4176 6.777 36.2442C6.60362 36.0708 6.6036 35.8974 6.43022 35.5507C6.25684 35.3773 6.25682 35.0305 6.08344 34.8571V34.6838C5.91006 34.337 5.91015 33.9902 5.73677 33.6435V33.4701C4.17635 30.0025 3.13601 25.668 2.09573 19.7731C1.92235 18.9062 1.749 18.0393 1.749 17.1724C1.749 14.7451 2.26913 12.3178 3.30941 10.0638Z" fill="black"/>
</svg>
