<svg width="48" height="93" viewBox="0 0 48 93" fill="none" xmlns="http://www.w3.org/2000/svg">
<path d="M44.0264 68.8289C43.5063 59.4664 42.9861 49.4104 41.079 39.5277C39.8653 32.5925 37.9581 27.0444 35.5308 22.3631C33.9704 19.5891 32.2366 16.9884 30.3294 14.7344L30.156 14.3877C26.1683 9.87979 23.9144 8.14598 22.3539 8.8395C21.8338 9.01288 21.487 9.53303 21.3137 9.87979C20.9669 10.5733 20.7935 11.0934 20.6201 11.787C18.713 8.31937 16.2857 5.37192 13.5116 3.11798C10.9109 1.03742 9.0037 0.343893 7.79004 1.03741C6.74976 1.73093 6.403 3.29135 6.74976 6.23881C5.18935 5.37191 3.8023 5.02516 2.76202 5.5453C1.89512 5.89206 1.2016 6.93233 1.02822 8.31937C0.508085 11.0934 1.54837 13.8675 2.41527 16.6416C2.93541 18.0286 3.28216 19.2423 3.45554 20.456C4.49582 26.0041 5.18934 31.0321 5.36272 35.8868C5.5361 40.9148 5.53611 45.9428 5.01597 50.9708C4.84259 52.5312 3.62892 62.934 2.9354 64.8412C2.0685 66.0548 1.37498 67.2685 1.02822 68.6555C0.854845 69.1757 0.68147 69.6958 0.68147 70.216C0.68147 70.3893 0.508093 70.7361 0.508093 70.9095C-0.705566 78.5382 1.89513 87.0338 10.044 90.6748C12.6447 91.7151 14.8986 91.5417 16.9792 89.9813C17.4993 89.6345 18.1928 88.7676 18.5396 88.2475C20.1 86.5137 22.7007 86.1669 24.6079 87.7273C28.4222 90.6748 32.2366 92.2352 35.8776 92.2352C37.2646 92.2352 38.6516 92.0618 39.8653 91.5417C42.6394 90.5014 46.107 87.5539 47.1473 80.4454V80.272C46.9739 76.2843 46.107 72.8167 44.0264 68.8289ZM8.65694 2.59783C8.65694 2.59783 9.52384 2.25107 12.2979 4.50501C16.8058 8.31936 20.2734 14.0409 22.8741 21.843C23.3942 24.0969 23.9144 26.3509 24.0877 28.4314C24.6079 32.2458 24.4345 35.8868 23.9144 39.5277V39.3544C23.741 37.2738 23.3942 35.1932 22.8741 33.2861C22.0072 29.4717 20.9669 26.0041 19.4065 22.5365C17.1525 17.6819 14.8986 13.8675 11.9512 10.5733C11.6044 10.2265 11.0843 9.70641 10.3907 9.01289L8.65694 7.62585C7.79004 3.29136 8.65694 2.77121 8.65694 2.59783ZM6.74976 51.3176C7.09652 48.0233 7.2699 44.7291 7.2699 41.4349C7.2699 39.7011 7.2699 37.7939 7.09652 36.0601C6.92314 31.2055 6.22962 26.0041 5.18934 20.2826C5.01596 18.8955 4.49583 17.5085 3.97569 16.1215C3.10879 13.6941 2.41526 11.0934 2.76202 8.66613C2.76202 8.14599 3.10878 7.45248 3.45554 7.2791C3.97568 7.10572 5.01596 7.45248 6.403 8.14599L7.09652 8.66613L9.52384 10.5733C10.2174 11.2668 10.7375 11.787 10.9109 12.1337C13.685 15.2546 15.9389 18.8955 18.0195 23.5768C19.4065 26.6976 20.6202 30.1652 21.3137 33.9796C21.6604 35.8868 22.0072 37.7939 22.1806 39.8745C22.1806 40.2213 22.3539 40.7414 22.3539 41.2615C22.5273 42.4752 22.8741 44.3824 22.5273 45.2493L24.2611 45.7694C25.9949 40.2213 26.5151 34.3263 25.8215 28.4314C25.4748 26.1775 25.128 23.7502 24.4345 21.4962C24.2611 20.6293 23.9144 19.7624 23.741 18.8955C23.5676 18.3754 23.3942 17.6819 23.0475 17.1617C22.1806 14.9078 21.487 13.0006 22.5273 11.0934C22.7007 10.7467 22.7007 10.7467 22.7007 10.7467C22.8741 10.7467 24.0877 10.7467 28.4222 15.7747L28.769 16.1215C30.6762 18.202 32.41 20.6293 33.797 23.4034C36.2243 27.9113 37.9581 33.4594 39.1718 40.2213C40.7322 48.8902 41.4257 57.7326 41.9459 66.0548C41.7725 65.7081 41.4257 65.3613 41.2524 65.1879C41.2524 65.1879 41.2524 65.1879 41.2524 65.0146C41.2524 65.0146 41.2523 64.8412 41.079 64.8412C40.7322 64.4944 40.3855 64.1477 40.0387 63.8009C38.825 62.5872 37.438 61.547 35.8776 60.3333C35.7042 60.1599 35.5308 59.9865 35.3574 59.9865C35.184 59.9865 35.0107 59.8132 35.0107 59.8132C34.6639 59.6398 34.4905 59.4664 34.1438 59.293C33.2769 58.7729 32.2366 58.2528 31.3697 57.7326C28.4222 56.519 25.4748 55.8254 22.7007 55.8254C22.1806 55.8254 21.6604 55.8254 21.1403 55.8254C20.7935 55.8254 20.6201 55.8254 20.2734 55.9988C19.9266 55.9988 19.7532 55.9988 19.4065 56.1722C18.3662 56.3456 17.3259 56.519 16.2857 56.8657C15.9389 56.8657 15.7655 57.0391 15.4188 57.2125C14.7252 57.3858 14.2051 57.7326 13.5116 57.906C13.3382 57.906 13.1648 58.0794 12.8181 58.0794C11.0843 58.7729 9.52384 59.6398 7.96342 60.6801C7.61666 60.8534 7.44328 61.0268 7.09652 61.2002L6.92314 61.3736C6.57638 61.547 6.403 61.7203 6.05624 62.0671C5.88286 62.2405 5.5361 62.4139 5.36272 62.7606C5.36272 62.7606 5.36272 62.7606 5.18934 62.934C6.05624 58.2528 6.74976 51.8377 6.74976 51.3176ZM38.9984 90.1546C35.3574 91.5417 30.3294 90.328 25.4748 86.5137C24.4345 85.6468 23.0475 85.1266 21.6604 85.1266C19.9266 85.1266 18.1928 85.8201 16.9792 87.2072C16.2857 88.0741 15.7655 88.4208 15.7655 88.5942C14.2051 89.6345 12.4713 89.8079 10.5641 88.941C2.41526 85.4734 0.33471 76.2843 2.41527 69.0023C2.58865 68.1354 3.10879 67.2685 3.97569 66.0548L4.14907 65.8815L4.32244 65.7081C8.1368 61.0268 15.9389 57.5592 20.9669 57.2125C24.9546 56.8657 29.1158 57.906 32.9301 60.3333C37.2646 62.934 40.3855 66.0548 42.1192 69.3491C44.0264 73.1634 44.8933 76.4576 44.8933 80.272C44.3732 85.4734 42.2926 88.7676 38.9984 90.1546Z" fill="black"/>
</svg>
