<svg width="46" height="98" viewBox="0 0 46 98" fill="none" xmlns="http://www.w3.org/2000/svg">
<path d="M45.8865 82.2298C45.7132 79.8025 45.5398 77.8953 45.0196 76.1615C44.8463 75.468 44.6729 74.7745 44.4995 74.2543C42.4189 64.8918 41.2053 55.3559 40.6851 45.82C40.6851 45.1265 40.6851 44.433 40.5117 43.7395C40.3384 40.4452 40.165 36.9776 39.6449 33.5101C38.778 29.0022 37.0442 24.1475 34.2701 19.2929C32.0162 15.1318 29.2421 11.3174 26.1212 7.67646C25.4277 6.98294 24.7342 6.11604 23.6939 5.76928C22.827 5.42252 21.6134 5.24914 20.5731 5.94266C18.1458 1.60817 16.0652 -0.299015 14.158 0.0477446C12.2508 0.394504 11.0372 2.64845 10.1703 7.3297C9.9969 7.3297 9.99691 7.3297 9.82353 7.50308C9.65015 7.50308 9.65017 7.50308 9.65017 7.67646C9.30341 7.84984 9.13003 8.02322 8.78327 8.36998C8.26313 8.89012 7.91636 9.41026 7.39622 10.1038C6.7027 11.3174 5.83581 12.5311 5.31567 14.0915C1.6747 22.7605 2.02144 32.6432 2.88834 40.9654C3.06172 42.8726 3.23511 44.7797 3.58187 46.6869C4.44877 53.4487 5.31565 60.5573 4.62214 67.3191C3.58186 68.3594 2.88833 69.5731 2.36819 70.9601C1.67467 72.6939 0.98117 74.6011 0.461031 76.5083C-0.752628 81.3629 0.634406 86.3909 4.27538 89.6851C9.3034 94.193 13.9847 95.0599 18.3192 92.2858C19.8796 91.2455 21.7867 91.5923 23.0004 92.8059C25.4277 95.7534 29.0687 97.1404 32.7097 97.1404C34.4435 97.1404 36.1773 96.7937 37.9111 96.1002C43.2858 93.6728 46.4067 88.4715 45.8865 82.2298ZM14.5048 1.43479C15.0249 1.26141 16.5854 1.78154 19.5328 6.98294C19.3594 7.3297 19.3594 7.67647 19.1861 8.02323C18.6659 10.7973 19.7062 13.398 20.5731 15.9987L20.9199 16.6922C24.2141 26.2281 25.081 36.4575 23.5205 46.5135C21.6134 43.7395 20.2263 40.4452 19.1861 36.8043C18.1458 33.1633 17.4522 29.0022 17.1055 24.1475C16.9321 22.7605 16.9321 21.5469 16.9321 20.1598C16.9321 19.2929 16.9321 18.2526 16.7587 17.3857C16.5853 15.6519 16.5854 13.9181 16.5854 12.1843V12.011C16.5854 10.9707 16.7587 9.58364 16.0652 8.54336C15.7185 7.84984 15.0249 7.3297 14.158 6.98294C13.4645 6.80956 12.9444 6.63618 12.2509 6.63618H12.0775C12.9444 2.12831 13.9846 1.60817 14.5048 1.43479ZM4.62214 40.4452C3.75524 32.2964 3.40848 22.7605 6.87608 14.4383C7.39622 13.0512 8.08975 11.8376 8.78327 10.7973C9.13003 10.1038 9.65016 9.58364 9.99692 9.23688C10.1703 9.0635 10.1703 9.0635 10.3437 9.0635H10.5171C10.8638 8.89012 11.0372 8.89012 11.384 8.71674C11.9041 8.54336 12.771 8.54337 13.4645 8.89013C13.9847 9.06351 14.3314 9.41027 14.5048 9.75703C14.8515 10.4505 14.8516 11.3174 14.8516 12.3577V12.5311C14.8516 14.2649 14.8515 16.1721 15.0249 17.9059C15.0249 18.7728 15.1983 19.813 15.1983 20.6799C15.1983 22.067 15.3717 23.454 15.3717 24.8411C15.7184 29.8691 16.412 34.0302 17.4523 37.8445C18.8393 42.3524 20.5731 46.3402 23.1738 49.6344L24.2141 51.0214L24.5608 49.2876C26.6414 38.5381 25.7745 27.2684 22.1335 16.8656L21.7868 16.1721C20.9199 13.9181 20.0529 11.4908 20.5731 9.0635C20.7465 8.54336 20.9198 8.02322 21.0932 7.84984C21.6134 7.50308 22.3069 7.50308 22.827 7.67646C23.5205 8.02322 24.0407 8.54336 24.7342 9.23688C27.855 12.7045 30.4557 16.5188 32.7097 20.5066C35.3104 25.1878 37.0442 29.6957 37.9111 34.2036C38.4312 37.4978 38.6046 40.9654 38.778 44.2596C38.778 44.9531 38.778 45.6466 38.9513 46.3402C39.2981 54.3156 40.3384 62.2911 41.7254 70.2666C41.3787 69.7464 41.0319 69.3997 40.6851 69.0529C38.9513 67.1457 36.8708 65.7587 34.6168 65.0652C34.2701 64.8918 33.9233 64.8918 33.4032 64.7184C32.3629 64.3717 31.3226 64.1983 30.109 64.1983C29.4154 64.1983 28.5486 64.1983 27.855 64.1983C26.9881 64.1983 26.2946 64.1983 25.4277 64.0249C24.3874 63.8515 23.5205 63.8515 22.4803 63.6781C17.4522 62.6379 13.1177 62.9846 9.30339 64.7184C8.95663 64.8918 8.60988 65.0652 8.26312 65.2386C8.08974 65.4119 7.91636 65.4119 7.74298 65.5853C7.22284 65.7587 6.87608 66.1055 6.52932 66.4522C6.87608 60.0372 6.18257 53.4487 5.31567 47.0337C4.96891 44.2596 4.79552 42.3524 4.62214 40.4452ZM37.3909 94.3664C32.7097 96.2735 27.5083 95.0599 24.3874 91.4189C23.3472 90.2053 21.9601 89.6851 20.5731 89.6851C19.5328 89.6851 18.4925 90.0319 17.6256 90.552C13.9846 92.9793 9.99691 92.2858 5.48903 88.1247C2.3682 85.1772 0.98117 80.8428 2.19483 76.5083C2.71497 74.7745 3.23511 72.8673 3.92863 71.3069C4.62215 69.7464 5.66242 68.3594 6.87608 67.3191C7.5696 66.799 8.43649 66.1055 9.30339 65.7587C9.65014 65.5853 9.99691 65.4119 10.3437 65.2386C12.5976 64.1983 14.8515 63.6781 17.2789 63.8515C18.8393 63.8515 20.5731 64.1983 22.3069 64.3717H22.4803C22.827 64.3717 23.1738 64.545 23.5205 64.545C24.7342 64.8918 25.9479 65.0652 27.1615 64.8918C27.5083 64.8918 27.855 64.8918 28.2018 64.8918C28.3752 64.8918 28.3752 64.8918 28.5486 64.8918C30.2824 65.0652 31.8428 65.0652 33.4032 65.4119C35.8305 66.1055 37.9111 67.3191 39.8182 69.0529C41.3787 70.6133 42.5923 72.5205 43.4592 74.7745C43.6326 75.2946 43.806 75.8147 43.9793 76.3349C44.3261 78.0687 44.6729 79.9758 44.8462 82.2298C44.6729 87.9513 42.0722 92.4592 37.3909 94.3664Z" fill="black"/>
</svg>
