<svg width="48" height="90" viewBox="0 0 48 90" fill="none" xmlns="http://www.w3.org/2000/svg">
<path d="M44.0264 23.9072C43.5063 33.0963 42.9861 42.8056 41.079 52.3415C39.8653 58.9299 37.9581 64.4781 35.5308 68.9859C33.9704 71.76 32.2366 74.1873 30.3294 76.4412L30.156 76.788C26.1683 81.2959 23.9144 82.6829 22.3539 82.1628C21.8338 81.9894 21.487 81.4693 21.3137 81.1225C20.9669 80.429 20.7935 79.9088 20.6201 79.2153C18.713 82.6829 16.2857 85.457 13.5116 87.7109C10.9109 89.7915 9.0037 90.485 7.79004 89.6181C6.74976 88.9246 6.403 87.3642 6.74976 84.5901C5.18935 85.457 3.8023 85.8038 2.76202 85.2836C1.89512 84.9369 1.2016 84.07 1.02822 82.6829C0.508085 79.9088 1.54837 77.3081 2.41527 74.7074C2.93541 73.3204 3.28216 72.1068 3.45554 70.8931C4.49582 65.5183 5.18934 60.4903 5.36272 55.8091C5.5361 50.9544 5.53611 46.0998 5.01597 41.2452C4.84259 39.8581 3.62892 29.6287 2.9354 27.8949C2.0685 26.6813 1.37498 25.4676 1.02822 24.2539C0.854845 23.7338 0.68147 23.2137 0.68147 22.6935C0.68147 22.5201 0.508093 22.1734 0.508093 22C-0.705566 14.718 1.89513 6.22244 10.044 2.75484C12.6447 1.71457 14.8986 1.88795 16.9792 3.27499C17.4993 3.62175 18.1928 4.48864 18.5396 4.8354C20.1 6.5692 22.7007 6.74258 24.6079 5.35554C28.4222 2.40809 32.2366 0.847656 35.8776 0.847656C37.2646 0.847656 38.6516 1.02105 39.8653 1.54119C42.6394 2.58147 46.107 5.35554 47.1473 12.2907V12.4641C46.9739 16.6252 46.107 20.0928 44.0264 23.9072ZM8.65694 88.2311C8.65694 88.2311 9.52384 88.5778 12.2979 86.3239C16.8058 82.5096 20.2734 76.9614 22.8741 69.506C23.3942 67.2521 23.9144 65.1716 24.0877 63.091C24.6079 59.45 24.4345 55.8091 23.9144 52.1681V52.3415C23.741 54.422 23.3942 56.3292 22.8741 58.2364C22.0072 61.8774 20.9669 65.3449 19.4065 68.6391C17.1525 73.3204 14.8986 77.1348 11.9512 80.2556C11.6044 80.6024 11.0843 81.1225 10.3907 81.816L8.65694 83.2031C7.79004 87.5376 8.65694 88.0577 8.65694 88.2311ZM6.74976 41.0718C7.09652 44.1926 7.2699 47.4868 7.2699 50.781C7.2699 52.5148 7.2699 54.2486 7.09652 55.9824C6.92314 60.6637 6.22962 65.6917 5.18934 71.2398C5.01596 72.6269 4.49583 73.8406 3.97569 75.2276C3.10879 77.6549 2.41526 80.0822 2.76202 82.5095C2.76202 83.0297 3.10878 83.7232 3.45554 83.8966C3.97568 84.07 5.01596 83.7232 6.403 83.0297L7.09652 82.5095L9.52384 80.6024C10.2174 80.0823 10.7375 79.3887 10.9109 79.2153C13.685 76.2679 15.9389 72.6269 18.0195 68.119C19.4065 64.9982 20.6202 61.704 21.3137 58.063C21.6604 56.1558 22.0072 54.2486 22.1806 52.3415C22.1806 51.9947 22.3539 51.4746 22.3539 50.9544C22.5273 49.7408 22.8741 48.007 22.5273 47.1401L24.0877 46.6199C25.8215 51.9947 26.3417 57.7162 25.6482 63.4378C25.3014 65.6917 24.9546 67.9457 24.2611 70.1996C24.0877 71.0665 23.741 71.9334 23.5676 72.8003C23.3942 73.3204 23.2208 74.014 22.8741 74.5341C22.0072 76.6147 21.3137 78.5218 22.3539 80.429C22.5273 80.7758 22.5273 80.7757 22.5273 80.7757C22.7007 80.7757 23.9144 80.7758 28.2489 75.9211L28.5956 75.5743C30.5028 73.4938 32.2366 71.0665 33.6236 68.4658C36.051 63.9579 37.7847 58.7565 38.9984 52.1681C40.5588 43.8459 41.2524 35.1769 41.7725 27.028C41.5991 27.3748 41.2523 27.7215 41.079 27.8949C41.079 27.8949 41.079 27.8949 41.079 28.0683C41.079 28.0683 41.079 28.2417 40.9056 28.2417C40.5588 28.5884 40.2121 28.9352 39.8653 29.282C38.6516 30.4956 37.2646 31.5359 35.7042 32.5762C35.5308 32.7495 35.3574 32.9229 35.1841 32.9229C35.0107 32.9229 34.8373 33.0963 34.8373 33.0963C34.4905 33.2697 34.3171 33.4431 33.9704 33.6165C33.1035 34.1366 32.0632 34.6567 31.1963 35.0035C28.2489 36.2171 25.3014 36.9107 22.5273 36.9107C22.0072 36.9107 21.487 36.9107 20.9669 36.9107C20.6201 36.9107 20.4468 36.9107 20.1 36.7373C19.7532 36.7373 19.5799 36.7373 19.2331 36.5639C18.1928 36.3905 17.1526 36.2171 16.1123 35.8704C15.7655 35.8704 15.5921 35.697 15.2454 35.5236C14.5519 35.3502 14.0317 35.0035 13.3382 34.8301C13.1648 34.8301 12.9914 34.6567 12.6447 34.6567C10.9109 33.9632 9.35046 33.0963 7.79004 32.056C7.44328 31.8826 7.2699 31.7093 6.92314 31.5359L6.74976 31.3625C6.403 31.1891 6.22962 31.0157 5.88286 30.8424C5.70948 30.669 5.36272 30.4956 5.18934 30.3222C5.18934 30.3222 5.18935 30.3222 5.01597 30.1489C6.05624 34.1366 6.74976 40.3782 6.74976 41.0718ZM38.9984 3.27499C35.3574 1.88795 30.3294 3.10161 25.4748 6.74259C24.4345 7.60948 23.0475 7.95624 21.6604 7.95624C19.9266 7.95624 18.1928 7.26273 16.9792 5.87569C16.2857 5.00879 15.7655 4.66202 15.7655 4.48864C14.2051 3.44836 12.4713 3.27499 10.5641 4.14189C2.41526 7.60948 0.33471 16.4519 2.41527 23.5604C2.58865 24.4273 3.10879 25.2942 3.97569 26.5079L4.14907 26.6813L4.32244 26.8546C8.1368 31.3625 15.9389 34.6567 20.9669 35.1769C24.9546 35.5236 29.1158 34.4833 32.9301 32.056C37.2646 29.4553 40.3855 26.5079 42.1192 23.2137C44.0264 19.5727 44.8933 16.2785 44.8933 12.4641C44.3732 7.78284 42.2926 4.48865 38.9984 3.27499Z" fill="black"/>
</svg>
