<svg width="41" height="111" viewBox="0 0 41 111" fill="none" xmlns="http://www.w3.org/2000/svg">
<path d="M40.0549 16.6634V17.7037C39.7082 22.3849 39.5348 27.4129 38.4945 32.0942C37.9744 34.5215 37.2808 36.602 36.4139 38.3358V38.5092C33.2931 63.4759 32.4262 84.1081 33.9866 101.446C34.16 103.873 33.6399 106.127 32.4262 108.208C31.386 109.942 30.1723 110.809 28.7852 110.982C26.8781 111.155 24.9709 109.768 22.717 106.994C22.5436 106.647 22.1968 106.301 21.8501 105.954C11.794 93.9908 9.1933 67.1169 6.5926 41.1099L6.07248 35.9085C4.85882 32.4409 4.1653 28.8 3.47178 25.159C3.2984 24.4655 3.29838 23.9453 3.125 23.2518C2.43148 19.9576 1.91136 16.49 1.5646 13.5425C1.5646 12.849 1.39125 12.1555 1.21787 11.6354C0.871109 9.20804 0.350959 6.43396 1.04448 4.18002C1.738 1.92609 3.99192 0.539062 6.93938 0.539062H7.11277L26.8781 0.885817C29.9989 0.885817 33.6399 1.05919 36.2406 3.31312C38.4945 5.2203 39.188 7.99438 39.5348 9.90156C40.0549 11.9821 40.2283 14.236 40.0549 16.6634ZM8.3264 40.9365C10.9271 66.7701 13.5278 93.2972 23.2371 104.914C23.5838 105.26 23.7572 105.607 24.104 105.954C25.8378 108.208 27.3982 109.422 28.6119 109.422C28.6119 109.422 28.6119 109.422 28.7852 109.422C29.6521 109.422 30.3456 108.728 31.0392 107.514C32.0794 105.781 32.4262 103.7 32.2528 101.619C30.6924 84.975 31.386 65.3831 34.16 41.9768C33.9867 42.1502 33.9866 42.3236 33.8133 42.497L31.5593 44.9243L31.3859 45.0977L30.6924 45.7912C26.5313 49.2588 22.0234 50.299 18.0357 48.7386C17.8623 48.5652 17.5156 48.5653 17.3422 48.3919C17.1688 48.2185 16.822 48.2185 16.6487 48.0451C16.4753 47.8717 16.1285 47.8717 15.9552 47.6984L15.7818 47.525C14.3947 46.6581 13.1811 45.7912 12.1408 44.5775C11.9674 44.4041 11.794 44.2308 11.6207 44.0574C11.4473 43.884 11.2739 43.5373 10.9271 43.3639C10.7537 43.1905 10.5804 42.8437 10.407 42.6703C10.2336 42.497 10.0602 42.1502 9.88686 41.9768C9.71348 41.8034 9.54008 41.6301 9.54008 41.4567C9.3667 41.2833 9.1933 41.1099 9.1933 40.9365C9.01992 40.7632 8.84656 40.4164 8.67318 40.243L8.3264 40.9365ZM38.1477 10.2483C37.6276 7.47424 36.7607 5.74044 35.3737 4.52678C33.2931 2.6196 30.1723 2.61961 27.0515 2.61961L7.28616 2.27286C6.0725 2.27286 3.4718 2.44623 2.77828 4.70017C2.25814 6.78073 2.60491 9.20804 2.95167 11.6354C3.12505 12.3289 3.12501 13.0224 3.29839 13.7159C3.64515 16.49 4.16528 19.9576 4.8588 23.2518C5.03218 23.9453 5.0322 24.4655 5.20558 25.159C5.8991 28.2798 6.41922 31.574 7.4595 34.6949L7.80628 35.7351V35.9085C7.80628 36.0819 7.80629 36.0819 7.97967 36.2553C9.54009 40.4164 13.7012 45.6178 18.5559 47.525C19.5961 47.8717 20.6364 48.0451 21.6767 48.0451C21.85 48.0451 22.0234 48.0451 22.3702 48.0451C22.7169 48.0451 23.2371 48.0451 23.5839 47.8717C24.4508 47.6984 25.1443 47.525 25.8378 47.1782C26.0112 47.1782 26.1846 47.0048 26.3579 47.0048L28.6119 45.6178C28.7852 45.4444 28.7853 45.4444 28.9586 45.271L29.6521 44.7509C29.9989 44.4042 30.3457 44.2308 30.519 43.884C30.6924 43.7106 30.8658 43.5373 31.0392 43.3639L31.2126 43.1905C31.3859 43.0171 31.5593 42.8437 31.7327 42.6703C31.7327 42.497 31.9061 42.497 31.9061 42.3236C32.0794 42.1502 32.2528 41.9768 32.2528 41.8034L32.4262 41.6301C32.5996 41.4567 32.773 41.2833 32.773 41.1099C32.773 40.9365 32.9464 40.9365 32.9464 40.9365C33.1197 40.7632 33.2931 40.4164 33.4665 40.0696C33.6399 39.7229 33.8133 39.5495 33.9866 39.2027C34.16 38.856 34.3334 38.6826 34.5068 38.3358C35.3737 36.4287 36.2406 34.3481 36.7607 31.9208C37.801 27.2395 38.1478 22.3849 38.3211 17.7037V16.6634C38.6679 14.236 38.4945 12.1555 38.1477 10.2483Z" fill="black"/>
</svg>
