<svg width="12" height="11" viewBox="0 0 12 11" fill="none" xmlns="http://www.w3.org/2000/svg">
<path d="M0.491211 2.28103C0.549065 2.11022 0.584879 1.92564 0.673037 1.76861C0.934757 1.30854 1.34249 1.07161 1.87419 1.06885C2.67037 1.06335 3.46655 1.0661 4.26273 1.06885C4.44731 1.06885 4.57128 1.18181 4.57404 1.33884C4.57679 1.49863 4.44455 1.61433 4.25722 1.61433C3.47481 1.61433 2.69241 1.61433 1.91276 1.61433C1.48575 1.61433 1.17719 1.84575 1.06975 2.24246C1.04771 2.32511 1.0422 2.41327 1.0422 2.49867C1.03944 4.84037 1.03944 7.18207 1.0422 9.52378C1.0422 9.96181 1.2626 10.2704 1.6538 10.3778C1.74196 10.4026 1.83838 10.4109 1.92929 10.4109C4.45282 10.4136 6.9791 10.4136 9.50263 10.4109C10.0398 10.4109 10.387 10.0582 10.3897 9.51827C10.3897 8.74137 10.3897 7.96172 10.3897 7.18483C10.3897 7.0278 10.4724 6.91209 10.5991 6.88454C10.7671 6.84597 10.9269 6.96719 10.9324 7.14351C10.938 7.36115 10.9352 7.58154 10.9352 7.79918C10.9352 8.41904 10.9435 9.03891 10.9297 9.65877C10.9159 10.3447 10.3319 10.9205 9.64589 10.9508C9.5963 10.9536 9.54671 10.9536 9.49436 10.9536C6.97359 10.9536 4.45282 10.9536 1.93205 10.9536C1.38106 10.9536 0.951286 10.7332 0.675792 10.2538C0.587634 10.0996 0.55182 9.91498 0.493966 9.74142C0.491211 7.25921 0.491211 4.76874 0.491211 2.28103Z" fill="black"/>
<path d="M9.95908 0C10.2649 0.00550989 10.5431 0.104688 10.7745 0.316818C10.9013 0.432526 11.0225 0.556498 11.141 0.680471C11.6203 1.17636 11.6313 1.8954 11.1657 2.40782C11.1354 2.44088 11.1051 2.47118 11.0748 2.50149C9.49625 4.08007 7.91216 5.66141 6.33082 7.2455C6.24266 7.33366 6.14349 7.39151 6.02227 7.42457C5.30874 7.62017 4.59521 7.81853 3.87892 8.01688C3.7825 8.04443 3.69159 8.06372 3.59792 8.00862C3.48221 7.9425 3.43538 7.82128 3.4767 7.67527C3.64475 7.06092 3.83209 6.44932 3.9781 5.83221C4.06626 5.4603 4.24808 5.17654 4.51807 4.90931C6.03053 3.41888 7.52647 1.91469 9.02516 0.410486C9.28412 0.151522 9.58441 0.00550989 9.95908 0ZM8.79374 1.46287C7.46861 2.788 6.13798 4.11864 4.8156 5.44101C5.22884 5.85425 5.65586 6.28127 6.06359 6.689C7.38872 5.36387 8.71936 4.03324 10.0417 2.71086C9.62849 2.29762 9.20423 1.87061 8.79374 1.46287ZM9.17668 1.01382C9.62022 1.45736 10.0472 1.88438 10.4825 2.31966C10.5955 2.2012 10.7222 2.08274 10.8269 1.9505C11.0032 1.72735 11.006 1.36921 10.8214 1.15157C10.6809 0.986269 10.5266 0.826483 10.3585 0.688736C10.1464 0.515174 9.89021 0.487625 9.65604 0.622617C9.47697 0.727305 9.33096 0.887092 9.17668 1.01382ZM4.51807 5.96721C4.38859 6.43279 4.26186 6.89838 4.12687 7.38049C4.60898 7.2455 5.07457 7.11877 5.5374 6.98929C5.19578 6.64492 4.86244 6.31157 4.51807 5.96721Z" fill="black"/>
</svg>
