<svg width="37" height="36" viewBox="0 0 37 36" fill="none" xmlns="http://www.w3.org/2000/svg">
<path d="M36.2429 18C36.2429 27.7136 28.2259 35.6 18.3214 35.6C8.41699 35.6 0.4 27.7136 0.4 18C0.4 8.28643 8.41699 0.4 18.3214 0.4C28.2259 0.4 36.2429 8.28643 36.2429 18Z" stroke="#456573" stroke-width="0.8"/>
<path d="M12.5634 14.0887C12.635 13.8809 12.6793 13.6564 12.7885 13.4654C13.1125 12.9058 13.6173 12.6176 14.2756 12.6142C15.2614 12.6075 16.2471 12.6109 17.2329 12.6142C17.4614 12.6142 17.6149 12.7516 17.6183 12.9426C17.6217 13.137 17.458 13.2777 17.226 13.2777C16.2573 13.2777 15.2887 13.2777 14.3234 13.2777C13.7947 13.2777 13.4127 13.5592 13.2796 14.0418C13.2524 14.1423 13.2455 14.2495 13.2455 14.3534C13.2421 17.2018 13.2421 20.0502 13.2455 22.8986C13.2455 23.4314 13.5184 23.8067 14.0027 23.9374C14.1119 23.9676 14.2313 23.9776 14.3438 23.9776C17.4682 23.981 20.596 23.981 23.7204 23.9776C24.3855 23.9776 24.8153 23.5487 24.8187 22.8919C24.8187 21.9469 24.8187 20.9985 24.8187 20.0536C24.8187 19.8625 24.921 19.7218 25.0779 19.6883C25.286 19.6414 25.4838 19.7888 25.4906 20.0033C25.4974 20.268 25.494 20.5361 25.494 20.8008C25.494 21.5548 25.5043 22.3088 25.4872 23.0628C25.4702 23.8972 24.7471 24.5976 23.8977 24.6344C23.8363 24.6378 23.7749 24.6378 23.7101 24.6378C20.5892 24.6378 17.4682 24.6378 14.3472 24.6378C13.6651 24.6378 13.133 24.3697 12.7919 23.7866C12.6827 23.599 12.6384 23.3744 12.5668 23.1633C12.5634 20.144 12.5634 17.1147 12.5634 14.0887Z" fill="#456573"/>
<path d="M24.2857 11.3145C24.6643 11.3212 25.0088 11.4418 25.2953 11.6998C25.4522 11.8406 25.6023 11.9914 25.749 12.1422C26.3425 12.7454 26.3561 13.62 25.7797 14.2433C25.7422 14.2835 25.7046 14.3203 25.6671 14.3572C23.7127 16.2774 21.7514 18.2009 19.7936 20.1277C19.6844 20.2349 19.5616 20.3053 19.4115 20.3455C18.5281 20.5835 17.6447 20.8247 16.7579 21.066C16.6385 21.0995 16.5259 21.123 16.41 21.056C16.2667 20.9755 16.2087 20.8281 16.2599 20.6505C16.4679 19.9032 16.6999 19.1593 16.8807 18.4086C16.9898 17.9562 17.2149 17.6111 17.5492 17.286C19.4218 15.4731 21.2739 13.6434 23.1294 11.8138C23.45 11.4988 23.8218 11.3212 24.2857 11.3145ZM22.8429 13.0939C21.2023 14.7057 19.5548 16.3243 17.9176 17.9328C18.4292 18.4354 18.9579 18.9548 19.4627 19.4508C21.1033 17.8389 22.7508 16.2204 24.388 14.6119C23.8764 14.1092 23.3511 13.5898 22.8429 13.0939ZM23.317 12.5476C23.8662 13.0872 24.3949 13.6066 24.9338 14.136C25.0736 13.9919 25.2305 13.8478 25.3601 13.687C25.5784 13.4156 25.5818 12.9799 25.3533 12.7152C25.1794 12.5141 24.9883 12.3198 24.7803 12.1522C24.5176 11.9411 24.2004 11.9076 23.9105 12.0718C23.6888 12.1991 23.508 12.3935 23.317 12.5476ZM17.5492 18.5728C17.3889 19.1392 17.232 19.7055 17.0649 20.2919C17.6618 20.1277 18.2382 19.9736 18.8112 19.8161C18.3883 19.3972 17.9756 18.9917 17.5492 18.5728Z" fill="#456573"/>
</svg>
