<svg width="22" height="17" viewBox="0 0 22 17" fill="none" xmlns="http://www.w3.org/2000/svg">
<path d="M22 1.63434C22 6.04704 22 10.4566 22 14.8693C21.9396 15.0662 21.9015 15.2759 21.8094 15.457C21.4536 16.1655 20.8595 16.499 20.0748 16.5022C18.6929 16.5054 17.3109 16.5022 15.929 16.5022C11.2748 16.5022 6.62065 16.5022 1.9665 16.5022C1.46137 16.5022 1.00708 16.3751 0.622672 16.0352C0.266859 15.7239 0.09213 15.3172 0 14.8693C0 10.4566 0 6.04704 0 1.63434C0.060361 1.43737 0.0984837 1.22769 0.190614 1.04661C0.546426 0.338164 1.14051 0.00458885 1.9252 0.00141195C3.30079 -0.00176494 4.67639 0.00141195 6.04881 0.00141195C10.7093 0.00141195 15.373 0.00141195 20.0335 0.00141195C20.5386 0.00141195 20.9929 0.128488 21.3773 0.468416C21.7363 0.779752 21.9079 1.18322 22 1.63434ZM20.3353 0.976719C20.0335 0.875059 1.85531 0.897297 1.68375 0.992604C1.73776 1.04343 1.78859 1.09109 1.83942 1.14192C4.05054 3.15925 6.26166 5.17658 8.47278 7.1939C9.07957 7.74986 9.68635 8.30582 10.2995 8.85542C10.7729 9.27795 11.2208 9.27477 11.6973 8.85542C11.7227 8.83318 11.7513 8.80777 11.7768 8.78235C13.6448 7.07954 15.5128 5.3799 17.3808 3.67708C18.3625 2.7812 19.3378 1.88849 20.3353 0.976719ZM20.329 15.5682C20.3385 15.5428 20.348 15.5205 20.3575 15.4951C17.9431 13.2713 15.5287 11.0443 13.111 8.81412C12.8315 9.06827 12.5932 9.28112 12.3549 9.49715C11.4877 10.2787 10.5123 10.2787 9.64505 9.49397C9.40679 9.27795 9.16852 9.06192 8.88895 8.81412C6.46498 11.0475 4.04736 13.2745 1.63292 15.5015C1.64563 15.5237 1.66152 15.546 1.67422 15.5682C7.89141 15.5682 14.1118 15.5682 20.329 15.5682ZM0.943538 14.8915C3.38022 12.6423 5.7883 10.4216 8.2091 8.19145C5.81054 6.00257 3.39928 3.80098 0.943538 1.55809C0.943538 6.03751 0.943538 10.4502 0.943538 14.8915ZM13.7909 8.19145C16.2212 10.4312 18.623 12.6486 21.0533 14.8915C21.0533 10.4439 21.0533 6.03434 21.0533 1.56127C18.5975 3.80416 16.1895 6.00257 13.7909 8.19145Z" fill="#456573"/>
</svg>
