<svg width="20" height="19" viewBox="0 0 20 19" fill="none" xmlns="http://www.w3.org/2000/svg">
<path d="M10.0082 18.9925C7.46823 18.9925 4.92822 18.9965 2.3845 18.9925C1.24039 18.9925 0.322131 18.2202 0.0666483 17.0459C0.0222165 16.8389 0.00370287 16.616 0.00370287 16.4011C2.25936e-07 11.8034 0 7.20566 0 2.60399C0 1.08734 1.00712 0.0045965 2.41412 0.0045965C3.79521 0.000615815 5.1763 -0.00336487 6.55738 0.0045965C7.52377 0.00857719 8.24208 0.478299 8.69751 1.40182C8.99372 2.0029 9.28993 2.60001 9.56763 3.20905C9.86755 3.86586 10.3489 4.15646 11.0228 4.15247C13.1962 4.14451 15.3697 4.15247 17.5431 4.14849C18.5651 4.14451 19.3278 4.60229 19.7721 5.59746C19.9054 5.89602 19.9869 6.25428 19.9869 6.58865C20.0017 9.91253 20.0054 13.2324 19.9906 16.5563C19.9869 17.9217 18.9464 18.9885 17.6468 18.9965C16.2916 19.0044 14.9402 18.9965 13.585 18.9965C12.3965 18.9925 11.2042 18.9925 10.0082 18.9925ZM0.933067 5.14765C0.933067 5.24318 0.933067 5.30687 0.933067 5.37455C0.933067 9.04076 0.933067 12.707 0.933067 16.3692C0.933067 17.3644 1.52179 17.9973 2.44004 17.9973C7.47934 17.9973 12.5186 17.9973 17.5616 17.9973C18.4873 17.9973 19.076 17.3644 19.076 16.3772C19.076 13.1727 19.076 9.97224 19.076 6.76779C19.076 5.77659 18.4836 5.15163 17.5616 5.14765C15.0957 5.14765 12.6334 5.14367 10.1675 5.14367C7.18313 5.14367 4.1988 5.14367 1.21076 5.14367C1.13301 5.14765 1.04785 5.14765 0.933067 5.14765ZM0.96639 4.14451C3.636 4.14451 6.3019 4.14451 8.97891 4.14451C8.57532 3.31653 8.19395 2.50049 7.77925 1.70435C7.5571 1.27842 7.17572 1.03161 6.71289 1.02763C5.22073 1.01569 3.72856 1.01171 2.2401 1.02763C1.62546 1.0356 1.04044 1.55706 0.977499 2.2099C0.918256 2.83885 0.96639 3.48372 0.96639 4.14451Z" fill="#456573"/>
</svg>
