<svg width="215" height="191" viewBox="0 0 215 191" fill="none" xmlns="http://www.w3.org/2000/svg">
<rect x="0.4" y="0.4" width="214.2" height="190.2" rx="4.6" stroke="#456573" stroke-width="0.8"/>
<line y1="118.6" x2="215" y2="118.6" stroke="#456573" stroke-width="0.8"/>
<rect x="75" y="29" width="64" height="63" rx="10" fill="#D93025"/>
<path d="M96 63L107 81H85L96 63Z" fill="white"/>
<path d="M113.5 54L129 81H98L113.5 54Z" fill="white"/>
<rect x="18" y="127.688" width="24" height="23.625" rx="5" fill="#D93025"/>
<path d="M25.875 140.438L30 147.188H21.75L25.875 140.438Z" fill="white"/>
<path d="M32.4375 137.062L38.25 147.188H26.625L32.4375 137.062Z" fill="white"/>
<path d="M64.0795 138H63.0227C62.9602 137.696 62.8509 137.429 62.6946 137.199C62.5412 136.969 62.3537 136.776 62.1321 136.619C61.9134 136.46 61.6705 136.341 61.4034 136.261C61.1364 136.182 60.858 136.142 60.5682 136.142C60.0398 136.142 59.5611 136.276 59.1321 136.543C58.706 136.81 58.3665 137.203 58.1136 137.723C57.8636 138.243 57.7386 138.881 57.7386 139.636C57.7386 140.392 57.8636 141.03 58.1136 141.55C58.3665 142.07 58.706 142.463 59.1321 142.73C59.5611 142.997 60.0398 143.131 60.5682 143.131C60.858 143.131 61.1364 143.091 61.4034 143.011C61.6705 142.932 61.9134 142.814 62.1321 142.658C62.3537 142.499 62.5412 142.304 62.6946 142.074C62.8509 141.841 62.9602 141.574 63.0227 141.273H64.0795C64 141.719 63.8551 142.118 63.6449 142.47C63.4347 142.822 63.1733 143.122 62.8608 143.369C62.5483 143.614 62.1974 143.8 61.8082 143.928C61.4219 144.055 61.0085 144.119 60.5682 144.119C59.8239 144.119 59.1619 143.938 58.5824 143.574C58.0028 143.21 57.5469 142.693 57.2145 142.023C56.8821 141.352 56.7159 140.557 56.7159 139.636C56.7159 138.716 56.8821 137.92 57.2145 137.25C57.5469 136.58 58.0028 136.062 58.5824 135.699C59.1619 135.335 59.8239 135.153 60.5682 135.153C61.0085 135.153 61.4219 135.217 61.8082 135.345C62.1974 135.473 62.5483 135.661 62.8608 135.908C63.1733 136.152 63.4347 136.45 63.6449 136.803C63.8551 137.152 64 137.551 64.0795 138ZM67.5771 144.153C67.1623 144.153 66.7859 144.075 66.4478 143.919C66.1097 143.76 65.8413 143.531 65.6424 143.233C65.4435 142.932 65.3441 142.568 65.3441 142.142C65.3441 141.767 65.418 141.463 65.5657 141.23C65.7134 140.994 65.9109 140.81 66.158 140.676C66.4052 140.543 66.6779 140.443 66.9762 140.378C67.2773 140.31 67.5799 140.256 67.8839 140.216C68.2816 140.165 68.604 140.126 68.8512 140.101C69.1012 140.072 69.283 140.026 69.3967 139.96C69.5131 139.895 69.5714 139.781 69.5714 139.619V139.585C69.5714 139.165 69.4563 138.838 69.2262 138.605C68.9989 138.372 68.6538 138.256 68.1907 138.256C67.7106 138.256 67.3342 138.361 67.0614 138.571C66.7887 138.781 66.5969 139.006 66.4862 139.244L65.5316 138.903C65.7021 138.506 65.9293 138.196 66.2134 137.974C66.5004 137.75 66.8129 137.594 67.1509 137.506C67.4918 137.415 67.8271 137.369 68.1566 137.369C68.3668 137.369 68.6083 137.395 68.881 137.446C69.1566 137.494 69.4222 137.595 69.6779 137.749C69.9364 137.902 70.1509 138.134 70.3214 138.443C70.4918 138.753 70.5771 139.168 70.5771 139.688V144H69.5714V143.114H69.5202C69.4521 143.256 69.3384 143.408 69.1793 143.57C69.0202 143.732 68.8086 143.869 68.5444 143.983C68.2802 144.097 67.9577 144.153 67.5771 144.153ZM67.7305 143.25C68.1282 143.25 68.4634 143.172 68.7362 143.016C69.0117 142.859 69.2191 142.658 69.3583 142.411C69.5004 142.163 69.5714 141.903 69.5714 141.631V140.71C69.5288 140.761 69.435 140.808 69.2901 140.851C69.1481 140.891 68.9833 140.926 68.7958 140.957C68.6112 140.986 68.4308 141.011 68.2546 141.034C68.0813 141.054 67.9407 141.071 67.8327 141.085C67.5714 141.119 67.3271 141.175 67.0998 141.251C66.8754 141.325 66.6935 141.437 66.5543 141.588C66.418 141.736 66.3498 141.937 66.3498 142.193C66.3498 142.543 66.479 142.807 66.7376 142.986C66.9989 143.162 67.3299 143.25 67.7305 143.25ZM73.4183 135.273V144H72.4126V135.273H73.4183ZM78.0046 144.136C77.3739 144.136 76.8299 143.997 76.3725 143.719C75.918 143.438 75.5671 143.045 75.32 142.543C75.0756 142.037 74.9535 141.449 74.9535 140.778C74.9535 140.108 75.0756 139.517 75.32 139.006C75.5671 138.491 75.9109 138.091 76.3512 137.804C76.7944 137.514 77.3114 137.369 77.9023 137.369C78.2433 137.369 78.5799 137.426 78.9123 137.54C79.2447 137.653 79.5472 137.838 79.82 138.094C80.0927 138.347 80.31 138.682 80.4719 139.099C80.6339 139.517 80.7148 140.031 80.7148 140.642V141.068H75.6694V140.199H79.6921C79.6921 139.83 79.6183 139.5 79.4705 139.21C79.3256 138.92 79.1183 138.692 78.8484 138.524C78.5813 138.357 78.266 138.273 77.9023 138.273C77.5018 138.273 77.1552 138.372 76.8626 138.571C76.5728 138.767 76.3498 139.023 76.1935 139.338C76.0373 139.653 75.9592 139.991 75.9592 140.352V140.932C75.9592 141.426 76.0444 141.845 76.2148 142.189C76.3881 142.53 76.6282 142.79 76.935 142.969C77.2418 143.145 77.5984 143.233 78.0046 143.233C78.2688 143.233 78.5075 143.196 78.7205 143.122C78.9364 143.045 79.1225 142.932 79.2788 142.781C79.435 142.628 79.5558 142.437 79.641 142.21L80.6126 142.483C80.5103 142.812 80.3384 143.102 80.0969 143.352C79.8555 143.599 79.5572 143.793 79.2021 143.932C78.8469 144.068 78.4478 144.136 78.0046 144.136ZM83.2504 140.062V144H82.2447V137.455H83.2163V138.477H83.3015C83.4549 138.145 83.6879 137.878 84.0004 137.676C84.3129 137.472 84.7163 137.369 85.2106 137.369C85.6538 137.369 86.0415 137.46 86.3739 137.642C86.7063 137.821 86.9648 138.094 87.1495 138.46C87.3342 138.824 87.4265 139.284 87.4265 139.841V144H86.4208V139.909C86.4208 139.395 86.2873 138.994 86.0202 138.707C85.7532 138.418 85.3867 138.273 84.9208 138.273C84.5998 138.273 84.3129 138.342 84.06 138.482C83.81 138.621 83.6126 138.824 83.4677 139.091C83.3228 139.358 83.2504 139.682 83.2504 140.062ZM91.7358 144.136C91.1903 144.136 90.7088 143.999 90.2912 143.723C89.8736 143.445 89.5469 143.053 89.3111 142.547C89.0753 142.038 88.9574 141.438 88.9574 140.744C88.9574 140.057 89.0753 139.46 89.3111 138.955C89.5469 138.449 89.875 138.058 90.2955 137.783C90.7159 137.507 91.2017 137.369 91.7528 137.369C92.179 137.369 92.5156 137.44 92.7628 137.582C93.0128 137.722 93.2031 137.881 93.3338 138.06C93.4673 138.236 93.571 138.381 93.6449 138.494H93.7301V135.273H94.7358V144H93.7642V142.994H93.6449C93.571 143.114 93.4659 143.264 93.3295 143.446C93.1932 143.625 92.9986 143.786 92.7457 143.928C92.4929 144.067 92.1563 144.136 91.7358 144.136ZM91.8722 143.233C92.2756 143.233 92.6165 143.128 92.8949 142.918C93.1733 142.705 93.3849 142.411 93.5298 142.036C93.6747 141.658 93.7472 141.222 93.7472 140.727C93.7472 140.239 93.6761 139.811 93.5341 139.445C93.392 139.075 93.1818 138.788 92.9034 138.584C92.625 138.376 92.2813 138.273 91.8722 138.273C91.446 138.273 91.0909 138.382 90.8068 138.601C90.5256 138.817 90.3139 139.111 90.1719 139.483C90.0327 139.852 89.9631 140.267 89.9631 140.727C89.9631 141.193 90.0341 141.616 90.1761 141.997C90.321 142.375 90.5341 142.676 90.8153 142.901C91.0994 143.122 91.4517 143.233 91.8722 143.233ZM98.6435 144.153C98.2287 144.153 97.8523 144.075 97.5142 143.919C97.1761 143.76 96.9077 143.531 96.7088 143.233C96.5099 142.932 96.4105 142.568 96.4105 142.142C96.4105 141.767 96.4844 141.463 96.6321 141.23C96.7798 140.994 96.9773 140.81 97.2244 140.676C97.4716 140.543 97.7443 140.443 98.0426 140.378C98.3438 140.31 98.6463 140.256 98.9503 140.216C99.348 140.165 99.6705 140.126 99.9176 140.101C100.168 140.072 100.349 140.026 100.463 139.96C100.58 139.895 100.638 139.781 100.638 139.619V139.585C100.638 139.165 100.523 138.838 100.293 138.605C100.065 138.372 99.7202 138.256 99.2571 138.256C98.777 138.256 98.4006 138.361 98.1278 138.571C97.8551 138.781 97.6634 139.006 97.5526 139.244L96.598 138.903C96.7685 138.506 96.9957 138.196 97.2798 137.974C97.5668 137.75 97.8793 137.594 98.2173 137.506C98.5582 137.415 98.8935 137.369 99.223 137.369C99.4332 137.369 99.6747 137.395 99.9474 137.446C100.223 137.494 100.489 137.595 100.744 137.749C101.003 137.902 101.217 138.134 101.388 138.443C101.558 138.753 101.643 139.168 101.643 139.688V144H100.638V143.114H100.587C100.518 143.256 100.405 143.408 100.246 143.57C100.087 143.732 99.875 143.869 99.6108 143.983C99.3466 144.097 99.0241 144.153 98.6435 144.153ZM98.7969 143.25C99.1946 143.25 99.5298 143.172 99.8026 143.016C100.078 142.859 100.286 142.658 100.425 142.411C100.567 142.163 100.638 141.903 100.638 141.631V140.71C100.595 140.761 100.501 140.808 100.357 140.851C100.214 140.891 100.05 140.926 99.8622 140.957C99.6776 140.986 99.4972 141.011 99.321 141.034C99.1477 141.054 99.0071 141.071 98.8991 141.085C98.6378 141.119 98.3935 141.175 98.1662 141.251C97.9418 141.325 97.7599 141.437 97.6207 141.588C97.4844 141.736 97.4162 141.937 97.4162 142.193C97.4162 142.543 97.5455 142.807 97.804 142.986C98.0653 143.162 98.3963 143.25 98.7969 143.25ZM98.831 136.568L99.8707 134.591H101.047L99.7173 136.568H98.831ZM103.479 144V137.455H104.451V138.443H104.519C104.638 138.119 104.854 137.857 105.167 137.655C105.479 137.453 105.831 137.352 106.223 137.352C106.297 137.352 106.39 137.354 106.5 137.357C106.611 137.359 106.695 137.364 106.752 137.369V138.392C106.718 138.384 106.64 138.371 106.517 138.354C106.398 138.334 106.272 138.324 106.138 138.324C105.82 138.324 105.536 138.391 105.286 138.524C105.039 138.655 104.843 138.837 104.698 139.07C104.556 139.3 104.485 139.562 104.485 139.858V144H103.479ZM107.944 144V137.455H108.95V144H107.944ZM108.455 136.364C108.259 136.364 108.09 136.297 107.948 136.163C107.809 136.03 107.739 135.869 107.739 135.682C107.739 135.494 107.809 135.334 107.948 135.2C108.09 135.067 108.259 135 108.455 135C108.651 135 108.819 135.067 108.958 135.2C109.1 135.334 109.171 135.494 109.171 135.682C109.171 135.869 109.1 136.03 108.958 136.163C108.819 136.297 108.651 136.364 108.455 136.364ZM113.451 144.136C112.86 144.136 112.341 143.996 111.895 143.714C111.452 143.433 111.105 143.04 110.855 142.534C110.608 142.028 110.485 141.437 110.485 140.761C110.485 140.08 110.608 139.484 110.855 138.976C111.105 138.467 111.452 138.072 111.895 137.791C112.341 137.51 112.86 137.369 113.451 137.369C114.042 137.369 114.559 137.51 115.002 137.791C115.448 138.072 115.794 138.467 116.042 138.976C116.292 139.484 116.417 140.08 116.417 140.761C116.417 141.437 116.292 142.028 116.042 142.534C115.794 143.04 115.448 143.433 115.002 143.714C114.559 143.996 114.042 144.136 113.451 144.136ZM113.451 143.233C113.9 143.233 114.269 143.118 114.559 142.888C114.848 142.658 115.063 142.355 115.202 141.98C115.341 141.605 115.411 141.199 115.411 140.761C115.411 140.324 115.341 139.916 115.202 139.538C115.063 139.161 114.848 138.855 114.559 138.622C114.269 138.389 113.9 138.273 113.451 138.273C113.002 138.273 112.632 138.389 112.343 138.622C112.053 138.855 111.838 139.161 111.699 139.538C111.56 139.916 111.49 140.324 111.49 140.761C111.49 141.199 111.56 141.605 111.699 141.98C111.838 142.355 112.053 142.658 112.343 142.888C112.632 143.118 113.002 143.233 113.451 143.233Z" fill="#456573"/>
<path d="M20.7841 171H17.9588V162.273H20.8736C21.7287 162.273 22.4631 162.447 23.0767 162.797C23.6903 163.143 24.1605 163.642 24.4872 164.293C24.8168 164.94 24.9815 165.717 24.9815 166.624C24.9815 167.533 24.8153 168.314 24.483 168.967C24.1534 169.621 23.6761 170.124 23.0511 170.476C22.4261 170.825 21.6705 171 20.7841 171ZM19.2756 169.849H20.7116C21.3764 169.849 21.929 169.724 22.3693 169.474C22.8097 169.222 23.1392 168.857 23.358 168.379C23.5767 167.899 23.6861 167.314 23.6861 166.624C23.6861 165.939 23.5767 165.358 23.358 164.881C23.142 164.403 22.8196 164.041 22.3906 163.794C21.9616 163.547 21.429 163.423 20.7926 163.423H19.2756V169.849ZM26.5167 171V164.455H27.7482V165.494H27.8164C27.9357 165.142 28.146 164.865 28.4471 164.663C28.7511 164.459 29.0948 164.357 29.4783 164.357C29.5579 164.357 29.6516 164.359 29.7596 164.365C29.8704 164.371 29.957 164.378 30.0195 164.386V165.605C29.9684 165.591 29.8775 165.575 29.7468 165.558C29.6161 165.538 29.4854 165.528 29.3548 165.528C29.0536 165.528 28.7852 165.592 28.5494 165.72C28.3164 165.845 28.1317 166.02 27.9954 166.244C27.859 166.466 27.7908 166.719 27.7908 167.003V171H26.5167ZM31.2116 171.081C30.9787 171.081 30.7784 170.999 30.6108 170.834C30.4432 170.666 30.3594 170.464 30.3594 170.229C30.3594 169.996 30.4432 169.797 30.6108 169.632C30.7784 169.464 30.9787 169.381 31.2116 169.381C31.4446 169.381 31.6449 169.464 31.8125 169.632C31.9801 169.797 32.0639 169.996 32.0639 170.229C32.0639 170.385 32.0241 170.528 31.9446 170.659C31.8679 170.787 31.7656 170.889 31.6378 170.966C31.5099 171.043 31.3679 171.081 31.2116 171.081ZM38.6168 171L36.1964 162.273H37.5813L39.2816 169.031H39.3626L41.131 162.273H42.5032L44.2717 169.036H44.3526L46.0487 162.273H47.4379L45.0131 171H43.6879L41.8512 164.463H41.783L39.9464 171H38.6168ZM50.7127 171.132C50.0678 171.132 49.5124 170.994 49.0465 170.719C48.5835 170.44 48.2255 170.05 47.9727 169.547C47.7227 169.041 47.5977 168.449 47.5977 167.77C47.5977 167.099 47.7227 166.509 47.9727 165.997C48.2255 165.486 48.5778 165.087 49.0295 164.8C49.484 164.513 50.0153 164.369 50.6232 164.369C50.9925 164.369 51.3505 164.43 51.6971 164.553C52.0437 164.675 52.3548 164.866 52.6303 165.128C52.9059 165.389 53.1232 165.729 53.2823 166.146C53.4414 166.561 53.521 167.065 53.521 167.659V168.111H48.3178V167.156H52.2724C52.2724 166.821 52.2042 166.524 52.0678 166.266C51.9315 166.004 51.7397 165.798 51.4925 165.648C51.2482 165.497 50.9613 165.422 50.6317 165.422C50.2738 165.422 49.9613 165.51 49.6942 165.686C49.43 165.859 49.2255 166.087 49.0806 166.368C48.9386 166.646 48.8675 166.949 48.8675 167.276V168.021C48.8675 168.459 48.9442 168.831 49.0977 169.138C49.2539 169.445 49.4712 169.679 49.7496 169.841C50.0281 170 50.3533 170.08 50.7255 170.08C50.967 170.08 51.1871 170.045 51.386 169.977C51.5849 169.906 51.7567 169.801 51.9016 169.662C52.0465 169.523 52.1573 169.351 52.234 169.146L53.44 169.364C53.3434 169.719 53.1701 170.03 52.9201 170.297C52.6729 170.561 52.3619 170.767 51.9869 170.915C51.6147 171.06 51.19 171.132 50.7127 171.132ZM59.8395 166.053L58.6847 166.257C58.6364 166.109 58.5597 165.969 58.4545 165.835C58.3523 165.702 58.2131 165.592 58.0369 165.507C57.8608 165.422 57.6406 165.379 57.3764 165.379C57.0156 165.379 56.7145 165.46 56.473 165.622C56.2315 165.781 56.1108 165.987 56.1108 166.24C56.1108 166.459 56.1918 166.635 56.3537 166.768C56.5156 166.902 56.777 167.011 57.1378 167.097L58.1776 167.335C58.7798 167.474 59.2287 167.689 59.5241 167.979C59.8196 168.268 59.9673 168.645 59.9673 169.108C59.9673 169.5 59.8537 169.849 59.6264 170.156C59.402 170.46 59.0881 170.699 58.6847 170.872C58.2841 171.045 57.8196 171.132 57.2912 171.132C56.5582 171.132 55.9602 170.976 55.4972 170.663C55.0341 170.348 54.75 169.901 54.6449 169.321L55.8764 169.134C55.9531 169.455 56.1108 169.697 56.3494 169.862C56.5881 170.024 56.8991 170.105 57.2827 170.105C57.7003 170.105 58.0341 170.018 58.2841 169.845C58.5341 169.669 58.6591 169.455 58.6591 169.202C58.6591 168.997 58.5824 168.825 58.429 168.686C58.2784 168.547 58.0469 168.442 57.7344 168.371L56.6264 168.128C56.0156 167.989 55.5639 167.767 55.2713 167.463C54.9815 167.159 54.8366 166.774 54.8366 166.308C54.8366 165.922 54.9446 165.584 55.1605 165.294C55.3764 165.004 55.6747 164.778 56.0554 164.616C56.4361 164.452 56.8722 164.369 57.3636 164.369C58.071 164.369 58.6278 164.523 59.0341 164.83C59.4403 165.134 59.7088 165.541 59.8395 166.053ZM62.6424 162.273V171H61.3683V162.273H62.6424ZM67.1776 171.132C66.5327 171.132 65.9773 170.994 65.5114 170.719C65.0483 170.44 64.6903 170.05 64.4375 169.547C64.1875 169.041 64.0625 168.449 64.0625 167.77C64.0625 167.099 64.1875 166.509 64.4375 165.997C64.6903 165.486 65.0426 165.087 65.4943 164.8C65.9489 164.513 66.4801 164.369 67.0881 164.369C67.4574 164.369 67.8153 164.43 68.1619 164.553C68.5085 164.675 68.8196 164.866 69.0952 165.128C69.3707 165.389 69.5881 165.729 69.7472 166.146C69.9063 166.561 69.9858 167.065 69.9858 167.659V168.111H64.7827V167.156H68.7372C68.7372 166.821 68.669 166.524 68.5327 166.266C68.3963 166.004 68.2045 165.798 67.9574 165.648C67.7131 165.497 67.4261 165.422 67.0966 165.422C66.7386 165.422 66.4261 165.51 66.1591 165.686C65.8949 165.859 65.6903 166.087 65.5455 166.368C65.4034 166.646 65.3324 166.949 65.3324 167.276V168.021C65.3324 168.459 65.4091 168.831 65.5625 169.138C65.7188 169.445 65.9361 169.679 66.2145 169.841C66.4929 170 66.8182 170.08 67.1903 170.08C67.4318 170.08 67.652 170.045 67.8509 169.977C68.0497 169.906 68.2216 169.801 68.3665 169.662C68.5114 169.523 68.6222 169.351 68.6989 169.146L69.9048 169.364C69.8082 169.719 69.6349 170.03 69.3849 170.297C69.1378 170.561 68.8267 170.767 68.4517 170.915C68.0795 171.06 67.6548 171.132 67.1776 171.132ZM72.0174 173.455C71.8271 173.455 71.6538 173.439 71.4975 173.408C71.3413 173.379 71.2248 173.348 71.1481 173.314L71.4549 172.27C71.6879 172.332 71.8952 172.359 72.0771 172.351C72.2589 172.342 72.4194 172.274 72.5586 172.146C72.7006 172.018 72.8256 171.81 72.9336 171.52L73.0913 171.085L70.6964 164.455H72.06L73.7177 169.534H73.7859L75.4435 164.455H76.8114L74.114 171.874C73.989 172.214 73.8299 172.503 73.6367 172.739C73.4435 172.977 73.2134 173.156 72.9464 173.276C72.6793 173.395 72.3697 173.455 72.0174 173.455Z" fill="#456573"/>
<path d="M177.317 176.909V182H176.7V177.555H176.67L175.428 178.381V177.754L176.7 176.909H177.317ZM178.781 182V181.553L180.461 179.713C180.658 179.498 180.821 179.31 180.949 179.151C181.076 178.991 181.171 178.84 181.232 178.699C181.295 178.556 181.326 178.407 181.326 178.251C181.326 178.072 181.283 177.917 181.197 177.787C181.113 177.656 180.997 177.555 180.849 177.483C180.702 177.412 180.536 177.376 180.352 177.376C180.156 177.376 179.986 177.417 179.84 177.498C179.696 177.578 179.584 177.69 179.504 177.834C179.426 177.978 179.387 178.147 179.387 178.341H178.801C178.801 178.043 178.87 177.781 179.007 177.555C179.145 177.33 179.332 177.154 179.569 177.028C179.808 176.902 180.075 176.839 180.372 176.839C180.67 176.839 180.934 176.902 181.165 177.028C181.395 177.154 181.576 177.324 181.707 177.538C181.838 177.752 181.903 177.99 181.903 178.251C181.903 178.439 181.869 178.622 181.801 178.801C181.735 178.978 181.619 179.176 181.453 179.395C181.289 179.612 181.061 179.877 180.77 180.19L179.626 181.413V181.453H181.993V182H178.781ZM184.829 176.67L183.188 182.766H182.651L184.292 176.67H184.829ZM187.175 182.07C186.8 182.07 186.481 181.968 186.218 181.764C185.954 181.558 185.753 181.261 185.614 180.871C185.475 180.48 185.405 180.008 185.405 179.455C185.405 178.904 185.475 178.435 185.614 178.045C185.755 177.654 185.957 177.356 186.22 177.15C186.485 176.943 186.804 176.839 187.175 176.839C187.546 176.839 187.863 176.943 188.127 177.15C188.392 177.356 188.594 177.654 188.733 178.045C188.874 178.435 188.945 178.904 188.945 179.455C188.945 180.008 188.875 180.48 188.736 180.871C188.597 181.261 188.395 181.558 188.132 181.764C187.868 181.968 187.549 182.07 187.175 182.07ZM187.175 181.523C187.546 181.523 187.834 181.344 188.04 180.986C188.245 180.628 188.348 180.117 188.348 179.455C188.348 179.014 188.301 178.638 188.206 178.328C188.114 178.019 187.979 177.782 187.804 177.62C187.63 177.458 187.42 177.376 187.175 177.376C186.807 177.376 186.519 177.558 186.312 177.921C186.105 178.282 186.002 178.793 186.002 179.455C186.002 179.895 186.048 180.27 186.141 180.578C186.234 180.886 186.367 181.121 186.541 181.282C186.717 181.442 186.928 181.523 187.175 181.523ZM191.679 176.909V182H191.063V177.555H191.033L189.79 178.381V177.754L191.063 176.909H191.679ZM194.953 176.67L193.312 182.766H192.775L194.416 176.67H194.953ZM195.638 182V181.553L197.319 179.713C197.516 179.498 197.678 179.31 197.806 179.151C197.934 178.991 198.028 178.84 198.089 178.699C198.152 178.556 198.184 178.407 198.184 178.251C198.184 178.072 198.141 177.917 198.055 177.787C197.97 177.656 197.854 177.555 197.706 177.483C197.559 177.412 197.393 177.376 197.209 177.376C197.014 177.376 196.843 177.417 196.697 177.498C196.553 177.578 196.441 177.69 196.362 177.834C196.284 177.978 196.245 178.147 196.245 178.341H195.658C195.658 178.043 195.727 177.781 195.865 177.555C196.002 177.33 196.189 177.154 196.426 177.028C196.665 176.902 196.933 176.839 197.229 176.839C197.528 176.839 197.792 176.902 198.022 177.028C198.253 177.154 198.433 177.324 198.564 177.538C198.695 177.752 198.76 177.99 198.76 178.251C198.76 178.439 198.727 178.622 198.659 178.801C198.592 178.978 198.476 179.176 198.311 179.395C198.146 179.612 197.919 179.877 197.627 180.19L196.483 181.413V181.453H198.85V182H195.638ZM201.597 182.07C201.269 182.07 200.976 182.013 200.719 181.901C200.464 181.788 200.261 181.631 200.11 181.431C199.961 181.229 199.88 180.994 199.867 180.727H200.493C200.506 180.891 200.563 181.033 200.662 181.152C200.762 181.27 200.892 181.361 201.052 181.426C201.213 181.49 201.391 181.523 201.587 181.523C201.806 181.523 201.999 181.485 202.169 181.408C202.338 181.332 202.47 181.226 202.566 181.09C202.662 180.954 202.71 180.797 202.71 180.618C202.71 180.431 202.664 180.266 202.571 180.123C202.478 179.979 202.343 179.866 202.164 179.785C201.985 179.704 201.766 179.663 201.507 179.663H201.1V179.116H201.507C201.709 179.116 201.887 179.08 202.039 179.007C202.193 178.934 202.314 178.831 202.4 178.699C202.488 178.566 202.531 178.411 202.531 178.232C202.531 178.059 202.493 177.909 202.417 177.782C202.341 177.654 202.233 177.555 202.094 177.483C201.956 177.412 201.794 177.376 201.607 177.376C201.431 177.376 201.265 177.409 201.11 177.473C200.955 177.536 200.829 177.628 200.732 177.749C200.634 177.869 200.581 178.013 200.573 178.182H199.976C199.986 177.915 200.066 177.681 200.217 177.481C200.368 177.279 200.565 177.121 200.809 177.009C201.054 176.896 201.323 176.839 201.617 176.839C201.932 176.839 202.202 176.903 202.427 177.031C202.652 177.157 202.826 177.323 202.947 177.531C203.068 177.738 203.128 177.961 203.128 178.202C203.128 178.488 203.053 178.733 202.902 178.935C202.753 179.137 202.55 179.277 202.293 179.355V179.395C202.614 179.448 202.865 179.585 203.046 179.805C203.227 180.024 203.317 180.295 203.317 180.618C203.317 180.895 203.242 181.143 203.091 181.364C202.942 181.582 202.738 181.755 202.479 181.881C202.221 182.007 201.927 182.07 201.597 182.07Z" fill="#456573"/>
</svg>
