<svg width="12" height="10" viewBox="0 0 12 10" fill="none" xmlns="http://www.w3.org/2000/svg">
<path d="M0 8.67614C0 6.80943 0 4.94272 0 3.07601C0.00488668 3.06624 0.0146601 3.05647 0.0195468 3.04669C0.17592 2.26483 0.728115 1.81525 1.51976 1.81525C2.02797 1.81525 2.53618 1.81525 3.0444 1.81525C3.08349 1.81525 3.12747 1.81036 3.18123 1.81036C3.18123 1.73218 3.18123 1.66865 3.18123 1.60024C3.21543 0.823256 3.79206 0.217308 4.56904 0.202648C5.52194 0.183102 6.47485 0.183102 7.42775 0.202648C8.20473 0.217308 8.78136 0.823256 8.81556 1.60512C8.82045 1.67354 8.81556 1.74195 8.81556 1.81525C8.87909 1.81525 8.92307 1.81525 8.96705 1.81525C9.48015 1.81525 9.99814 1.81036 10.5112 1.81525C11.3517 1.82014 11.9919 2.43586 11.9968 3.25682C12.0017 5.00136 12.0017 6.74591 11.9919 8.49045C11.9919 8.68592 11.9479 8.90093 11.8648 9.07685C11.601 9.65837 11.127 9.93202 10.4917 9.93202C7.49616 9.93202 4.50063 9.93202 1.5051 9.93202C1.46112 9.93202 1.41714 9.93202 1.37804 9.92713C0.850282 9.88804 0.439801 9.64371 0.185694 9.17947C0.0977335 9.02799 0.0586401 8.84718 0 8.67614ZM6.00084 2.99294C4.50552 2.99294 3.28385 4.20972 3.27896 5.70993C3.27407 7.21014 4.50063 8.44159 6.00084 8.44159C7.49616 8.44159 8.71783 7.2248 8.72272 5.72459C8.7276 4.2195 7.50105 2.99294 6.00084 2.99294Z" fill="#456573"/>
<path d="M7.43752 5.73431C7.41798 6.55039 6.76316 7.17588 5.95197 7.15634C5.17499 7.13679 4.53484 6.4722 4.55927 5.70011C4.57882 4.89381 5.23363 4.25854 6.02527 4.2732C6.81692 4.29274 7.45707 4.95245 7.43752 5.73431Z" fill="#456573"/>
</svg>
