<svg width="19" height="20" viewBox="0 0 19 20" fill="none" xmlns="http://www.w3.org/2000/svg">
<path d="M6.52423 0.533449C4.16352 1.34206 2.14995 3.11108 1.03206 5.34156C0.64138 6.11232 0.358973 6.93153 0.190892 7.77837C-0.23764 9.88393 0.0606663 12.1254 1.03206 14.0462C1.6616 15.2996 2.56788 16.4122 3.6642 17.2807C4.7007 18.1055 5.90528 18.7135 7.18634 19.0554C8.79825 19.4896 10.5184 19.4786 12.1463 19.1095C13.617 18.7729 15.0063 18.0677 16.1132 17.0475C17.2852 15.9674 18.1211 14.5512 18.5663 13.0264C19.0493 11.3603 19.1144 9.58562 18.8105 7.88172C15.7714 7.88172 12.7323 7.88172 9.68788 7.88172C9.68788 9.14081 9.68788 10.4052 9.68788 11.6643C11.4463 11.6643 13.21 11.6643 14.9681 11.6643C14.7617 12.8746 14.0455 13.9762 13.0253 14.6599C12.3848 15.0884 11.6522 15.3708 10.8925 15.501C10.1274 15.6313 9.34036 15.6475 8.58058 15.4957C7.80453 15.3439 7.06633 15.018 6.42089 14.5622C5.38968 13.8403 4.60303 12.7769 4.20138 11.5882C3.78912 10.378 3.78344 9.02687 4.20138 7.8166C4.48908 6.96446 4.97213 6.17213 5.60698 5.53198C6.38833 4.72867 7.40325 4.15894 8.49957 3.92574C9.4384 3.72511 10.4261 3.76296 11.3433 4.03969C12.1247 4.27856 12.8413 4.70179 13.4326 5.26623C14.0296 4.67454 14.6209 4.07792 15.2179 3.48623C15.5272 3.16597 15.8584 2.86198 16.162 2.53112C15.2611 1.69526 14.1977 1.02255 13.0416 0.599319C10.9685 -0.17749 8.61882 -0.193769 6.52423 0.533449Z" fill="white"/>
<path d="M6.5241 0.532195C8.61868 -0.195023 10.9688 -0.178745 13.0524 0.592007C14.2081 1.01524 15.2666 1.68832 16.1729 2.52381C15.8689 2.84937 15.5433 3.15866 15.2288 3.47892C14.6318 4.07061 14.0404 4.66723 13.4435 5.25892C12.8518 4.69448 12.1355 4.26595 11.3542 4.03238C10.4369 3.75565 9.44924 3.71779 8.51041 3.91843C7.4141 4.15163 6.39955 4.72704 5.61782 5.52467C4.98297 6.1652 4.49993 6.95753 4.21222 7.80929C3.15414 6.9897 2.09568 6.16482 1.0376 5.34561C2.14981 3.10982 4.16338 1.3408 6.5241 0.532195Z" fill="#E94435"/>
<path d="M0.190892 7.77665C0.358973 6.93018 0.64668 6.1106 1.03206 5.33984C2.09014 6.15943 3.1486 6.98432 4.20668 7.80353C3.78875 9.01379 3.79442 10.3649 4.20668 11.5751C3.1486 12.3947 2.09014 13.2196 1.03206 14.0388C0.0606663 12.129 -0.23764 9.88221 0.190892 7.77665Z" fill="#F8BB15"/>
<path d="M9.69272 7.875C12.7318 7.875 15.7709 7.875 18.8153 7.875C19.1193 9.57891 19.0542 11.3536 18.5711 13.0197C18.1263 14.5445 17.2905 15.9664 16.1181 17.0407C15.0925 16.2431 14.0613 15.4451 13.0411 14.6475C14.0613 13.9691 14.7776 12.8622 14.9839 11.6519C13.2255 11.6519 11.4617 11.6519 9.7037 11.6519C9.68742 10.3985 9.69272 9.1394 9.69272 7.875Z" fill="#547DBE"/>
<path d="M1.03223 14.0438C2.09031 13.2242 3.14877 12.3993 4.20685 11.5801C4.6085 12.7741 5.39515 13.8321 6.42636 14.5541C7.07218 15.0098 7.81038 15.3301 8.58605 15.4876C9.34583 15.6394 10.1382 15.6231 10.8979 15.4929C11.6577 15.3627 12.3902 15.0806 13.0307 14.6517C14.0563 15.4494 15.0875 16.2474 16.1077 17.045C15.0008 18.0705 13.6115 18.7709 12.1407 19.107C10.5182 19.4761 8.79767 19.4867 7.18083 19.0529C5.90016 18.7111 4.69519 18.1031 3.65869 17.2782C2.56805 16.4045 1.66178 15.2919 1.03223 14.0438Z" fill="#34A751"/>
</svg>
