<svg width="24" height="21" viewBox="0 0 24 21" fill="none" xmlns="http://www.w3.org/2000/svg">
<path d="M0.00380213 4.79811C0.125463 4.31527 0.193897 3.81342 0.376388 3.35719C1.11776 1.51327 2.47504 0.395511 4.44822 0.0685473C4.73717 0.0191226 5.03752 0.0115188 5.33407 0.0115188C9.77849 0.00771694 14.2229 0.0305288 18.6635 0.000113603C21.0587 -0.015094 23.0585 1.49806 23.7125 3.62332C23.8797 4.167 23.9672 4.75249 23.9786 5.32277C24.0128 7.04123 23.9976 8.75969 23.99 10.4781C23.9786 12.7555 22.6631 14.6716 20.5797 15.47C20.0816 15.6601 20.0816 15.6601 20.0816 16.2076C20.0816 17.6828 20.0816 19.1579 20.0816 20.6368C20.0816 20.7205 20.0816 20.8003 20.0816 20.941C19.6482 20.5874 19.2642 20.2718 18.8802 19.9563C17.2492 18.618 15.6182 17.2836 13.9948 15.9415C13.8503 15.8236 13.7096 15.7818 13.531 15.7818C10.7898 15.7856 8.04862 15.7818 5.30745 15.7856C4.12126 15.7894 3.04152 15.47 2.09865 14.7439C0.931465 13.8504 0.262331 12.6642 0.0494248 11.2157C0.0380191 11.1397 0.0152076 11.0636 0 10.9914C0.0038019 8.92317 0.00380213 6.85874 0.00380213 4.79811ZM18.5875 17.7664C18.5875 17.6219 18.5875 17.5383 18.5875 17.4546C18.5875 16.5878 18.5875 15.721 18.5875 14.8541C18.5875 14.3295 18.5875 14.3295 19.1083 14.2724C21.0511 14.0633 22.4692 12.5312 22.492 10.5732C22.5148 8.79391 22.5072 7.01082 22.492 5.23153C22.4768 3.1785 20.8268 1.48666 18.7015 1.49806C14.2343 1.52468 9.76708 1.50567 5.29985 1.50947C4.99189 1.50947 4.67254 1.53228 4.37219 1.60071C2.72216 1.99231 1.53977 3.42943 1.50935 5.12888C1.47894 6.9728 1.49034 8.81292 1.51316 10.6568C1.51696 11.018 1.5968 11.3868 1.71086 11.7328C2.17849 13.1813 3.54717 14.2953 5.28464 14.28C8.21971 14.2572 11.1586 14.2724 14.0936 14.28C14.2343 14.28 14.4016 14.3371 14.5119 14.4245C15.0745 14.8693 15.6258 15.3294 16.1809 15.7856C16.9679 16.4357 17.7511 17.0782 18.5875 17.7664Z" fill="#456573"/>
<path d="M9.84595 10.0371C9.37071 10.0371 8.92209 10.0371 8.43164 10.0371C8.43164 8.49355 8.43164 6.94998 8.43164 5.3912C8.80042 5.3912 9.19582 5.3912 9.61023 5.3912C9.63684 5.5813 9.65965 5.77139 9.69767 6.03373C10.0627 5.51667 10.5303 5.28095 11.0968 5.27715C11.6785 5.27335 12.1385 5.50526 12.4046 6.05654C12.5643 5.90826 12.7012 5.75619 12.8609 5.63453C13.8798 4.85514 15.1686 5.33798 15.4119 6.59641C15.4652 6.86254 15.488 7.13628 15.488 7.41001C15.4994 8.21602 15.4918 9.01822 15.4918 9.82422C15.4918 9.89265 15.4842 9.96109 15.4804 10.0409C15.0165 10.0409 14.5641 10.0409 14.0851 10.0409C14.0813 9.95729 14.0737 9.87745 14.0737 9.79381C14.0737 9.02202 14.0737 8.24643 14.0699 7.47465C14.0699 7.31877 14.0508 7.16289 14.0166 7.01081C13.933 6.64203 13.7049 6.44053 13.4007 6.44433C13.0776 6.44813 12.7886 6.66864 12.7088 7.00321C12.6708 7.15148 12.6632 7.31116 12.6632 7.46704C12.6594 8.31867 12.6594 9.16649 12.6594 10.0333C12.1879 10.0333 11.7317 10.0333 11.2488 10.0333C11.2488 9.91166 11.2488 9.79 11.2488 9.66454C11.2412 8.82812 11.2488 7.9917 11.2108 7.15909C11.188 6.67244 10.9219 6.42532 10.5493 6.44053C10.1843 6.45574 9.86115 6.80931 9.84975 7.24653C9.83454 7.7788 9.84595 8.30726 9.84214 8.83953C9.84595 9.23112 9.84595 9.62272 9.84595 10.0371Z" fill="#456573"/>
<path d="M16.6378 8.78643C17.1131 9.01074 17.5655 9.16282 18.0673 9.11339C18.2765 9.09058 18.4589 9.02595 18.497 8.79403C18.5388 8.56972 18.3905 8.44426 18.208 8.36442C17.9381 8.24276 17.6529 8.15151 17.3906 8.02225C16.7329 7.69528 16.4515 7.25807 16.5048 6.67638C16.558 6.07567 16.9876 5.58143 17.6377 5.39133C18.2726 5.20504 18.9038 5.26207 19.5273 5.46737C19.6794 5.51679 19.7136 5.59283 19.6641 5.74491C19.5843 6.00344 19.5235 6.26577 19.4741 6.46347C19.0634 6.40644 18.6833 6.3342 18.3031 6.31139C18.189 6.30379 18.0369 6.40264 17.9533 6.49769C17.8278 6.63836 17.9001 6.85506 18.1054 6.96152C18.3107 7.06797 18.535 7.14401 18.7479 7.24286C18.9266 7.3227 19.1053 7.39874 19.2725 7.49758C19.725 7.77512 19.9417 8.18953 19.9151 8.71419C19.8847 9.28068 19.5957 9.69508 19.0787 9.91179C18.2384 10.2692 17.3868 10.2083 16.5504 9.89278C16.4934 9.86997 16.4135 9.76732 16.4249 9.7179C16.4744 9.40994 16.558 9.10959 16.6378 8.78643Z" fill="#456573"/>
<path d="M7.35266 5.53594C7.26521 5.88191 7.18157 6.19747 7.10553 6.49402C6.78997 6.42559 6.48962 6.35715 6.18927 6.29252C6.14365 6.28111 6.09423 6.28492 6.0486 6.28872C5.74825 6.30012 5.56576 6.40658 5.53915 6.60427C5.50113 6.86661 5.70263 6.95405 5.88512 7.03769C6.11324 7.14034 6.34895 7.21638 6.57707 7.31903C7.26901 7.62318 7.58077 8.09082 7.53895 8.74094C7.50093 9.35685 7.10933 9.82829 6.41739 10.0222C5.67602 10.2313 4.93465 10.1819 4.21229 9.91193C4.06401 9.8587 4.00318 9.79787 4.06021 9.62298C4.14765 9.35685 4.19708 9.07931 4.25411 8.8474C4.65711 8.94244 5.0449 9.0451 5.4365 9.11733C5.58097 9.14394 5.75586 9.12113 5.88892 9.0603C5.99158 9.01468 6.10563 8.88541 6.11704 8.77896C6.12844 8.67251 6.0486 8.52804 5.96496 8.4444C5.87372 8.35695 5.73305 8.31893 5.61519 8.26571C5.36806 8.15545 5.10573 8.06801 4.87001 7.93494C4.42899 7.68782 4.12104 7.33424 4.13245 6.79817C4.14385 6.20508 4.4328 5.76406 4.96126 5.51313C5.75206 5.14435 6.54285 5.23179 7.35266 5.53594Z" fill="#456573"/>
</svg>
