<svg width="401" height="366" viewBox="0 0 401 366" fill="none" xmlns="http://www.w3.org/2000/svg">
<line x1="137" y1="122.5" x2="337" y2="122.5" stroke="#456573" stroke-dasharray="2 2"/>
<circle cx="334.5" cy="122.5" r="3.5" fill="#456573"/>
<rect x="348" y="104" width="53" height="32" rx="5" fill="#456573"/>
<path d="M372.084 114.364V126H369.624V116.699H369.555L366.891 118.369V116.188L369.771 114.364H372.084ZM379.412 126.256C378.435 126.252 377.594 126.011 376.889 125.534C376.188 125.057 375.649 124.366 375.27 123.46C374.895 122.555 374.709 121.466 374.713 120.193C374.713 118.924 374.901 117.843 375.276 116.949C375.654 116.055 376.194 115.375 376.895 114.909C377.599 114.439 378.438 114.205 379.412 114.205C380.385 114.205 381.223 114.439 381.923 114.909C382.628 115.379 383.17 116.061 383.548 116.955C383.927 117.845 384.115 118.924 384.111 120.193C384.111 121.47 383.921 122.561 383.543 123.466C383.168 124.371 382.63 125.062 381.929 125.54C381.228 126.017 380.389 126.256 379.412 126.256ZM379.412 124.216C380.079 124.216 380.611 123.881 381.009 123.21C381.406 122.54 381.603 121.534 381.599 120.193C381.599 119.311 381.509 118.576 381.327 117.989C381.149 117.402 380.895 116.96 380.565 116.665C380.24 116.369 379.855 116.222 379.412 116.222C378.749 116.222 378.219 116.553 377.821 117.216C377.423 117.879 377.223 118.871 377.219 120.193C377.219 121.087 377.308 121.833 377.486 122.432C377.668 123.027 377.923 123.473 378.253 123.773C378.582 124.068 378.969 124.216 379.412 124.216Z" fill="white"/>
<line x1="68" y1="175.5" x2="268" y2="175.5" stroke="#456573" stroke-dasharray="2 2"/>
<circle cx="265.5" cy="175.5" r="3.5" fill="#456573"/>
<rect x="279" y="157" width="53" height="32" rx="5" fill="#456573"/>
<path d="M303.084 167.364V179H300.624V169.699H300.555L297.891 171.369V169.188L300.771 167.364H303.084ZM310.412 179.256C309.435 179.252 308.594 179.011 307.889 178.534C307.188 178.057 306.649 177.366 306.27 176.46C305.895 175.555 305.709 174.466 305.713 173.193C305.713 171.924 305.901 170.843 306.276 169.949C306.654 169.055 307.194 168.375 307.895 167.909C308.599 167.439 309.438 167.205 310.412 167.205C311.385 167.205 312.223 167.439 312.923 167.909C313.628 168.379 314.17 169.061 314.548 169.955C314.927 170.845 315.115 171.924 315.111 173.193C315.111 174.47 314.921 175.561 314.543 176.466C314.168 177.371 313.63 178.062 312.929 178.54C312.228 179.017 311.389 179.256 310.412 179.256ZM310.412 177.216C311.079 177.216 311.611 176.881 312.009 176.21C312.406 175.54 312.603 174.534 312.599 173.193C312.599 172.311 312.509 171.576 312.327 170.989C312.149 170.402 311.895 169.96 311.565 169.665C311.24 169.369 310.855 169.222 310.412 169.222C309.749 169.222 309.219 169.553 308.821 170.216C308.423 170.879 308.223 171.871 308.219 173.193C308.219 174.087 308.308 174.833 308.486 175.432C308.668 176.027 308.923 176.473 309.253 176.773C309.582 177.068 309.969 177.216 310.412 177.216Z" fill="white"/>
<line x1="137" y1="219.5" x2="337" y2="219.5" stroke="#456573" stroke-dasharray="2 2"/>
<circle cx="334.5" cy="219.5" r="3.5" fill="#456573"/>
<rect x="348" y="201" width="53" height="32" rx="5" fill="#456573"/>
<path d="M372.084 211.364V223H369.624V213.699H369.555L366.891 215.369V213.188L369.771 211.364H372.084ZM379.412 223.256C378.435 223.252 377.594 223.011 376.889 222.534C376.188 222.057 375.649 221.366 375.27 220.46C374.895 219.555 374.709 218.466 374.713 217.193C374.713 215.924 374.901 214.843 375.276 213.949C375.654 213.055 376.194 212.375 376.895 211.909C377.599 211.439 378.438 211.205 379.412 211.205C380.385 211.205 381.223 211.439 381.923 211.909C382.628 212.379 383.17 213.061 383.548 213.955C383.927 214.845 384.115 215.924 384.111 217.193C384.111 218.47 383.921 219.561 383.543 220.466C383.168 221.371 382.63 222.062 381.929 222.54C381.228 223.017 380.389 223.256 379.412 223.256ZM379.412 221.216C380.079 221.216 380.611 220.881 381.009 220.21C381.406 219.54 381.603 218.534 381.599 217.193C381.599 216.311 381.509 215.576 381.327 214.989C381.149 214.402 380.895 213.96 380.565 213.665C380.24 213.369 379.855 213.222 379.412 213.222C378.749 213.222 378.219 213.553 377.821 214.216C377.423 214.879 377.223 215.871 377.219 217.193C377.219 218.087 377.308 218.833 377.486 219.432C377.668 220.027 377.923 220.473 378.253 220.773C378.582 221.068 378.969 221.216 379.412 221.216Z" fill="white"/>
<line x1="94" y1="262.5" x2="250" y2="262.5" stroke="#456573" stroke-dasharray="2 2"/>
<circle cx="247.5" cy="262.5" r="3.5" fill="#456573"/>
<rect x="261" y="244" width="53" height="32" rx="5" fill="#456573"/>
<path d="M285.084 254.364V266H282.624V256.699H282.555L279.891 258.369V256.188L282.771 254.364H285.084ZM292.412 266.256C291.435 266.252 290.594 266.011 289.889 265.534C289.188 265.057 288.649 264.366 288.27 263.46C287.895 262.555 287.709 261.466 287.713 260.193C287.713 258.924 287.901 257.843 288.276 256.949C288.654 256.055 289.194 255.375 289.895 254.909C290.599 254.439 291.438 254.205 292.412 254.205C293.385 254.205 294.223 254.439 294.923 254.909C295.628 255.379 296.17 256.061 296.548 256.955C296.927 257.845 297.115 258.924 297.111 260.193C297.111 261.47 296.921 262.561 296.543 263.466C296.168 264.371 295.63 265.062 294.929 265.54C294.228 266.017 293.389 266.256 292.412 266.256ZM292.412 264.216C293.079 264.216 293.611 263.881 294.009 263.21C294.406 262.54 294.603 261.534 294.599 260.193C294.599 259.311 294.509 258.576 294.327 257.989C294.149 257.402 293.895 256.96 293.565 256.665C293.24 256.369 292.855 256.222 292.412 256.222C291.749 256.222 291.219 256.553 290.821 257.216C290.423 257.879 290.223 258.871 290.219 260.193C290.219 261.087 290.308 261.833 290.486 262.432C290.668 263.027 290.923 263.473 291.253 263.773C291.582 264.068 291.969 264.216 292.412 264.216Z" fill="white"/>
<line x1="98" y1="326.5" x2="225" y2="326.5" stroke="#456573" stroke-dasharray="2 2"/>
<circle cx="222.5" cy="326.5" r="3.5" fill="#456573"/>
<rect x="236" y="308" width="53" height="32" rx="5" fill="#456573"/>
<path d="M260.084 318.364V330H257.624V320.699H257.555L254.891 322.369V320.188L257.771 318.364H260.084ZM267.412 330.256C266.435 330.252 265.594 330.011 264.889 329.534C264.188 329.057 263.649 328.366 263.27 327.46C262.895 326.555 262.709 325.466 262.713 324.193C262.713 322.924 262.901 321.843 263.276 320.949C263.654 320.055 264.194 319.375 264.895 318.909C265.599 318.439 266.438 318.205 267.412 318.205C268.385 318.205 269.223 318.439 269.923 318.909C270.628 319.379 271.17 320.061 271.548 320.955C271.927 321.845 272.115 322.924 272.111 324.193C272.111 325.47 271.921 326.561 271.543 327.466C271.168 328.371 270.63 329.062 269.929 329.54C269.228 330.017 268.389 330.256 267.412 330.256ZM267.412 328.216C268.079 328.216 268.611 327.881 269.009 327.21C269.406 326.54 269.603 325.534 269.599 324.193C269.599 323.311 269.509 322.576 269.327 321.989C269.149 321.402 268.895 320.96 268.565 320.665C268.24 320.369 267.855 320.222 267.412 320.222C266.749 320.222 266.219 320.553 265.821 321.216C265.423 321.879 265.223 322.871 265.219 324.193C265.219 325.087 265.308 325.833 265.486 326.432C265.668 327.027 265.923 327.473 266.253 327.773C266.582 328.068 266.969 328.216 267.412 328.216Z" fill="white"/>
<line x1="134" y1="352.5" x2="334" y2="352.5" stroke="#456573" stroke-dasharray="2 2"/>
<circle cx="331.5" cy="352.5" r="3.5" fill="#456573"/>
<rect x="345" y="334" width="53" height="32" rx="5" fill="#456573"/>
<path d="M369.084 344.364V356H366.624V346.699H366.555L363.891 348.369V346.188L366.771 344.364H369.084ZM376.412 356.256C375.435 356.252 374.594 356.011 373.889 355.534C373.188 355.057 372.649 354.366 372.27 353.46C371.895 352.555 371.709 351.466 371.713 350.193C371.713 348.924 371.901 347.843 372.276 346.949C372.654 346.055 373.194 345.375 373.895 344.909C374.599 344.439 375.438 344.205 376.412 344.205C377.385 344.205 378.223 344.439 378.923 344.909C379.628 345.379 380.17 346.061 380.548 346.955C380.927 347.845 381.115 348.924 381.111 350.193C381.111 351.47 380.921 352.561 380.543 353.466C380.168 354.371 379.63 355.062 378.929 355.54C378.228 356.017 377.389 356.256 376.412 356.256ZM376.412 354.216C377.079 354.216 377.611 353.881 378.009 353.21C378.406 352.54 378.603 351.534 378.599 350.193C378.599 349.311 378.509 348.576 378.327 347.989C378.149 347.402 377.895 346.96 377.565 346.665C377.24 346.369 376.855 346.222 376.412 346.222C375.749 346.222 375.219 346.553 374.821 347.216C374.423 347.879 374.223 348.871 374.219 350.193C374.219 351.087 374.308 351.833 374.486 352.432C374.668 353.027 374.923 353.473 375.253 353.773C375.582 354.068 375.969 354.216 376.412 354.216Z" fill="white"/>
<line x1="134" y1="295.5" x2="334" y2="295.5" stroke="#456573" stroke-dasharray="2 2"/>
<circle cx="331.5" cy="295.5" r="3.5" fill="#456573"/>
<rect x="345" y="277" width="53" height="32" rx="5" fill="#456573"/>
<path d="M369.084 287.364V299H366.624V289.699H366.555L363.891 291.369V289.188L366.771 287.364H369.084ZM376.412 299.256C375.435 299.252 374.594 299.011 373.889 298.534C373.188 298.057 372.649 297.366 372.27 296.46C371.895 295.555 371.709 294.466 371.713 293.193C371.713 291.924 371.901 290.843 372.276 289.949C372.654 289.055 373.194 288.375 373.895 287.909C374.599 287.439 375.438 287.205 376.412 287.205C377.385 287.205 378.223 287.439 378.923 287.909C379.628 288.379 380.17 289.061 380.548 289.955C380.927 290.845 381.115 291.924 381.111 293.193C381.111 294.47 380.921 295.561 380.543 296.466C380.168 297.371 379.63 298.062 378.929 298.54C378.228 299.017 377.389 299.256 376.412 299.256ZM376.412 297.216C377.079 297.216 377.611 296.881 378.009 296.21C378.406 295.54 378.603 294.534 378.599 293.193C378.599 292.311 378.509 291.576 378.327 290.989C378.149 290.402 377.895 289.96 377.565 289.665C377.24 289.369 376.855 289.222 376.412 289.222C375.749 289.222 375.219 289.553 374.821 290.216C374.423 290.879 374.223 291.871 374.219 293.193C374.219 294.087 374.308 294.833 374.486 295.432C374.668 296.027 374.923 296.473 375.253 296.773C375.582 297.068 375.969 297.216 376.412 297.216Z" fill="white"/>
<path d="M181.52 344.25C181.52 341.817 161.55 339.885 137.002 339.885C112.454 339.885 92.4844 341.817 92.4844 344.25C92.4844 344.321 92.4844 344.464 92.5633 344.536L98.2464 361.208C98.2464 361.208 98.1675 365 135.66 365C173.153 365 175.758 361.208 175.758 361.208L181.441 344.536C181.441 344.464 181.52 344.393 181.52 344.25Z" fill="url(#paint0_linear_878_469)"/>
<path d="M137.002 348.614C161.589 348.614 181.52 346.66 181.52 344.25C181.52 341.839 161.589 339.885 137.002 339.885C112.416 339.885 92.4844 341.839 92.4844 344.25C92.4844 346.66 112.416 348.614 137.002 348.614Z" fill="url(#paint1_linear_878_469)"/>
<mask id="mask0_878_469" style="mask-type:luminance" maskUnits="userSpaceOnUse" x="92" y="339" width="90" height="10">
<path d="M137.008 348.614C161.594 348.614 181.526 346.66 181.526 344.25C181.526 341.839 161.594 339.885 137.008 339.885C112.421 339.885 92.4902 341.839 92.4902 344.25C92.4902 346.66 112.421 348.614 137.008 348.614Z" fill="white"/>
</mask>
<g mask="url(#mask0_878_469)">
<path d="M137.007 351.19C161.593 351.19 181.525 349.236 181.525 346.826C181.525 344.415 161.593 342.461 137.007 342.461C112.421 342.461 92.4893 344.415 92.4893 346.826C92.4893 349.236 112.421 351.19 137.007 351.19Z" fill="url(#paint2_linear_878_469)"/>
</g>
<mask id="mask1_878_469" style="mask-type:luminance" maskUnits="userSpaceOnUse" x="92" y="339" width="90" height="10">
<path d="M137.008 348.614C161.594 348.614 181.526 346.66 181.526 344.25C181.526 341.839 161.594 339.885 137.008 339.885C112.421 339.885 92.4902 341.839 92.4902 344.25C92.4902 346.66 112.421 348.614 137.008 348.614Z" fill="white"/>
</mask>
<g mask="url(#mask1_878_469)">
<path d="M137.006 351.405C151.174 351.405 162.659 350.284 162.659 348.901C162.659 347.518 151.174 346.396 137.006 346.396C122.839 346.396 111.354 347.518 111.354 348.901C111.354 350.284 122.839 351.405 137.006 351.405Z" fill="url(#paint3_linear_878_469)"/>
</g>
<mask id="mask2_878_469" style="mask-type:luminance" maskUnits="userSpaceOnUse" x="92" y="339" width="90" height="10">
<path d="M137.008 348.614C161.594 348.614 181.526 346.66 181.526 344.25C181.526 341.839 161.594 339.885 137.008 339.885C112.421 339.885 92.4902 341.839 92.4902 344.25C92.4902 346.66 112.421 348.614 137.008 348.614Z" fill="white"/>
</mask>
<g mask="url(#mask2_878_469)">
<path d="M135.585 349.116C151.845 349.116 165.027 347.674 165.027 345.896C165.027 344.117 151.845 342.676 135.585 342.676C119.325 342.676 106.144 344.117 106.144 345.896C106.144 347.674 119.325 349.116 135.585 349.116Z" fill="url(#paint4_radial_878_469)"/>
</g>
<path d="M192.014 313.267C192.014 310.262 167.388 307.829 136.92 307.829C106.452 307.829 81.8252 310.262 81.8252 313.267C81.8252 313.41 81.9041 313.482 81.9831 313.625L89.008 334.304C89.008 334.304 88.9291 339.026 135.183 339.026C181.438 339.026 184.753 334.304 184.753 334.304L191.778 313.625C192.014 313.553 192.014 313.41 192.014 313.267Z" fill="url(#paint5_linear_878_469)"/>
<path d="M136.998 318.705C167.426 318.705 192.093 316.27 192.093 313.267C192.093 310.264 167.426 307.829 136.998 307.829C106.57 307.829 81.9033 310.264 81.9033 313.267C81.9033 316.27 106.57 318.705 136.998 318.705Z" fill="url(#paint6_linear_878_469)"/>
<mask id="mask3_878_469" style="mask-type:luminance" maskUnits="userSpaceOnUse" x="81" y="307" width="112" height="12">
<path d="M136.997 318.705C167.425 318.705 192.092 316.27 192.092 313.267C192.092 310.264 167.425 307.829 136.997 307.829C106.569 307.829 81.9023 310.264 81.9023 313.267C81.9023 316.27 106.569 318.705 136.997 318.705Z" fill="white"/>
</mask>
<g mask="url(#mask3_878_469)">
<path d="M136.997 321.854C167.425 321.854 192.092 319.419 192.092 316.416C192.092 313.412 167.425 310.978 136.997 310.978C106.569 310.978 81.9023 313.412 81.9023 316.416C81.9023 319.419 106.569 321.854 136.997 321.854Z" fill="url(#paint7_linear_878_469)"/>
</g>
<mask id="mask4_878_469" style="mask-type:luminance" maskUnits="userSpaceOnUse" x="81" y="307" width="112" height="12">
<path d="M136.997 318.705C167.425 318.705 192.092 316.27 192.092 313.267C192.092 310.264 167.425 307.829 136.997 307.829C106.569 307.829 81.9023 310.264 81.9023 313.267C81.9023 316.27 106.569 318.705 136.997 318.705Z" fill="white"/>
</mask>
<g mask="url(#mask4_878_469)">
<path d="M136.999 322.139C154.524 322.139 168.73 320.73 168.73 318.991C168.73 317.252 154.524 315.843 136.999 315.843C119.475 315.843 105.269 317.252 105.269 318.991C105.269 320.73 119.475 322.139 136.999 322.139Z" fill="url(#paint8_linear_878_469)"/>
</g>
<mask id="mask5_878_469" style="mask-type:luminance" maskUnits="userSpaceOnUse" x="81" y="307" width="112" height="12">
<path d="M136.997 318.705C167.425 318.705 192.092 316.27 192.092 313.267C192.092 310.264 167.425 307.829 136.997 307.829C106.569 307.829 81.9023 310.264 81.9023 313.267C81.9023 316.27 106.569 318.705 136.997 318.705Z" fill="white"/>
</mask>
<g mask="url(#mask5_878_469)">
<path d="M135.262 319.206C155.358 319.206 171.649 317.444 171.649 315.27C171.649 313.097 155.358 311.335 135.262 311.335C115.165 311.335 98.874 313.097 98.874 315.27C98.874 317.444 115.165 319.206 135.262 319.206Z" fill="url(#paint9_radial_878_469)"/>
</g>
<path d="M201.566 280.853C201.566 277.346 172.676 274.484 136.999 274.484C101.322 274.484 72.4326 277.346 72.4326 280.853C72.4326 280.996 72.5115 281.139 72.5905 281.282L80.8783 305.467C80.8783 305.467 80.7994 310.977 135.105 310.977C189.41 310.977 193.199 305.467 193.199 305.467L201.487 281.282C201.487 281.139 201.566 280.996 201.566 280.853Z" fill="url(#paint10_linear_878_469)"/>
<path d="M136.999 287.221C172.658 287.221 201.566 284.37 201.566 280.853C201.566 277.336 172.658 274.484 136.999 274.484C101.34 274.484 72.4326 277.336 72.4326 280.853C72.4326 284.37 101.34 287.221 136.999 287.221Z" fill="url(#paint11_linear_878_469)"/>
<mask id="mask6_878_469" style="mask-type:luminance" maskUnits="userSpaceOnUse" x="72" y="274" width="130" height="14">
<path d="M137.004 287.221C172.663 287.221 201.57 284.37 201.57 280.853C201.57 277.336 172.663 274.484 137.004 274.484C101.345 274.484 72.4375 277.336 72.4375 280.853C72.4375 284.37 101.345 287.221 137.004 287.221Z" fill="white"/>
</mask>
<g mask="url(#mask6_878_469)">
<path d="M137.004 290.87C172.663 290.87 201.57 288.019 201.57 284.502C201.57 280.985 172.663 278.134 137.004 278.134C101.345 278.134 72.4375 280.985 72.4375 284.502C72.4375 288.019 101.345 290.87 137.004 290.87Z" fill="url(#paint12_linear_878_469)"/>
</g>
<mask id="mask7_878_469" style="mask-type:luminance" maskUnits="userSpaceOnUse" x="72" y="274" width="130" height="14">
<path d="M137.004 287.221C172.663 287.221 201.57 284.37 201.57 280.853C201.57 277.336 172.663 274.484 137.004 274.484C101.345 274.484 72.4375 277.336 72.4375 280.853C72.4375 284.37 101.345 287.221 137.004 287.221Z" fill="white"/>
</mask>
<g mask="url(#mask7_878_469)">
<path d="M137 291.228C157.533 291.228 174.177 289.594 174.177 287.579C174.177 285.564 157.533 283.93 137 283.93C116.468 283.93 99.8232 285.564 99.8232 287.579C99.8232 289.594 116.468 291.228 137 291.228Z" fill="url(#paint13_linear_878_469)"/>
</g>
<mask id="mask8_878_469" style="mask-type:luminance" maskUnits="userSpaceOnUse" x="72" y="274" width="130" height="14">
<path d="M137.004 287.221C172.663 287.221 201.57 284.37 201.57 280.853C201.57 277.336 172.663 274.484 137.004 274.484C101.345 274.484 72.4375 277.336 72.4375 280.853C72.4375 284.37 101.345 287.221 137.004 287.221Z" fill="white"/>
</mask>
<g mask="url(#mask8_878_469)">
<path d="M134.95 287.864C158.49 287.864 177.573 285.782 177.573 283.213C177.573 280.645 158.49 278.562 134.95 278.562C111.409 278.562 92.3262 280.645 92.3262 283.213C92.3262 285.782 111.409 287.864 134.95 287.864Z" fill="url(#paint14_radial_878_469)"/>
</g>
<path d="M136.921 320.279C164.734 320.279 187.28 317.812 187.28 314.769C187.28 311.726 164.734 309.26 136.921 309.26C109.109 309.26 86.5625 311.726 86.5625 314.769C86.5625 317.812 109.109 320.279 136.921 320.279Z" fill="url(#paint15_radial_878_469)"/>
<path d="M213.172 244.003C213.172 239.853 179.073 236.49 137.002 236.49C94.9317 236.49 60.833 239.853 60.833 244.003C60.833 244.146 60.9119 244.361 60.9909 244.504L70.7784 273.054C70.7784 273.054 70.6995 279.565 134.713 279.565C198.727 279.565 203.305 273.054 203.305 273.054L213.093 244.504C213.093 244.361 213.172 244.146 213.172 244.003Z" fill="url(#paint16_linear_878_469)"/>
<path d="M137.002 251.516C179.07 251.516 213.172 248.153 213.172 244.003C213.172 239.854 179.07 236.49 137.002 236.49C94.9352 236.49 60.833 239.854 60.833 244.003C60.833 248.153 94.9352 251.516 137.002 251.516Z" fill="url(#paint17_linear_878_469)"/>
<mask id="mask9_878_469" style="mask-type:luminance" maskUnits="userSpaceOnUse" x="60" y="236" width="154" height="16">
<path d="M137.007 251.516C179.075 251.516 213.177 248.153 213.177 244.003C213.177 239.854 179.075 236.49 137.007 236.49C94.9401 236.49 60.8379 239.854 60.8379 244.003C60.8379 248.153 94.9401 251.516 137.007 251.516Z" fill="white"/>
</mask>
<g mask="url(#mask9_878_469)">
<path d="M137.006 255.809C179.074 255.809 213.176 252.446 213.176 248.296C213.176 244.147 179.074 240.783 137.006 240.783C94.9392 240.783 60.8369 244.147 60.8369 248.296C60.8369 252.446 94.9392 255.809 137.006 255.809Z" fill="url(#paint18_linear_878_469)"/>
</g>
<mask id="mask10_878_469" style="mask-type:luminance" maskUnits="userSpaceOnUse" x="60" y="236" width="154" height="16">
<path d="M137.007 251.516C179.075 251.516 213.177 248.153 213.177 244.003C213.177 239.854 179.075 236.49 137.007 236.49C94.9401 236.49 60.8379 239.854 60.8379 244.003C60.8379 248.153 94.9401 251.516 137.007 251.516Z" fill="white"/>
</mask>
<g mask="url(#mask10_878_469)">
<path d="M137.006 256.239C161.244 256.239 180.893 254.317 180.893 251.946C180.893 249.574 161.244 247.652 137.006 247.652C112.769 247.652 93.1201 249.574 93.1201 251.946C93.1201 254.317 112.769 256.239 137.006 256.239Z" fill="url(#paint19_linear_878_469)"/>
</g>
<mask id="mask11_878_469" style="mask-type:luminance" maskUnits="userSpaceOnUse" x="60" y="236" width="154" height="16">
<path d="M137.007 251.516C179.075 251.516 213.177 248.153 213.177 244.003C213.177 239.854 179.075 236.49 137.007 236.49C94.9401 236.49 60.8379 239.854 60.8379 244.003C60.8379 248.153 94.9401 251.516 137.007 251.516Z" fill="white"/>
</mask>
<g mask="url(#mask11_878_469)">
<path d="M134.56 252.303C162.372 252.303 184.919 249.837 184.919 246.794C184.919 243.751 162.372 241.284 134.56 241.284C106.748 241.284 84.2012 243.751 84.2012 246.794C84.2012 249.837 106.748 252.303 134.56 252.303Z" fill="url(#paint20_radial_878_469)"/>
</g>
<path d="M228.325 201.357C228.325 196.42 187.438 192.342 136.922 192.342C86.4054 192.342 45.5186 196.349 45.5186 201.357C45.5186 201.572 45.5975 201.787 45.7554 201.93L57.4373 236.204C57.4373 236.204 57.3584 244.003 134.159 244.003C210.96 244.003 216.407 236.204 216.407 236.204L228.089 201.93C228.246 201.787 228.325 201.572 228.325 201.357Z" fill="url(#paint21_linear_878_469)"/>
<path d="M137 210.373C187.481 210.373 228.403 206.337 228.403 201.357C228.403 196.378 187.481 192.342 137 192.342C86.5194 192.342 45.5967 196.378 45.5967 201.357C45.5967 206.337 86.5194 210.373 137 210.373Z" fill="url(#paint22_linear_878_469)"/>
<mask id="mask12_878_469" style="mask-type:luminance" maskUnits="userSpaceOnUse" x="45" y="192" width="184" height="19">
<path d="M137.004 210.373C187.485 210.373 228.407 206.337 228.407 201.357C228.407 196.378 187.485 192.342 137.004 192.342C86.5233 192.342 45.6006 196.378 45.6006 201.357C45.6006 206.337 86.5233 210.373 137.004 210.373Z" fill="white"/>
</mask>
<g mask="url(#mask12_878_469)">
<path opacity="0.6" d="M137.005 214.952C187.486 214.952 228.408 210.916 228.408 205.937C228.408 200.957 187.486 196.921 137.005 196.921C86.5243 196.921 45.6016 200.957 45.6016 205.937C45.6016 210.916 86.5243 214.952 137.005 214.952Z" fill="url(#paint23_linear_878_469)"/>
</g>
<mask id="mask13_878_469" style="mask-type:luminance" maskUnits="userSpaceOnUse" x="45" y="192" width="184" height="19">
<path d="M137.004 210.373C187.485 210.373 228.407 206.337 228.407 201.357C228.407 196.378 187.485 192.342 137.004 192.342C86.5233 192.342 45.6006 196.378 45.6006 201.357C45.6006 206.337 86.5233 210.373 137.004 210.373Z" fill="white"/>
</mask>
<g mask="url(#mask13_878_469)">
<path opacity="0.6" d="M137.004 216.313C166.691 216.313 190.757 213.942 190.757 211.018C190.757 208.093 166.691 205.723 137.004 205.723C107.317 205.723 83.251 208.093 83.251 211.018C83.251 213.942 107.317 216.313 137.004 216.313Z" fill="url(#paint24_linear_878_469)"/>
</g>
<mask id="mask14_878_469" style="mask-type:luminance" maskUnits="userSpaceOnUse" x="45" y="192" width="184" height="19">
<path d="M137.004 210.373C187.485 210.373 228.407 206.337 228.407 201.357C228.407 196.378 187.485 192.342 137.004 192.342C86.5233 192.342 45.6006 196.378 45.6006 201.357C45.6006 206.337 86.5233 210.373 137.004 210.373Z" fill="white"/>
</mask>
<g mask="url(#mask14_878_469)">
<path d="M134.556 212.52C162.368 212.52 184.915 210.053 184.915 207.011C184.915 203.968 162.368 201.501 134.556 201.501C106.744 201.501 84.1973 203.968 84.1973 207.011C84.1973 210.053 106.744 212.52 134.556 212.52Z" fill="url(#paint25_radial_878_469)"/>
</g>
<path d="M243.953 153.274C243.953 147.478 196.041 142.756 137 142.756C77.9587 142.756 30.0469 147.478 30.0469 153.274C30.0469 153.489 30.1258 153.703 30.2837 153.99L44.0179 194.131C44.0179 194.131 43.9389 203.29 133.764 203.29C223.588 203.29 230.061 194.131 230.061 194.131L243.795 153.99C243.874 153.775 243.953 153.56 243.953 153.274Z" fill="url(#paint26_linear_878_469)"/>
<path d="M137 163.792C196.068 163.792 243.953 159.083 243.953 153.274C243.953 147.465 196.068 142.756 137 142.756C77.9314 142.756 30.0469 147.465 30.0469 153.274C30.0469 159.083 77.9314 163.792 137 163.792Z" fill="url(#paint27_linear_878_469)"/>
<mask id="mask15_878_469" style="mask-type:luminance" maskUnits="userSpaceOnUse" x="30" y="142" width="214" height="22">
<path d="M137.006 163.792C196.074 163.792 243.959 159.083 243.959 153.274C243.959 147.465 196.074 142.756 137.006 142.756C77.9372 142.756 30.0527 147.465 30.0527 153.274C30.0527 159.083 77.9372 163.792 137.006 163.792Z" fill="white"/>
</mask>
<g mask="url(#mask15_878_469)">
<path d="M137.005 169.445C196.073 169.445 243.958 164.736 243.958 158.927C243.958 153.117 196.073 148.408 137.005 148.408C77.9362 148.408 30.0518 153.117 30.0518 158.927C30.0518 164.736 77.9362 169.445 137.005 169.445Z" fill="url(#paint28_linear_878_469)"/>
</g>
<mask id="mask16_878_469" style="mask-type:luminance" maskUnits="userSpaceOnUse" x="30" y="142" width="214" height="22">
<path d="M137.006 163.792C196.074 163.792 243.959 159.083 243.959 153.274C243.959 147.465 196.074 142.756 137.006 142.756C77.9372 142.756 30.0527 147.465 30.0527 153.274C30.0527 159.083 77.9372 163.792 137.006 163.792Z" fill="white"/>
</mask>
<g mask="url(#mask16_878_469)">
<path d="M137.003 169.231C164.772 169.231 187.283 167.02 187.283 164.294C187.283 161.567 164.772 159.356 137.003 159.356C109.235 159.356 86.7236 161.567 86.7236 164.294C86.7236 167.02 109.235 169.231 137.003 169.231Z" fill="url(#paint29_linear_878_469)"/>
</g>
<path d="M262.737 97.9637C262.737 91.0946 206.459 85.585 136.998 85.585C67.5382 85.585 11.1807 91.0946 11.1807 97.9637C11.1807 98.2499 11.2596 98.5361 11.4964 98.7508L27.5985 145.904C27.5985 145.904 27.4407 156.637 133.131 156.637C238.821 156.637 246.319 145.904 246.319 145.904L262.422 98.7508C262.658 98.4645 262.737 98.1783 262.737 97.9637Z" fill="url(#paint30_linear_878_469)"/>
<path d="M137 110.342C206.443 110.342 262.738 104.8 262.738 97.9637C262.738 91.1271 206.443 85.585 137 85.585C67.5559 85.585 11.2607 91.1271 11.2607 97.9637C11.2607 104.8 67.5559 110.342 137 110.342Z" fill="url(#paint31_linear_878_469)"/>
<mask id="mask17_878_469" style="mask-type:luminance" maskUnits="userSpaceOnUse" x="11" y="85" width="252" height="26">
<path d="M136.999 110.342C206.442 110.342 262.737 104.8 262.737 97.9637C262.737 91.1271 206.442 85.585 136.999 85.585C67.555 85.585 11.2598 91.1271 11.2598 97.9637C11.2598 104.8 67.555 110.342 136.999 110.342Z" fill="white"/>
</mask>
<g mask="url(#mask17_878_469)">
<path d="M137 116.997C206.443 116.997 262.738 111.455 262.738 104.618C262.738 97.7814 206.443 92.2393 137 92.2393C67.5559 92.2393 11.2607 97.7814 11.2607 104.618C11.2607 111.455 67.5559 116.997 137 116.997Z" fill="url(#paint32_linear_878_469)"/>
</g>
<mask id="mask18_878_469" style="mask-type:luminance" maskUnits="userSpaceOnUse" x="11" y="85" width="252" height="26">
<path d="M136.999 110.342C206.442 110.342 262.737 104.8 262.737 97.9637C262.737 91.1271 206.442 85.585 136.999 85.585C67.555 85.585 11.2598 91.1271 11.2598 97.9637C11.2598 104.8 67.555 110.342 136.999 110.342Z" fill="white"/>
</mask>
<g mask="url(#mask18_878_469)">
<path d="M136.998 116.711C169.606 116.711 196.039 114.116 196.039 110.915C196.039 107.714 169.606 105.119 136.998 105.119C104.391 105.119 77.957 107.714 77.957 110.915C77.957 114.116 104.391 116.711 136.998 116.711Z" fill="url(#paint33_linear_878_469)"/>
</g>
<path d="M228.875 201.429C228.875 196.42 187.751 192.413 136.919 192.413C86.0867 192.413 45.042 196.42 45.042 201.429C45.042 201.643 45.1209 201.858 45.2788 202.001L57.0397 236.49C57.0397 236.49 56.9607 244.361 134.156 244.361C211.352 244.361 216.877 236.49 216.877 236.49L228.638 202.001C228.796 201.858 228.875 201.643 228.875 201.429Z" fill="url(#paint34_linear_878_469)"/>
<path d="M136.998 210.445C187.784 210.445 228.954 206.408 228.954 201.429C228.954 196.45 187.784 192.413 136.998 192.413C86.2121 192.413 45.042 196.45 45.042 201.429C45.042 206.408 86.2121 210.445 136.998 210.445Z" fill="url(#paint35_linear_878_469)"/>
<mask id="mask19_878_469" style="mask-type:luminance" maskUnits="userSpaceOnUse" x="45" y="192" width="184" height="19">
<path d="M136.993 210.445C187.779 210.445 228.949 206.408 228.949 201.429C228.949 196.45 187.779 192.413 136.993 192.413C86.2072 192.413 45.0371 196.45 45.0371 201.429C45.0371 206.408 86.2072 210.445 136.993 210.445Z" fill="white"/>
</mask>
<g mask="url(#mask19_878_469)">
<path d="M136.994 215.668C187.78 215.668 228.95 211.632 228.95 206.652C228.95 201.673 187.78 197.637 136.994 197.637C86.2081 197.637 45.0381 201.673 45.0381 206.652C45.0381 211.632 86.2081 215.668 136.994 215.668Z" fill="url(#paint36_linear_878_469)"/>
</g>
<mask id="mask20_878_469" style="mask-type:luminance" maskUnits="userSpaceOnUse" x="45" y="192" width="184" height="19">
<path d="M136.993 210.445C187.779 210.445 228.949 206.408 228.949 201.429C228.949 196.45 187.779 192.413 136.993 192.413C86.2072 192.413 45.0371 196.45 45.0371 201.429C45.0371 206.408 86.2072 210.445 136.993 210.445Z" fill="white"/>
</mask>
<g mask="url(#mask20_878_469)">
<path d="M136.997 216.168C166.248 216.168 189.96 213.83 189.96 210.945C189.96 208.06 166.248 205.722 136.997 205.722C107.746 205.722 84.0332 208.06 84.0332 210.945C84.0332 213.83 107.746 216.168 136.997 216.168Z" fill="url(#paint37_linear_878_469)"/>
</g>
<mask id="mask21_878_469" style="mask-type:luminance" maskUnits="userSpaceOnUse" x="45" y="192" width="184" height="19">
<path d="M136.993 210.445C187.779 210.445 228.949 206.408 228.949 201.429C228.949 196.45 187.779 192.413 136.993 192.413C86.2072 192.413 45.0371 196.45 45.0371 201.429C45.0371 206.408 86.2072 210.445 136.993 210.445Z" fill="white"/>
</mask>
<g mask="url(#mask21_878_469)">
<path d="M134.074 211.375C167.597 211.375 194.773 208.428 194.773 204.792C194.773 201.156 167.597 198.209 134.074 198.209C100.551 198.209 73.375 201.156 73.375 204.792C73.375 208.428 100.551 211.375 134.074 211.375Z" fill="url(#paint38_radial_878_469)"/>
</g>
<path d="M244.661 152.773C244.661 146.906 196.434 142.184 136.919 142.184C77.4043 142.184 29.1768 146.906 29.1768 152.773C29.1768 152.988 29.2557 153.274 29.4136 153.489L43.2267 193.917C43.2267 193.917 43.1477 203.147 133.604 203.147C224.06 203.147 230.611 193.917 230.611 193.917L244.425 153.489C244.582 153.274 244.661 152.988 244.661 152.773Z" fill="url(#paint39_linear_878_469)"/>
<path d="M136.997 163.363C196.502 163.363 244.74 158.622 244.74 152.773C244.74 146.925 196.502 142.184 136.997 142.184C77.4928 142.184 29.2549 146.925 29.2549 152.773C29.2549 158.622 77.4928 163.363 136.997 163.363Z" fill="url(#paint40_linear_878_469)"/>
<mask id="mask22_878_469" style="mask-type:luminance" maskUnits="userSpaceOnUse" x="29" y="142" width="216" height="22">
<path d="M136.992 163.363C196.497 163.363 244.735 158.622 244.735 152.773C244.735 146.925 196.497 142.184 136.992 142.184C77.4879 142.184 29.25 146.925 29.25 152.773C29.25 158.622 77.4879 163.363 136.992 163.363Z" fill="white"/>
</mask>
<g mask="url(#mask22_878_469)">
<path d="M136.992 169.445C196.497 169.445 244.735 164.704 244.735 158.856C244.735 153.007 196.497 148.266 136.992 148.266C77.4879 148.266 29.25 153.007 29.25 158.856C29.25 164.704 77.4879 169.445 136.992 169.445Z" fill="url(#paint41_linear_878_469)"/>
</g>
<mask id="mask23_878_469" style="mask-type:luminance" maskUnits="userSpaceOnUse" x="29" y="142" width="216" height="22">
<path d="M136.992 163.363C196.497 163.363 244.735 158.622 244.735 152.773C244.735 146.925 196.497 142.184 136.992 142.184C77.4879 142.184 29.25 146.925 29.25 152.773C29.25 158.622 77.4879 163.363 136.992 163.363Z" fill="white"/>
</mask>
<g mask="url(#mask23_878_469)">
<path d="M136.994 170.018C171.258 170.018 199.034 167.295 199.034 163.936C199.034 160.577 171.258 157.854 136.994 157.854C102.73 157.854 74.9531 160.577 74.9531 163.936C74.9531 167.295 102.73 170.018 136.994 170.018Z" fill="url(#paint42_linear_878_469)"/>
</g>
<mask id="mask24_878_469" style="mask-type:luminance" maskUnits="userSpaceOnUse" x="29" y="142" width="216" height="22">
<path d="M136.992 163.363C196.497 163.363 244.735 158.622 244.735 152.773C244.735 146.925 196.497 142.184 136.992 142.184C77.4879 142.184 29.25 146.925 29.25 152.773C29.25 158.622 77.4879 163.363 136.992 163.363Z" fill="white"/>
</mask>
<g mask="url(#mask24_878_469)">
<path d="M133.6 164.437C172.878 164.437 204.718 160.977 204.718 156.709C204.718 152.441 172.878 148.981 133.6 148.981C94.323 148.981 62.4824 152.441 62.4824 156.709C62.4824 160.977 94.323 164.437 133.6 164.437Z" fill="url(#paint43_radial_878_469)"/>
</g>
<path d="M273 91.3804C273 84.0105 212.143 78 137 78C61.8567 78 1 83.9389 1 91.3804C1 91.6667 1.07893 91.9529 1.31572 92.2391L18.7597 143.257C18.7597 143.257 18.6018 154.92 132.896 154.92C247.189 154.92 255.319 143.257 255.319 143.257L272.684 92.2391C272.842 91.9529 273 91.6667 273 91.3804Z" fill="url(#paint44_linear_878_469)"/>
<path d="M137 104.761C212.111 104.761 273 98.7703 273 91.3804C273 83.9906 212.111 78 137 78C61.8893 78 1 83.9906 1 91.3804C1 98.7703 61.8893 104.761 137 104.761Z" fill="url(#paint45_linear_878_469)"/>
<mask id="mask25_878_469" style="mask-type:luminance" maskUnits="userSpaceOnUse" x="1" y="78" width="272" height="27">
<path d="M137 104.761C212.111 104.761 273 98.7703 273 91.3804C273 83.9906 212.111 78 137 78C61.8893 78 1 83.9906 1 91.3804C1 98.7703 61.8893 104.761 137 104.761Z" fill="white"/>
</mask>
<g mask="url(#mask25_878_469)">
<path d="M137 112.488C212.111 112.488 273 106.498 273 99.108C273 91.7182 212.111 85.7275 137 85.7275C61.8893 85.7275 1 91.7182 1 99.108C1 106.498 61.8893 112.488 137 112.488Z" fill="url(#paint46_linear_878_469)"/>
</g>
<mask id="mask26_878_469" style="mask-type:luminance" maskUnits="userSpaceOnUse" x="1" y="78" width="272" height="27">
<path d="M137 104.761C212.111 104.761 273 98.7703 273 91.3804C273 83.9906 212.111 78 137 78C61.8893 78 1 83.9906 1 91.3804C1 98.7703 61.8893 104.761 137 104.761Z" fill="white"/>
</mask>
<g mask="url(#mask26_878_469)">
<path d="M136.999 113.204C180.243 113.204 215.3 109.744 215.3 105.476C215.3 101.208 180.243 97.748 136.999 97.748C93.7546 97.748 58.6982 101.208 58.6982 105.476C58.6982 109.744 93.7546 113.204 136.999 113.204Z" fill="url(#paint47_linear_878_469)"/>
</g>
<mask id="mask27_878_469" style="mask-type:luminance" maskUnits="userSpaceOnUse" x="1" y="78" width="272" height="27">
<path d="M137 104.761C212.111 104.761 273 98.7703 273 91.3804C273 83.9906 212.111 78 137 78C61.8893 78 1 83.9906 1 91.3804C1 98.7703 61.8893 104.761 137 104.761Z" fill="white"/>
</mask>
<g mask="url(#mask27_878_469)">
<path d="M132.738 106.12C182.347 106.12 222.563 101.731 222.563 96.3174C222.563 90.9035 182.347 86.5146 132.738 86.5146C83.129 86.5146 42.9131 90.9035 42.9131 96.3174C42.9131 101.731 83.129 106.12 132.738 106.12Z" fill="url(#paint48_radial_878_469)"/>
</g>
<path d="M2.44744 37V10.8182H19.7827V15.3821H7.98295V21.6207H18.6321V26.1847H7.98295V37H2.44744ZM34.7656 28.6392V17.3636H40.2116V37H34.983V33.4332H34.7784C34.3352 34.5838 33.598 35.5085 32.5668 36.2074C31.544 36.9062 30.2955 37.2557 28.821 37.2557C27.5085 37.2557 26.3537 36.9574 25.3565 36.3608C24.3594 35.7642 23.5795 34.9162 23.017 33.8168C22.4631 32.7173 22.1818 31.4006 22.1733 29.8665V17.3636H27.6193V28.8949C27.6278 30.054 27.9389 30.9702 28.5526 31.6435C29.1662 32.3168 29.9886 32.6534 31.0199 32.6534C31.6761 32.6534 32.2898 32.5043 32.8608 32.206C33.4318 31.8991 33.892 31.4474 34.2415 30.8509C34.5994 30.2543 34.7741 29.517 34.7656 28.6392ZM50.0138 25.6477V37H44.5678V17.3636H49.7582V20.8281H49.9883C50.4229 19.6861 51.1516 18.7827 52.1744 18.1179C53.1971 17.4446 54.4371 17.108 55.8945 17.108C57.2582 17.108 58.4471 17.4062 59.4613 18.0028C60.4755 18.5994 61.2639 19.4517 61.8264 20.5597C62.3889 21.6591 62.6701 22.9716 62.6701 24.4972V37H57.2241V25.4688C57.2326 24.267 56.9258 23.3295 56.3036 22.6562C55.6815 21.9744 54.8249 21.6335 53.734 21.6335C53.0011 21.6335 52.3533 21.7912 51.7908 22.1065C51.2369 22.4219 50.8022 22.8821 50.4869 23.4872C50.18 24.0838 50.0224 24.804 50.0138 25.6477ZM66.9624 37V17.3636H72.4084V37H66.9624ZM69.6982 14.8324C68.8885 14.8324 68.1939 14.5639 67.6143 14.027C67.0433 13.4815 66.7578 12.8295 66.7578 12.071C66.7578 11.321 67.0433 10.6776 67.6143 10.1406C68.1939 9.59517 68.8885 9.32244 69.6982 9.32244C70.5078 9.32244 71.1982 9.59517 71.7692 10.1406C72.3487 10.6776 72.6385 11.321 72.6385 12.071C72.6385 12.8295 72.3487 13.4815 71.7692 14.027C71.1982 14.5639 70.5078 14.8324 69.6982 14.8324ZM82.217 10.8182V37H76.771V10.8182H82.217ZM102.147 37.3196C100.656 37.3196 99.305 36.9361 98.0948 36.169C96.8931 35.3935 95.9386 34.2557 95.2312 32.7557C94.5323 31.2472 94.1829 29.3977 94.1829 27.2074C94.1829 24.9574 94.5451 23.0866 95.2695 21.5952C95.994 20.0952 96.957 18.9744 98.1587 18.233C99.369 17.483 100.694 17.108 102.135 17.108C103.234 17.108 104.15 17.2955 104.883 17.6705C105.625 18.0369 106.221 18.4972 106.673 19.0511C107.133 19.5966 107.483 20.1335 107.721 20.6619H107.887V10.8182H113.321V37H107.951V33.8551H107.721C107.466 34.4006 107.103 34.9418 106.635 35.4787C106.174 36.0071 105.574 36.446 104.832 36.7955C104.099 37.1449 103.204 37.3196 102.147 37.3196ZM103.873 32.9858C104.751 32.9858 105.493 32.7472 106.098 32.2699C106.711 31.7841 107.18 31.1065 107.504 30.2372C107.836 29.3679 108.002 28.3494 108.002 27.1818C108.002 26.0142 107.841 25 107.517 24.1392C107.193 23.2784 106.724 22.6136 106.11 22.1449C105.497 21.6761 104.751 21.4418 103.873 21.4418C102.978 21.4418 102.224 21.6847 101.61 22.1705C100.997 22.6562 100.532 23.3295 100.217 24.1903C99.9016 25.0511 99.744 26.0483 99.744 27.1818C99.744 28.3239 99.9016 29.3338 100.217 30.2116C100.541 31.081 101.005 31.7628 101.61 32.2571C102.224 32.7429 102.978 32.9858 103.873 32.9858ZM126.747 37.3835C124.727 37.3835 122.989 36.9744 121.531 36.1562C120.082 35.3295 118.966 34.1619 118.182 32.6534C117.398 31.1364 117.006 29.3423 117.006 27.2713C117.006 25.2514 117.398 23.4787 118.182 21.9531C118.966 20.4276 120.07 19.2386 121.493 18.3864C122.925 17.5341 124.604 17.108 126.53 17.108C127.825 17.108 129.031 17.3168 130.148 17.7344C131.273 18.1435 132.253 18.7614 133.088 19.5881C133.932 20.4148 134.588 21.4545 135.057 22.7074C135.526 23.9517 135.76 25.4091 135.76 27.0795V28.5753H119.179V25.2003H130.634C130.634 24.4162 130.463 23.7216 130.122 23.1165C129.781 22.5114 129.308 22.0384 128.703 21.6974C128.107 21.348 127.412 21.1733 126.619 21.1733C125.793 21.1733 125.06 21.3651 124.42 21.7486C123.79 22.1236 123.295 22.6307 122.938 23.2699C122.58 23.9006 122.396 24.6037 122.388 25.3793V28.5881C122.388 29.5597 122.567 30.3991 122.925 31.1065C123.291 31.8139 123.807 32.3594 124.472 32.7429C125.136 33.1264 125.925 33.3182 126.837 33.3182C127.442 33.3182 127.996 33.233 128.499 33.0625C129.001 32.892 129.432 32.6364 129.79 32.2955C130.148 31.9545 130.42 31.5369 130.608 31.0426L135.645 31.375C135.389 32.5852 134.865 33.642 134.072 34.5455C133.288 35.4403 132.274 36.1392 131.03 36.642C129.794 37.1364 128.366 37.3835 126.747 37.3835ZM165.953 17.3636L159.088 37H152.951L146.086 17.3636H151.839L155.917 31.4134H156.122L160.187 17.3636H165.953ZM177.056 37.3835C175.036 37.3835 173.297 36.9744 171.84 36.1562C170.391 35.3295 169.275 34.1619 168.49 32.6534C167.706 31.1364 167.314 29.3423 167.314 27.2713C167.314 25.2514 167.706 23.4787 168.49 21.9531C169.275 20.4276 170.378 19.2386 171.801 18.3864C173.233 17.5341 174.912 17.108 176.838 17.108C178.134 17.108 179.34 17.3168 180.456 17.7344C181.581 18.1435 182.561 18.7614 183.397 19.5881C184.24 20.4148 184.897 21.4545 185.365 22.7074C185.834 23.9517 186.069 25.4091 186.069 27.0795V28.5753H169.488V25.2003H180.942C180.942 24.4162 180.772 23.7216 180.431 23.1165C180.09 22.5114 179.617 22.0384 179.012 21.6974C178.415 21.348 177.721 21.1733 176.928 21.1733C176.101 21.1733 175.368 21.3651 174.729 21.7486C174.098 22.1236 173.604 22.6307 173.246 23.2699C172.888 23.9006 172.705 24.6037 172.696 25.3793V28.5881C172.696 29.5597 172.875 30.3991 173.233 31.1065C173.6 31.8139 174.115 32.3594 174.78 32.7429C175.445 33.1264 176.233 33.3182 177.145 33.3182C177.75 33.3182 178.304 33.233 178.807 33.0625C179.31 32.892 179.74 32.6364 180.098 32.2955C180.456 31.9545 180.729 31.5369 180.917 31.0426L185.953 31.375C185.698 32.5852 185.174 33.642 184.381 34.5455C183.597 35.4403 182.583 36.1392 181.338 36.642C180.103 37.1364 178.675 37.3835 177.056 37.3835ZM195.069 25.6477V37H189.623V17.3636H194.813V20.8281H195.043C195.478 19.6861 196.206 18.7827 197.229 18.1179C198.252 17.4446 199.492 17.108 200.949 17.108C202.313 17.108 203.502 17.4062 204.516 18.0028C205.53 18.5994 206.319 19.4517 206.881 20.5597C207.444 21.6591 207.725 22.9716 207.725 24.4972V37H202.279V25.4688C202.287 24.267 201.98 23.3295 201.358 22.6562C200.736 21.9744 199.88 21.6335 198.789 21.6335C198.056 21.6335 197.408 21.7912 196.846 22.1065C196.292 22.4219 195.857 22.8821 195.542 23.4872C195.235 24.0838 195.077 24.804 195.069 25.6477ZM219.253 37.3196C217.761 37.3196 216.411 36.9361 215.2 36.169C213.999 35.3935 213.044 34.2557 212.337 32.7557C211.638 31.2472 211.288 29.3977 211.288 27.2074C211.288 24.9574 211.651 23.0866 212.375 21.5952C213.099 20.0952 214.063 18.9744 215.264 18.233C216.474 17.483 217.8 17.108 219.24 17.108C220.339 17.108 221.256 17.2955 221.989 17.6705C222.73 18.0369 223.327 18.4972 223.778 19.0511C224.239 19.5966 224.588 20.1335 224.827 20.6619H224.993V10.8182H230.426V37H225.057V33.8551H224.827C224.571 34.4006 224.209 34.9418 223.74 35.4787C223.28 36.0071 222.679 36.446 221.938 36.7955C221.205 37.1449 220.31 37.3196 219.253 37.3196ZM220.979 32.9858C221.857 32.9858 222.598 32.7472 223.203 32.2699C223.817 31.7841 224.286 31.1065 224.609 30.2372C224.942 29.3679 225.108 28.3494 225.108 27.1818C225.108 26.0142 224.946 25 224.622 24.1392C224.298 23.2784 223.83 22.6136 223.216 22.1449C222.602 21.6761 221.857 21.4418 220.979 21.4418C220.084 21.4418 219.33 21.6847 218.716 22.1705C218.102 22.6562 217.638 23.3295 217.322 24.1903C217.007 25.0511 216.849 26.0483 216.849 27.1818C216.849 28.3239 217.007 29.3338 217.322 30.2116C217.646 31.081 218.111 31.7628 218.716 32.2571C219.33 32.7429 220.084 32.9858 220.979 32.9858ZM240.503 37.3707C239.25 37.3707 238.134 37.1534 237.154 36.7188C236.174 36.2756 235.398 35.6236 234.827 34.7628C234.265 33.8935 233.983 32.8111 233.983 31.5156C233.983 30.4247 234.184 29.5085 234.584 28.767C234.985 28.0256 235.53 27.429 236.221 26.9773C236.911 26.5256 237.695 26.1847 238.573 25.9545C239.459 25.7244 240.388 25.5625 241.36 25.4688C242.502 25.3494 243.422 25.2386 244.121 25.1364C244.82 25.0256 245.327 24.8636 245.642 24.6506C245.958 24.4375 246.115 24.1222 246.115 23.7045V23.6278C246.115 22.8182 245.86 22.1918 245.348 21.7486C244.846 21.3054 244.13 21.0838 243.201 21.0838C242.221 21.0838 241.441 21.3011 240.861 21.7358C240.282 22.1619 239.898 22.6989 239.711 23.3466L234.674 22.9375C234.929 21.7443 235.432 20.7131 236.182 19.8438C236.932 18.9659 237.9 18.2926 239.084 17.8239C240.277 17.3466 241.658 17.108 243.226 17.108C244.317 17.108 245.361 17.2358 246.358 17.4915C247.364 17.7472 248.255 18.1435 249.03 18.6804C249.814 19.2173 250.432 19.9077 250.884 20.7514C251.336 21.5866 251.561 22.5881 251.561 23.7557V37H246.397V34.277H246.243C245.928 34.8906 245.506 35.4318 244.978 35.9006C244.449 36.3608 243.814 36.723 243.073 36.9872C242.331 37.2429 241.475 37.3707 240.503 37.3707ZM242.063 33.6122C242.864 33.6122 243.571 33.4545 244.185 33.1392C244.799 32.8153 245.28 32.3807 245.63 31.8352C245.979 31.2898 246.154 30.6719 246.154 29.9815V27.8977C245.983 28.0085 245.749 28.1108 245.451 28.2045C245.161 28.2898 244.833 28.3707 244.466 28.4474C244.1 28.5156 243.733 28.5795 243.367 28.6392C243 28.6903 242.668 28.7372 242.37 28.7798C241.73 28.8736 241.172 29.0227 240.695 29.2273C240.218 29.4318 239.847 29.7088 239.583 30.0582C239.319 30.3991 239.186 30.8253 239.186 31.3366C239.186 32.0781 239.455 32.6449 239.992 33.0369C240.537 33.4205 241.228 33.6122 242.063 33.6122ZM272.125 22.9631L267.139 23.2699C267.054 22.8437 266.87 22.4602 266.589 22.1193C266.308 21.7699 265.937 21.4929 265.477 21.2884C265.025 21.0753 264.484 20.9688 263.853 20.9688C263.01 20.9688 262.298 21.1477 261.718 21.5057C261.139 21.8551 260.849 22.3239 260.849 22.9119C260.849 23.3807 261.037 23.777 261.412 24.1009C261.787 24.4247 262.43 24.6847 263.342 24.8807L266.896 25.5966C268.805 25.9886 270.228 26.6193 271.166 27.4886C272.103 28.358 272.572 29.5 272.572 30.9148C272.572 32.2017 272.193 33.331 271.434 34.3026C270.684 35.2741 269.653 36.0327 268.341 36.5781C267.037 37.1151 265.532 37.3835 263.828 37.3835C261.228 37.3835 259.157 36.8423 257.615 35.7599C256.081 34.669 255.181 33.1861 254.917 31.3111L260.274 31.0298C260.436 31.8224 260.828 32.4276 261.45 32.8452C262.072 33.2543 262.869 33.4588 263.841 33.4588C264.795 33.4588 265.562 33.2756 266.142 32.9091C266.73 32.5341 267.028 32.0526 267.037 31.4645C267.028 30.9702 266.819 30.5653 266.41 30.25C266.001 29.9261 265.37 29.679 264.518 29.5085L261.118 28.831C259.2 28.4474 257.772 27.7827 256.835 26.8366C255.906 25.8906 255.441 24.6847 255.441 23.2188C255.441 21.9574 255.782 20.8707 256.464 19.9588C257.154 19.0469 258.122 18.3438 259.366 17.8494C260.619 17.3551 262.085 17.108 263.764 17.108C266.244 17.108 268.196 17.6321 269.619 18.6804C271.051 19.7287 271.886 21.1562 272.125 22.9631Z" fill="#456573"/>
<defs>
<linearGradient id="paint0_linear_878_469" x1="118.884" y1="352.481" x2="188.507" y2="352.481" gradientUnits="userSpaceOnUse">
<stop stop-color="#32B9B3"/>
<stop offset="0.9892" stop-color="#008187"/>
</linearGradient>
<linearGradient id="paint1_linear_878_469" x1="169.559" y1="344.272" x2="106.995" y2="344.272" gradientUnits="userSpaceOnUse">
<stop stop-color="#32B9B3"/>
<stop offset="0.9892" stop-color="#008187"/>
</linearGradient>
<linearGradient id="paint2_linear_878_469" x1="97.8224" y1="346.797" x2="163.121" y2="346.797" gradientUnits="userSpaceOnUse">
<stop stop-color="#32B9B3"/>
<stop offset="0.9892" stop-color="#008187"/>
</linearGradient>
<linearGradient id="paint3_linear_878_469" x1="121.603" y1="348.897" x2="139.491" y2="348.897" gradientUnits="userSpaceOnUse">
<stop stop-color="#32B9B3"/>
<stop offset="0.9892" stop-color="#007176"/>
</linearGradient>
<radialGradient id="paint4_radial_878_469" cx="0" cy="0" r="1" gradientUnits="userSpaceOnUse" gradientTransform="translate(135.582 345.892) scale(29.411 3.19938)">
<stop offset="0.00537634" stop-color="#5B7185"/>
<stop offset="0.1294" stop-color="#677B8E" stop-opacity="0.8753"/>
<stop offset="0.354" stop-color="#8797A6" stop-opacity="0.6495"/>
<stop offset="0.6535" stop-color="#BBC4CC" stop-opacity="0.3484"/>
<stop offset="1" stop-color="white" stop-opacity="0"/>
</radialGradient>
<linearGradient id="paint5_linear_878_469" x1="114.607" y1="323.448" x2="200.683" y2="323.448" gradientUnits="userSpaceOnUse">
<stop stop-color="#32B9B3"/>
<stop offset="0.9892" stop-color="#008187"/>
</linearGradient>
<linearGradient id="paint6_linear_878_469" x1="177.257" y1="313.298" x2="99.9076" y2="313.298" gradientUnits="userSpaceOnUse">
<stop stop-color="#32B9B3"/>
<stop offset="0.9892" stop-color="#008187"/>
</linearGradient>
<linearGradient id="paint7_linear_878_469" x1="88.5601" y1="316.42" x2="169.291" y2="316.42" gradientUnits="userSpaceOnUse">
<stop stop-color="#32B9B3"/>
<stop offset="0.9892" stop-color="#008187"/>
</linearGradient>
<linearGradient id="paint8_linear_878_469" x1="117.964" y1="319.015" x2="140.078" y2="319.015" gradientUnits="userSpaceOnUse">
<stop stop-color="#32B9B3"/>
<stop offset="0.9892" stop-color="#007176"/>
</linearGradient>
<radialGradient id="paint9_radial_878_469" cx="0" cy="0" r="1" gradientUnits="userSpaceOnUse" gradientTransform="translate(135.246 315.3) scale(36.3616 3.95548)">
<stop offset="0.00537634" stop-color="#5B7185"/>
<stop offset="0.1294" stop-color="#677B8E" stop-opacity="0.8753"/>
<stop offset="0.354" stop-color="#8797A6" stop-opacity="0.6495"/>
<stop offset="0.6535" stop-color="#BBC4CC" stop-opacity="0.3484"/>
<stop offset="1" stop-color="white" stop-opacity="0"/>
</radialGradient>
<linearGradient id="paint10_linear_878_469" x1="110.741" y1="292.774" x2="211.703" y2="292.774" gradientUnits="userSpaceOnUse">
<stop stop-color="#32B9B3"/>
<stop offset="0.9892" stop-color="#008187"/>
</linearGradient>
<linearGradient id="paint11_linear_878_469" x1="184.226" y1="280.869" x2="93.5005" y2="280.869" gradientUnits="userSpaceOnUse">
<stop stop-color="#32B9B3"/>
<stop offset="0.9892" stop-color="#008187"/>
</linearGradient>
<linearGradient id="paint12_linear_878_469" x1="80.1967" y1="284.531" x2="174.889" y2="284.531" gradientUnits="userSpaceOnUse">
<stop stop-color="#32B9B3"/>
<stop offset="0.9892" stop-color="#008187"/>
</linearGradient>
<linearGradient id="paint13_linear_878_469" x1="114.679" y1="287.575" x2="140.618" y2="287.575" gradientUnits="userSpaceOnUse">
<stop stop-color="#32B9B3"/>
<stop offset="0.9892" stop-color="#007176"/>
</linearGradient>
<radialGradient id="paint14_radial_878_469" cx="0" cy="0" r="1" gradientUnits="userSpaceOnUse" gradientTransform="translate(134.952 283.217) scale(42.6497 4.63952)">
<stop offset="0.00537634" stop-color="#5B7185"/>
<stop offset="0.1294" stop-color="#677B8E" stop-opacity="0.8753"/>
<stop offset="0.354" stop-color="#8797A6" stop-opacity="0.6495"/>
<stop offset="0.6535" stop-color="#BBC4CC" stop-opacity="0.3484"/>
<stop offset="1" stop-color="white" stop-opacity="0"/>
</radialGradient>
<radialGradient id="paint15_radial_878_469" cx="0" cy="0" r="1" gradientUnits="userSpaceOnUse" gradientTransform="translate(136.887 314.762) scale(50.322 5.47412)">
<stop offset="0.00537634" stop-color="#536E75"/>
<stop offset="0.1248" stop-color="#5F787F" stop-opacity="0.8799"/>
<stop offset="0.3411" stop-color="#7F9398" stop-opacity="0.6625"/>
<stop offset="0.6296" stop-color="#B3BFC2" stop-opacity="0.3724"/>
<stop offset="0.9759" stop-color="#FAFBFB" stop-opacity="0.0242583"/>
<stop offset="1" stop-color="white" stop-opacity="0"/>
</radialGradient>
<linearGradient id="paint16_linear_878_469" x1="106.027" y1="258.051" x2="225.151" y2="258.051" gradientUnits="userSpaceOnUse">
<stop stop-color="#32B9B3"/>
<stop offset="0.9892" stop-color="#008187"/>
</linearGradient>
<linearGradient id="paint17_linear_878_469" x1="192.731" y1="244.005" x2="85.6852" y2="244.005" gradientUnits="userSpaceOnUse">
<stop stop-color="#32B9B3"/>
<stop offset="0.9892" stop-color="#008187"/>
</linearGradient>
<linearGradient id="paint18_linear_878_469" x1="69.9863" y1="248.325" x2="181.712" y2="248.325" gradientUnits="userSpaceOnUse">
<stop stop-color="#32B9B3"/>
<stop offset="0.9892" stop-color="#008187"/>
</linearGradient>
<linearGradient id="paint19_linear_878_469" x1="110.675" y1="251.917" x2="141.281" y2="251.917" gradientUnits="userSpaceOnUse">
<stop stop-color="#32B9B3"/>
<stop offset="0.9892" stop-color="#007176"/>
</linearGradient>
<radialGradient id="paint20_radial_878_469" cx="0" cy="0" r="1" gradientUnits="userSpaceOnUse" gradientTransform="translate(134.594 246.776) scale(50.3218 5.4741)">
<stop offset="0.00537634" stop-color="#5B7185"/>
<stop offset="0.1294" stop-color="#677B8E" stop-opacity="0.8753"/>
<stop offset="0.354" stop-color="#8797A6" stop-opacity="0.6495"/>
<stop offset="0.6535" stop-color="#BBC4CC" stop-opacity="0.3484"/>
<stop offset="1" stop-color="white" stop-opacity="0"/>
</radialGradient>
<linearGradient id="paint21_linear_878_469" x1="206.357" y1="218.22" x2="4.1594" y2="218.22" gradientUnits="userSpaceOnUse">
<stop stop-color="#EF3824"/>
<stop offset="0.9946" stop-color="#FBB61E"/>
</linearGradient>
<linearGradient id="paint22_linear_878_469" x1="202.953" y1="201.376" x2="69.6969" y2="201.376" gradientUnits="userSpaceOnUse">
<stop stop-color="#EF3824"/>
<stop offset="0.9946" stop-color="#FBB61E"/>
</linearGradient>
<linearGradient id="paint23_linear_878_469" x1="56.2468" y1="205.932" x2="249.281" y2="205.932" gradientUnits="userSpaceOnUse">
<stop stop-color="#EF3824"/>
<stop offset="0.9946" stop-color="#FBB61E"/>
</linearGradient>
<linearGradient id="paint24_linear_878_469" x1="114.378" y1="211.046" x2="169.399" y2="211.046" gradientUnits="userSpaceOnUse">
<stop offset="0.00537634" stop-color="#FBB61E"/>
<stop offset="1" stop-color="#98080D"/>
</linearGradient>
<radialGradient id="paint25_radial_878_469" cx="0" cy="0" r="1" gradientUnits="userSpaceOnUse" gradientTransform="translate(134.591 207.004) scale(50.3218 5.4741)">
<stop offset="0.00537634" stop-color="#BC4E23"/>
<stop offset="0.1037" stop-color="#C0582F" stop-opacity="0.9012"/>
<stop offset="0.2816" stop-color="#C9714F" stop-opacity="0.7222"/>
<stop offset="0.5191" stop-color="#D99B83" stop-opacity="0.4835"/>
<stop offset="0.8035" stop-color="#EFD4CA" stop-opacity="0.1976"/>
<stop offset="1" stop-color="white" stop-opacity="0"/>
</radialGradient>
<linearGradient id="paint26_linear_878_469" x1="29.9907" y1="173.016" x2="243.941" y2="173.016" gradientUnits="userSpaceOnUse">
<stop stop-color="#E0539E"/>
<stop offset="0.9892" stop-color="#A4238E"/>
</linearGradient>
<linearGradient id="paint27_linear_878_469" x1="52.8909" y1="153.297" x2="219.176" y2="153.297" gradientUnits="userSpaceOnUse">
<stop stop-color="#E0539E"/>
<stop offset="0.9892" stop-color="#A4238E"/>
</linearGradient>
<linearGradient id="paint28_linear_878_469" x1="206.696" y1="158.954" x2="38.4712" y2="158.954" gradientUnits="userSpaceOnUse">
<stop stop-color="#E0539E"/>
<stop offset="0.9892" stop-color="#A4238E"/>
</linearGradient>
<linearGradient id="paint29_linear_878_469" x1="123.813" y1="174.095" x2="150.392" y2="150.037" gradientUnits="userSpaceOnUse">
<stop stop-color="#E0539E"/>
<stop offset="0.9892" stop-color="#A4238E"/>
</linearGradient>
<linearGradient id="paint30_linear_878_469" x1="11.1958" y1="121.121" x2="262.733" y2="121.121" gradientUnits="userSpaceOnUse">
<stop stop-color="#00628B"/>
<stop offset="0.9892" stop-color="#000E1F"/>
</linearGradient>
<linearGradient id="paint31_linear_878_469" x1="38.1202" y1="97.9377" x2="233.618" y2="97.9377" gradientUnits="userSpaceOnUse">
<stop stop-color="#009FE3"/>
<stop offset="0.9892" stop-color="#000E1F"/>
</linearGradient>
<linearGradient id="paint32_linear_878_469" x1="218.94" y1="104.588" x2="21.1616" y2="104.588" gradientUnits="userSpaceOnUse">
<stop stop-color="#009FE3"/>
<stop offset="0.9892" stop-color="#000E1F"/>
</linearGradient>
<linearGradient id="paint33_linear_878_469" x1="121.497" y1="122.389" x2="152.745" y2="94.1054" gradientUnits="userSpaceOnUse">
<stop stop-color="#009FE3"/>
<stop offset="0.9892" stop-color="#000E1F"/>
</linearGradient>
<linearGradient id="paint34_linear_878_469" x1="99.6349" y1="218.375" x2="243.35" y2="218.375" gradientUnits="userSpaceOnUse">
<stop stop-color="#32B9B3"/>
<stop offset="0.9892" stop-color="#008187"/>
</linearGradient>
<linearGradient id="paint35_linear_878_469" x1="204.238" y1="201.43" x2="75.0936" y2="201.43" gradientUnits="userSpaceOnUse">
<stop stop-color="#32B9B3"/>
<stop offset="0.9892" stop-color="#008187"/>
</linearGradient>
<linearGradient id="paint36_linear_878_469" x1="56.1453" y1="206.642" x2="190.936" y2="206.642" gradientUnits="userSpaceOnUse">
<stop stop-color="#32B9B3"/>
<stop offset="0.9892" stop-color="#008187"/>
</linearGradient>
<linearGradient id="paint37_linear_878_469" x1="105.237" y1="210.975" x2="142.16" y2="210.975" gradientUnits="userSpaceOnUse">
<stop stop-color="#32B9B3"/>
<stop offset="0.9892" stop-color="#007176"/>
</linearGradient>
<radialGradient id="paint38_radial_878_469" cx="0" cy="0" r="1" gradientUnits="userSpaceOnUse" gradientTransform="translate(134.091 204.772) scale(60.7103 6.60418)">
<stop offset="0.00537634" stop-color="#5B7185"/>
<stop offset="0.1294" stop-color="#677B8E" stop-opacity="0.8753"/>
<stop offset="0.354" stop-color="#8797A6" stop-opacity="0.6495"/>
<stop offset="0.6535" stop-color="#BBC4CC" stop-opacity="0.3484"/>
<stop offset="1" stop-color="white" stop-opacity="0"/>
</radialGradient>
<linearGradient id="paint39_linear_878_469" x1="93.2208" y1="172.64" x2="261.631" y2="172.64" gradientUnits="userSpaceOnUse">
<stop stop-color="#32B9B3"/>
<stop offset="0.9892" stop-color="#008187"/>
</linearGradient>
<linearGradient id="paint40_linear_878_469" x1="215.797" y1="152.783" x2="64.4618" y2="152.783" gradientUnits="userSpaceOnUse">
<stop stop-color="#32B9B3"/>
<stop offset="0.9892" stop-color="#008187"/>
</linearGradient>
<linearGradient id="paint41_linear_878_469" x1="42.2573" y1="158.891" x2="200.209" y2="158.891" gradientUnits="userSpaceOnUse">
<stop stop-color="#32B9B3"/>
<stop offset="0.9892" stop-color="#008187"/>
</linearGradient>
<linearGradient id="paint42_linear_878_469" x1="99.7826" y1="163.968" x2="143.051" y2="163.968" gradientUnits="userSpaceOnUse">
<stop stop-color="#32B9B3"/>
<stop offset="0.9892" stop-color="#007176"/>
</linearGradient>
<radialGradient id="paint43_radial_878_469" cx="0" cy="0" r="1" gradientUnits="userSpaceOnUse" gradientTransform="translate(133.598 156.7) scale(71.1421 7.73898)">
<stop offset="0.00537634" stop-color="#5B7185"/>
<stop offset="0.1294" stop-color="#677B8E" stop-opacity="0.8753"/>
<stop offset="0.354" stop-color="#8797A6" stop-opacity="0.6495"/>
<stop offset="0.6535" stop-color="#BBC4CC" stop-opacity="0.3484"/>
<stop offset="1" stop-color="white" stop-opacity="0"/>
</radialGradient>
<linearGradient id="paint44_linear_878_469" x1="81.742" y1="116.436" x2="294.353" y2="116.436" gradientUnits="userSpaceOnUse">
<stop stop-color="#32B9B3"/>
<stop offset="0.9892" stop-color="#008187"/>
</linearGradient>
<linearGradient id="paint45_linear_878_469" x1="236.491" y1="91.3669" x2="45.436" y2="91.3669" gradientUnits="userSpaceOnUse">
<stop stop-color="#32B9B3"/>
<stop offset="0.9892" stop-color="#008187"/>
</linearGradient>
<linearGradient id="paint46_linear_878_469" x1="17.4097" y1="99.0779" x2="216.818" y2="99.0779" gradientUnits="userSpaceOnUse">
<stop stop-color="#32B9B3"/>
<stop offset="0.9892" stop-color="#008187"/>
</linearGradient>
<linearGradient id="paint47_linear_878_469" x1="90.0302" y1="105.487" x2="144.655" y2="105.487" gradientUnits="userSpaceOnUse">
<stop stop-color="#32B9B3"/>
<stop offset="0.9892" stop-color="#007176"/>
</linearGradient>
<radialGradient id="paint48_radial_878_469" cx="0" cy="0" r="1" gradientUnits="userSpaceOnUse" gradientTransform="translate(132.722 96.3116) scale(89.8142 9.77016)">
<stop offset="0.00537634" stop-color="#5B7185"/>
<stop offset="0.1294" stop-color="#677B8E" stop-opacity="0.8753"/>
<stop offset="0.354" stop-color="#8797A6" stop-opacity="0.6495"/>
<stop offset="0.6535" stop-color="#BBC4CC" stop-opacity="0.3484"/>
<stop offset="1" stop-color="white" stop-opacity="0"/>
</radialGradient>
</defs>
</svg>
