<svg width="12" height="12" viewBox="0 0 12 12" fill="none" xmlns="http://www.w3.org/2000/svg">
<path d="M12 5.99906C12.0115 9.28885 9.32905 11.9885 6.03543 12C2.70732 12.0115 0.00383615 9.33675 4.13008e-06 6.0278C-0.00382789 2.70161 2.65942 0.00961706 5.96454 3.70243e-05C9.30606 -0.011459 11.9885 2.65562 12 5.99906ZM0.662943 5.91284C0.634203 8.87882 2.98706 11.3083 5.91664 11.3371C8.8807 11.3658 11.3045 9.01294 11.3351 6.07761C11.3658 3.11163 9.01099 0.693632 6.06034 0.66106C3.12118 0.632319 0.691683 2.99476 0.662943 5.91284Z" fill="#456573"/>
<path d="M5.66699 4.04794C5.66699 3.40991 5.66508 2.76996 5.66699 2.13193C5.66699 1.93267 5.77046 1.79663 5.93524 1.76789C6.12109 1.7334 6.2897 1.84645 6.32419 2.0323C6.33377 2.08786 6.33185 2.14534 6.33185 2.20282C6.33185 3.35626 6.33377 4.51161 6.32993 5.66505C6.32993 5.77618 6.36442 5.83174 6.45831 5.88539C7.4508 6.45445 8.44137 7.02733 9.43387 7.60022C9.47027 7.62129 9.50859 7.64237 9.54308 7.66536C9.70977 7.77266 9.75959 7.96234 9.66762 8.11946C9.57565 8.27849 9.38213 8.33213 9.21161 8.23633C8.89738 8.06198 8.58699 7.87996 8.2766 7.69985C7.48145 7.24193 6.68823 6.78017 5.89308 6.32416C5.73022 6.23027 5.66316 6.10382 5.66508 5.91988C5.66891 5.29718 5.66699 4.67256 5.66699 4.04794Z" fill="#456573"/>
</svg>
