<svg width="35" height="35" viewBox="0 0 35 35" fill="none" xmlns="http://www.w3.org/2000/svg">
<circle cx="17.5" cy="17.5" r="17.1" stroke="#456573" stroke-width="0.8"/>
<path d="M11.2803 23.1556C11.2803 19.6418 11.2803 16.168 11.2803 12.6543C11.2271 12.714 11.1939 12.7473 11.1674 12.7871C10.7223 13.3185 10.284 13.8565 9.83229 14.3812C9.75259 14.4742 9.62638 14.5473 9.51347 14.5739C9.32749 14.6203 9.16807 14.5274 9.06844 14.3613C8.97545 14.2019 8.99538 14.0026 9.12158 13.8432C9.38062 13.5244 9.64631 13.2122 9.912 12.8934C10.3836 12.3288 10.8552 11.7642 11.3268 11.1996C11.3467 11.1731 11.3666 11.1531 11.3932 11.1266C11.5991 10.9007 11.898 10.9007 12.0906 11.1332C12.8412 12.0299 13.5918 12.9266 14.3357 13.8299C14.515 14.0491 14.4951 14.3215 14.2958 14.4875C14.0966 14.6469 13.8242 14.6137 13.6449 14.4012C13.1999 13.8698 12.7549 13.3384 12.3098 12.807C12.2766 12.7672 12.2368 12.7273 12.1836 12.6675C12.1836 16.1813 12.1836 19.6551 12.1836 23.1688C12.2368 23.1157 12.27 23.0758 12.3032 23.036C12.7416 22.5113 13.1733 21.9799 13.6183 21.4618C13.698 21.3688 13.8176 21.2891 13.9305 21.2559C14.1099 21.2028 14.3025 21.3024 14.3888 21.4618C14.4885 21.6279 14.4685 21.8271 14.3357 21.9932C14.0833 22.3054 13.8176 22.6109 13.5652 22.9231C13.0737 23.5076 12.5888 24.0921 12.0973 24.6833C11.8781 24.9423 11.5792 24.9489 11.36 24.6899C10.6161 23.7998 9.87214 22.9098 9.12822 22.0197C8.98209 21.8404 8.96217 21.6544 9.0618 21.4817C9.15479 21.3223 9.32749 21.236 9.52011 21.2625C9.67288 21.2825 9.76587 21.3821 9.85222 21.4884C10.2773 22.0065 10.7091 22.5179 11.1408 23.036C11.1807 23.0426 11.2205 23.0825 11.2803 23.1556Z" fill="#456573"/>
<path d="M20.938 10.9541C22.4591 10.9541 23.9802 10.9541 25.4946 10.9541C25.7868 10.9541 25.9795 11.1268 25.9861 11.3859C25.9927 11.625 25.82 11.8243 25.5743 11.8442C25.5278 11.8508 25.4813 11.8442 25.4348 11.8442C22.4392 11.8442 19.4369 11.8442 16.4413 11.8442C16.3616 11.8442 16.2752 11.8442 16.1955 11.8176C15.983 11.7578 15.8568 11.5586 15.8833 11.3394C15.9099 11.1268 16.076 10.9674 16.2885 10.9541C16.3417 10.9475 16.4014 10.9541 16.4546 10.9541C17.9557 10.9541 19.4435 10.9541 20.938 10.9541Z" fill="#456573"/>
<path d="M20.938 24.8498C19.4435 24.8498 17.9557 24.8498 16.4612 24.8498C16.408 24.8498 16.3483 24.8498 16.2951 24.8498C16.0626 24.8299 15.89 24.6506 15.8833 24.4181C15.8767 24.1856 16.0427 23.9863 16.2752 23.9598C16.3151 23.9531 16.3549 23.9531 16.4014 23.9531C19.4302 23.9531 22.4524 23.9531 25.4813 23.9531C25.7602 23.9531 25.9462 24.0926 25.9861 24.3317C26.0259 24.5974 25.8399 24.8299 25.5676 24.8432C25.4215 24.8498 25.2754 24.8432 25.1226 24.8432C23.7277 24.8498 22.3329 24.8498 20.938 24.8498Z" fill="#456573"/>
<path d="M20.938 14.209C22.4591 14.209 23.9802 14.209 25.4946 14.209C25.7736 14.209 25.9529 14.3551 25.9861 14.6009C26.0193 14.8666 25.8333 15.0858 25.5677 15.1057C25.5145 15.1123 25.4547 15.1057 25.4016 15.1057C22.3993 15.1057 19.3971 15.1057 16.3948 15.1057C16.0893 15.1057 15.89 14.9263 15.89 14.6607C15.89 14.4282 16.0627 14.2356 16.2952 14.2156C16.3483 14.209 16.3948 14.2156 16.4479 14.2156C17.9424 14.209 19.4369 14.209 20.938 14.209Z" fill="#456573"/>
<path d="M20.9314 21.595C19.4236 21.595 17.9092 21.595 16.4014 21.5883C16.2885 21.5883 16.1623 21.5551 16.0627 21.4953C15.9033 21.4023 15.8501 21.1964 15.9033 21.0171C15.9498 20.851 16.1092 20.7182 16.2885 20.6983C16.3284 20.6916 16.3749 20.6983 16.4147 20.6983C19.4369 20.6983 22.4591 20.6983 25.4813 20.6983C25.8001 20.6983 25.9994 20.871 25.9927 21.1499C25.9927 21.3824 25.8134 21.575 25.5809 21.5883C25.4547 21.595 25.3285 21.5883 25.209 21.5883C23.7809 21.595 22.3528 21.595 20.9314 21.595Z" fill="#456573"/>
<path d="M20.9248 18.3471C19.4103 18.3471 17.8959 18.3471 16.3815 18.3471C16.0893 18.3471 15.89 18.1677 15.89 17.9021C15.89 17.6696 16.0693 17.477 16.3018 17.457C16.335 17.457 16.3682 17.457 16.4014 17.457C19.4303 17.457 22.4591 17.457 25.4946 17.457C25.8134 17.457 26.0127 17.643 25.9994 17.9286C25.9861 18.1478 25.8201 18.3205 25.6075 18.3404C25.5544 18.3471 25.5079 18.3404 25.4547 18.3404C23.9337 18.3471 22.4259 18.3471 20.9248 18.3471Z" fill="#456573"/>
</svg>
