<svg width="15" height="14" viewBox="0 0 15 14" fill="none" xmlns="http://www.w3.org/2000/svg">
<path d="M9.71671 2.08758C8.24303 2.08758 6.76935 2.08758 5.29567 2.08758C4.83369 2.08758 4.52959 1.81857 4.5179 1.40922C4.5062 0.988166 4.81614 0.684073 5.27813 0.684073C8.24888 0.678226 11.2196 0.678226 14.1845 0.684073C14.6056 0.684073 14.9038 0.935534 14.9448 1.29226C14.9857 1.64313 14.781 1.96477 14.436 2.05834C14.3541 2.08173 14.2664 2.08173 14.1787 2.08173C12.6933 2.08758 11.2021 2.08758 9.71671 2.08758Z" fill="#456573"/>
<path d="M9.71671 13.298C8.22549 13.298 6.74011 13.298 5.24889 13.298C4.82784 13.298 4.52375 13.0173 4.51205 12.6255C4.50036 12.222 4.7986 11.9179 5.2255 11.9004C5.28983 11.9004 5.35415 11.9004 5.42433 11.9004C8.27812 11.9004 11.1319 11.9004 13.9799 11.9004C14.0617 11.9004 14.1378 11.9004 14.2196 11.9004C14.6465 11.9121 14.9506 12.2103 14.9448 12.6138C14.9389 13.0173 14.6348 13.298 14.1962 13.298C12.7109 13.298 11.2138 13.298 9.71671 13.298Z" fill="#456573"/>
<path d="M9.71531 6.28612C11.1948 6.28612 12.6744 6.28612 14.1597 6.28612C14.5925 6.28612 14.8849 6.53758 14.9141 6.9177C14.9434 7.29781 14.7095 7.60191 14.3352 7.66623C14.2416 7.68378 14.1481 7.68378 14.0545 7.68378C11.1656 7.68378 8.27672 7.68378 5.38784 7.68378C5.30597 7.68378 5.2241 7.68378 5.14808 7.67208C4.75626 7.61945 4.5048 7.32121 4.52235 6.93524C4.53989 6.56682 4.82644 6.28612 5.2124 6.28612C6.28258 6.28027 7.3586 6.28612 8.42877 6.28027C8.85567 6.28612 9.28841 6.28612 9.71531 6.28612Z" fill="#456573"/>
<path d="M1.64568 2.78951C0.873754 2.78951 0.236328 2.16963 0.236328 1.41524C0.236328 0.637466 0.862058 4.02857e-05 1.63399 4.02857e-05C2.40591 -0.00580765 3.03749 0.625769 3.03749 1.40354C3.04334 2.16378 2.41761 2.78951 1.64568 2.78951Z" fill="#456573"/>
<path d="M3.03753 12.6144C3.03753 13.3747 2.4001 14.0004 1.63403 14.0004C0.873793 14.0004 0.23052 13.3571 0.236368 12.6086C0.242216 11.8249 0.873793 11.1992 1.63987 11.1992C2.41765 11.1992 3.04338 11.8308 3.03753 12.6144Z" fill="#456573"/>
<path d="M1.66923 5.57849C2.45871 5.59603 3.06104 6.2393 3.03765 7.03462C3.01426 7.78316 2.36514 8.3855 1.61075 8.36795C0.850523 8.35041 0.224794 7.71299 0.236489 6.97614C0.254033 6.18083 0.891458 5.56094 1.66923 5.57849Z" fill="#456573"/>
</svg>
