<svg width="17" height="15" viewBox="0 0 17 15" fill="none" xmlns="http://www.w3.org/2000/svg">
<path d="M2.28029 13.1556C2.28029 9.64184 2.28029 6.16798 2.28029 2.65426C2.22715 2.71404 2.19394 2.74725 2.16737 2.78711C1.72234 3.31848 1.28396 3.8565 0.832292 4.38123C0.752586 4.47422 0.626384 4.54729 0.513467 4.57385C0.327486 4.62035 0.168073 4.52736 0.0684407 4.3613C-0.0245498 4.20189 -0.0046241 4.00263 0.121577 3.84321C0.380623 3.52439 0.646311 3.21221 0.911998 2.89338C1.38359 2.3288 1.85519 1.76421 2.32678 1.19963C2.34671 1.17306 2.36664 1.15313 2.3932 1.12656C2.59911 0.900728 2.89801 0.900728 3.09063 1.1332C3.8412 2.0299 4.59177 2.92659 5.33569 3.82993C5.51503 4.04912 5.4951 4.32145 5.29584 4.48751C5.09657 4.64692 4.82424 4.61371 4.64491 4.40116C4.19988 3.86978 3.75485 3.33841 3.30983 2.80703C3.27661 2.76718 3.23676 2.72733 3.18362 2.66755C3.18362 6.18126 3.18362 9.65512 3.18362 13.1688C3.23676 13.1157 3.26997 13.0758 3.30318 13.036C3.74157 12.5113 4.17331 11.9799 4.61834 11.4618C4.69804 11.3688 4.8176 11.2891 4.93052 11.2559C5.10986 11.2028 5.30248 11.3024 5.38883 11.4618C5.48846 11.6279 5.46854 11.8271 5.33569 11.9932C5.08329 12.3054 4.8176 12.6109 4.5652 12.9231C4.07368 13.5076 3.5888 14.0921 3.09728 14.6833C2.87808 14.9423 2.57919 14.9489 2.35999 14.6899C1.61607 13.7998 0.872145 12.9098 0.12822 12.0197C-0.0179081 11.8404 -0.0378346 11.6544 0.0617981 11.4817C0.154789 11.3223 0.327485 11.236 0.520108 11.2625C0.672879 11.2825 0.765869 11.3821 0.852218 11.4884C1.27732 12.0065 1.70906 12.5179 2.1408 13.036C2.18066 13.0426 2.22051 13.0825 2.28029 13.1556Z" fill="#456573"/>
<path d="M11.9371 0.954124C13.4582 0.954124 14.9792 0.954124 16.4937 0.954124C16.7859 0.954124 16.9785 1.12682 16.9852 1.38587C16.9918 1.62498 16.8191 1.82425 16.5734 1.84418C16.5269 1.85082 16.4804 1.84418 16.4339 1.84418C13.4383 1.84418 10.436 1.84418 7.44036 1.84418C7.36065 1.84418 7.27431 1.84418 7.1946 1.81761C6.98205 1.75783 6.85585 1.55856 6.88242 1.33937C6.90899 1.12682 7.07504 0.967408 7.28759 0.954124C7.34073 0.947482 7.40051 0.954124 7.45364 0.954124C8.95478 0.954124 10.4426 0.954124 11.9371 0.954124Z" fill="#456573"/>
<path d="M11.9377 14.8498C10.4432 14.8498 8.95537 14.8498 7.46087 14.8498C7.40774 14.8498 7.34796 14.8498 7.29482 14.8498C7.06234 14.8299 6.88965 14.6506 6.883 14.4181C6.87636 14.1856 7.04242 13.9863 7.27489 13.9598C7.31475 13.9531 7.3546 13.9531 7.4011 13.9531C10.4299 13.9531 13.4521 13.9531 16.481 13.9531C16.7599 13.9531 16.9459 14.0926 16.9858 14.3317C17.0256 14.5974 16.8396 14.8299 16.5673 14.8432C16.4212 14.8498 16.2751 14.8432 16.1223 14.8432C14.7274 14.8498 13.3326 14.8498 11.9377 14.8498Z" fill="#456573"/>
<path d="M11.9387 4.20898C13.4597 4.20898 14.9808 4.20898 16.4952 4.20898C16.7742 4.20898 16.9535 4.35511 16.9867 4.60087C17.02 4.86656 16.834 5.08575 16.5683 5.10568C16.5151 5.11232 16.4554 5.10568 16.4022 5.10568C13.4 5.10568 10.3977 5.10568 7.39543 5.10568C7.08989 5.10568 6.89062 4.92634 6.89062 4.66065C6.89062 4.42818 7.06332 4.23555 7.2958 4.21563C7.34894 4.20898 7.39543 4.21563 7.44857 4.21563C8.94306 4.20898 10.4375 4.20898 11.9387 4.20898Z" fill="#456573"/>
<path d="M11.9309 11.595C10.4231 11.595 8.90868 11.595 7.4009 11.5883C7.28799 11.5883 7.16178 11.5551 7.06215 11.4953C6.90274 11.4023 6.8496 11.1964 6.90274 11.0171C6.94923 10.851 7.10865 10.7182 7.28799 10.6983C7.32784 10.6916 7.37433 10.6983 7.41419 10.6983C10.4364 10.6983 13.4586 10.6983 16.4808 10.6983C16.7996 10.6983 16.9989 10.871 16.9922 11.1499C16.9922 11.3824 16.8129 11.575 16.5804 11.5883C16.4542 11.595 16.328 11.5883 16.2084 11.5883C14.7804 11.595 13.3523 11.595 11.9309 11.595Z" fill="#456573"/>
<path d="M11.9254 8.34708C10.411 8.34708 8.89656 8.34708 7.38215 8.34708C7.08989 8.34708 6.89062 8.16774 6.89062 7.90206C6.89062 7.66958 7.06996 7.47696 7.30244 7.45703C7.33565 7.45703 7.36886 7.45703 7.40207 7.45703C10.4309 7.45703 13.4597 7.45703 16.4952 7.45703C16.814 7.45703 17.0133 7.64301 17 7.92863C16.9867 8.14782 16.8207 8.32052 16.6081 8.34044C16.555 8.34708 16.5085 8.34044 16.4554 8.34044C14.9343 8.34708 13.4265 8.34708 11.9254 8.34708Z" fill="#456573"/>
</svg>
