<svg width="292" height="62" viewBox="0 0 292 62" fill="none" xmlns="http://www.w3.org/2000/svg">
<path d="M181.029 60.6205C180.428 60.3201 180.027 59.8694 179.777 59.2685L180.328 59.0181C180.528 59.4688 180.829 59.8193 181.329 60.0697C181.83 60.3201 182.481 60.4703 183.283 60.4703C184.334 60.4703 185.085 60.27 185.586 59.9195C186.087 59.5689 186.337 59.0682 186.337 58.4672C186.337 58.0165 186.237 57.666 185.987 57.3655C185.736 57.1151 185.436 56.9149 185.035 56.7646C184.635 56.6144 184.084 56.4641 183.433 56.364C182.631 56.1637 182.031 56.0134 181.58 55.8632C181.129 55.713 180.729 55.4626 180.428 55.1121C180.128 54.7615 179.977 54.3609 179.977 53.8101C179.977 53.3093 180.128 52.8586 180.378 52.458C180.628 52.0574 181.029 51.7068 181.53 51.5065C182.031 51.2561 182.631 51.156 183.283 51.156C184.084 51.156 184.785 51.3062 185.336 51.6567C185.887 52.0073 186.237 52.458 186.487 53.0088L185.886 53.2592C185.736 52.8085 185.436 52.458 184.985 52.1575C184.534 51.9071 183.984 51.7569 183.333 51.7569C182.782 51.7569 182.281 51.857 181.88 52.0574C181.48 52.2577 181.179 52.5081 180.929 52.8085C180.729 53.109 180.628 53.4595 180.628 53.8101C180.628 54.2608 180.779 54.5612 181.029 54.8116C181.279 55.062 181.58 55.2623 181.98 55.3624C182.381 55.5127 182.932 55.6128 183.633 55.8131C184.334 55.9634 184.935 56.1637 185.436 56.3139C185.937 56.5142 186.287 56.7646 186.588 57.1151C186.888 57.4657 187.038 57.9164 187.038 58.5173C187.038 59.3186 186.738 59.9696 186.087 60.4203C185.436 60.921 184.534 61.1213 183.333 61.1213C182.381 61.0712 181.58 60.921 181.029 60.6205Z" fill="#343740"/>
<path d="M193.999 60.4203C193.248 59.9696 192.597 59.3686 192.146 58.6175C191.695 57.8663 191.495 57.015 191.495 56.1136C191.495 55.2122 191.695 54.3609 192.146 53.6097C192.597 52.8586 193.198 52.2577 193.999 51.807C194.75 51.3563 195.601 51.156 196.553 51.156C197.454 51.156 198.306 51.3563 199.107 51.807C199.858 52.2577 200.509 52.8586 200.96 53.6097C201.41 54.3609 201.611 55.2122 201.611 56.1136C201.611 57.015 201.41 57.8663 200.96 58.6175C200.509 59.3686 199.908 59.9696 199.107 60.4203C198.356 60.8709 197.504 61.0713 196.553 61.0713C195.601 61.0713 194.75 60.8709 193.999 60.4203ZM198.756 59.8694C199.407 59.4688 199.958 58.968 200.359 58.2669C200.759 57.6159 200.96 56.8648 200.96 56.0635C200.96 55.2623 200.759 54.5111 200.359 53.8601C199.958 53.2091 199.407 52.6583 198.756 52.2577C198.105 51.8571 197.354 51.6567 196.553 51.6567C195.752 51.6567 195.001 51.8571 194.35 52.2577C193.699 52.6583 193.148 53.2091 192.747 53.8601C192.346 54.5111 192.146 55.2623 192.146 56.0635C192.146 56.8648 192.346 57.6159 192.747 58.2669C193.148 58.9179 193.699 59.4688 194.35 59.8694C195.001 60.27 195.752 60.4703 196.553 60.4703C197.304 60.4703 198.055 60.27 198.756 59.8694Z" fill="#343740"/>
<path d="M206.568 51.2061H207.219V60.3702H213.479V60.9711H206.618V51.2061H206.568Z" fill="#343740"/>
<path d="M219.839 60.6206C219.238 60.3201 218.787 59.8694 218.437 59.2685C218.086 58.6676 217.936 58.0666 217.936 57.3155V51.2061H218.587V57.3155C218.587 57.9164 218.737 58.4672 218.987 58.968C219.288 59.4688 219.688 59.8193 220.189 60.0697C220.69 60.3201 221.291 60.4703 221.892 60.4703C222.543 60.4703 223.094 60.3201 223.595 60.0697C224.095 59.8193 224.496 59.4187 224.796 58.968C225.097 58.4672 225.247 57.9665 225.247 57.3155V51.2061H225.848V57.3155C225.848 58.0166 225.698 58.6676 225.347 59.2685C224.997 59.8694 224.546 60.27 223.945 60.6206C223.344 60.921 222.693 61.1213 221.942 61.1213C221.191 61.1213 220.44 60.921 219.839 60.6206Z" fill="#343740"/>
<path d="M233.86 51.807H230.455V51.2061H237.867V51.807H234.461V60.9711H233.81V51.807H233.86Z" fill="#343740"/>
<path d="M242.374 60.3201H243.075V51.807H242.374V51.2061H244.427V51.807H243.726V60.3201H244.427V60.921H242.374V60.3201Z" fill="#343740"/>
<path d="M251.337 60.4203C250.586 59.9696 249.935 59.3686 249.484 58.6175C249.034 57.8663 248.833 57.015 248.833 56.1136C248.833 55.2122 249.034 54.3609 249.484 53.6097C249.935 52.8586 250.536 52.2577 251.337 51.807C252.089 51.3563 252.94 51.156 253.891 51.156C254.793 51.156 255.644 51.3563 256.445 51.807C257.196 52.2577 257.847 52.8586 258.298 53.6097C258.749 54.3609 258.949 55.2122 258.949 56.1136C258.949 57.015 258.749 57.8663 258.298 58.6175C257.847 59.3686 257.246 59.9696 256.445 60.4203C255.694 60.8709 254.843 61.0713 253.891 61.0713C252.94 61.0713 252.089 60.8709 251.337 60.4203ZM256.095 59.8694C256.746 59.4688 257.297 58.968 257.697 58.2669C258.098 57.6159 258.298 56.8648 258.298 56.0635C258.298 55.2623 258.098 54.5111 257.697 53.8601C257.297 53.2091 256.746 52.6583 256.095 52.2577C255.444 51.8571 254.693 51.6567 253.891 51.6567C253.09 51.6567 252.339 51.8571 251.688 52.2577C251.037 52.6583 250.486 53.2091 250.085 53.8601C249.685 54.5111 249.484 55.2623 249.484 56.0635C249.484 56.8648 249.685 57.6159 250.085 58.2669C250.486 58.9179 251.037 59.4688 251.688 59.8694C252.339 60.27 253.09 60.4703 253.891 60.4703C254.642 60.4703 255.394 60.27 256.095 59.8694Z" fill="#343740"/>
<path d="M263.857 51.2061H264.558L271.018 60.0197V51.2061H271.619V60.9711H270.918L264.458 52.1575V60.9711H263.807V51.2061H263.857Z" fill="#343740"/>
<path d="M277.878 60.6205C277.277 60.3201 276.877 59.8694 276.626 59.2685L277.177 59.0181C277.377 59.4688 277.678 59.8193 278.179 60.0697C278.679 60.3201 279.33 60.4703 280.132 60.4703C281.183 60.4703 281.934 60.27 282.435 59.9195C282.936 59.5689 283.186 59.0682 283.186 58.4672C283.186 58.0165 283.086 57.666 282.836 57.3655C282.585 57.1151 282.285 56.9149 281.884 56.7646C281.484 56.6144 280.933 56.4641 280.282 56.364C279.481 56.1637 278.88 56.0134 278.429 55.8632C277.978 55.713 277.578 55.4626 277.277 55.1121C276.977 54.7615 276.827 54.3609 276.827 53.8101C276.827 53.3093 276.977 52.8586 277.227 52.458C277.478 52.0574 277.878 51.7068 278.379 51.5065C278.88 51.3062 279.481 51.156 280.132 51.156C280.933 51.156 281.634 51.3062 282.185 51.6567C282.736 52.0073 283.086 52.458 283.337 53.0088L282.736 53.2592C282.585 52.8085 282.285 52.458 281.834 52.1575C281.384 51.9071 280.833 51.7569 280.182 51.7569C279.631 51.7569 279.13 51.857 278.729 52.0574C278.329 52.2577 278.028 52.5081 277.778 52.8085C277.578 53.109 277.478 53.4595 277.478 53.8101C277.478 54.2608 277.628 54.5612 277.878 54.8116C278.129 55.062 278.429 55.2623 278.83 55.3624C279.23 55.5127 279.781 55.6128 280.482 55.8131C281.183 55.9634 281.784 56.1637 282.285 56.3139C282.786 56.5142 283.136 56.7646 283.437 57.1151C283.737 57.4657 283.887 57.9164 283.887 58.5173C283.887 59.3186 283.587 59.9696 282.936 60.4203C282.285 60.921 281.384 61.1213 280.182 61.1213C279.23 61.0712 278.479 60.921 277.878 60.6205Z" fill="#343740"/>
<path d="M7.86212 38.9872C5.45842 37.585 3.55549 35.6821 2.10325 33.2784C0.701087 30.8747 0 28.2707 0 25.4163C0 22.5619 0.701087 19.9579 2.10325 17.5542C3.50541 15.1504 5.40834 13.2475 7.86212 11.8454C10.2658 10.4432 12.9199 9.74213 15.8244 9.74213C18.7289 9.74213 21.3329 10.4432 23.7867 11.8454C26.1904 13.2475 28.0933 15.1504 29.5455 17.5542C30.9477 19.9579 31.6488 22.5619 31.6488 25.4163C31.6488 28.2707 30.9477 30.8747 29.5455 33.2784C28.1434 35.6821 26.2404 37.585 23.7867 38.9872C21.383 40.3894 18.7289 41.0904 15.8244 41.0904C12.9199 41.0904 10.3159 40.3894 7.86212 38.9872ZM22.7851 37.2846C24.8884 36.0326 26.5409 34.3801 27.7928 32.2769C29.0448 30.1736 29.6457 27.8701 29.6457 25.3662C29.6457 22.8624 29.0448 20.5588 27.7928 18.4556C26.5409 16.3523 24.8884 14.6998 22.7851 13.4478C20.6819 12.1959 18.3783 11.595 15.8244 11.595C13.2705 11.595 10.9669 12.1959 8.86367 13.4478C6.76042 14.6998 5.0578 16.3523 3.85595 18.4556C2.60402 20.5588 2.00309 22.8624 2.00309 25.3662C2.00309 27.8701 2.60402 30.1736 3.85595 32.2769C5.10788 34.3801 6.76042 36.0326 8.86367 37.2846C10.9669 38.5365 13.2705 39.1374 15.8244 39.1374C18.3783 39.1374 20.6819 38.4864 22.7851 37.2846Z" fill="#44C0C2"/>
<path d="M45.52 39.5881C43.6671 38.5866 42.3651 37.1844 41.6641 35.4317L43.4668 34.6305C44.0177 36.0327 45.0693 37.1343 46.6718 37.9356C48.2242 38.7368 50.2773 39.1374 52.7311 39.1374C55.9361 39.1374 58.3898 38.5866 59.9923 37.4348C61.5948 36.283 62.396 34.7807 62.396 32.8778C62.396 31.4756 61.9954 30.3239 61.2442 29.4725C60.4931 28.6212 59.4415 27.9702 58.1895 27.5195C56.9376 27.0688 55.2851 26.6181 53.2319 26.1674C50.7781 25.6166 48.8251 25.0657 47.3729 24.5149C45.9206 23.964 44.7188 23.2129 43.7673 22.1613C42.8158 21.1096 42.3651 19.7576 42.3651 18.0549C42.3651 16.5526 42.7658 15.1505 43.6171 13.8485C44.4684 12.5465 45.6702 11.5449 47.2226 10.7938C48.775 10.0426 50.6279 9.64197 52.681 9.64197C55.235 9.64197 57.3382 10.1928 59.0408 11.2444C60.7435 12.2961 61.9453 13.7483 62.5963 15.501L60.7435 16.2522C60.2928 14.85 59.3413 13.6982 57.9391 12.8469C56.537 11.9956 54.7843 11.5449 52.7311 11.5449C50.9784 11.5449 49.4761 11.8454 48.1741 12.3962C46.8721 12.9971 45.9206 13.7483 45.2696 14.7498C44.6186 15.7013 44.2681 16.7529 44.3181 17.8546C44.3181 19.2067 44.7188 20.2583 45.52 21.0596C46.3212 21.8608 47.3228 22.4617 48.5747 22.8624C49.8266 23.263 51.5293 23.7137 53.7327 24.2144C55.9861 24.7152 57.8891 25.2661 59.3914 25.867C60.8937 26.4679 62.0956 27.3192 62.9969 28.4209C63.8983 29.5226 64.349 31.0249 64.349 32.8277C64.349 35.3316 63.3475 37.3346 61.2943 38.837C59.2912 40.3393 56.3868 41.0904 52.681 41.0904C49.7265 41.0904 47.3729 40.5897 45.52 39.5881Z" fill="#44C0C2"/>
<path d="M82.8276 12.0457H72.1611V10.1427H95.3469V12.0457H84.7305V40.6898H82.7775V12.0457H82.8276Z" fill="#44C0C2"/>
<path d="M106.414 10.0927H127.947V11.9956H108.367V24.3647H121.738V26.2676H108.367V38.6367H127.947V40.5396H106.414V10.0927Z" fill="#44C0C2"/>
<path d="M144.372 38.9872C141.969 37.585 140.066 35.6821 138.614 33.2784C137.211 30.8747 136.51 28.2707 136.51 25.4163C136.51 22.5619 137.211 19.9579 138.614 17.5542C140.016 15.1504 141.919 13.2475 144.372 11.8454C146.776 10.4432 149.43 9.74213 152.335 9.74213C155.239 9.74213 157.843 10.4432 160.297 11.8454C162.701 13.2475 164.604 15.1504 166.056 17.5542C167.458 19.9579 168.159 22.5619 168.159 25.4163C168.159 28.2707 167.458 30.8747 166.056 33.2784C164.654 35.6821 162.751 37.585 160.297 38.9872C157.893 40.3894 155.239 41.0904 152.335 41.0904C149.43 41.0904 146.776 40.3894 144.372 38.9872ZM159.245 37.2846C161.349 36.0326 163.001 34.3801 164.253 32.2769C165.505 30.1736 166.106 27.8701 166.106 25.3662C166.106 22.8624 165.505 20.5588 164.253 18.4556C163.001 16.3523 161.349 14.6998 159.245 13.4478C157.142 12.1959 154.839 11.595 152.285 11.595C149.731 11.595 147.427 12.1959 145.324 13.4478C143.221 14.6998 141.518 16.3523 140.316 18.4556C139.064 20.5588 138.463 22.8624 138.463 25.3662C138.463 27.8701 139.064 30.1736 140.316 32.2769C141.568 34.3801 143.221 36.0326 145.324 37.2846C147.427 38.5365 149.731 39.1374 152.285 39.1374C154.839 39.1374 157.142 38.4864 159.245 37.2846Z" fill="#44C0C2"/>
<path d="M179.777 10.0927H181.981L195.551 33.9795L209.122 10.0927H211.376V40.6398H209.423V13.6982L196.753 35.8824H194.3L181.68 13.6982V40.6398H179.727V10.0927H179.777Z" fill="#343741"/>
<path d="M224.596 10.0927H246.129V11.9956H226.549V24.3647H239.92V26.2676H226.549V38.6367H246.129V40.5396H224.596V10.0927Z" fill="#343741"/>
<path d="M257.847 10.0927H268.263C271.168 10.0927 273.772 10.7437 276.176 12.0457C278.579 13.3477 280.432 15.1505 281.834 17.454C283.237 19.7576 283.888 22.4117 283.888 25.3662C283.888 28.3208 283.186 30.9248 281.834 33.2784C280.432 35.582 278.579 37.4348 276.176 38.6867C273.772 39.9887 271.168 40.6398 268.263 40.6398H257.847V10.0927ZM268.213 38.7368C270.767 38.7368 273.071 38.186 275.174 37.0342C277.277 35.8824 278.93 34.33 280.132 32.2769C281.334 30.2738 281.985 27.9702 281.985 25.3662C281.985 22.7622 281.384 20.4587 280.132 18.4556C278.93 16.4525 277.227 14.85 275.174 13.6982C273.071 12.5465 270.767 11.9956 268.213 11.9956H259.85V38.6867H268.213V38.7368Z" fill="#343741"/>
<path d="M288.144 8.69052C286.041 8.69052 284.288 6.93783 284.288 4.83459C284.288 2.73135 286.041 0.978638 288.144 0.978638C290.247 0.978638 292 2.73135 292 4.83459C292 6.93783 290.297 8.69052 288.144 8.69052ZM288.144 1.02872C286.091 1.02872 284.388 2.73134 284.388 4.78451C284.388 6.83767 286.091 8.54029 288.144 8.54029C290.197 8.54029 291.9 6.83767 291.9 4.78451C291.95 2.73134 290.247 1.02872 288.144 1.02872Z" fill="#343741"/>
<path d="M286.942 2.98175H288.545C288.795 2.98175 288.995 3.03182 289.146 3.13198C289.296 3.23213 289.446 3.33229 289.546 3.48252C289.646 3.63275 289.696 3.83307 289.696 4.03337C289.696 4.28376 289.596 4.53414 289.446 4.68437C289.296 4.88468 289.045 4.98484 288.795 5.03492L289.696 6.63738H289.446L288.545 5.085H287.193V6.63738H286.942V2.98175ZM288.595 4.83461C288.895 4.83461 289.095 4.73446 289.246 4.58423C289.396 4.43399 289.496 4.23368 289.496 4.03337C289.496 3.78299 289.396 3.58267 289.246 3.43244C289.095 3.28221 288.845 3.18206 288.595 3.18206H287.193V4.78453H288.595V4.83461Z" fill="#343741"/>
</svg>
