<svg width="16" height="21" viewBox="0 0 16 21" fill="none" xmlns="http://www.w3.org/2000/svg">
<path d="M13.8139 0C14.1394 0.134648 14.4934 0.224414 14.779 0.415166C15.4186 0.841552 15.6984 1.46991 15.6984 2.22731C15.6984 4.83051 15.6984 7.43371 15.6984 10.0425C15.6984 11.5742 15.6927 13.1002 15.7041 14.6318C15.7041 14.9067 15.6184 15.1199 15.4186 15.3163C13.8196 16.8759 12.2207 18.4468 10.6331 20.0177C10.4561 20.1916 10.2677 20.259 10.0221 20.259C7.45236 20.2534 4.87691 20.259 2.30717 20.259C0.936641 20.259 0.0115346 19.3501 0.00582411 17.998C0.00582411 15.2601 0.00582411 12.5279 0.00582411 9.79006C0.00582411 7.28223 0.0172453 4.78002 0.000113662 2.27219C-0.0113074 1.07719 0.839562 0.173921 1.83891 0.033662C1.85604 0.033662 1.87317 0.016831 1.8903 0.00561026C5.85912 -8.56907e-08 9.83365 0 13.8139 0ZM14.6533 14.3232C14.6533 14.2278 14.6533 14.1605 14.6533 14.0876C14.6533 11.1814 14.6533 8.26966 14.6533 5.36349C14.6533 4.31436 14.6533 3.26522 14.6533 2.21609C14.6533 1.49796 14.1794 1.0323 13.4484 1.01547C13.2543 1.00986 13.0601 1.01547 12.8659 1.01547C9.34826 1.01547 5.82486 1.01547 2.30717 1.01547C1.50198 1.01547 1.03943 1.46991 1.03943 2.24975C1.03943 7.48982 1.03943 12.7355 1.03943 17.9756C1.03943 18.7778 1.49627 19.2323 2.30717 19.2323C4.67704 19.2323 7.04691 19.2323 9.42249 19.2323C9.49102 19.2323 9.56526 19.2267 9.65092 19.2211C9.65092 18.6039 9.64521 18.0036 9.65092 17.4033C9.65663 16.9713 9.62236 16.5281 9.68518 16.1017C9.84507 15.0582 10.753 14.3232 11.8266 14.3176C12.7574 14.3176 13.694 14.3232 14.6533 14.3232ZM10.6788 18.4356C11.7353 17.4033 12.786 16.3654 13.8253 15.3499C13.1286 15.3499 12.3977 15.3331 11.6667 15.3555C11.1985 15.3724 10.7702 15.7931 10.7074 16.2588C10.6788 16.4664 10.6788 16.6796 10.6788 16.8871C10.6731 17.4145 10.6788 17.9419 10.6788 18.4356Z" fill="white"/>
<path d="M7.85814 3.59643C8.0523 3.59643 8.24645 3.59643 8.44061 3.59643C8.67474 3.60204 8.76611 3.69181 8.77182 3.92183C8.77753 4.2304 8.77182 4.53897 8.77182 4.85315C8.77182 5.16733 8.84035 5.23465 9.16585 5.23465C9.4628 5.23465 9.75403 5.23465 10.051 5.23465C10.3536 5.23465 10.4336 5.31881 10.4393 5.60494C10.4393 5.97522 10.445 6.3455 10.4393 6.71017C10.4393 6.95703 10.3479 7.04118 10.0967 7.04118C9.77688 7.04118 9.45138 7.03557 9.13159 7.04118C8.86319 7.04118 8.77182 7.13656 8.77182 7.40025C8.77182 7.71443 8.77753 8.03422 8.77182 8.3484C8.77182 8.58964 8.67474 8.68502 8.42919 8.69063C8.04088 8.69624 7.65256 8.69624 7.25853 8.69063C7.01298 8.68502 6.92161 8.58964 6.9159 8.3484C6.91019 8.03422 6.9159 7.71443 6.9159 7.40025C6.9159 7.13656 6.82453 7.0468 6.55043 7.04118C6.23064 7.03557 5.90513 7.04118 5.58534 7.04118C5.3455 7.04118 5.24842 6.95703 5.24842 6.72701C5.24271 6.33428 5.24271 5.93595 5.24842 5.54322C5.25413 5.33003 5.3455 5.23465 5.57392 5.23465C5.89371 5.22904 6.21921 5.23465 6.539 5.23465C6.83595 5.23465 6.91019 5.15611 6.91019 4.86998C6.91019 4.56141 6.91019 4.25284 6.91019 3.93866C6.91019 3.6862 7.00156 3.59643 7.26424 3.59082C7.36703 3.59082 7.46411 3.59082 7.5669 3.59082C7.66969 3.59643 7.76677 3.59643 7.85814 3.59643Z" fill="white"/>
<path d="M7.86853 11.2435C9.42179 11.2435 10.9693 11.2435 12.5226 11.2435C12.8481 11.2435 13.0822 11.4062 13.1279 11.6586C13.185 11.9784 12.9509 12.2589 12.6026 12.2645C12.2085 12.2702 11.8088 12.2645 11.4148 12.2645C8.668 12.2645 5.92123 12.2645 3.17447 12.2645C2.83755 12.2645 2.60912 12.1018 2.56915 11.8326C2.51776 11.5015 2.76902 11.2435 3.15733 11.2435C4.04247 11.2379 4.93331 11.2435 5.81844 11.2435C6.498 11.2379 7.18326 11.2379 7.86853 11.2435Z" fill="white"/>
<path d="M5.7047 14.7616C4.83099 14.7616 3.95728 14.7616 3.08357 14.7616C2.84944 14.7616 2.68383 14.6437 2.59246 14.4418C2.5068 14.2566 2.55249 14.0771 2.68383 13.9256C2.80375 13.7854 2.96936 13.7461 3.15209 13.7461C4.31133 13.7461 5.47628 13.7461 6.63552 13.7461C7.16089 13.7461 7.68055 13.7461 8.20592 13.7461C8.39436 13.7461 8.57139 13.7741 8.69702 13.92C8.83407 14.0771 8.88547 14.2566 8.78839 14.453C8.69131 14.6494 8.52571 14.7616 8.29157 14.7616C7.4407 14.7616 6.5727 14.7616 5.7047 14.7616Z" fill="white"/>
<path d="M5.71106 16.2529C6.57906 16.2529 7.44135 16.2529 8.30936 16.2529C8.57775 16.2529 8.77762 16.41 8.83472 16.6569C8.88612 16.8757 8.77191 17.1113 8.5492 17.2067C8.44641 17.2516 8.32649 17.2628 8.21799 17.2628C6.52767 17.2684 4.83164 17.2684 3.14132 17.2628C2.78727 17.2628 2.55885 17.044 2.56456 16.741C2.57027 16.4493 2.8044 16.2529 3.15274 16.2529C4.00361 16.2529 4.85448 16.2585 5.71106 16.2529Z" fill="white"/>
</svg>
