<svg width="23" height="23" viewBox="0 0 23 23" fill="none" xmlns="http://www.w3.org/2000/svg">
<path d="M22.165 10.993C21.2721 10.993 20.395 10.993 19.506 10.993C19.506 11.0322 19.5021 11.0635 19.5021 11.0949C19.5021 11.882 19.5021 12.673 19.5021 13.4601C19.5021 13.5423 19.5217 13.5698 19.6039 13.5658C19.9799 13.5619 20.3558 13.5619 20.7317 13.5658C20.8727 13.5658 20.9628 13.6442 20.9667 13.7616C20.9706 13.8987 20.8884 13.9809 20.7474 13.9809C20.3754 13.9809 20.0034 13.9809 19.6274 13.9809C19.5922 13.9809 19.5569 13.9809 19.5099 13.9809C19.5099 14.725 19.5099 15.4612 19.5099 16.213C19.5491 16.213 19.5883 16.213 19.6235 16.213C19.9877 16.213 20.3558 16.213 20.72 16.213C20.8727 16.213 20.9589 16.2874 20.9628 16.4128C20.9667 16.5459 20.8845 16.6281 20.7513 16.6281C20.3871 16.6281 20.019 16.6281 19.6548 16.6281C19.6078 16.6281 19.5609 16.6281 19.4982 16.6281C19.4982 16.6712 19.4982 16.7104 19.4982 16.7456C19.4982 17.2508 19.4982 17.7559 19.4982 18.2611C19.4982 18.4647 19.4904 18.6684 19.3729 18.8642C19.4747 18.8642 19.5609 18.8642 19.647 18.8642C20.0112 18.8642 20.3793 18.8642 20.7435 18.8642C20.8335 18.8642 20.908 18.8994 20.9432 18.9816C20.9745 19.056 20.9784 19.1461 20.9119 19.2009C20.861 19.244 20.7866 19.2753 20.72 19.2753C19.9838 19.2793 19.2476 19.2793 18.5153 19.2793C12.8332 19.2793 7.1511 19.2793 1.46901 19.2793C0.959928 19.2793 0.580078 18.8994 0.580078 18.3864C0.580078 17.102 0.580078 15.8136 0.580078 14.5292C0.580078 12.3127 0.580078 10.0963 0.580078 7.87983C0.580078 6.74028 0.580078 5.60464 0.580078 4.46509C0.580078 3.95993 0.956013 3.58008 1.46117 3.58008C2.03682 3.58008 2.60856 3.58008 3.18421 3.58008C3.27819 3.58008 3.35259 3.61141 3.39567 3.69756C3.43091 3.77588 3.43091 3.86203 3.36434 3.91685C3.30952 3.95993 3.2312 3.99517 3.16463 3.99517C2.61639 4.003 2.06815 4.01084 1.52383 3.99517C1.18705 3.98734 0.991256 4.21447 0.995172 4.52775C1.003 5.51066 0.999088 6.49357 0.995172 7.47648C0.995172 7.57047 1.04216 7.56655 1.10482 7.56655C1.79795 7.56655 2.49108 7.56655 3.18421 7.56655C3.32518 7.56655 3.41917 7.64879 3.41917 7.7741C3.41917 7.89158 3.31735 7.98164 3.18029 7.98164C2.48716 7.98164 1.79403 7.98164 1.1009 7.98164C1.06958 7.98164 1.04216 7.98164 1.003 7.98164C1.003 8.01689 0.999088 8.0443 0.999088 8.07171C0.999088 11.5099 0.999088 14.9521 0.999088 18.3903C0.999088 18.6723 1.19489 18.8642 1.47684 18.8642C7.17851 18.8642 12.8802 18.8642 18.5858 18.8681C18.8442 18.8681 19.087 18.6762 19.087 18.3708C19.0792 16.8788 19.0831 15.3907 19.0831 13.8987C19.0831 12.8962 19.0831 11.8937 19.0831 10.8912C19.0831 9.9553 19.0831 9.01938 19.0831 8.07954C19.0831 8.05213 19.0831 8.0208 19.0831 7.97773C19.0361 7.97773 19.0009 7.97773 18.9617 7.97773C15.2063 7.97773 11.4469 7.97773 7.6915 7.97381C7.62102 7.97381 7.5427 7.95423 7.48004 7.9229C7.38997 7.87591 7.38998 7.77801 7.41347 7.69578C7.43697 7.60963 7.50354 7.56263 7.59752 7.55872C7.68759 7.55872 7.77374 7.55872 7.86381 7.55872C11.5644 7.55872 15.265 7.55872 18.9656 7.55872C19.0009 7.55872 19.0361 7.5548 19.0831 7.5548C19.0831 7.51173 19.0831 7.47257 19.0831 7.43341C19.0831 6.45833 19.0792 5.47933 19.087 4.50425C19.0909 4.1988 18.8912 3.98734 18.574 3.99126C17.7478 3.99909 16.9176 3.99517 16.0913 3.99517C13.5302 3.99517 10.9653 3.99517 8.40421 3.99517C8.35331 3.99517 8.30632 3.99126 8.25541 3.98342C8.15359 3.96384 8.09485 3.89336 8.09485 3.79154C8.09485 3.68581 8.15359 3.60357 8.25541 3.58791C8.31023 3.58008 8.36506 3.58399 8.42379 3.58399C11.8033 3.58399 15.1867 3.58399 18.5662 3.58399C18.8051 3.58399 19.0204 3.6349 19.2045 3.79546C19.3807 3.9521 19.4786 4.14398 19.4982 4.37894C19.5021 4.44159 19.5021 4.50425 19.5021 4.56691C19.5021 6.54056 19.5021 8.51813 19.5021 10.4918C19.5021 10.5153 19.506 10.5388 19.5099 10.5662C20.395 10.5662 21.2761 10.5662 22.165 10.5662C22.1689 10.5309 22.1689 10.4996 22.1689 10.4683C22.1689 9.47755 22.1689 8.49072 22.1689 7.49998C22.1689 7.19453 21.9692 6.99482 21.6598 6.99482C21.1351 6.99482 20.6103 6.9909 20.0856 6.99873C19.9564 6.99873 19.8428 6.92041 19.8428 6.78727C19.8428 6.66979 19.9485 6.58364 20.0895 6.58364C20.6221 6.58364 21.1586 6.58364 21.6912 6.58364C22.2002 6.58364 22.5801 6.9674 22.5801 7.47648C22.5801 8.5103 22.5801 9.54021 22.5801 10.574C22.5801 14.1767 22.5801 17.7755 22.5801 21.3782C22.5801 21.8129 22.3295 22.1458 21.9144 22.2554C21.8282 22.2789 21.7381 22.2867 21.652 22.2867C15.9503 22.2867 10.2486 22.2907 4.54305 22.2867C4.00656 22.2867 3.65412 21.8638 3.65804 21.4096C3.66587 20.9201 3.65804 20.4345 3.65804 19.945C3.65804 19.7766 3.73245 19.6865 3.86167 19.6865C3.9909 19.6865 4.07314 19.7923 4.07314 19.9528C4.07314 20.4227 4.08097 20.8966 4.06922 21.3665C4.06139 21.6484 4.2611 21.8716 4.57438 21.8716C10.2643 21.8716 15.9542 21.8716 21.6442 21.8716C21.9653 21.8716 22.1611 21.6758 22.1611 21.3547C22.1611 17.9361 22.1611 14.5135 22.1611 11.0949C22.1689 11.0635 22.1689 11.0322 22.165 10.993Z" fill="#456573"/>
<path d="M3.80664 4.75843C3.80664 3.83817 3.80664 2.91792 3.80664 1.99766C3.80664 1.06565 4.44886 0.262877 5.35737 0.0514138C6.39511 -0.187461 7.44459 0.427349 7.73046 1.45334C7.77745 1.61781 7.80094 1.79403 7.80094 1.96633C7.80878 2.55764 7.80094 3.14504 7.80878 3.73636C7.80878 3.88125 7.73437 3.98306 7.60515 3.99089C7.47592 3.99873 7.38977 3.89299 7.38977 3.72852C7.38977 3.14504 7.38977 2.56156 7.38977 1.97808C7.38977 1.33586 6.97467 0.744543 6.37553 0.517416C5.57667 0.215886 4.68382 0.595735 4.34705 1.37893C4.26481 1.57473 4.22174 1.77836 4.22174 1.98983C4.22174 3.846 4.22174 5.70218 4.22174 7.55836C4.22174 8.13401 4.6799 8.62742 5.25164 8.69008C5.87428 8.75665 6.43035 8.30239 6.51259 7.715C6.52433 7.64059 6.52825 7.56227 6.52825 7.48787C6.52825 5.92539 6.52825 4.36291 6.52825 2.80044C6.52825 2.65554 6.56741 2.58897 6.66531 2.55373C6.78279 2.51065 6.91202 2.57722 6.93551 2.70254C6.94334 2.74561 6.94334 2.78869 6.94334 2.83176C6.94334 4.39424 6.94334 5.95672 6.94334 7.5192C6.94334 8.28281 6.45776 8.90545 5.71372 9.07384C4.85221 9.26573 3.99852 8.7214 3.83014 7.82073C3.81056 7.72283 3.80664 7.62493 3.80664 7.52703C3.80664 6.60677 3.80664 5.6826 3.80664 4.75843Z" fill="#456573"/>
<path d="M10.0493 10.5693C12.5908 10.5693 15.1323 10.5693 17.6777 10.5693C17.7951 10.5693 17.8852 10.6398 17.897 10.7495C17.9087 10.8552 17.8343 10.9531 17.7207 10.9766C17.6933 10.9844 17.662 10.9805 17.6307 10.9805C12.5751 10.9805 7.51961 10.9805 2.46407 10.9805C2.27219 10.9805 2.17429 10.8944 2.19387 10.7377C2.20562 10.6359 2.28393 10.5654 2.38575 10.5654C2.45624 10.5654 2.52281 10.5654 2.5933 10.5654C5.08386 10.5693 7.5666 10.5693 10.0493 10.5693Z" fill="#456573"/>
<path d="M10.0534 16.2754C7.5511 16.2754 5.04879 16.2754 2.54647 16.2754C2.49556 16.2754 2.44074 16.2794 2.38983 16.2754C2.28018 16.2637 2.2097 16.1893 2.20187 16.0836C2.19403 15.9739 2.25277 15.8956 2.36634 15.8721C2.4055 15.8643 2.44466 15.8604 2.48382 15.8604C6.72874 15.8604 10.9698 15.8604 15.2147 15.8604C16.0175 15.8604 16.8242 15.8604 17.6269 15.8604C17.7131 15.8604 17.7992 15.8682 17.858 15.9465C17.9089 16.0131 17.9285 16.0953 17.8815 16.158C17.8384 16.2128 17.7679 16.2559 17.7013 16.2754C17.6348 16.295 17.5564 16.2794 17.486 16.2794C15.0032 16.2754 12.5283 16.2754 10.0534 16.2754Z" fill="#456573"/>
<path d="M10.0481 13.2207C12.5778 13.2207 15.1075 13.2207 17.6372 13.2207C17.6842 13.2207 17.7312 13.2207 17.7743 13.2364C17.8605 13.2677 17.8996 13.3421 17.8957 13.4322C17.8918 13.5261 17.8409 13.5927 17.7469 13.6201C17.696 13.6319 17.6412 13.6358 17.5903 13.6358C12.5895 13.6358 7.59274 13.6358 2.59203 13.6358C2.52154 13.6358 2.45106 13.6397 2.38448 13.6319C2.26309 13.6162 2.18869 13.5261 2.20043 13.4087C2.21218 13.2951 2.28658 13.2285 2.41581 13.2285C4.95729 13.2207 7.50268 13.2207 10.0481 13.2207Z" fill="#456573"/>
<path d="M5.35819 3.58377C5.54224 3.58377 5.72629 3.58377 5.91034 3.58377C6.0474 3.58377 6.14139 3.66992 6.14139 3.7874C6.14139 3.90097 6.0474 3.99495 5.91426 3.99495C5.54224 3.99887 5.17022 3.99887 4.7982 3.99887C4.68072 3.99887 4.59457 3.92838 4.57499 3.83831C4.5515 3.73258 4.59066 3.64251 4.68856 3.60335C4.73163 3.58377 4.78254 3.58377 4.83345 3.58377C5.00967 3.57986 5.18589 3.58377 5.35819 3.58377Z" fill="#456573"/>
<path d="M5.3766 7.98151C5.24345 7.98151 5.11423 7.98151 4.98108 7.98151C4.83619 7.98151 4.73438 7.89536 4.73438 7.77005C4.73438 7.64082 4.83228 7.5625 4.98108 7.5625C5.24737 7.5625 5.51366 7.5625 5.77994 7.5625C5.917 7.5625 6.00707 7.64082 6.01099 7.76221C6.0149 7.88753 5.92092 7.97759 5.77994 7.97759C5.6468 7.98151 5.51366 7.98151 5.3766 7.98151Z" fill="#456573"/>
</svg>
