<svg width="20" height="15" viewBox="0 0 20 15" fill="none" xmlns="http://www.w3.org/2000/svg">
<path d="M17.7198 3.32487C14.5988 0.015131 10.3864 -0.00551767 9.86726 0.000382034C5.52802 0.0475797 1.34513 2.83519 0.20649 6.30422C0.100295 6.62575 0.0383481 6.90304 0 7.10953C0.0560472 7.37206 0.150442 7.74374 0.312684 8.17147C1.57522 11.4901 5.46608 14.3013 9.81416 14.3603C13.7345 14.4104 17.0649 12.2098 18.8112 9.59035C19.4366 8.6523 19.7906 7.76144 20 7.10953C19.6814 6.19507 19.0383 4.72015 17.7198 3.32487ZM18.3038 7.49301C18.2094 7.90599 17.9882 8.56085 17.1445 9.53725C16.8083 9.92663 16.1622 10.6641 15.0708 11.3544C14.4956 11.7172 12.4602 13.0063 9.65487 12.9266C6.26254 12.8322 2.77581 10.7644 1.67257 7.84404C1.55457 7.5343 1.48673 7.26882 1.44543 7.09183C1.74041 6.31897 2.33628 5.06233 3.52507 3.91189C5.9764 1.5402 9.0708 1.42811 10.0914 1.44581C12.9322 1.49596 14.8791 2.81454 15.2979 3.10953C17.174 4.43106 18.0472 6.10953 18.3894 6.88239C18.3805 7.02988 18.3599 7.24227 18.3038 7.49301Z" fill="#969696"/>
<path d="M9.91734 2.83228C7.51321 2.83228 5.56335 4.78213 5.56335 7.18626C5.56335 9.59039 7.51321 11.5402 9.91734 11.5402C12.3215 11.5402 14.2713 9.59039 14.2713 7.18626C14.2713 4.78213 12.3215 2.83228 9.91734 2.83228ZM9.87014 10.0948C8.28607 10.0948 6.99993 8.80867 6.99993 7.2246C6.99993 5.64053 8.28607 4.3544 9.87014 4.3544C11.4542 4.3544 12.7403 5.64053 12.7403 7.2246C12.7403 8.81162 11.4542 10.0948 9.87014 10.0948Z" fill="#969696"/>
</svg>
