<svg width="20" height="20" viewBox="0 0 20 20" fill="none" xmlns="http://www.w3.org/2000/svg">
<path d="M3.80436 4.80256C2.79005 3.78795 1.8086 2.81032 0.831251 1.82858C0.687524 1.68481 0.543796 1.54104 0.400069 1.39727C-0.0680726 0.920773 -0.121458 0.563402 0.219382 0.222463C0.564328 -0.122585 0.921594 -0.0691836 1.39384 0.403203C2.49438 1.49996 3.60725 2.59261 4.68726 3.70991C4.95829 3.98923 5.1554 4.01388 5.50034 3.85368C10.424 1.56158 16.3785 3.332 19.0847 7.97371C20.3371 10.122 20.2673 9.8345 19.1011 12.0239C18.4892 13.17 17.5981 14.0983 16.5756 14.9034C16.4606 14.9938 16.3497 15.0924 16.206 15.2115C17.2655 16.2713 18.3044 17.3105 19.3434 18.3498C19.4255 18.4319 19.5117 18.5182 19.5939 18.6003C20.062 19.0768 20.1154 19.4342 19.7704 19.7793C19.4255 20.1202 19.0682 20.0709 18.596 19.5985C17.4954 18.4977 16.3826 17.4091 15.3026 16.2877C15.0315 16.0043 14.8303 15.9878 14.4895 16.148C9.24137 18.588 2.91325 16.3493 0.449346 11.2393C0.0304827 10.3685 0.0017369 9.63322 0.445239 8.7665C1.24601 7.20146 2.33012 5.89521 3.80436 4.80256ZM4.80224 5.85413C3.41424 6.79069 2.3794 8.00657 1.66898 9.50999C1.50061 9.86736 1.51704 10.159 1.67719 10.5123C3.24177 13.9422 7.13063 16.1316 10.8799 15.6839C11.8983 15.5606 12.8879 15.3553 13.7585 14.924C13.2986 14.4557 12.8551 13.9997 12.4116 13.5438C10.5924 14.6282 8.60075 14.5009 7.13473 13.1782C6.44895 12.562 6.00134 11.7939 5.82065 10.8902C5.57837 9.67841 5.81654 8.54468 6.49001 7.55062C5.9151 6.97554 5.38126 6.43332 4.80224 5.85413ZM7.54538 6.4785C9.40563 5.27084 11.541 5.61178 12.892 6.8523C13.5696 7.47668 14.0131 8.24893 14.1856 9.15262C14.4115 10.348 14.1774 11.4653 13.5286 12.4265C14.1117 13.0057 14.662 13.5479 15.2369 14.1188C16.5592 13.2275 17.5858 12.0321 18.3003 10.5451C18.4851 10.159 18.481 9.83861 18.3044 9.45248C16.7193 6.04309 12.8756 3.88243 9.13049 4.32196C8.10797 4.44108 7.1142 4.65057 6.21077 5.0942C6.65838 5.55838 7.08956 6.00201 7.54538 6.4785ZM12.4773 11.3585C13.1343 10.311 12.9372 8.86097 11.9927 7.94906C11.0523 7.03715 9.60274 6.86463 8.64182 7.52597C9.91073 8.79525 11.1878 10.0686 12.4773 11.3585ZM7.52074 8.62683C6.85138 9.73181 7.07313 11.19 8.04227 12.0855C8.99908 12.9728 10.4364 13.1248 11.3603 12.4634C10.0873 11.1942 8.81429 9.92076 7.52074 8.62683Z" fill="#969696"/>
</svg>
