<svg width="20" height="20" viewBox="0 0 20 20" fill="none" xmlns="http://www.w3.org/2000/svg">
<path fill-rule="evenodd" clip-rule="evenodd" d="M12.9166 11.6667H12.2583L12.025 11.4417C13.025 10.275 13.5416 8.68337 13.2583 6.9917C12.8666 4.67503 10.9333 2.82503 8.59997 2.5417C5.07497 2.10837 2.10831 5.07503 2.54164 8.60003C2.82497 10.9334 4.67497 12.8667 6.99164 13.2584C8.68331 13.5417 10.275 13.025 11.4416 12.025L11.6666 12.2584V12.9167L15.2083 16.4584C15.55 16.8 16.1083 16.8 16.45 16.4584C16.7916 16.1167 16.7916 15.5584 16.45 15.2167L12.9166 11.6667ZM7.91664 11.6667C5.84164 11.6667 4.16664 9.9917 4.16664 7.9167C4.16664 5.8417 5.84164 4.1667 7.91664 4.1667C9.99164 4.1667 11.6666 5.8417 11.6666 7.9167C11.6666 9.9917 9.99164 11.6667 7.91664 11.6667Z" fill="#969696"/>
</svg>
