<svg width="22" height="15" viewBox="0 0 22 15" fill="none" xmlns="http://www.w3.org/2000/svg">
<path fill-rule="evenodd" clip-rule="evenodd" d="M15 6.0022C16.66 6.0022 17.99 4.6622 17.99 3.0022C17.99 1.3422 16.66 0.00219727 15 0.00219727C13.34 0.00219727 12 1.3422 12 3.0022C12 4.6622 13.34 6.0022 15 6.0022ZM7 6.0022C8.66 6.0022 9.99 4.6622 9.99 3.0022C9.99 1.3422 8.66 0.00219727 7 0.00219727C5.34 0.00219727 4 1.3422 4 3.0022C4 4.6622 5.34 6.0022 7 6.0022ZM7 8.0022C4.67 8.0022 0 9.1722 0 11.5022V13.0022C0 13.5522 0.45 14.0022 1 14.0022H13C13.55 14.0022 14 13.5522 14 13.0022V11.5022C14 9.1722 9.33 8.0022 7 8.0022ZM15 8.0022C14.71 8.0022 14.38 8.0222 14.03 8.0522C14.05 8.0622 14.06 8.0822 14.07 8.0922C15.21 8.9222 16 10.0322 16 11.5022V13.0022C16 13.3522 15.93 13.6922 15.82 14.0022H21C21.55 14.0022 22 13.5522 22 13.0022V11.5022C22 9.1722 17.33 8.0022 15 8.0022Z" fill="#44C0C2"/>
</svg>
