<svg width="14" height="14" viewBox="0 0 14 14" fill="none" xmlns="http://www.w3.org/2000/svg">
<path d="M14 6.9989C14.0134 10.837 10.8839 13.9866 7.04134 14C3.15854 14.0134 0.0044755 10.8929 4.81843e-06 7.03243C-0.00446587 3.15188 3.10266 0.0112199 6.95863 4.3195e-05C10.8571 -0.0133689 13.9865 3.09823 14 6.9989ZM0.773434 6.89831C0.739903 10.3586 3.4849 13.193 6.90274 13.2266C10.3608 13.2601 13.1885 10.5151 13.2243 7.09055C13.2601 3.63024 10.5128 0.809237 7.07039 0.771236C3.64138 0.737706 0.806964 3.49388 0.773434 6.89831Z" fill="white"/>
<path d="M6.60989 4.72332C6.60989 3.97895 6.60765 3.23235 6.60989 2.48798C6.60989 2.2555 6.73059 2.09679 6.92283 2.06326C7.13966 2.02302 7.33637 2.15491 7.37661 2.37174C7.38779 2.43656 7.38555 2.50362 7.38555 2.57068C7.38555 3.91636 7.38779 5.26427 7.38332 6.60995C7.38332 6.7396 7.42355 6.80442 7.53308 6.86701C8.69099 7.53091 9.84666 8.19928 11.0046 8.86764C11.047 8.89223 11.0917 8.91682 11.132 8.94365C11.3265 9.06883 11.3846 9.29012 11.2773 9.47342C11.17 9.65895 10.9442 9.72154 10.7453 9.60978C10.3787 9.40636 10.0165 9.194 9.65442 8.98388C8.72676 8.44964 7.80132 7.91092 6.87366 7.37891C6.68365 7.26937 6.60542 7.12184 6.60765 6.90725C6.61212 6.18076 6.60989 5.45204 6.60989 4.72332Z" fill="white"/>
</svg>
