<svg width="117" height="28" viewBox="0 0 117 28" fill="none" xmlns="http://www.w3.org/2000/svg">
<path d="M12.522 19H11.262V10.11H8.14V9.004H15.63V10.11H12.522V19ZM18.8829 11.356C19.5269 11.356 20.0776 11.496 20.5349 11.776C21.0016 12.056 21.3563 12.4527 21.5989 12.966C21.8509 13.47 21.9769 14.0627 21.9769 14.744V15.486H16.8389C16.8576 16.3353 17.0723 16.984 17.4829 17.432C17.9029 17.8707 18.4863 18.09 19.2329 18.09C19.7089 18.09 20.1289 18.048 20.4929 17.964C20.8663 17.8707 21.2489 17.74 21.6409 17.572V18.65C21.2583 18.818 20.8803 18.9393 20.5069 19.014C20.1336 19.098 19.6903 19.14 19.1769 19.14C18.4676 19.14 17.8376 18.9953 17.2869 18.706C16.7456 18.4167 16.3209 17.9873 16.0129 17.418C15.7143 16.8393 15.5649 16.1347 15.5649 15.304C15.5649 14.4827 15.7003 13.778 15.9709 13.19C16.2509 12.602 16.6383 12.1493 17.1329 11.832C17.6369 11.5147 18.2203 11.356 18.8829 11.356ZM18.8689 12.364C18.2809 12.364 17.8143 12.5553 17.4689 12.938C17.1329 13.3113 16.9323 13.834 16.8669 14.506H20.6889C20.6889 14.0767 20.6236 13.7033 20.4929 13.386C20.3623 13.0687 20.1616 12.8213 19.8909 12.644C19.6296 12.4573 19.2889 12.364 18.8689 12.364ZM25.3918 15.164L22.8018 11.496H24.2018L26.1338 14.324L28.0518 11.496H29.4378L26.8478 15.164L29.5778 19H28.1778L26.1338 16.004L24.0618 19H22.6758L25.3918 15.164ZM33.53 18.132C33.7167 18.132 33.908 18.118 34.104 18.09C34.3 18.0527 34.4587 18.0153 34.58 17.978V18.916C34.4493 18.9813 34.2627 19.0327 34.02 19.07C33.7773 19.1167 33.544 19.14 33.32 19.14C32.928 19.14 32.564 19.0747 32.228 18.944C31.9013 18.804 31.6353 18.566 31.43 18.23C31.2247 17.894 31.122 17.4227 31.122 16.816V12.448H30.058V11.86L31.136 11.37L31.626 9.774H32.354V11.496H34.524V12.448H32.354V16.788C32.354 17.2453 32.4613 17.586 32.676 17.81C32.9 18.0247 33.1847 18.132 33.53 18.132ZM42.6066 15.234C42.6066 15.8593 42.5226 16.4147 42.3546 16.9C42.1959 17.376 41.9626 17.782 41.6546 18.118C41.3559 18.454 40.9872 18.7107 40.5486 18.888C40.1192 19.056 39.6386 19.14 39.1066 19.14C38.6119 19.14 38.1546 19.056 37.7346 18.888C37.3146 18.7107 36.9506 18.454 36.6426 18.118C36.3346 17.782 36.0919 17.376 35.9146 16.9C35.7466 16.4147 35.6626 15.8593 35.6626 15.234C35.6626 14.4033 35.8026 13.7033 36.0826 13.134C36.3626 12.5553 36.7639 12.1167 37.2866 11.818C37.8092 11.51 38.4299 11.356 39.1486 11.356C39.8299 11.356 40.4272 11.51 40.9406 11.818C41.4632 12.1167 41.8692 12.5553 42.1586 13.134C42.4572 13.7033 42.6066 14.4033 42.6066 15.234ZM36.9366 15.234C36.9366 15.822 37.0112 16.3353 37.1606 16.774C37.3192 17.2033 37.5619 17.5347 37.8886 17.768C38.2152 18.0013 38.6306 18.118 39.1346 18.118C39.6386 18.118 40.0539 18.0013 40.3806 17.768C40.7072 17.5347 40.9452 17.2033 41.0946 16.774C41.2532 16.3353 41.3326 15.822 41.3326 15.234C41.3326 14.6367 41.2532 14.128 41.0946 13.708C40.9359 13.288 40.6932 12.966 40.3666 12.742C40.0492 12.5087 39.6339 12.392 39.1206 12.392C38.3552 12.392 37.7999 12.644 37.4546 13.148C37.1092 13.652 36.9366 14.3473 36.9366 15.234ZM51.8079 11.356C52.7039 11.356 53.3805 11.5753 53.8379 12.014C54.2952 12.4433 54.5239 13.1433 54.5239 14.114V19H53.3059V14.198C53.3059 13.5913 53.1705 13.1387 52.8999 12.84C52.6292 12.5413 52.2045 12.392 51.6259 12.392C50.7952 12.392 50.2212 12.6253 49.9039 13.092C49.5865 13.5587 49.4279 14.2307 49.4279 15.108V19H48.1959V11.496H49.1899L49.3719 12.518H49.4419C49.6099 12.2567 49.8152 12.042 50.0579 11.874C50.3099 11.6967 50.5852 11.566 50.8839 11.482C51.1825 11.398 51.4905 11.356 51.8079 11.356ZM63.3742 15.234C63.3742 15.8593 63.2902 16.4147 63.1222 16.9C62.9635 17.376 62.7302 17.782 62.4222 18.118C62.1235 18.454 61.7548 18.7107 61.3162 18.888C60.8868 19.056 60.4062 19.14 59.8742 19.14C59.3795 19.14 58.9222 19.056 58.5022 18.888C58.0822 18.7107 57.7182 18.454 57.4102 18.118C57.1022 17.782 56.8595 17.376 56.6822 16.9C56.5142 16.4147 56.4302 15.8593 56.4302 15.234C56.4302 14.4033 56.5702 13.7033 56.8502 13.134C57.1302 12.5553 57.5315 12.1167 58.0542 11.818C58.5768 11.51 59.1975 11.356 59.9162 11.356C60.5975 11.356 61.1948 11.51 61.7082 11.818C62.2308 12.1167 62.6368 12.5553 62.9262 13.134C63.2248 13.7033 63.3742 14.4033 63.3742 15.234ZM57.7042 15.234C57.7042 15.822 57.7788 16.3353 57.9282 16.774C58.0868 17.2033 58.3295 17.5347 58.6562 17.768C58.9828 18.0013 59.3982 18.118 59.9022 18.118C60.4062 18.118 60.8215 18.0013 61.1482 17.768C61.4748 17.5347 61.7128 17.2033 61.8622 16.774C62.0208 16.3353 62.1002 15.822 62.1002 15.234C62.1002 14.6367 62.0208 14.128 61.8622 13.708C61.7035 13.288 61.4608 12.966 61.1342 12.742C60.8168 12.5087 60.4015 12.392 59.8882 12.392C59.1228 12.392 58.5675 12.644 58.2222 13.148C57.8768 13.652 57.7042 14.3473 57.7042 15.234ZM68.8267 11.356C68.9667 11.356 69.1161 11.3653 69.2747 11.384C69.4427 11.3933 69.5874 11.412 69.7087 11.44L69.5547 12.574C69.4334 12.546 69.2981 12.5227 69.1487 12.504C69.0087 12.4853 68.8734 12.476 68.7427 12.476C68.4534 12.476 68.1781 12.5367 67.9167 12.658C67.6554 12.7793 67.4221 12.952 67.2167 13.176C67.0114 13.3907 66.8481 13.652 66.7267 13.96C66.6147 14.268 66.5587 14.6133 66.5587 14.996V19H65.3267V11.496H66.3347L66.4747 12.868H66.5307C66.6894 12.588 66.8807 12.336 67.1047 12.112C67.3287 11.8787 67.5854 11.6967 67.8747 11.566C68.1641 11.426 68.4814 11.356 68.8267 11.356ZM79.3419 11.356C80.1913 11.356 80.8259 11.5753 81.2459 12.014C81.6659 12.4433 81.8759 13.1433 81.8759 14.114V19H80.6579V14.17C80.6579 13.582 80.5319 13.1387 80.2799 12.84C80.0373 12.5413 79.6546 12.392 79.1319 12.392C78.4039 12.392 77.8813 12.602 77.5639 13.022C77.2559 13.442 77.1019 14.0533 77.1019 14.856V19H75.8839V14.17C75.8839 13.778 75.8279 13.4513 75.7159 13.19C75.6039 12.9193 75.4359 12.7187 75.2119 12.588C74.9879 12.4573 74.6986 12.392 74.3439 12.392C73.8399 12.392 73.4433 12.4993 73.1539 12.714C72.8646 12.9193 72.6546 13.2227 72.5239 13.624C72.4026 14.0253 72.3419 14.52 72.3419 15.108V19H71.1099V11.496H72.1039L72.2859 12.518H72.3559C72.5146 12.2567 72.7059 12.042 72.9299 11.874C73.1633 11.6967 73.4199 11.566 73.6999 11.482C73.9799 11.398 74.2693 11.356 74.5679 11.356C75.1466 11.356 75.6273 11.4587 76.0099 11.664C76.4019 11.8693 76.6866 12.1867 76.8639 12.616H76.9339C77.1859 12.1867 77.5266 11.8693 77.9559 11.664C78.3946 11.4587 78.8566 11.356 79.3419 11.356ZM87.0359 11.37C87.9506 11.37 88.6272 11.5707 89.0659 11.972C89.5046 12.3733 89.7239 13.0127 89.7239 13.89V19H88.8279L88.5899 17.936H88.5339C88.3192 18.2067 88.0952 18.4353 87.8619 18.622C87.6379 18.7993 87.3766 18.93 87.0779 19.014C86.7886 19.098 86.4339 19.14 86.0139 19.14C85.5659 19.14 85.1599 19.0607 84.7959 18.902C84.4412 18.7433 84.1612 18.5007 83.9559 18.174C83.7506 17.838 83.6479 17.418 83.6479 16.914C83.6479 16.1673 83.9419 15.5933 84.5299 15.192C85.1179 14.7813 86.0232 14.5573 87.2459 14.52L88.5199 14.478V14.03C88.5199 13.4047 88.3846 12.9707 88.1139 12.728C87.8432 12.4853 87.4606 12.364 86.9659 12.364C86.5739 12.364 86.2006 12.4247 85.8459 12.546C85.4912 12.658 85.1599 12.7887 84.8519 12.938L84.4739 12.014C84.8006 11.8367 85.1879 11.6873 85.6359 11.566C86.0839 11.4353 86.5506 11.37 87.0359 11.37ZM87.3999 15.374C86.4666 15.4113 85.8179 15.5607 85.4539 15.822C85.0992 16.0833 84.9219 16.452 84.9219 16.928C84.9219 17.348 85.0479 17.656 85.2999 17.852C85.5612 18.048 85.8926 18.146 86.2939 18.146C86.9286 18.146 87.4559 17.9733 87.8759 17.628C88.2959 17.2733 88.5059 16.732 88.5059 16.004V15.332L87.3999 15.374ZM93.2736 19H92.0416V8.36H93.2736V19Z" fill="#212529"/>
<path d="M105 16.9998L100 11.9998L100.7 11.2998L105 15.5998L109.3 11.2998L110 11.9998L105 16.9998Z" fill="#212529"/>
</svg>
