<svg width="12" height="11" viewBox="0 0 12 11" fill="none" xmlns="http://www.w3.org/2000/svg">
<path d="M0.499824 10.1442C0.558439 9.87206 0.617054 9.59992 0.671481 9.32778C0.80127 8.67465 0.931058 8.02152 1.06085 7.36839C1.12365 7.05857 1.37066 6.89529 1.68048 6.95809C2.59738 7.13812 3.51427 7.32233 4.42698 7.50236C4.67819 7.5526 4.84565 7.74519 4.85822 7.98384C4.86659 8.20992 4.71587 8.42345 4.48978 8.47787C4.40186 8.49881 4.30138 8.49462 4.21346 8.47787C3.69849 8.38158 3.18771 8.27691 2.67693 8.17224C2.64762 8.16805 2.6225 8.16806 2.55551 8.15968C2.6853 8.30622 2.78997 8.43601 2.9072 8.55323C3.61476 9.26498 4.46885 9.69621 5.46948 9.81344C6.65432 9.95579 7.72613 9.65435 8.67652 8.93004C9.23335 8.50299 9.65621 7.96291 9.95347 7.32234C9.98278 7.25953 10.0163 7.19255 10.0581 7.13393C10.213 6.93297 10.4852 6.88273 10.7029 7.01252C10.9206 7.13812 11.0127 7.40188 10.9039 7.63634C10.7866 7.88754 10.6652 8.13456 10.5187 8.36483C9.89067 9.3529 9.0282 10.0605 7.94384 10.4833C6.96414 10.8643 5.94677 10.9522 4.91683 10.7345C3.6943 10.4749 2.68111 9.8595 1.87726 8.90073C1.85633 8.87561 1.83539 8.85468 1.8019 8.81281C1.76003 9.01377 1.72235 9.1938 1.68886 9.37802C1.62606 9.68365 1.57163 9.98928 1.50464 10.2949C1.44603 10.5712 1.27856 10.7303 1.03154 10.7429C0.797082 10.7555 0.575186 10.6005 0.516572 10.3577C0.516572 10.3535 0.508199 10.3452 0.504012 10.341C0.499825 10.2698 0.499824 10.207 0.499824 10.1442Z" fill="black"/>
<path d="M10.209 2.18992C10.3053 1.69169 10.4058 1.21859 10.4937 0.741305C10.5356 0.511034 10.6403 0.339378 10.8789 0.276577C11.2348 0.184469 11.5613 0.490101 11.4902 0.858533C11.3855 1.39862 11.2766 1.93871 11.1678 2.4788C11.0924 2.85979 11.0171 3.2366 10.9417 3.6134C10.8789 3.93578 10.6361 4.10325 10.3137 4.04045C9.3968 3.86042 8.48409 3.68039 7.5672 3.49618C7.26994 3.43756 7.09828 3.18217 7.15271 2.90585C7.21132 2.62115 7.46671 2.45787 7.76816 2.51648C8.27894 2.61696 8.79391 2.72163 9.30469 2.82211C9.33818 2.83049 9.37168 2.83049 9.42192 2.81374C9.31725 2.69651 9.22096 2.57509 9.1121 2.46624C8.1659 1.52422 7.02292 1.0595 5.69154 1.16835C4.05453 1.30233 2.84875 2.1313 2.09095 3.59666C2.05745 3.65946 2.03233 3.72645 1.99465 3.78925C1.86068 4.03626 1.58016 4.12837 1.33315 4.01114C1.0945 3.8981 0.981462 3.60084 1.10288 3.35383C1.21592 3.111 1.33733 2.86817 1.47968 2.64627C2.18724 1.53678 3.17112 0.770611 4.42714 0.393805C6.0181 -0.0834825 7.52533 0.138415 8.93207 1.03438C9.39261 1.32745 9.79454 1.69588 10.142 2.12293C10.1588 2.13967 10.1755 2.15642 10.209 2.18992Z" fill="black"/>
</svg>
