<svg width="37" height="36" viewBox="0 0 37 36" fill="none" xmlns="http://www.w3.org/2000/svg">
<path d="M22.3777 17.218C22.7162 17.218 22.9906 16.9484 22.9906 16.6158C22.9906 16.2833 22.7162 16.0137 22.3777 16.0137C22.0392 16.0137 21.7648 16.2833 21.7648 16.6158C21.7648 16.9484 22.0392 17.218 22.3777 17.218Z" fill="#456573"/>
<path d="M26.2452 13.9022C26.2413 13.7422 26.2297 12.8885 25.5276 12.1987C25.4112 12.0843 24.7867 11.4936 23.7936 11.4936H22.9906V10.9029C22.9906 10.5751 22.7307 10.2969 22.401 10.2855C22.0519 10.2741 21.7648 10.5485 21.7648 10.8877V11.4898H18.9718V10.9029C18.9718 10.5751 18.7119 10.2969 18.3822 10.2855C18.0331 10.2741 17.746 10.5485 17.746 10.8877V11.4898H14.984V10.9029C14.984 10.5751 14.7241 10.2969 14.3944 10.2855C14.0453 10.2741 13.7582 10.5485 13.7582 10.8877V11.4898H12.9902C11.6363 11.4898 10.5347 12.5683 10.5347 13.9022V23.3042C10.5347 23.4643 10.5502 24.3179 11.2523 25.0077C11.807 25.5527 12.5285 25.6633 12.9863 25.7128C15.0422 25.7128 17.8352 25.709 23.7354 25.7128C23.844 25.7166 25.066 25.7433 25.7487 24.8896C26.2375 24.2798 26.2724 23.4414 26.2762 23.3614C26.2762 23.3232 26.2762 23.2928 26.2762 23.2737C26.2918 20.1181 26.2879 17.0769 26.2452 13.9022ZM11.7644 23.308V13.9022C11.7644 13.2353 12.3152 12.6979 12.9902 12.6979H13.7582V13.2848C13.7582 13.6126 14.0181 13.8908 14.3479 13.9022C14.697 13.9137 14.984 13.6393 14.984 13.3001V12.6979H17.746V13.2848C17.746 13.6126 18.0059 13.8908 18.3356 13.9022C18.6848 13.9137 18.9718 13.6393 18.9718 13.3001V12.6979H21.7648V13.2848C21.7648 13.6126 22.0247 13.8908 22.3544 13.9022C22.7036 13.9137 22.9906 13.6393 22.9906 13.3001V12.6979H23.7897C24.4686 12.6979 25.0155 13.2391 25.0155 13.9022V23.3347C25.0155 23.9826 24.4802 24.5085 23.8207 24.5085H12.994C12.3152 24.5123 11.7644 23.9711 11.7644 23.308Z" fill="#456573"/>
<path d="M19.7089 17.218C20.0474 17.218 20.3218 16.9484 20.3218 16.6158C20.3218 16.2833 20.0474 16.0137 19.7089 16.0137C19.3704 16.0137 19.0959 16.2833 19.0959 16.6158C19.0959 16.9484 19.3704 17.218 19.7089 17.218Z" fill="#456573"/>
<path d="M17.04 19.84C17.3785 19.84 17.6529 19.5705 17.6529 19.2379C17.6529 18.9053 17.3785 18.6357 17.04 18.6357C16.7015 18.6357 16.4271 18.9053 16.4271 19.2379C16.4271 19.5705 16.7015 19.84 17.04 19.84Z" fill="#456573"/>
<path d="M14.3711 17.218C14.7096 17.218 14.984 16.9484 14.984 16.6158C14.984 16.2833 14.7096 16.0137 14.3711 16.0137C14.0326 16.0137 13.7582 16.2833 13.7582 16.6158C13.7582 16.9484 14.0326 17.218 14.3711 17.218Z" fill="#456573"/>
<path d="M14.3711 19.84C14.7096 19.84 14.984 19.5705 14.984 19.2379C14.984 18.9053 14.7096 18.6357 14.3711 18.6357C14.0326 18.6357 13.7582 18.9053 13.7582 19.2379C13.7582 19.5705 14.0326 19.84 14.3711 19.84Z" fill="#456573"/>
<path d="M14.3711 22.4621C14.7096 22.4621 14.984 22.1925 14.984 21.86C14.984 21.5274 14.7096 21.2578 14.3711 21.2578C14.0326 21.2578 13.7582 21.5274 13.7582 21.86C13.7582 22.1925 14.0326 22.4621 14.3711 22.4621Z" fill="#456573"/>
<path d="M17.04 22.4621C17.3785 22.4621 17.6529 22.1925 17.6529 21.86C17.6529 21.5274 17.3785 21.2578 17.04 21.2578C16.7015 21.2578 16.4271 21.5274 16.4271 21.86C16.4271 22.1925 16.7015 22.4621 17.04 22.4621Z" fill="#456573"/>
<path d="M17.04 17.218C17.3785 17.218 17.6529 16.9484 17.6529 16.6158C17.6529 16.2833 17.3785 16.0137 17.04 16.0137C16.7015 16.0137 16.4271 16.2833 16.4271 16.6158C16.4271 16.9484 16.7015 17.218 17.04 17.218Z" fill="#456573"/>
<path d="M22.3777 19.84C22.7162 19.84 22.9906 19.5705 22.9906 19.2379C22.9906 18.9053 22.7162 18.6357 22.3777 18.6357C22.0392 18.6357 21.7648 18.9053 21.7648 19.2379C21.7648 19.5705 22.0392 19.84 22.3777 19.84Z" fill="#456573"/>
<path d="M19.7089 19.84C20.0474 19.84 20.3218 19.5705 20.3218 19.2379C20.3218 18.9053 20.0474 18.6357 19.7089 18.6357C19.3704 18.6357 19.0959 18.9053 19.0959 19.2379C19.0959 19.5705 19.3704 19.84 19.7089 19.84Z" fill="#456573"/>
<path d="M19.7089 22.4621C20.0474 22.4621 20.3218 22.1925 20.3218 21.86C20.3218 21.5274 20.0474 21.2578 19.7089 21.2578C19.3704 21.2578 19.0959 21.5274 19.0959 21.86C19.0959 22.1925 19.3704 22.4621 19.7089 22.4621Z" fill="#456573"/>
<path d="M22.3777 22.4621C22.7162 22.4621 22.9906 22.1925 22.9906 21.86C22.9906 21.5274 22.7162 21.2578 22.3777 21.2578C22.0392 21.2578 21.7648 21.5274 21.7648 21.86C21.7648 22.1925 22.0392 22.4621 22.3777 22.4621Z" fill="#456573"/>
<path d="M36.3082 18C36.3082 27.7136 28.2912 35.6 18.3867 35.6C8.4823 35.6 0.465308 27.7136 0.465308 18C0.465308 8.28643 8.4823 0.4 18.3867 0.4C28.2912 0.4 36.3082 8.28643 36.3082 18Z" stroke="#456573" stroke-width="0.8"/>
</svg>
