<svg width="17" height="17" viewBox="0 0 17 17" fill="none" xmlns="http://www.w3.org/2000/svg">
<path d="M12.5355 7.3382C12.8938 7.3382 13.1842 7.05285 13.1842 6.70084C13.1842 6.34883 12.8938 6.06348 12.5355 6.06348C12.1772 6.06348 11.8867 6.34883 11.8867 6.70084C11.8867 7.05285 12.1772 7.3382 12.5355 7.3382Z" fill="#456573"/>
<path d="M16.6292 3.82858C16.6251 3.65915 16.6128 2.75555 15.8696 2.02541C15.7464 1.90439 15.0854 1.27913 14.0342 1.27913H13.1843V0.653864C13.1843 0.306945 12.9092 0.0124668 12.5602 0.000364949C12.1907 -0.0117369 11.8868 0.278707 11.8868 0.637729V1.27509H8.93051V0.653864C8.93051 0.306945 8.65541 0.0124668 8.3064 0.000364949C7.93686 -0.0117369 7.63302 0.278707 7.63302 0.637729V1.27509H4.70956V0.653864C4.70956 0.306945 4.43446 0.0124668 4.08545 0.000364949C3.71591 -0.0117369 3.41207 0.278707 3.41207 0.637729V1.27509H2.59909C1.1661 1.27509 0 2.4167 0 3.82858V13.7803C0 13.9498 0.0164239 14.8534 0.759607 15.5835C1.34676 16.1604 2.11047 16.2773 2.59498 16.3298C4.77115 16.3298 7.72746 16.3257 13.9727 16.3298C14.0876 16.3338 15.381 16.3621 16.1037 15.4584C16.621 14.813 16.658 13.9255 16.6621 13.8408C16.6621 13.8005 16.6621 13.7682 16.6621 13.7481C16.6785 10.4079 16.6744 7.18886 16.6292 3.82858ZM1.3016 13.7844V3.82858C1.3016 3.12264 1.88465 2.55385 2.59909 2.55385H3.41207V3.17508C3.41207 3.522 3.68717 3.81648 4.03618 3.82858C4.40572 3.84068 4.70956 3.55024 4.70956 3.19122V2.55385H7.63302V3.17508C7.63302 3.522 7.90812 3.81648 8.25713 3.82858C8.62667 3.84068 8.93051 3.55024 8.93051 3.19122V2.55385H11.8868V3.17508C11.8868 3.522 12.1619 3.81648 12.5109 3.82858C12.8805 3.84068 13.1843 3.55024 13.1843 3.19122V2.55385H14.0301C14.7487 2.55385 15.3276 3.12667 15.3276 3.82858V13.8126C15.3276 14.4984 14.761 15.0551 14.063 15.0551H2.60319C1.88465 15.0591 1.3016 14.4863 1.3016 13.7844Z" fill="#456573"/>
<path d="M9.71051 7.3382C10.0688 7.3382 10.3593 7.05285 10.3593 6.70084C10.3593 6.34883 10.0688 6.06348 9.71051 6.06348C9.35222 6.06348 9.06177 6.34883 9.06177 6.70084C9.06177 7.05285 9.35222 7.3382 9.71051 7.3382Z" fill="#456573"/>
<path d="M6.88581 10.1136C7.2441 10.1136 7.53455 9.82824 7.53455 9.47623C7.53455 9.12422 7.2441 8.83887 6.88581 8.83887C6.52751 8.83887 6.23706 9.12422 6.23706 9.47623C6.23706 9.82824 6.52751 10.1136 6.88581 10.1136Z" fill="#456573"/>
<path d="M4.06085 7.3382C4.41915 7.3382 4.7096 7.05285 4.7096 6.70084C4.7096 6.34883 4.41915 6.06348 4.06085 6.06348C3.70256 6.06348 3.41211 6.34883 3.41211 6.70084C3.41211 7.05285 3.70256 7.3382 4.06085 7.3382Z" fill="#456573"/>
<path d="M4.06085 10.1136C4.41915 10.1136 4.7096 9.82824 4.7096 9.47623C4.7096 9.12422 4.41915 8.83887 4.06085 8.83887C3.70256 8.83887 3.41211 9.12422 3.41211 9.47623C3.41211 9.82824 3.70256 10.1136 4.06085 10.1136Z" fill="#456573"/>
<path d="M4.06085 12.889C4.41915 12.889 4.7096 12.6036 4.7096 12.2516C4.7096 11.8996 4.41915 11.6143 4.06085 11.6143C3.70256 11.6143 3.41211 11.8996 3.41211 12.2516C3.41211 12.6036 3.70256 12.889 4.06085 12.889Z" fill="#456573"/>
<path d="M6.88581 12.889C7.2441 12.889 7.53455 12.6036 7.53455 12.2516C7.53455 11.8996 7.2441 11.6143 6.88581 11.6143C6.52751 11.6143 6.23706 11.8996 6.23706 12.2516C6.23706 12.6036 6.52751 12.889 6.88581 12.889Z" fill="#456573"/>
<path d="M6.88581 7.3382C7.2441 7.3382 7.53455 7.05285 7.53455 6.70084C7.53455 6.34883 7.2441 6.06348 6.88581 6.06348C6.52751 6.06348 6.23706 6.34883 6.23706 6.70084C6.23706 7.05285 6.52751 7.3382 6.88581 7.3382Z" fill="#456573"/>
<path d="M12.5355 10.1136C12.8938 10.1136 13.1842 9.82824 13.1842 9.47623C13.1842 9.12422 12.8938 8.83887 12.5355 8.83887C12.1772 8.83887 11.8867 9.12422 11.8867 9.47623C11.8867 9.82824 12.1772 10.1136 12.5355 10.1136Z" fill="#456573"/>
<path d="M9.71051 10.1136C10.0688 10.1136 10.3593 9.82824 10.3593 9.47623C10.3593 9.12422 10.0688 8.83887 9.71051 8.83887C9.35222 8.83887 9.06177 9.12422 9.06177 9.47623C9.06177 9.82824 9.35222 10.1136 9.71051 10.1136Z" fill="#456573"/>
<path d="M9.71051 12.889C10.0688 12.889 10.3593 12.6036 10.3593 12.2516C10.3593 11.8996 10.0688 11.6143 9.71051 11.6143C9.35222 11.6143 9.06177 11.8996 9.06177 12.2516C9.06177 12.6036 9.35222 12.889 9.71051 12.889Z" fill="#456573"/>
<path d="M12.5355 12.889C12.8938 12.889 13.1842 12.6036 13.1842 12.2516C13.1842 11.8996 12.8938 11.6143 12.5355 11.6143C12.1772 11.6143 11.8867 11.8996 11.8867 12.2516C11.8867 12.6036 12.1772 12.889 12.5355 12.889Z" fill="#456573"/>
</svg>
