<svg width="21" height="22" viewBox="0 0 21 22" fill="none" xmlns="http://www.w3.org/2000/svg">
<path d="M0 21.0698C0.123197 20.6147 0.23955 20.1869 0.359325 19.7592C0.715227 18.4588 1.07113 17.1549 1.43388 15.8545C1.47152 15.7176 1.45783 15.6115 1.38939 15.4849C-0.804202 11.4844 -0.201906 6.59078 2.93962 3.28841C5.23245 0.875805 8.07967 -0.222702 11.3991 0.0373809C16.1799 0.410394 20.0435 3.97284 20.8511 8.69539C21.8264 14.3933 17.9046 19.8653 12.1965 20.7584C9.91051 21.1178 7.73745 20.755 5.67733 19.701C5.59177 19.6565 5.46858 19.6462 5.37618 19.6702C3.63431 20.1219 1.89244 20.5771 0.150574 21.0356C0.11293 21.0425 0.075287 21.0527 0 21.0698ZM2.51869 18.5785C2.5974 18.5614 2.63847 18.5546 2.68296 18.5443C3.62062 18.3013 4.55829 18.0618 5.49253 17.8051C5.71497 17.7435 5.88608 17.7709 6.08114 17.8873C7.80248 18.9105 9.6607 19.3006 11.6455 19.0542C16.4331 18.4588 19.8416 13.9792 19.1434 9.20871C18.2092 2.87091 10.9988 -0.325366 5.69102 3.24735C2.80958 5.1877 1.36201 8.6509 2.0088 12.0594C2.22439 13.2058 2.66242 14.2632 3.29894 15.2351C3.36738 15.3378 3.38449 15.4302 3.34685 15.5534C3.24076 15.9093 3.14837 16.2652 3.04913 16.6245C2.8746 17.2644 2.70007 17.9044 2.51869 18.5785Z" fill="#32CD32"/>
<path d="M7.08452 5.61527C7.12558 5.61527 7.16323 5.6187 7.20429 5.61527C7.58757 5.57763 7.81001 5.76927 7.95032 6.10806C8.21382 6.76169 8.49786 7.40847 8.75452 8.06552C8.80243 8.18872 8.80243 8.38036 8.74083 8.48645C8.55604 8.79102 8.34044 9.07848 8.11116 9.35225C7.89557 9.61233 7.87161 9.69104 8.04956 9.98534C8.89483 11.3953 10.0755 12.4151 11.6086 13.0242C11.8379 13.1166 11.9679 13.0961 12.1253 12.9079C12.3923 12.5896 12.6558 12.2679 12.909 11.9394C13.0938 11.7033 13.1999 11.6451 13.4771 11.7649C13.963 11.9736 14.4387 12.2063 14.9178 12.4322C15.1608 12.5451 15.3969 12.6717 15.6364 12.7881C15.7802 12.8565 15.8418 12.966 15.8452 13.1269C15.8486 13.9413 15.568 14.5881 14.8391 15.033C14.0896 15.4916 13.3128 15.5292 12.4881 15.3376C10.12 14.7866 8.25147 13.4862 6.81417 11.5493C6.32138 10.8854 5.82175 10.2283 5.51033 9.45149C5.14759 8.5412 5.08599 7.62749 5.55482 6.74116C5.72251 6.42632 5.97232 6.14571 6.2153 5.87878C6.44116 5.62554 6.75942 5.58448 7.08452 5.61527Z" fill="#32CD32"/>
</svg>
